G04 #@! TF.GenerationSoftware,KiCad,Pcbnew,(6.0.1-0)*
G04 #@! TF.CreationDate,2022-01-25T00:00:44-08:00*
G04 #@! TF.ProjectId,BiasReceiver,42696173-5265-4636-9569-7665722e6b69,rev?*
G04 #@! TF.SameCoordinates,Original*
G04 #@! TF.FileFunction,Soldermask,Top*
G04 #@! TF.FilePolarity,Negative*
%FSLAX46Y46*%
G04 Gerber Fmt 4.6, Leading zero omitted, Abs format (unit mm)*
G04 Created by KiCad (PCBNEW (6.0.1-0)) date 2022-01-25 00:00:44*
%MOMM*%
%LPD*%
G01*
G04 APERTURE LIST*
G04 Aperture macros list*
%AMRoundRect*
0 Rectangle with rounded corners*
0 $1 Rounding radius*
0 $2 $3 $4 $5 $6 $7 $8 $9 X,Y pos of 4 corners*
0 Add a 4 corners polygon primitive as box body*
4,1,4,$2,$3,$4,$5,$6,$7,$8,$9,$2,$3,0*
0 Add four circle primitives for the rounded corners*
1,1,$1+$1,$2,$3*
1,1,$1+$1,$4,$5*
1,1,$1+$1,$6,$7*
1,1,$1+$1,$8,$9*
0 Add four rect primitives between the rounded corners*
20,1,$1+$1,$2,$3,$4,$5,0*
20,1,$1+$1,$4,$5,$6,$7,0*
20,1,$1+$1,$6,$7,$8,$9,0*
20,1,$1+$1,$8,$9,$2,$3,0*%
G04 Aperture macros list end*
%ADD10C,0.100000*%
%ADD11C,0.150000*%
%ADD12C,0.300000*%
%ADD13C,0.400000*%
G04 #@! TA.AperFunction,Profile*
%ADD14C,0.050000*%
G04 #@! TD*
%ADD15RoundRect,0.225000X0.225000X0.250000X-0.225000X0.250000X-0.225000X-0.250000X0.225000X-0.250000X0*%
%ADD16C,2.050000*%
%ADD17C,2.250000*%
%ADD18RoundRect,0.225000X-0.250000X0.225000X-0.250000X-0.225000X0.250000X-0.225000X0.250000X0.225000X0*%
%ADD19RoundRect,0.200000X0.200000X0.275000X-0.200000X0.275000X-0.200000X-0.275000X0.200000X-0.275000X0*%
%ADD20RoundRect,0.200000X-0.275000X0.200000X-0.275000X-0.200000X0.275000X-0.200000X0.275000X0.200000X0*%
%ADD21RoundRect,0.200000X-0.200000X-0.275000X0.200000X-0.275000X0.200000X0.275000X-0.200000X0.275000X0*%
%ADD22R,1.550000X1.300000*%
%ADD23C,2.540000*%
%ADD24RoundRect,0.150000X0.587500X0.150000X-0.587500X0.150000X-0.587500X-0.150000X0.587500X-0.150000X0*%
%ADD25RoundRect,0.225000X-0.225000X-0.250000X0.225000X-0.250000X0.225000X0.250000X-0.225000X0.250000X0*%
%ADD26RoundRect,0.250000X-0.312500X-0.625000X0.312500X-0.625000X0.312500X0.625000X-0.312500X0.625000X0*%
%ADD27RoundRect,0.150000X-0.825000X-0.150000X0.825000X-0.150000X0.825000X0.150000X-0.825000X0.150000X0*%
%ADD28R,1.700000X1.700000*%
%ADD29O,1.700000X1.700000*%
%ADD30C,1.440000*%
%ADD31C,3.200000*%
%ADD32RoundRect,0.075000X0.075000X-0.650000X0.075000X0.650000X-0.075000X0.650000X-0.075000X-0.650000X0*%
%ADD33R,1.880000X1.680000*%
%ADD34RoundRect,0.250000X0.625000X-0.312500X0.625000X0.312500X-0.625000X0.312500X-0.625000X-0.312500X0*%
%ADD35RoundRect,0.250000X-0.362500X-1.425000X0.362500X-1.425000X0.362500X1.425000X-0.362500X1.425000X0*%
%ADD36RoundRect,0.100000X0.100000X-0.625000X0.100000X0.625000X-0.100000X0.625000X-0.100000X-0.625000X0*%
%ADD37R,2.850000X1.650000*%
%ADD38RoundRect,0.200000X0.275000X-0.200000X0.275000X0.200000X-0.275000X0.200000X-0.275000X-0.200000X0*%
%ADD39RoundRect,0.249750X-1.250250X0.305250X-1.250250X-0.305250X1.250250X-0.305250X1.250250X0.305250X0*%
%ADD40RoundRect,0.100000X-0.712500X-0.100000X0.712500X-0.100000X0.712500X0.100000X-0.712500X0.100000X0*%
%ADD41R,1.846667X3.480000*%
G04 APERTURE END LIST*
D10*
D11*
X177002200Y-166007200D02*
X177002200Y-198007200D01*
X285002200Y-198007200D01*
X285002200Y-166007200D01*
X177002200Y-166007200D01*
D10*
D11*
X10000000Y-10000000D02*
X10000000Y-200007200D01*
X287002200Y-200007200D01*
X287002200Y-10000000D01*
X10000000Y-10000000D01*
D10*
D11*
X12000000Y-12000000D02*
X12000000Y-198007200D01*
X285002200Y-198007200D01*
X285002200Y-12000000D01*
X12000000Y-12000000D01*
D10*
D11*
X60000000Y-12000000D02*
X60000000Y-10000000D01*
D10*
D11*
X110000000Y-12000000D02*
X110000000Y-10000000D01*
D10*
D11*
X160000000Y-12000000D02*
X160000000Y-10000000D01*
D10*
D11*
X210000000Y-12000000D02*
X210000000Y-10000000D01*
D10*
D11*
X260000000Y-12000000D02*
X260000000Y-10000000D01*
D10*
D11*
X36065476Y-11588095D02*
X35322619Y-11588095D01*
X35694047Y-11588095D02*
X35694047Y-10288095D01*
X35570238Y-10473809D01*
X35446428Y-10597619D01*
X35322619Y-10659523D01*
D10*
D11*
X85322619Y-10411904D02*
X85384523Y-10350000D01*
X85508333Y-10288095D01*
X85817857Y-10288095D01*
X85941666Y-10350000D01*
X86003571Y-10411904D01*
X86065476Y-10535714D01*
X86065476Y-10659523D01*
X86003571Y-10845238D01*
X85260714Y-11588095D01*
X86065476Y-11588095D01*
D10*
D11*
X135260714Y-10288095D02*
X136065476Y-10288095D01*
X135632142Y-10783333D01*
X135817857Y-10783333D01*
X135941666Y-10845238D01*
X136003571Y-10907142D01*
X136065476Y-11030952D01*
X136065476Y-11340476D01*
X136003571Y-11464285D01*
X135941666Y-11526190D01*
X135817857Y-11588095D01*
X135446428Y-11588095D01*
X135322619Y-11526190D01*
X135260714Y-11464285D01*
D10*
D11*
X185941666Y-10721428D02*
X185941666Y-11588095D01*
X185632142Y-10226190D02*
X185322619Y-11154761D01*
X186127380Y-11154761D01*
D10*
D11*
X236003571Y-10288095D02*
X235384523Y-10288095D01*
X235322619Y-10907142D01*
X235384523Y-10845238D01*
X235508333Y-10783333D01*
X235817857Y-10783333D01*
X235941666Y-10845238D01*
X236003571Y-10907142D01*
X236065476Y-11030952D01*
X236065476Y-11340476D01*
X236003571Y-11464285D01*
X235941666Y-11526190D01*
X235817857Y-11588095D01*
X235508333Y-11588095D01*
X235384523Y-11526190D01*
X235322619Y-11464285D01*
D10*
D11*
X285941666Y-10288095D02*
X285694047Y-10288095D01*
X285570238Y-10350000D01*
X285508333Y-10411904D01*
X285384523Y-10597619D01*
X285322619Y-10845238D01*
X285322619Y-11340476D01*
X285384523Y-11464285D01*
X285446428Y-11526190D01*
X285570238Y-11588095D01*
X285817857Y-11588095D01*
X285941666Y-11526190D01*
X286003571Y-11464285D01*
X286065476Y-11340476D01*
X286065476Y-11030952D01*
X286003571Y-10907142D01*
X285941666Y-10845238D01*
X285817857Y-10783333D01*
X285570238Y-10783333D01*
X285446428Y-10845238D01*
X285384523Y-10907142D01*
X285322619Y-11030952D01*
D10*
D11*
X60000000Y-198007200D02*
X60000000Y-200007200D01*
D10*
D11*
X110000000Y-198007200D02*
X110000000Y-200007200D01*
D10*
D11*
X160000000Y-198007200D02*
X160000000Y-200007200D01*
D10*
D11*
X210000000Y-198007200D02*
X210000000Y-200007200D01*
D10*
D11*
X260000000Y-198007200D02*
X260000000Y-200007200D01*
D10*
D11*
X36065476Y-199595295D02*
X35322619Y-199595295D01*
X35694047Y-199595295D02*
X35694047Y-198295295D01*
X35570238Y-198481009D01*
X35446428Y-198604819D01*
X35322619Y-198666723D01*
D10*
D11*
X85322619Y-198419104D02*
X85384523Y-198357200D01*
X85508333Y-198295295D01*
X85817857Y-198295295D01*
X85941666Y-198357200D01*
X86003571Y-198419104D01*
X86065476Y-198542914D01*
X86065476Y-198666723D01*
X86003571Y-198852438D01*
X85260714Y-199595295D01*
X86065476Y-199595295D01*
D10*
D11*
X135260714Y-198295295D02*
X136065476Y-198295295D01*
X135632142Y-198790533D01*
X135817857Y-198790533D01*
X135941666Y-198852438D01*
X136003571Y-198914342D01*
X136065476Y-199038152D01*
X136065476Y-199347676D01*
X136003571Y-199471485D01*
X135941666Y-199533390D01*
X135817857Y-199595295D01*
X135446428Y-199595295D01*
X135322619Y-199533390D01*
X135260714Y-199471485D01*
D10*
D11*
X185941666Y-198728628D02*
X185941666Y-199595295D01*
X185632142Y-198233390D02*
X185322619Y-199161961D01*
X186127380Y-199161961D01*
D10*
D11*
X236003571Y-198295295D02*
X235384523Y-198295295D01*
X235322619Y-198914342D01*
X235384523Y-198852438D01*
X235508333Y-198790533D01*
X235817857Y-198790533D01*
X235941666Y-198852438D01*
X236003571Y-198914342D01*
X236065476Y-199038152D01*
X236065476Y-199347676D01*
X236003571Y-199471485D01*
X235941666Y-199533390D01*
X235817857Y-199595295D01*
X235508333Y-199595295D01*
X235384523Y-199533390D01*
X235322619Y-199471485D01*
D10*
D11*
X285941666Y-198295295D02*
X285694047Y-198295295D01*
X285570238Y-198357200D01*
X285508333Y-198419104D01*
X285384523Y-198604819D01*
X285322619Y-198852438D01*
X285322619Y-199347676D01*
X285384523Y-199471485D01*
X285446428Y-199533390D01*
X285570238Y-199595295D01*
X285817857Y-199595295D01*
X285941666Y-199533390D01*
X286003571Y-199471485D01*
X286065476Y-199347676D01*
X286065476Y-199038152D01*
X286003571Y-198914342D01*
X285941666Y-198852438D01*
X285817857Y-198790533D01*
X285570238Y-198790533D01*
X285446428Y-198852438D01*
X285384523Y-198914342D01*
X285322619Y-199038152D01*
D10*
D11*
X10000000Y-60000000D02*
X12000000Y-60000000D01*
D10*
D11*
X10000000Y-110000000D02*
X12000000Y-110000000D01*
D10*
D11*
X10000000Y-160000000D02*
X12000000Y-160000000D01*
D10*
D11*
X10690476Y-35216666D02*
X11309523Y-35216666D01*
X10566666Y-35588095D02*
X11000000Y-34288095D01*
X11433333Y-35588095D01*
D10*
D11*
X11092857Y-84907142D02*
X11278571Y-84969047D01*
X11340476Y-85030952D01*
X11402380Y-85154761D01*
X11402380Y-85340476D01*
X11340476Y-85464285D01*
X11278571Y-85526190D01*
X11154761Y-85588095D01*
X10659523Y-85588095D01*
X10659523Y-84288095D01*
X11092857Y-84288095D01*
X11216666Y-84350000D01*
X11278571Y-84411904D01*
X11340476Y-84535714D01*
X11340476Y-84659523D01*
X11278571Y-84783333D01*
X11216666Y-84845238D01*
X11092857Y-84907142D01*
X10659523Y-84907142D01*
D10*
D11*
X11402380Y-135464285D02*
X11340476Y-135526190D01*
X11154761Y-135588095D01*
X11030952Y-135588095D01*
X10845238Y-135526190D01*
X10721428Y-135402380D01*
X10659523Y-135278571D01*
X10597619Y-135030952D01*
X10597619Y-134845238D01*
X10659523Y-134597619D01*
X10721428Y-134473809D01*
X10845238Y-134350000D01*
X11030952Y-134288095D01*
X11154761Y-134288095D01*
X11340476Y-134350000D01*
X11402380Y-134411904D01*
D10*
D11*
X10659523Y-185588095D02*
X10659523Y-184288095D01*
X10969047Y-184288095D01*
X11154761Y-184350000D01*
X11278571Y-184473809D01*
X11340476Y-184597619D01*
X11402380Y-184845238D01*
X11402380Y-185030952D01*
X11340476Y-185278571D01*
X11278571Y-185402380D01*
X11154761Y-185526190D01*
X10969047Y-185588095D01*
X10659523Y-185588095D01*
D10*
D11*
X287002200Y-60000000D02*
X285002200Y-60000000D01*
D10*
D11*
X287002200Y-110000000D02*
X285002200Y-110000000D01*
D10*
D11*
X287002200Y-160000000D02*
X285002200Y-160000000D01*
D10*
D11*
X285692676Y-35216666D02*
X286311723Y-35216666D01*
X285568866Y-35588095D02*
X286002200Y-34288095D01*
X286435533Y-35588095D01*
D10*
D11*
X286095057Y-84907142D02*
X286280771Y-84969047D01*
X286342676Y-85030952D01*
X286404580Y-85154761D01*
X286404580Y-85340476D01*
X286342676Y-85464285D01*
X286280771Y-85526190D01*
X286156961Y-85588095D01*
X285661723Y-85588095D01*
X285661723Y-84288095D01*
X286095057Y-84288095D01*
X286218866Y-84350000D01*
X286280771Y-84411904D01*
X286342676Y-84535714D01*
X286342676Y-84659523D01*
X286280771Y-84783333D01*
X286218866Y-84845238D01*
X286095057Y-84907142D01*
X285661723Y-84907142D01*
D10*
D11*
X286404580Y-135464285D02*
X286342676Y-135526190D01*
X286156961Y-135588095D01*
X286033152Y-135588095D01*
X285847438Y-135526190D01*
X285723628Y-135402380D01*
X285661723Y-135278571D01*
X285599819Y-135030952D01*
X285599819Y-134845238D01*
X285661723Y-134597619D01*
X285723628Y-134473809D01*
X285847438Y-134350000D01*
X286033152Y-134288095D01*
X286156961Y-134288095D01*
X286342676Y-134350000D01*
X286404580Y-134411904D01*
D10*
D11*
X285661723Y-185588095D02*
X285661723Y-184288095D01*
X285971247Y-184288095D01*
X286156961Y-184350000D01*
X286280771Y-184473809D01*
X286342676Y-184597619D01*
X286404580Y-184845238D01*
X286404580Y-185030952D01*
X286342676Y-185278571D01*
X286280771Y-185402380D01*
X286156961Y-185526190D01*
X285971247Y-185588095D01*
X285661723Y-185588095D01*
D10*
D11*
X200434342Y-193785771D02*
X200434342Y-192285771D01*
X200791485Y-192285771D01*
X201005771Y-192357200D01*
X201148628Y-192500057D01*
X201220057Y-192642914D01*
X201291485Y-192928628D01*
X201291485Y-193142914D01*
X201220057Y-193428628D01*
X201148628Y-193571485D01*
X201005771Y-193714342D01*
X200791485Y-193785771D01*
X200434342Y-193785771D01*
X202577200Y-193785771D02*
X202577200Y-193000057D01*
X202505771Y-192857200D01*
X202362914Y-192785771D01*
X202077200Y-192785771D01*
X201934342Y-192857200D01*
X202577200Y-193714342D02*
X202434342Y-193785771D01*
X202077200Y-193785771D01*
X201934342Y-193714342D01*
X201862914Y-193571485D01*
X201862914Y-193428628D01*
X201934342Y-193285771D01*
X202077200Y-193214342D01*
X202434342Y-193214342D01*
X202577200Y-193142914D01*
X203077200Y-192785771D02*
X203648628Y-192785771D01*
X203291485Y-192285771D02*
X203291485Y-193571485D01*
X203362914Y-193714342D01*
X203505771Y-193785771D01*
X203648628Y-193785771D01*
X204720057Y-193714342D02*
X204577200Y-193785771D01*
X204291485Y-193785771D01*
X204148628Y-193714342D01*
X204077200Y-193571485D01*
X204077200Y-193000057D01*
X204148628Y-192857200D01*
X204291485Y-192785771D01*
X204577200Y-192785771D01*
X204720057Y-192857200D01*
X204791485Y-193000057D01*
X204791485Y-193142914D01*
X204077200Y-193285771D01*
X205434342Y-193642914D02*
X205505771Y-193714342D01*
X205434342Y-193785771D01*
X205362914Y-193714342D01*
X205434342Y-193642914D01*
X205434342Y-193785771D01*
X205434342Y-192857200D02*
X205505771Y-192928628D01*
X205434342Y-193000057D01*
X205362914Y-192928628D01*
X205434342Y-192857200D01*
X205434342Y-193000057D01*
X207220057Y-192428628D02*
X207291485Y-192357200D01*
X207434342Y-192285771D01*
X207791485Y-192285771D01*
X207934342Y-192357200D01*
X208005771Y-192428628D01*
X208077200Y-192571485D01*
X208077200Y-192714342D01*
X208005771Y-192928628D01*
X207148628Y-193785771D01*
X208077200Y-193785771D01*
X209005771Y-192285771D02*
X209148628Y-192285771D01*
X209291485Y-192357200D01*
X209362914Y-192428628D01*
X209434342Y-192571485D01*
X209505771Y-192857200D01*
X209505771Y-193214342D01*
X209434342Y-193500057D01*
X209362914Y-193642914D01*
X209291485Y-193714342D01*
X209148628Y-193785771D01*
X209005771Y-193785771D01*
X208862914Y-193714342D01*
X208791485Y-193642914D01*
X208720057Y-193500057D01*
X208648628Y-193214342D01*
X208648628Y-192857200D01*
X208720057Y-192571485D01*
X208791485Y-192428628D01*
X208862914Y-192357200D01*
X209005771Y-192285771D01*
X210077200Y-192428628D02*
X210148628Y-192357200D01*
X210291485Y-192285771D01*
X210648628Y-192285771D01*
X210791485Y-192357200D01*
X210862914Y-192428628D01*
X210934342Y-192571485D01*
X210934342Y-192714342D01*
X210862914Y-192928628D01*
X210005771Y-193785771D01*
X210934342Y-193785771D01*
X212362914Y-193785771D02*
X211505771Y-193785771D01*
X211934342Y-193785771D02*
X211934342Y-192285771D01*
X211791485Y-192500057D01*
X211648628Y-192642914D01*
X211505771Y-192714342D01*
X213005771Y-193214342D02*
X214148628Y-193214342D01*
X215148628Y-192285771D02*
X215291485Y-192285771D01*
X215434342Y-192357200D01*
X215505771Y-192428628D01*
X215577200Y-192571485D01*
X215648628Y-192857200D01*
X215648628Y-193214342D01*
X215577200Y-193500057D01*
X215505771Y-193642914D01*
X215434342Y-193714342D01*
X215291485Y-193785771D01*
X215148628Y-193785771D01*
X215005771Y-193714342D01*
X214934342Y-193642914D01*
X214862914Y-193500057D01*
X214791485Y-193214342D01*
X214791485Y-192857200D01*
X214862914Y-192571485D01*
X214934342Y-192428628D01*
X215005771Y-192357200D01*
X215148628Y-192285771D01*
X217077200Y-193785771D02*
X216220057Y-193785771D01*
X216648628Y-193785771D02*
X216648628Y-192285771D01*
X216505771Y-192500057D01*
X216362914Y-192642914D01*
X216220057Y-192714342D01*
X217720057Y-193214342D02*
X218862914Y-193214342D01*
X220362914Y-193785771D02*
X219505771Y-193785771D01*
X219934342Y-193785771D02*
X219934342Y-192285771D01*
X219791485Y-192500057D01*
X219648628Y-192642914D01*
X219505771Y-192714342D01*
X221648628Y-192785771D02*
X221648628Y-193785771D01*
X221291485Y-192214342D02*
X220934342Y-193285771D01*
X221862914Y-193285771D01*
D10*
D11*
X177002200Y-194507200D02*
X285002200Y-194507200D01*
D10*
D11*
X178434342Y-196585771D02*
X178434342Y-195085771D01*
X179291485Y-196585771D02*
X178648628Y-195728628D01*
X179291485Y-195085771D02*
X178434342Y-195942914D01*
X179934342Y-196585771D02*
X179934342Y-195585771D01*
X179934342Y-195085771D02*
X179862914Y-195157200D01*
X179934342Y-195228628D01*
X180005771Y-195157200D01*
X179934342Y-195085771D01*
X179934342Y-195228628D01*
X181505771Y-196442914D02*
X181434342Y-196514342D01*
X181220057Y-196585771D01*
X181077200Y-196585771D01*
X180862914Y-196514342D01*
X180720057Y-196371485D01*
X180648628Y-196228628D01*
X180577200Y-195942914D01*
X180577200Y-195728628D01*
X180648628Y-195442914D01*
X180720057Y-195300057D01*
X180862914Y-195157200D01*
X181077200Y-195085771D01*
X181220057Y-195085771D01*
X181434342Y-195157200D01*
X181505771Y-195228628D01*
X182791485Y-196585771D02*
X182791485Y-195800057D01*
X182720057Y-195657200D01*
X182577200Y-195585771D01*
X182291485Y-195585771D01*
X182148628Y-195657200D01*
X182791485Y-196514342D02*
X182648628Y-196585771D01*
X182291485Y-196585771D01*
X182148628Y-196514342D01*
X182077200Y-196371485D01*
X182077200Y-196228628D01*
X182148628Y-196085771D01*
X182291485Y-196014342D01*
X182648628Y-196014342D01*
X182791485Y-195942914D01*
X184148628Y-196585771D02*
X184148628Y-195085771D01*
X184148628Y-196514342D02*
X184005771Y-196585771D01*
X183720057Y-196585771D01*
X183577200Y-196514342D01*
X183505771Y-196442914D01*
X183434342Y-196300057D01*
X183434342Y-195871485D01*
X183505771Y-195728628D01*
X183577200Y-195657200D01*
X183720057Y-195585771D01*
X184005771Y-195585771D01*
X184148628Y-195657200D01*
X186005771Y-195800057D02*
X186505771Y-195800057D01*
X186720057Y-196585771D02*
X186005771Y-196585771D01*
X186005771Y-195085771D01*
X186720057Y-195085771D01*
X187362914Y-196442914D02*
X187434342Y-196514342D01*
X187362914Y-196585771D01*
X187291485Y-196514342D01*
X187362914Y-196442914D01*
X187362914Y-196585771D01*
X188077200Y-196585771D02*
X188077200Y-195085771D01*
X188434342Y-195085771D01*
X188648628Y-195157200D01*
X188791485Y-195300057D01*
X188862914Y-195442914D01*
X188934342Y-195728628D01*
X188934342Y-195942914D01*
X188862914Y-196228628D01*
X188791485Y-196371485D01*
X188648628Y-196514342D01*
X188434342Y-196585771D01*
X188077200Y-196585771D01*
X189577200Y-196442914D02*
X189648628Y-196514342D01*
X189577200Y-196585771D01*
X189505771Y-196514342D01*
X189577200Y-196442914D01*
X189577200Y-196585771D01*
X190220057Y-196157200D02*
X190934342Y-196157200D01*
X190077200Y-196585771D02*
X190577200Y-195085771D01*
X191077200Y-196585771D01*
X191577200Y-196442914D02*
X191648628Y-196514342D01*
X191577200Y-196585771D01*
X191505771Y-196514342D01*
X191577200Y-196442914D01*
X191577200Y-196585771D01*
X194577200Y-196585771D02*
X194577200Y-195085771D01*
X194720057Y-196014342D02*
X195148628Y-196585771D01*
X195148628Y-195585771D02*
X194577200Y-196157200D01*
X195791485Y-196585771D02*
X195791485Y-195585771D01*
X195791485Y-195085771D02*
X195720057Y-195157200D01*
X195791485Y-195228628D01*
X195862914Y-195157200D01*
X195791485Y-195085771D01*
X195791485Y-195228628D01*
X197148628Y-196514342D02*
X197005771Y-196585771D01*
X196720057Y-196585771D01*
X196577200Y-196514342D01*
X196505771Y-196442914D01*
X196434342Y-196300057D01*
X196434342Y-195871485D01*
X196505771Y-195728628D01*
X196577200Y-195657200D01*
X196720057Y-195585771D01*
X197005771Y-195585771D01*
X197148628Y-195657200D01*
X198434342Y-196585771D02*
X198434342Y-195800057D01*
X198362914Y-195657200D01*
X198220057Y-195585771D01*
X197934342Y-195585771D01*
X197791485Y-195657200D01*
X198434342Y-196514342D02*
X198291485Y-196585771D01*
X197934342Y-196585771D01*
X197791485Y-196514342D01*
X197720057Y-196371485D01*
X197720057Y-196228628D01*
X197791485Y-196085771D01*
X197934342Y-196014342D01*
X198291485Y-196014342D01*
X198434342Y-195942914D01*
X199791485Y-196585771D02*
X199791485Y-195085771D01*
X199791485Y-196514342D02*
X199648628Y-196585771D01*
X199362914Y-196585771D01*
X199220057Y-196514342D01*
X199148628Y-196442914D01*
X199077200Y-196300057D01*
X199077200Y-195871485D01*
X199148628Y-195728628D01*
X199220057Y-195657200D01*
X199362914Y-195585771D01*
X199648628Y-195585771D01*
X199791485Y-195657200D01*
X202077200Y-197157200D02*
X202005771Y-197085771D01*
X201862914Y-196871485D01*
X201791485Y-196728628D01*
X201720057Y-196514342D01*
X201648628Y-196157200D01*
X201648628Y-195871485D01*
X201720057Y-195514342D01*
X201791485Y-195300057D01*
X201862914Y-195157200D01*
X202005771Y-194942914D01*
X202077200Y-194871485D01*
X203291485Y-195085771D02*
X203005771Y-195085771D01*
X202862914Y-195157200D01*
X202791485Y-195228628D01*
X202648628Y-195442914D01*
X202577200Y-195728628D01*
X202577200Y-196300057D01*
X202648628Y-196442914D01*
X202720057Y-196514342D01*
X202862914Y-196585771D01*
X203148628Y-196585771D01*
X203291485Y-196514342D01*
X203362914Y-196442914D01*
X203434342Y-196300057D01*
X203434342Y-195942914D01*
X203362914Y-195800057D01*
X203291485Y-195728628D01*
X203148628Y-195657200D01*
X202862914Y-195657200D01*
X202720057Y-195728628D01*
X202648628Y-195800057D01*
X202577200Y-195942914D01*
X204077200Y-196442914D02*
X204148628Y-196514342D01*
X204077200Y-196585771D01*
X204005771Y-196514342D01*
X204077200Y-196442914D01*
X204077200Y-196585771D01*
X205077200Y-195085771D02*
X205220057Y-195085771D01*
X205362914Y-195157200D01*
X205434342Y-195228628D01*
X205505771Y-195371485D01*
X205577200Y-195657200D01*
X205577200Y-196014342D01*
X205505771Y-196300057D01*
X205434342Y-196442914D01*
X205362914Y-196514342D01*
X205220057Y-196585771D01*
X205077200Y-196585771D01*
X204934342Y-196514342D01*
X204862914Y-196442914D01*
X204791485Y-196300057D01*
X204720057Y-196014342D01*
X204720057Y-195657200D01*
X204791485Y-195371485D01*
X204862914Y-195228628D01*
X204934342Y-195157200D01*
X205077200Y-195085771D01*
X206220057Y-196442914D02*
X206291485Y-196514342D01*
X206220057Y-196585771D01*
X206148628Y-196514342D01*
X206220057Y-196442914D01*
X206220057Y-196585771D01*
X207720057Y-196585771D02*
X206862914Y-196585771D01*
X207291485Y-196585771D02*
X207291485Y-195085771D01*
X207148628Y-195300057D01*
X207005771Y-195442914D01*
X206862914Y-195514342D01*
X208362914Y-196014342D02*
X209505771Y-196014342D01*
X210505771Y-195085771D02*
X210648628Y-195085771D01*
X210791485Y-195157200D01*
X210862914Y-195228628D01*
X210934342Y-195371485D01*
X211005771Y-195657200D01*
X211005771Y-196014342D01*
X210934342Y-196300057D01*
X210862914Y-196442914D01*
X210791485Y-196514342D01*
X210648628Y-196585771D01*
X210505771Y-196585771D01*
X210362914Y-196514342D01*
X210291485Y-196442914D01*
X210220057Y-196300057D01*
X210148628Y-196014342D01*
X210148628Y-195657200D01*
X210220057Y-195371485D01*
X210291485Y-195228628D01*
X210362914Y-195157200D01*
X210505771Y-195085771D01*
X211505771Y-197157200D02*
X211577200Y-197085771D01*
X211720057Y-196871485D01*
X211791485Y-196728628D01*
X211862914Y-196514342D01*
X211934342Y-196157200D01*
X211934342Y-195871485D01*
X211862914Y-195514342D01*
X211791485Y-195300057D01*
X211720057Y-195157200D01*
X211577200Y-194942914D01*
X211505771Y-194871485D01*
D10*
D11*
X177002200Y-191507200D02*
X285002200Y-191507200D01*
D10*
D12*
X264411485Y-193785771D02*
X263911485Y-193071485D01*
X263554342Y-193785771D02*
X263554342Y-192285771D01*
X264125771Y-192285771D01*
X264268628Y-192357200D01*
X264340057Y-192428628D01*
X264411485Y-192571485D01*
X264411485Y-192785771D01*
X264340057Y-192928628D01*
X264268628Y-193000057D01*
X264125771Y-193071485D01*
X263554342Y-193071485D01*
X265625771Y-193714342D02*
X265482914Y-193785771D01*
X265197200Y-193785771D01*
X265054342Y-193714342D01*
X264982914Y-193571485D01*
X264982914Y-193000057D01*
X265054342Y-192857200D01*
X265197200Y-192785771D01*
X265482914Y-192785771D01*
X265625771Y-192857200D01*
X265697200Y-193000057D01*
X265697200Y-193142914D01*
X264982914Y-193285771D01*
X266197200Y-192785771D02*
X266554342Y-193785771D01*
X266911485Y-192785771D01*
X267482914Y-193642914D02*
X267554342Y-193714342D01*
X267482914Y-193785771D01*
X267411485Y-193714342D01*
X267482914Y-193642914D01*
X267482914Y-193785771D01*
X267482914Y-192857200D02*
X267554342Y-192928628D01*
X267482914Y-193000057D01*
X267411485Y-192928628D01*
X267482914Y-192857200D01*
X267482914Y-193000057D01*
D10*
D11*
X178362914Y-193714342D02*
X178577200Y-193785771D01*
X178934342Y-193785771D01*
X179077200Y-193714342D01*
X179148628Y-193642914D01*
X179220057Y-193500057D01*
X179220057Y-193357200D01*
X179148628Y-193214342D01*
X179077200Y-193142914D01*
X178934342Y-193071485D01*
X178648628Y-193000057D01*
X178505771Y-192928628D01*
X178434342Y-192857200D01*
X178362914Y-192714342D01*
X178362914Y-192571485D01*
X178434342Y-192428628D01*
X178505771Y-192357200D01*
X178648628Y-192285771D01*
X179005771Y-192285771D01*
X179220057Y-192357200D01*
X179862914Y-193785771D02*
X179862914Y-192785771D01*
X179862914Y-192285771D02*
X179791485Y-192357200D01*
X179862914Y-192428628D01*
X179934342Y-192357200D01*
X179862914Y-192285771D01*
X179862914Y-192428628D01*
X180434342Y-192785771D02*
X181220057Y-192785771D01*
X180434342Y-193785771D01*
X181220057Y-193785771D01*
X182362914Y-193714342D02*
X182220057Y-193785771D01*
X181934342Y-193785771D01*
X181791485Y-193714342D01*
X181720057Y-193571485D01*
X181720057Y-193000057D01*
X181791485Y-192857200D01*
X181934342Y-192785771D01*
X182220057Y-192785771D01*
X182362914Y-192857200D01*
X182434342Y-193000057D01*
X182434342Y-193142914D01*
X181720057Y-193285771D01*
X183077200Y-193642914D02*
X183148628Y-193714342D01*
X183077200Y-193785771D01*
X183005771Y-193714342D01*
X183077200Y-193642914D01*
X183077200Y-193785771D01*
X183077200Y-192857200D02*
X183148628Y-192928628D01*
X183077200Y-193000057D01*
X183005771Y-192928628D01*
X183077200Y-192857200D01*
X183077200Y-193000057D01*
X184862914Y-193357200D02*
X185577200Y-193357200D01*
X184720057Y-193785771D02*
X185220057Y-192285771D01*
X185720057Y-193785771D01*
X186862914Y-192785771D02*
X186862914Y-193785771D01*
X186505771Y-192214342D02*
X186148628Y-193285771D01*
X187077200Y-193285771D01*
D10*
D11*
X263434342Y-196585771D02*
X263434342Y-195085771D01*
X264791485Y-196585771D02*
X264791485Y-195085771D01*
X264791485Y-196514342D02*
X264648628Y-196585771D01*
X264362914Y-196585771D01*
X264220057Y-196514342D01*
X264148628Y-196442914D01*
X264077200Y-196300057D01*
X264077200Y-195871485D01*
X264148628Y-195728628D01*
X264220057Y-195657200D01*
X264362914Y-195585771D01*
X264648628Y-195585771D01*
X264791485Y-195657200D01*
X265505771Y-196442914D02*
X265577200Y-196514342D01*
X265505771Y-196585771D01*
X265434342Y-196514342D01*
X265505771Y-196442914D01*
X265505771Y-196585771D01*
X265505771Y-195657200D02*
X265577200Y-195728628D01*
X265505771Y-195800057D01*
X265434342Y-195728628D01*
X265505771Y-195657200D01*
X265505771Y-195800057D01*
X268148628Y-196585771D02*
X267291485Y-196585771D01*
X267720057Y-196585771D02*
X267720057Y-195085771D01*
X267577200Y-195300057D01*
X267434342Y-195442914D01*
X267291485Y-195514342D01*
X269862914Y-195014342D02*
X268577200Y-196942914D01*
X271148628Y-196585771D02*
X270291485Y-196585771D01*
X270720057Y-196585771D02*
X270720057Y-195085771D01*
X270577200Y-195300057D01*
X270434342Y-195442914D01*
X270291485Y-195514342D01*
D10*
D11*
X177002200Y-187507200D02*
X285002200Y-187507200D01*
D10*
D13*
X178714580Y-188211961D02*
X179857438Y-188211961D01*
X179036009Y-190211961D02*
X179286009Y-188211961D01*
X180274104Y-190211961D02*
X180440771Y-188878628D01*
X180524104Y-188211961D02*
X180416961Y-188307200D01*
X180500295Y-188402438D01*
X180607438Y-188307200D01*
X180524104Y-188211961D01*
X180500295Y-188402438D01*
X181107438Y-188878628D02*
X181869342Y-188878628D01*
X181476485Y-188211961D02*
X181262200Y-189926247D01*
X181333628Y-190116723D01*
X181512200Y-190211961D01*
X181702676Y-190211961D01*
X182655057Y-190211961D02*
X182476485Y-190116723D01*
X182405057Y-189926247D01*
X182619342Y-188211961D01*
X184190771Y-190116723D02*
X183988390Y-190211961D01*
X183607438Y-190211961D01*
X183428866Y-190116723D01*
X183357438Y-189926247D01*
X183452676Y-189164342D01*
X183571723Y-188973866D01*
X183774104Y-188878628D01*
X184155057Y-188878628D01*
X184333628Y-188973866D01*
X184405057Y-189164342D01*
X184381247Y-189354819D01*
X183405057Y-189545295D01*
X185155057Y-190021485D02*
X185238390Y-190116723D01*
X185131247Y-190211961D01*
X185047914Y-190116723D01*
X185155057Y-190021485D01*
X185131247Y-190211961D01*
X185286009Y-188973866D02*
X185369342Y-189069104D01*
X185262200Y-189164342D01*
X185178866Y-189069104D01*
X185286009Y-188973866D01*
X185262200Y-189164342D01*
D10*
D11*
X178934342Y-185600057D02*
X178434342Y-185600057D01*
X178434342Y-186385771D02*
X178434342Y-184885771D01*
X179148628Y-184885771D01*
X179720057Y-186385771D02*
X179720057Y-185385771D01*
X179720057Y-184885771D02*
X179648628Y-184957200D01*
X179720057Y-185028628D01*
X179791485Y-184957200D01*
X179720057Y-184885771D01*
X179720057Y-185028628D01*
X180648628Y-186385771D02*
X180505771Y-186314342D01*
X180434342Y-186171485D01*
X180434342Y-184885771D01*
X181791485Y-186314342D02*
X181648628Y-186385771D01*
X181362914Y-186385771D01*
X181220057Y-186314342D01*
X181148628Y-186171485D01*
X181148628Y-185600057D01*
X181220057Y-185457200D01*
X181362914Y-185385771D01*
X181648628Y-185385771D01*
X181791485Y-185457200D01*
X181862914Y-185600057D01*
X181862914Y-185742914D01*
X181148628Y-185885771D01*
X182505771Y-186242914D02*
X182577200Y-186314342D01*
X182505771Y-186385771D01*
X182434342Y-186314342D01*
X182505771Y-186242914D01*
X182505771Y-186385771D01*
X182505771Y-185457200D02*
X182577200Y-185528628D01*
X182505771Y-185600057D01*
X182434342Y-185528628D01*
X182505771Y-185457200D01*
X182505771Y-185600057D01*
X184862914Y-185600057D02*
X185077200Y-185671485D01*
X185148628Y-185742914D01*
X185220057Y-185885771D01*
X185220057Y-186100057D01*
X185148628Y-186242914D01*
X185077200Y-186314342D01*
X184934342Y-186385771D01*
X184362914Y-186385771D01*
X184362914Y-184885771D01*
X184862914Y-184885771D01*
X185005771Y-184957200D01*
X185077200Y-185028628D01*
X185148628Y-185171485D01*
X185148628Y-185314342D01*
X185077200Y-185457200D01*
X185005771Y-185528628D01*
X184862914Y-185600057D01*
X184362914Y-185600057D01*
X185862914Y-186385771D02*
X185862914Y-185385771D01*
X185862914Y-184885771D02*
X185791485Y-184957200D01*
X185862914Y-185028628D01*
X185934342Y-184957200D01*
X185862914Y-184885771D01*
X185862914Y-185028628D01*
X187220057Y-186385771D02*
X187220057Y-185600057D01*
X187148628Y-185457200D01*
X187005771Y-185385771D01*
X186720057Y-185385771D01*
X186577200Y-185457200D01*
X187220057Y-186314342D02*
X187077200Y-186385771D01*
X186720057Y-186385771D01*
X186577200Y-186314342D01*
X186505771Y-186171485D01*
X186505771Y-186028628D01*
X186577200Y-185885771D01*
X186720057Y-185814342D01*
X187077200Y-185814342D01*
X187220057Y-185742914D01*
X187862914Y-186314342D02*
X188005771Y-186385771D01*
X188291485Y-186385771D01*
X188434342Y-186314342D01*
X188505771Y-186171485D01*
X188505771Y-186100057D01*
X188434342Y-185957200D01*
X188291485Y-185885771D01*
X188077200Y-185885771D01*
X187934342Y-185814342D01*
X187862914Y-185671485D01*
X187862914Y-185600057D01*
X187934342Y-185457200D01*
X188077200Y-185385771D01*
X188291485Y-185385771D01*
X188434342Y-185457200D01*
X190005771Y-186385771D02*
X189505771Y-185671485D01*
X189148628Y-186385771D02*
X189148628Y-184885771D01*
X189720057Y-184885771D01*
X189862914Y-184957200D01*
X189934342Y-185028628D01*
X190005771Y-185171485D01*
X190005771Y-185385771D01*
X189934342Y-185528628D01*
X189862914Y-185600057D01*
X189720057Y-185671485D01*
X189148628Y-185671485D01*
X191220057Y-186314342D02*
X191077200Y-186385771D01*
X190791485Y-186385771D01*
X190648628Y-186314342D01*
X190577200Y-186171485D01*
X190577200Y-185600057D01*
X190648628Y-185457200D01*
X190791485Y-185385771D01*
X191077200Y-185385771D01*
X191220057Y-185457200D01*
X191291485Y-185600057D01*
X191291485Y-185742914D01*
X190577200Y-185885771D01*
X192577200Y-186314342D02*
X192434342Y-186385771D01*
X192148628Y-186385771D01*
X192005771Y-186314342D01*
X191934342Y-186242914D01*
X191862914Y-186100057D01*
X191862914Y-185671485D01*
X191934342Y-185528628D01*
X192005771Y-185457200D01*
X192148628Y-185385771D01*
X192434342Y-185385771D01*
X192577200Y-185457200D01*
X193791485Y-186314342D02*
X193648628Y-186385771D01*
X193362914Y-186385771D01*
X193220057Y-186314342D01*
X193148628Y-186171485D01*
X193148628Y-185600057D01*
X193220057Y-185457200D01*
X193362914Y-185385771D01*
X193648628Y-185385771D01*
X193791485Y-185457200D01*
X193862914Y-185600057D01*
X193862914Y-185742914D01*
X193148628Y-185885771D01*
X194505771Y-186385771D02*
X194505771Y-185385771D01*
X194505771Y-184885771D02*
X194434342Y-184957200D01*
X194505771Y-185028628D01*
X194577200Y-184957200D01*
X194505771Y-184885771D01*
X194505771Y-185028628D01*
X195077200Y-185385771D02*
X195434342Y-186385771D01*
X195791485Y-185385771D01*
X196934342Y-186314342D02*
X196791485Y-186385771D01*
X196505771Y-186385771D01*
X196362914Y-186314342D01*
X196291485Y-186171485D01*
X196291485Y-185600057D01*
X196362914Y-185457200D01*
X196505771Y-185385771D01*
X196791485Y-185385771D01*
X196934342Y-185457200D01*
X197005771Y-185600057D01*
X197005771Y-185742914D01*
X196291485Y-185885771D01*
X197648628Y-186385771D02*
X197648628Y-185385771D01*
X197648628Y-185671485D02*
X197720057Y-185528628D01*
X197791485Y-185457200D01*
X197934342Y-185385771D01*
X198077200Y-185385771D01*
X198577200Y-186242914D02*
X198648628Y-186314342D01*
X198577200Y-186385771D01*
X198505771Y-186314342D01*
X198577200Y-186242914D01*
X198577200Y-186385771D01*
X199291485Y-186385771D02*
X199291485Y-184885771D01*
X199434342Y-185814342D02*
X199862914Y-186385771D01*
X199862914Y-185385771D02*
X199291485Y-185957200D01*
X200505771Y-186385771D02*
X200505771Y-185385771D01*
X200505771Y-184885771D02*
X200434342Y-184957200D01*
X200505771Y-185028628D01*
X200577200Y-184957200D01*
X200505771Y-184885771D01*
X200505771Y-185028628D01*
X201862914Y-186314342D02*
X201720057Y-186385771D01*
X201434342Y-186385771D01*
X201291485Y-186314342D01*
X201220057Y-186242914D01*
X201148628Y-186100057D01*
X201148628Y-185671485D01*
X201220057Y-185528628D01*
X201291485Y-185457200D01*
X201434342Y-185385771D01*
X201720057Y-185385771D01*
X201862914Y-185457200D01*
X203148628Y-186385771D02*
X203148628Y-185600057D01*
X203077200Y-185457200D01*
X202934342Y-185385771D01*
X202648628Y-185385771D01*
X202505771Y-185457200D01*
X203148628Y-186314342D02*
X203005771Y-186385771D01*
X202648628Y-186385771D01*
X202505771Y-186314342D01*
X202434342Y-186171485D01*
X202434342Y-186028628D01*
X202505771Y-185885771D01*
X202648628Y-185814342D01*
X203005771Y-185814342D01*
X203148628Y-185742914D01*
X204505771Y-186385771D02*
X204505771Y-184885771D01*
X204505771Y-186314342D02*
X204362914Y-186385771D01*
X204077200Y-186385771D01*
X203934342Y-186314342D01*
X203862914Y-186242914D01*
X203791485Y-186100057D01*
X203791485Y-185671485D01*
X203862914Y-185528628D01*
X203934342Y-185457200D01*
X204077200Y-185385771D01*
X204362914Y-185385771D01*
X204505771Y-185457200D01*
X204862914Y-186528628D02*
X206005771Y-186528628D01*
X206362914Y-185385771D02*
X206362914Y-186885771D01*
X206362914Y-185457200D02*
X206505771Y-185385771D01*
X206791485Y-185385771D01*
X206934342Y-185457200D01*
X207005771Y-185528628D01*
X207077200Y-185671485D01*
X207077200Y-186100057D01*
X207005771Y-186242914D01*
X206934342Y-186314342D01*
X206791485Y-186385771D01*
X206505771Y-186385771D01*
X206362914Y-186314342D01*
X208362914Y-186314342D02*
X208220057Y-186385771D01*
X207934342Y-186385771D01*
X207791485Y-186314342D01*
X207720057Y-186242914D01*
X207648628Y-186100057D01*
X207648628Y-185671485D01*
X207720057Y-185528628D01*
X207791485Y-185457200D01*
X207934342Y-185385771D01*
X208220057Y-185385771D01*
X208362914Y-185457200D01*
X209005771Y-186385771D02*
X209005771Y-184885771D01*
X209005771Y-185457200D02*
X209148628Y-185385771D01*
X209434342Y-185385771D01*
X209577200Y-185457200D01*
X209648628Y-185528628D01*
X209720057Y-185671485D01*
X209720057Y-186100057D01*
X209648628Y-186242914D01*
X209577200Y-186314342D01*
X209434342Y-186385771D01*
X209148628Y-186385771D01*
X209005771Y-186314342D01*
D10*
D11*
X177002200Y-181507200D02*
X285002200Y-181507200D01*
D10*
D11*
X178362914Y-183614342D02*
X178577200Y-183685771D01*
X178934342Y-183685771D01*
X179077200Y-183614342D01*
X179148628Y-183542914D01*
X179220057Y-183400057D01*
X179220057Y-183257200D01*
X179148628Y-183114342D01*
X179077200Y-183042914D01*
X178934342Y-182971485D01*
X178648628Y-182900057D01*
X178505771Y-182828628D01*
X178434342Y-182757200D01*
X178362914Y-182614342D01*
X178362914Y-182471485D01*
X178434342Y-182328628D01*
X178505771Y-182257200D01*
X178648628Y-182185771D01*
X179005771Y-182185771D01*
X179220057Y-182257200D01*
X179862914Y-183685771D02*
X179862914Y-182185771D01*
X180505771Y-183685771D02*
X180505771Y-182900057D01*
X180434342Y-182757200D01*
X180291485Y-182685771D01*
X180077200Y-182685771D01*
X179934342Y-182757200D01*
X179862914Y-182828628D01*
X181791485Y-183614342D02*
X181648628Y-183685771D01*
X181362914Y-183685771D01*
X181220057Y-183614342D01*
X181148628Y-183471485D01*
X181148628Y-182900057D01*
X181220057Y-182757200D01*
X181362914Y-182685771D01*
X181648628Y-182685771D01*
X181791485Y-182757200D01*
X181862914Y-182900057D01*
X181862914Y-183042914D01*
X181148628Y-183185771D01*
X183077200Y-183614342D02*
X182934342Y-183685771D01*
X182648628Y-183685771D01*
X182505771Y-183614342D01*
X182434342Y-183471485D01*
X182434342Y-182900057D01*
X182505771Y-182757200D01*
X182648628Y-182685771D01*
X182934342Y-182685771D01*
X183077200Y-182757200D01*
X183148628Y-182900057D01*
X183148628Y-183042914D01*
X182434342Y-183185771D01*
X183577200Y-182685771D02*
X184148628Y-182685771D01*
X183791485Y-182185771D02*
X183791485Y-183471485D01*
X183862914Y-183614342D01*
X184005771Y-183685771D01*
X184148628Y-183685771D01*
X184648628Y-183542914D02*
X184720057Y-183614342D01*
X184648628Y-183685771D01*
X184577200Y-183614342D01*
X184648628Y-183542914D01*
X184648628Y-183685771D01*
X184648628Y-182757200D02*
X184720057Y-182828628D01*
X184648628Y-182900057D01*
X184577200Y-182828628D01*
X184648628Y-182757200D01*
X184648628Y-182900057D01*
D10*
D12*
D10*
D11*
D10*
D11*
D10*
D11*
D10*
D11*
D10*
D11*
X197002200Y-191507200D02*
X197002200Y-194507200D01*
D10*
D11*
X261002200Y-191507200D02*
X261002200Y-198007200D01*
D14*
X76200000Y-38100000D02*
X176149000Y-38100000D01*
X176149000Y-38100000D02*
X176149000Y-138049000D01*
X176149000Y-138049000D02*
X76200000Y-138049000D01*
X76200000Y-138049000D02*
X76200000Y-38100000D01*
D15*
G04 #@! TO.C,C5*
X90564000Y-111188500D03*
X89014000Y-111188500D03*
G04 #@! TD*
D16*
G04 #@! TO.C,P1*
X171450000Y-73660000D03*
D17*
X173990000Y-71120000D03*
X168910000Y-76200000D03*
X168910000Y-71120000D03*
X173990000Y-76200000D03*
G04 #@! TD*
D15*
G04 #@! TO.C,C20*
X127902000Y-112649000D03*
X126352000Y-112649000D03*
G04 #@! TD*
G04 #@! TO.C,C35*
X141999000Y-111125000D03*
X140449000Y-111125000D03*
G04 #@! TD*
G04 #@! TO.C,C25*
X157874000Y-113284000D03*
X156324000Y-113284000D03*
G04 #@! TD*
D18*
G04 #@! TO.C,C31*
X166370000Y-77216000D03*
X166370000Y-78766000D03*
G04 #@! TD*
D19*
G04 #@! TO.C,R17*
X120332000Y-111125000D03*
X118682000Y-111125000D03*
G04 #@! TD*
D15*
G04 #@! TO.C,C28*
X157049000Y-78994000D03*
X155499000Y-78994000D03*
G04 #@! TD*
D20*
G04 #@! TO.C,R9*
X133350000Y-53404000D03*
X133350000Y-55054000D03*
G04 #@! TD*
G04 #@! TO.C,R30*
X136525000Y-108141000D03*
X136525000Y-109791000D03*
G04 #@! TD*
D21*
G04 #@! TO.C,R31*
X164910000Y-73660000D03*
X166560000Y-73660000D03*
G04 #@! TD*
D22*
G04 #@! TO.C,SW2*
X85560000Y-83665500D03*
X93510000Y-83665500D03*
X93510000Y-88165500D03*
X85560000Y-88165500D03*
G04 #@! TD*
D16*
G04 #@! TO.C,J11*
X171450000Y-119380000D03*
D17*
X173990000Y-116840000D03*
X173990000Y-121920000D03*
X168910000Y-116840000D03*
X168910000Y-121920000D03*
G04 #@! TD*
D23*
G04 #@! TO.C,J3*
X89535000Y-129971800D03*
X93345000Y-129971800D03*
G04 #@! TD*
D19*
G04 #@! TO.C,R12*
X166306000Y-54610000D03*
X164656000Y-54610000D03*
G04 #@! TD*
D24*
G04 #@! TO.C,Q4*
X130350500Y-125537000D03*
X130350500Y-123637000D03*
X128475500Y-124587000D03*
G04 #@! TD*
D25*
G04 #@! TO.C,C29*
X152578000Y-75184000D03*
X154128000Y-75184000D03*
G04 #@! TD*
D26*
G04 #@! TO.C,R6*
X89215500Y-77025500D03*
X92140500Y-77025500D03*
G04 #@! TD*
D27*
G04 #@! TO.C,U2*
X157545000Y-52070000D03*
X157545000Y-53340000D03*
X157545000Y-54610000D03*
X157545000Y-55880000D03*
X162495000Y-55880000D03*
X162495000Y-54610000D03*
X162495000Y-53340000D03*
X162495000Y-52070000D03*
G04 #@! TD*
D28*
G04 #@! TO.C,J12*
X141478000Y-84577000D03*
D29*
X141478000Y-87117000D03*
G04 #@! TD*
D30*
G04 #@! TO.C,RV3*
X93345000Y-107569000D03*
X90805000Y-107569000D03*
X88265000Y-107569000D03*
G04 #@! TD*
D26*
G04 #@! TO.C,R4*
X105664000Y-77025500D03*
X108589000Y-77025500D03*
G04 #@! TD*
D31*
G04 #@! TO.C,H4*
X171069000Y-132969000D03*
G04 #@! TD*
D25*
G04 #@! TO.C,C30*
X152578000Y-83566000D03*
X154128000Y-83566000D03*
G04 #@! TD*
D19*
G04 #@! TO.C,R11*
X94297000Y-111188500D03*
X92647000Y-111188500D03*
G04 #@! TD*
D21*
G04 #@! TO.C,R16*
X101664000Y-104013000D03*
X103314000Y-104013000D03*
G04 #@! TD*
D30*
G04 #@! TO.C,RV5*
X119507000Y-107569000D03*
X116967000Y-107569000D03*
X114427000Y-107569000D03*
G04 #@! TD*
D24*
G04 #@! TO.C,Q5*
X144193500Y-125537000D03*
X144193500Y-123637000D03*
X142318500Y-124587000D03*
G04 #@! TD*
D15*
G04 #@! TO.C,C7*
X155461000Y-55880000D03*
X153911000Y-55880000D03*
G04 #@! TD*
D25*
G04 #@! TO.C,C37*
X145148000Y-112649000D03*
X146698000Y-112649000D03*
G04 #@! TD*
D30*
G04 #@! TO.C,RV4*
X106426000Y-107569000D03*
X103886000Y-107569000D03*
X101346000Y-107569000D03*
G04 #@! TD*
D25*
G04 #@! TO.C,C32*
X142735000Y-122047000D03*
X144285000Y-122047000D03*
G04 #@! TD*
D26*
G04 #@! TO.C,R7*
X84643500Y-77025500D03*
X87568500Y-77025500D03*
G04 #@! TD*
D28*
G04 #@! TO.C,J8*
X141478000Y-68702000D03*
D29*
X141478000Y-71242000D03*
G04 #@! TD*
D27*
G04 #@! TO.C,U7*
X159387000Y-75946000D03*
X159387000Y-77216000D03*
X159387000Y-78486000D03*
X159387000Y-79756000D03*
X164337000Y-79756000D03*
X164337000Y-78486000D03*
X164337000Y-77216000D03*
X164337000Y-75946000D03*
G04 #@! TD*
D23*
G04 #@! TO.C,J7*
X123825000Y-129971800D03*
X127635000Y-129971800D03*
G04 #@! TD*
D15*
G04 #@! TO.C,C15*
X116218000Y-112649000D03*
X114668000Y-112649000D03*
G04 #@! TD*
D32*
G04 #@! TO.C,U4*
X116856000Y-118736000D03*
X117356000Y-118736000D03*
X117856000Y-118736000D03*
X118356000Y-118736000D03*
X118856000Y-118736000D03*
X118856000Y-114436000D03*
X118356000Y-114436000D03*
X117856000Y-114436000D03*
X117356000Y-114436000D03*
X116856000Y-114436000D03*
D33*
X117856000Y-116586000D03*
G04 #@! TD*
D25*
G04 #@! TO.C,C33*
X142735000Y-120523000D03*
X144285000Y-120523000D03*
G04 #@! TD*
D23*
G04 #@! TO.C,J10*
X135255000Y-129971800D03*
X139065000Y-129971800D03*
G04 #@! TD*
D34*
G04 #@! TO.C,R22*
X141478000Y-76900500D03*
X141478000Y-73975500D03*
G04 #@! TD*
D35*
G04 #@! TO.C,R8*
X81619500Y-73977500D03*
X87544500Y-73977500D03*
G04 #@! TD*
D31*
G04 #@! TO.C,H3*
X81280000Y-132969000D03*
G04 #@! TD*
D28*
G04 #@! TO.C,J2*
X91313000Y-50800000D03*
D29*
X91313000Y-48260000D03*
X93853000Y-50800000D03*
X93853000Y-48260000D03*
X96393000Y-50800000D03*
X96393000Y-48260000D03*
X98933000Y-50800000D03*
X98933000Y-48260000D03*
X101473000Y-50800000D03*
X101473000Y-48260000D03*
X104013000Y-50800000D03*
X104013000Y-48260000D03*
X106553000Y-50800000D03*
X106553000Y-48260000D03*
X109093000Y-50800000D03*
X109093000Y-48260000D03*
X111633000Y-50800000D03*
X111633000Y-48260000D03*
X114173000Y-50800000D03*
X114173000Y-48260000D03*
X116713000Y-50800000D03*
X116713000Y-48260000D03*
X119253000Y-50800000D03*
X119253000Y-48260000D03*
X121793000Y-50800000D03*
X121793000Y-48260000D03*
X124333000Y-50800000D03*
X124333000Y-48260000D03*
X126873000Y-50800000D03*
X126873000Y-48260000D03*
X129413000Y-50800000D03*
X129413000Y-48260000D03*
G04 #@! TD*
D21*
G04 #@! TO.C,R18*
X158751000Y-73660000D03*
X160401000Y-73660000D03*
G04 #@! TD*
D28*
G04 #@! TO.C,J4*
X91313000Y-60960000D03*
D29*
X91313000Y-58420000D03*
X93853000Y-60960000D03*
X93853000Y-58420000D03*
X96393000Y-60960000D03*
X96393000Y-58420000D03*
X98933000Y-60960000D03*
X98933000Y-58420000D03*
X101473000Y-60960000D03*
X101473000Y-58420000D03*
X104013000Y-60960000D03*
X104013000Y-58420000D03*
X106553000Y-60960000D03*
X106553000Y-58420000D03*
X109093000Y-60960000D03*
X109093000Y-58420000D03*
X111633000Y-60960000D03*
X111633000Y-58420000D03*
X114173000Y-60960000D03*
X114173000Y-58420000D03*
X116713000Y-60960000D03*
X116713000Y-58420000D03*
X119253000Y-60960000D03*
X119253000Y-58420000D03*
X121793000Y-60960000D03*
X121793000Y-58420000D03*
X124333000Y-60960000D03*
X124333000Y-58420000D03*
X126873000Y-60960000D03*
X126873000Y-58420000D03*
X129413000Y-60960000D03*
X129413000Y-58420000D03*
G04 #@! TD*
D36*
G04 #@! TO.C,U9*
X142139000Y-118736000D03*
X142789000Y-118736000D03*
X143439000Y-118736000D03*
X144089000Y-118736000D03*
X144739000Y-118736000D03*
X145389000Y-118736000D03*
X145389000Y-114436000D03*
X144739000Y-114436000D03*
X144089000Y-114436000D03*
X143439000Y-114436000D03*
X142789000Y-114436000D03*
X142139000Y-114436000D03*
D37*
X143764000Y-116586000D03*
G04 #@! TD*
D24*
G04 #@! TO.C,Q2*
X103172500Y-125600500D03*
X103172500Y-123700500D03*
X101297500Y-124650500D03*
G04 #@! TD*
D31*
G04 #@! TO.C,H2*
X171069000Y-43180000D03*
G04 #@! TD*
D25*
G04 #@! TO.C,C18*
X129146000Y-122047000D03*
X130696000Y-122047000D03*
G04 #@! TD*
D35*
G04 #@! TO.C,R2*
X114832000Y-73914000D03*
X120757000Y-73914000D03*
G04 #@! TD*
D38*
G04 #@! TO.C,R23*
X145733000Y-78041000D03*
X145733000Y-76391000D03*
G04 #@! TD*
D25*
G04 #@! TO.C,C2*
X91300000Y-122110500D03*
X92850000Y-122110500D03*
G04 #@! TD*
G04 #@! TO.C,C8*
X101714000Y-122110500D03*
X103264000Y-122110500D03*
G04 #@! TD*
D19*
G04 #@! TO.C,R20*
X132397000Y-111125000D03*
X130747000Y-111125000D03*
G04 #@! TD*
D15*
G04 #@! TO.C,C21*
X127902000Y-111125000D03*
X126352000Y-111125000D03*
G04 #@! TD*
D27*
G04 #@! TO.C,U6*
X145671000Y-71120000D03*
X145671000Y-72390000D03*
X145671000Y-73660000D03*
X145671000Y-74930000D03*
X150621000Y-74930000D03*
X150621000Y-73660000D03*
X150621000Y-72390000D03*
X150621000Y-71120000D03*
G04 #@! TD*
D25*
G04 #@! TO.C,C6*
X92697000Y-112712500D03*
X94247000Y-112712500D03*
G04 #@! TD*
D30*
G04 #@! TO.C,RV1*
X142240000Y-49530000D03*
X139700000Y-49530000D03*
X137160000Y-49530000D03*
G04 #@! TD*
D25*
G04 #@! TO.C,C17*
X118732000Y-112649000D03*
X120282000Y-112649000D03*
G04 #@! TD*
D30*
G04 #@! TO.C,RV7*
X158750000Y-107569000D03*
X156210000Y-107569000D03*
X153670000Y-107569000D03*
G04 #@! TD*
D32*
G04 #@! TO.C,U5*
X128667000Y-118736000D03*
X129167000Y-118736000D03*
X129667000Y-118736000D03*
X130167000Y-118736000D03*
X130667000Y-118736000D03*
X130667000Y-114436000D03*
X130167000Y-114436000D03*
X129667000Y-114436000D03*
X129167000Y-114436000D03*
X128667000Y-114436000D03*
D33*
X129667000Y-116586000D03*
G04 #@! TD*
D21*
G04 #@! TO.C,R29*
X145098000Y-111125000D03*
X146748000Y-111125000D03*
G04 #@! TD*
D39*
G04 #@! TO.C,K1*
X99860000Y-85915500D03*
X99860000Y-90995500D03*
X99860000Y-93535500D03*
X99860000Y-96075500D03*
X99860000Y-98615500D03*
X107150000Y-98615500D03*
X107150000Y-96075500D03*
X107150000Y-93535500D03*
X107150000Y-90995500D03*
X107150000Y-85915500D03*
G04 #@! TD*
D21*
G04 #@! TO.C,R15*
X103950000Y-111188500D03*
X105600000Y-111188500D03*
G04 #@! TD*
D26*
G04 #@! TO.C,R5*
X93787500Y-77025500D03*
X96712500Y-77025500D03*
G04 #@! TD*
D21*
G04 #@! TO.C,R13*
X160846000Y-57658000D03*
X162496000Y-57658000D03*
G04 #@! TD*
D25*
G04 #@! TO.C,C22*
X152578000Y-73660000D03*
X154128000Y-73660000D03*
G04 #@! TD*
D30*
G04 #@! TO.C,RV9*
X145669000Y-107569000D03*
X143129000Y-107569000D03*
X140589000Y-107569000D03*
G04 #@! TD*
D25*
G04 #@! TO.C,C23*
X130797000Y-112649000D03*
X132347000Y-112649000D03*
G04 #@! TD*
D16*
G04 #@! TO.C,J5*
X171450000Y-54610000D03*
D17*
X168910000Y-52070000D03*
X168910000Y-57150000D03*
X173990000Y-57150000D03*
X173990000Y-52070000D03*
G04 #@! TD*
D15*
G04 #@! TO.C,C11*
X101359000Y-111188500D03*
X99809000Y-111188500D03*
G04 #@! TD*
D21*
G04 #@! TO.C,R25*
X164720000Y-119380000D03*
X166370000Y-119380000D03*
G04 #@! TD*
D15*
G04 #@! TO.C,C4*
X90564000Y-112712500D03*
X89014000Y-112712500D03*
G04 #@! TD*
G04 #@! TO.C,C24*
X157874000Y-114808000D03*
X156324000Y-114808000D03*
G04 #@! TD*
D36*
G04 #@! TO.C,U3*
X101245000Y-118799500D03*
X101895000Y-118799500D03*
X102545000Y-118799500D03*
X103195000Y-118799500D03*
X103845000Y-118799500D03*
X104495000Y-118799500D03*
X104495000Y-114499500D03*
X103845000Y-114499500D03*
X103195000Y-114499500D03*
X102545000Y-114499500D03*
X101895000Y-114499500D03*
X101245000Y-114499500D03*
D37*
X102870000Y-116649500D03*
G04 #@! TD*
D15*
G04 #@! TO.C,C16*
X116218000Y-111125000D03*
X114668000Y-111125000D03*
G04 #@! TD*
D30*
G04 #@! TO.C,RV6*
X132588000Y-107569000D03*
X130048000Y-107569000D03*
X127508000Y-107569000D03*
G04 #@! TD*
D26*
G04 #@! TO.C,R3*
X110236000Y-77025500D03*
X113161000Y-77025500D03*
G04 #@! TD*
D38*
G04 #@! TO.C,R10*
X133350000Y-58102000D03*
X133350000Y-56452000D03*
G04 #@! TD*
D25*
G04 #@! TO.C,C3*
X91300000Y-120586500D03*
X92850000Y-120586500D03*
G04 #@! TD*
D21*
G04 #@! TO.C,R14*
X157798000Y-57658000D03*
X159448000Y-57658000D03*
G04 #@! TD*
D15*
G04 #@! TO.C,C10*
X101359000Y-112712500D03*
X99809000Y-112712500D03*
G04 #@! TD*
D21*
G04 #@! TO.C,R28*
X158751000Y-82042000D03*
X160401000Y-82042000D03*
G04 #@! TD*
D40*
G04 #@! TO.C,U8*
X160447500Y-113325000D03*
X160447500Y-113975000D03*
X160447500Y-114625000D03*
X160447500Y-115275000D03*
X164672500Y-115275000D03*
X164672500Y-114625000D03*
X164672500Y-113975000D03*
X164672500Y-113325000D03*
G04 #@! TD*
D24*
G04 #@! TO.C,Q3*
X118539500Y-125537000D03*
X118539500Y-123637000D03*
X116664500Y-124587000D03*
G04 #@! TD*
D27*
G04 #@! TO.C,U10*
X145671000Y-79502000D03*
X145671000Y-80772000D03*
X145671000Y-82042000D03*
X145671000Y-83312000D03*
X150621000Y-83312000D03*
X150621000Y-82042000D03*
X150621000Y-80772000D03*
X150621000Y-79502000D03*
G04 #@! TD*
D25*
G04 #@! TO.C,C26*
X152578000Y-72136000D03*
X154128000Y-72136000D03*
G04 #@! TD*
D41*
G04 #@! TO.C,J1*
X91330000Y-40132000D03*
X94100000Y-40132000D03*
X96870000Y-40132000D03*
X99640000Y-40132000D03*
X102410000Y-40132000D03*
X105180000Y-40132000D03*
X107950000Y-40132000D03*
X110720000Y-40132000D03*
X113490000Y-40132000D03*
X116260000Y-40132000D03*
X119030000Y-40132000D03*
X121800000Y-40132000D03*
X124570000Y-40132000D03*
G04 #@! TD*
D21*
G04 #@! TO.C,R27*
X161799000Y-82042000D03*
X163449000Y-82042000D03*
G04 #@! TD*
D30*
G04 #@! TO.C,RV8*
X171831000Y-107569000D03*
X169291000Y-107569000D03*
X166751000Y-107569000D03*
G04 #@! TD*
D25*
G04 #@! TO.C,C9*
X101714000Y-120586500D03*
X103264000Y-120586500D03*
G04 #@! TD*
D22*
G04 #@! TO.C,SW1*
X85560000Y-93825500D03*
X93510000Y-93825500D03*
X93510000Y-98325500D03*
X85560000Y-98325500D03*
G04 #@! TD*
D25*
G04 #@! TO.C,C1*
X164706000Y-53086000D03*
X166256000Y-53086000D03*
G04 #@! TD*
G04 #@! TO.C,C12*
X104000000Y-112712500D03*
X105550000Y-112712500D03*
G04 #@! TD*
G04 #@! TO.C,C36*
X152578000Y-82042000D03*
X154128000Y-82042000D03*
G04 #@! TD*
D23*
G04 #@! TO.C,J6*
X100965000Y-129971800D03*
X104775000Y-129971800D03*
G04 #@! TD*
D30*
G04 #@! TO.C,RV2*
X142240000Y-59690000D03*
X139700000Y-59690000D03*
X137160000Y-59690000D03*
G04 #@! TD*
D21*
G04 #@! TO.C,R19*
X161799000Y-73660000D03*
X163449000Y-73660000D03*
G04 #@! TD*
D32*
G04 #@! TO.C,U1*
X90821000Y-118799500D03*
X91321000Y-118799500D03*
X91821000Y-118799500D03*
X92321000Y-118799500D03*
X92821000Y-118799500D03*
X92821000Y-114499500D03*
X92321000Y-114499500D03*
X91821000Y-114499500D03*
X91321000Y-114499500D03*
X90821000Y-114499500D03*
D33*
X91821000Y-116649500D03*
G04 #@! TD*
D24*
G04 #@! TO.C,Q1*
X92504500Y-125600500D03*
X92504500Y-123700500D03*
X90629500Y-124650500D03*
G04 #@! TD*
D25*
G04 #@! TO.C,C19*
X129146000Y-120523000D03*
X130696000Y-120523000D03*
G04 #@! TD*
D19*
G04 #@! TO.C,R26*
X148971008Y-77965300D03*
X147321008Y-77965300D03*
G04 #@! TD*
D26*
G04 #@! TO.C,R1*
X114823000Y-77025500D03*
X117748000Y-77025500D03*
G04 #@! TD*
D28*
G04 #@! TO.C,J9*
X152395000Y-118110000D03*
D29*
X154935000Y-118110000D03*
G04 #@! TD*
D31*
G04 #@! TO.C,H1*
X81280000Y-43180000D03*
G04 #@! TD*
D25*
G04 #@! TO.C,C14*
X117335000Y-120523000D03*
X118885000Y-120523000D03*
G04 #@! TD*
D21*
G04 #@! TO.C,R21*
X147321008Y-76466700D03*
X148971008Y-76466700D03*
G04 #@! TD*
D15*
G04 #@! TO.C,C34*
X141999000Y-112649000D03*
X140449000Y-112649000D03*
G04 #@! TD*
D25*
G04 #@! TO.C,C27*
X152578000Y-80518000D03*
X154128000Y-80518000D03*
G04 #@! TD*
D34*
G04 #@! TO.C,R24*
X141478000Y-81853500D03*
X141478000Y-78928500D03*
G04 #@! TD*
D25*
G04 #@! TO.C,C13*
X117335000Y-122047000D03*
X118885000Y-122047000D03*
G04 #@! TD*
G36*
X147798819Y-38119258D02*
G01*
X147880898Y-38174102D01*
X147935742Y-38256181D01*
X147955000Y-38353000D01*
X147955000Y-91355667D01*
X147935742Y-91452486D01*
X147904400Y-91507467D01*
X146125900Y-93878800D01*
X146052402Y-93944700D01*
X145959280Y-93977457D01*
X145923500Y-93980000D01*
X134724796Y-93980000D01*
X134627977Y-93960742D01*
X134545898Y-93905898D01*
X121937619Y-81297619D01*
X121918104Y-81284579D01*
X121895082Y-81280000D01*
X76453000Y-81280000D01*
X76356181Y-81260742D01*
X76274102Y-81205898D01*
X76219258Y-81123819D01*
X76200000Y-81027000D01*
X76200000Y-38353000D01*
X76219258Y-38256181D01*
X76274102Y-38174102D01*
X76356181Y-38119258D01*
X76453000Y-38100000D01*
X147702000Y-38100000D01*
X147798819Y-38119258D01*
G37*
M02*
