M48
; DRILL file {KiCad (6.0.1-0)} date Tuesday, January 25, 2022 at 12:00:56 AM
; FORMAT={-:-/ absolute / metric / decimal}
; #@! TF.CreationDate,2022-01-25T00:00:56-08:00
; #@! TF.GenerationSoftware,Kicad,Pcbnew,(6.0.1-0)
; #@! TF.FileFunction,MixedPlating,1,4
FMAT,2
METRIC
; #@! TA.AperFunction,Plated,PTH,ViaDrill
T1C0.305
; #@! TA.AperFunction,Plated,PTH,ViaDrill
T2C0.381
; #@! TA.AperFunction,Plated,PTH,ComponentDrill
T3C0.800
; #@! TA.AperFunction,Plated,PTH,ComponentDrill
T4C1.000
; #@! TA.AperFunction,Plated,PTH,ComponentDrill
T5C1.168
; #@! TA.AperFunction,Plated,PTH,ComponentDrill
T6C1.500
; #@! TA.AperFunction,Plated,PTH,ComponentDrill
T7C1.700
; #@! TA.AperFunction,NonPlated,NPTH,ComponentDrill
T8C3.200
%
G90
G05
T1
X81.62Y-76.495
X81.62Y-77.216
X81.62Y-78.019
X81.62Y-78.781
X88.265Y-111.506
X88.265Y-112.395
X91.313Y-116.205
X91.313Y-117.094
X91.818Y-113.285
X92.329Y-116.205
X92.329Y-117.094
X93.599Y-116.078
X93.599Y-116.713
X93.599Y-117.348
X93.98Y-120.396
X93.98Y-121.412
X93.98Y-122.428
X93.98Y-125.603
X94.615Y-116.078
X94.615Y-117.348
X95.377Y-93.472
X95.377Y-111.125
X95.377Y-112.014
X95.377Y-112.903
X95.758Y-90.932
X96.139Y-93.472
X96.647Y-90.932
X97.028Y-93.472
X97.028Y-111.125
X97.028Y-114.3
X97.028Y-117.348
X97.028Y-120.396
X97.028Y-123.317
X97.028Y-126.619
X97.028Y-129.794
X97.028Y-133.223
X97.028Y-136.525
X97.663Y-90.932
X97.917Y-93.472
X98.552Y-111.125
X98.552Y-112.014
X98.552Y-112.903
X103.05Y-113.038
X104.584Y-125.285
X105.029Y-118.618
X105.029Y-119.507
X105.029Y-120.65
X105.029Y-122.047
X105.029Y-123.317
X105.029Y-124.587
X106.299Y-111.379
X106.299Y-112.395
X109.474Y-96.139
X109.537Y-85.915
X109.537Y-98.615
X110.363Y-96.139
X110.426Y-85.915
X110.426Y-98.615
X111.316Y-85.915
X111.379Y-96.139
X111.379Y-98.552
X111.633Y-103.759
X111.633Y-105.156
X111.633Y-106.426
X111.633Y-107.569
X113.792Y-111.252
X113.919Y-112.395
X117.221Y-116.078
X117.221Y-117.094
X117.729Y-112.776
X118.491Y-116.078
X118.491Y-117.094
X120.142Y-121.158
X120.142Y-122.301
X120.142Y-123.571
X120.142Y-124.841
X121.285Y-111.379
X121.285Y-112.268
X125.412Y-112.459
X125.476Y-111.379
X127.902Y-111.874
X128.27Y-112.903
X128.86Y-113.493
X129.032Y-116.078
X129.032Y-117.094
X129.667Y-112.649
X130.302Y-116.078
X130.302Y-117.094
X131.699Y-68.707
X132.08Y-114.3
X132.08Y-121.158
X132.08Y-122.174
X132.08Y-123.698
X132.08Y-124.841
X133.286Y-112.459
X133.35Y-55.626
X133.35Y-111.379
X133.477Y-114.3
X135.001Y-114.3
X136.652Y-114.3
X138.176Y-114.3
X138.43Y-109.601
X139.446Y-109.601
X139.446Y-112.395
X139.51Y-111.316
X139.573Y-114.3
X140.462Y-109.601
X141.478Y-77.978
X141.478Y-109.728
X141.999Y-110.477
X141.999Y-111.887
X141.999Y-113.144
X144.145Y-112.776
X145.542Y-125.349
X145.923Y-118.618
X145.923Y-119.507
X145.923Y-120.523
X145.923Y-122.047
X145.923Y-123.317
X145.923Y-124.46
X147.637Y-112.459
X147.701Y-111.379
X151.13Y-54.61
X151.765Y-72.136
X151.828Y-83.502
X151.892Y-74.93
X151.892Y-80.518
X153.911Y-56.782
X154.128Y-76.25
X154.128Y-77.139
X154.128Y-78.155
X154.128Y-79.044
X154.128Y-79.933
X154.813Y-83.566
X154.94Y-72.136
X155.067Y-57.658
X155.702Y-72.136
X155.702Y-83.566
X156.21Y-55.88
X156.337Y-57.658
X156.464Y-72.136
X156.464Y-83.566
X157.734Y-79.629
X159.131Y-114.3
X163.322Y-111.633
X163.83Y-53.086
X164.592Y-82.042
X165.608Y-77.216
X165.925Y-81.597
X166.243Y-115.57
X166.37Y-80.01
X167.322Y-77.787
T2
X117.475Y-87.122
T3
X88.265Y-107.569
X90.805Y-107.569
X93.345Y-107.569
X101.346Y-107.569
X103.886Y-107.569
X106.426Y-107.569
X114.427Y-107.569
X116.967Y-107.569
X119.507Y-107.569
X127.508Y-107.569
X130.048Y-107.569
X132.588Y-107.569
X137.16Y-49.53
X137.16Y-59.69
X139.7Y-49.53
X139.7Y-59.69
X140.589Y-107.569
X142.24Y-49.53
X142.24Y-59.69
X143.129Y-107.569
X145.669Y-107.569
X153.67Y-107.569
X156.21Y-107.569
X158.75Y-107.569
X166.751Y-107.569
X169.291Y-107.569
X171.831Y-107.569
T4
X91.313Y-48.26
X91.313Y-50.8
X91.313Y-58.42
X91.313Y-60.96
X93.853Y-48.26
X93.853Y-50.8
X93.853Y-58.42
X93.853Y-60.96
X96.393Y-48.26
X96.393Y-50.8
X96.393Y-58.42
X96.393Y-60.96
X98.933Y-48.26
X98.933Y-50.8
X98.933Y-58.42
X98.933Y-60.96
X101.473Y-48.26
X101.473Y-50.8
X101.473Y-58.42
X101.473Y-60.96
X104.013Y-48.26
X104.013Y-50.8
X104.013Y-58.42
X104.013Y-60.96
X106.553Y-48.26
X106.553Y-50.8
X106.553Y-58.42
X106.553Y-60.96
X109.093Y-48.26
X109.093Y-50.8
X109.093Y-58.42
X109.093Y-60.96
X111.633Y-48.26
X111.633Y-50.8
X111.633Y-58.42
X111.633Y-60.96
X114.173Y-48.26
X114.173Y-50.8
X114.173Y-58.42
X114.173Y-60.96
X116.713Y-48.26
X116.713Y-50.8
X116.713Y-58.42
X116.713Y-60.96
X119.253Y-48.26
X119.253Y-50.8
X119.253Y-58.42
X119.253Y-60.96
X121.793Y-48.26
X121.793Y-50.8
X121.793Y-58.42
X121.793Y-60.96
X124.333Y-48.26
X124.333Y-50.8
X124.333Y-58.42
X124.333Y-60.96
X126.873Y-48.26
X126.873Y-50.8
X126.873Y-58.42
X126.873Y-60.96
X129.413Y-48.26
X129.413Y-50.8
X129.413Y-58.42
X129.413Y-60.96
X141.478Y-68.702
X141.478Y-71.242
X141.478Y-84.577
X141.478Y-87.117
X152.395Y-118.11
X154.935Y-118.11
T5
X89.535Y-129.972
X93.345Y-129.972
X100.965Y-129.972
X104.775Y-129.972
X123.825Y-129.972
X127.635Y-129.972
X135.255Y-129.972
X139.065Y-129.972
T6
X171.45Y-54.61
X171.45Y-73.66
X171.45Y-119.38
T7
X168.91Y-52.07
X168.91Y-57.15
X168.91Y-71.12
X168.91Y-76.2
X168.91Y-116.84
X168.91Y-121.92
X173.99Y-52.07
X173.99Y-57.15
X173.99Y-71.12
X173.99Y-76.2
X173.99Y-116.84
X173.99Y-121.92
T8
X81.28Y-43.18
X81.28Y-132.969
X171.069Y-43.18
X171.069Y-132.969
T0
M30
