G04 #@! TF.GenerationSoftware,KiCad,Pcbnew,(6.0.1-0)*
G04 #@! TF.CreationDate,2022-01-25T00:00:44-08:00*
G04 #@! TF.ProjectId,BiasReceiver,42696173-5265-4636-9569-7665722e6b69,rev?*
G04 #@! TF.SameCoordinates,Original*
G04 #@! TF.FileFunction,Legend,Top*
G04 #@! TF.FilePolarity,Positive*
%FSLAX46Y46*%
G04 Gerber Fmt 4.6, Leading zero omitted, Abs format (unit mm)*
G04 Created by KiCad (PCBNEW (6.0.1-0)) date 2022-01-25 00:00:44*
%MOMM*%
%LPD*%
G01*
G04 APERTURE LIST*
%ADD10C,0.100000*%
%ADD11C,0.150000*%
%ADD12C,0.300000*%
%ADD13C,0.400000*%
G04 #@! TA.AperFunction,Profile*
%ADD14C,0.050000*%
G04 #@! TD*
%ADD15C,0.304800*%
%ADD16C,0.120000*%
G04 APERTURE END LIST*
D10*
D11*
X177002200Y-166007200D02*
X177002200Y-198007200D01*
X285002200Y-198007200D01*
X285002200Y-166007200D01*
X177002200Y-166007200D01*
D10*
D11*
X10000000Y-10000000D02*
X10000000Y-200007200D01*
X287002200Y-200007200D01*
X287002200Y-10000000D01*
X10000000Y-10000000D01*
D10*
D11*
X12000000Y-12000000D02*
X12000000Y-198007200D01*
X285002200Y-198007200D01*
X285002200Y-12000000D01*
X12000000Y-12000000D01*
D10*
D11*
X60000000Y-12000000D02*
X60000000Y-10000000D01*
D10*
D11*
X110000000Y-12000000D02*
X110000000Y-10000000D01*
D10*
D11*
X160000000Y-12000000D02*
X160000000Y-10000000D01*
D10*
D11*
X210000000Y-12000000D02*
X210000000Y-10000000D01*
D10*
D11*
X260000000Y-12000000D02*
X260000000Y-10000000D01*
D10*
D11*
X36065476Y-11588095D02*
X35322619Y-11588095D01*
X35694047Y-11588095D02*
X35694047Y-10288095D01*
X35570238Y-10473809D01*
X35446428Y-10597619D01*
X35322619Y-10659523D01*
D10*
D11*
X85322619Y-10411904D02*
X85384523Y-10350000D01*
X85508333Y-10288095D01*
X85817857Y-10288095D01*
X85941666Y-10350000D01*
X86003571Y-10411904D01*
X86065476Y-10535714D01*
X86065476Y-10659523D01*
X86003571Y-10845238D01*
X85260714Y-11588095D01*
X86065476Y-11588095D01*
D10*
D11*
X135260714Y-10288095D02*
X136065476Y-10288095D01*
X135632142Y-10783333D01*
X135817857Y-10783333D01*
X135941666Y-10845238D01*
X136003571Y-10907142D01*
X136065476Y-11030952D01*
X136065476Y-11340476D01*
X136003571Y-11464285D01*
X135941666Y-11526190D01*
X135817857Y-11588095D01*
X135446428Y-11588095D01*
X135322619Y-11526190D01*
X135260714Y-11464285D01*
D10*
D11*
X185941666Y-10721428D02*
X185941666Y-11588095D01*
X185632142Y-10226190D02*
X185322619Y-11154761D01*
X186127380Y-11154761D01*
D10*
D11*
X236003571Y-10288095D02*
X235384523Y-10288095D01*
X235322619Y-10907142D01*
X235384523Y-10845238D01*
X235508333Y-10783333D01*
X235817857Y-10783333D01*
X235941666Y-10845238D01*
X236003571Y-10907142D01*
X236065476Y-11030952D01*
X236065476Y-11340476D01*
X236003571Y-11464285D01*
X235941666Y-11526190D01*
X235817857Y-11588095D01*
X235508333Y-11588095D01*
X235384523Y-11526190D01*
X235322619Y-11464285D01*
D10*
D11*
X285941666Y-10288095D02*
X285694047Y-10288095D01*
X285570238Y-10350000D01*
X285508333Y-10411904D01*
X285384523Y-10597619D01*
X285322619Y-10845238D01*
X285322619Y-11340476D01*
X285384523Y-11464285D01*
X285446428Y-11526190D01*
X285570238Y-11588095D01*
X285817857Y-11588095D01*
X285941666Y-11526190D01*
X286003571Y-11464285D01*
X286065476Y-11340476D01*
X286065476Y-11030952D01*
X286003571Y-10907142D01*
X285941666Y-10845238D01*
X285817857Y-10783333D01*
X285570238Y-10783333D01*
X285446428Y-10845238D01*
X285384523Y-10907142D01*
X285322619Y-11030952D01*
D10*
D11*
X60000000Y-198007200D02*
X60000000Y-200007200D01*
D10*
D11*
X110000000Y-198007200D02*
X110000000Y-200007200D01*
D10*
D11*
X160000000Y-198007200D02*
X160000000Y-200007200D01*
D10*
D11*
X210000000Y-198007200D02*
X210000000Y-200007200D01*
D10*
D11*
X260000000Y-198007200D02*
X260000000Y-200007200D01*
D10*
D11*
X36065476Y-199595295D02*
X35322619Y-199595295D01*
X35694047Y-199595295D02*
X35694047Y-198295295D01*
X35570238Y-198481009D01*
X35446428Y-198604819D01*
X35322619Y-198666723D01*
D10*
D11*
X85322619Y-198419104D02*
X85384523Y-198357200D01*
X85508333Y-198295295D01*
X85817857Y-198295295D01*
X85941666Y-198357200D01*
X86003571Y-198419104D01*
X86065476Y-198542914D01*
X86065476Y-198666723D01*
X86003571Y-198852438D01*
X85260714Y-199595295D01*
X86065476Y-199595295D01*
D10*
D11*
X135260714Y-198295295D02*
X136065476Y-198295295D01*
X135632142Y-198790533D01*
X135817857Y-198790533D01*
X135941666Y-198852438D01*
X136003571Y-198914342D01*
X136065476Y-199038152D01*
X136065476Y-199347676D01*
X136003571Y-199471485D01*
X135941666Y-199533390D01*
X135817857Y-199595295D01*
X135446428Y-199595295D01*
X135322619Y-199533390D01*
X135260714Y-199471485D01*
D10*
D11*
X185941666Y-198728628D02*
X185941666Y-199595295D01*
X185632142Y-198233390D02*
X185322619Y-199161961D01*
X186127380Y-199161961D01*
D10*
D11*
X236003571Y-198295295D02*
X235384523Y-198295295D01*
X235322619Y-198914342D01*
X235384523Y-198852438D01*
X235508333Y-198790533D01*
X235817857Y-198790533D01*
X235941666Y-198852438D01*
X236003571Y-198914342D01*
X236065476Y-199038152D01*
X236065476Y-199347676D01*
X236003571Y-199471485D01*
X235941666Y-199533390D01*
X235817857Y-199595295D01*
X235508333Y-199595295D01*
X235384523Y-199533390D01*
X235322619Y-199471485D01*
D10*
D11*
X285941666Y-198295295D02*
X285694047Y-198295295D01*
X285570238Y-198357200D01*
X285508333Y-198419104D01*
X285384523Y-198604819D01*
X285322619Y-198852438D01*
X285322619Y-199347676D01*
X285384523Y-199471485D01*
X285446428Y-199533390D01*
X285570238Y-199595295D01*
X285817857Y-199595295D01*
X285941666Y-199533390D01*
X286003571Y-199471485D01*
X286065476Y-199347676D01*
X286065476Y-199038152D01*
X286003571Y-198914342D01*
X285941666Y-198852438D01*
X285817857Y-198790533D01*
X285570238Y-198790533D01*
X285446428Y-198852438D01*
X285384523Y-198914342D01*
X285322619Y-199038152D01*
D10*
D11*
X10000000Y-60000000D02*
X12000000Y-60000000D01*
D10*
D11*
X10000000Y-110000000D02*
X12000000Y-110000000D01*
D10*
D11*
X10000000Y-160000000D02*
X12000000Y-160000000D01*
D10*
D11*
X10690476Y-35216666D02*
X11309523Y-35216666D01*
X10566666Y-35588095D02*
X11000000Y-34288095D01*
X11433333Y-35588095D01*
D10*
D11*
X11092857Y-84907142D02*
X11278571Y-84969047D01*
X11340476Y-85030952D01*
X11402380Y-85154761D01*
X11402380Y-85340476D01*
X11340476Y-85464285D01*
X11278571Y-85526190D01*
X11154761Y-85588095D01*
X10659523Y-85588095D01*
X10659523Y-84288095D01*
X11092857Y-84288095D01*
X11216666Y-84350000D01*
X11278571Y-84411904D01*
X11340476Y-84535714D01*
X11340476Y-84659523D01*
X11278571Y-84783333D01*
X11216666Y-84845238D01*
X11092857Y-84907142D01*
X10659523Y-84907142D01*
D10*
D11*
X11402380Y-135464285D02*
X11340476Y-135526190D01*
X11154761Y-135588095D01*
X11030952Y-135588095D01*
X10845238Y-135526190D01*
X10721428Y-135402380D01*
X10659523Y-135278571D01*
X10597619Y-135030952D01*
X10597619Y-134845238D01*
X10659523Y-134597619D01*
X10721428Y-134473809D01*
X10845238Y-134350000D01*
X11030952Y-134288095D01*
X11154761Y-134288095D01*
X11340476Y-134350000D01*
X11402380Y-134411904D01*
D10*
D11*
X10659523Y-185588095D02*
X10659523Y-184288095D01*
X10969047Y-184288095D01*
X11154761Y-184350000D01*
X11278571Y-184473809D01*
X11340476Y-184597619D01*
X11402380Y-184845238D01*
X11402380Y-185030952D01*
X11340476Y-185278571D01*
X11278571Y-185402380D01*
X11154761Y-185526190D01*
X10969047Y-185588095D01*
X10659523Y-185588095D01*
D10*
D11*
X287002200Y-60000000D02*
X285002200Y-60000000D01*
D10*
D11*
X287002200Y-110000000D02*
X285002200Y-110000000D01*
D10*
D11*
X287002200Y-160000000D02*
X285002200Y-160000000D01*
D10*
D11*
X285692676Y-35216666D02*
X286311723Y-35216666D01*
X285568866Y-35588095D02*
X286002200Y-34288095D01*
X286435533Y-35588095D01*
D10*
D11*
X286095057Y-84907142D02*
X286280771Y-84969047D01*
X286342676Y-85030952D01*
X286404580Y-85154761D01*
X286404580Y-85340476D01*
X286342676Y-85464285D01*
X286280771Y-85526190D01*
X286156961Y-85588095D01*
X285661723Y-85588095D01*
X285661723Y-84288095D01*
X286095057Y-84288095D01*
X286218866Y-84350000D01*
X286280771Y-84411904D01*
X286342676Y-84535714D01*
X286342676Y-84659523D01*
X286280771Y-84783333D01*
X286218866Y-84845238D01*
X286095057Y-84907142D01*
X285661723Y-84907142D01*
D10*
D11*
X286404580Y-135464285D02*
X286342676Y-135526190D01*
X286156961Y-135588095D01*
X286033152Y-135588095D01*
X285847438Y-135526190D01*
X285723628Y-135402380D01*
X285661723Y-135278571D01*
X285599819Y-135030952D01*
X285599819Y-134845238D01*
X285661723Y-134597619D01*
X285723628Y-134473809D01*
X285847438Y-134350000D01*
X286033152Y-134288095D01*
X286156961Y-134288095D01*
X286342676Y-134350000D01*
X286404580Y-134411904D01*
D10*
D11*
X285661723Y-185588095D02*
X285661723Y-184288095D01*
X285971247Y-184288095D01*
X286156961Y-184350000D01*
X286280771Y-184473809D01*
X286342676Y-184597619D01*
X286404580Y-184845238D01*
X286404580Y-185030952D01*
X286342676Y-185278571D01*
X286280771Y-185402380D01*
X286156961Y-185526190D01*
X285971247Y-185588095D01*
X285661723Y-185588095D01*
D10*
D11*
X200434342Y-193785771D02*
X200434342Y-192285771D01*
X200791485Y-192285771D01*
X201005771Y-192357200D01*
X201148628Y-192500057D01*
X201220057Y-192642914D01*
X201291485Y-192928628D01*
X201291485Y-193142914D01*
X201220057Y-193428628D01*
X201148628Y-193571485D01*
X201005771Y-193714342D01*
X200791485Y-193785771D01*
X200434342Y-193785771D01*
X202577200Y-193785771D02*
X202577200Y-193000057D01*
X202505771Y-192857200D01*
X202362914Y-192785771D01*
X202077200Y-192785771D01*
X201934342Y-192857200D01*
X202577200Y-193714342D02*
X202434342Y-193785771D01*
X202077200Y-193785771D01*
X201934342Y-193714342D01*
X201862914Y-193571485D01*
X201862914Y-193428628D01*
X201934342Y-193285771D01*
X202077200Y-193214342D01*
X202434342Y-193214342D01*
X202577200Y-193142914D01*
X203077200Y-192785771D02*
X203648628Y-192785771D01*
X203291485Y-192285771D02*
X203291485Y-193571485D01*
X203362914Y-193714342D01*
X203505771Y-193785771D01*
X203648628Y-193785771D01*
X204720057Y-193714342D02*
X204577200Y-193785771D01*
X204291485Y-193785771D01*
X204148628Y-193714342D01*
X204077200Y-193571485D01*
X204077200Y-193000057D01*
X204148628Y-192857200D01*
X204291485Y-192785771D01*
X204577200Y-192785771D01*
X204720057Y-192857200D01*
X204791485Y-193000057D01*
X204791485Y-193142914D01*
X204077200Y-193285771D01*
X205434342Y-193642914D02*
X205505771Y-193714342D01*
X205434342Y-193785771D01*
X205362914Y-193714342D01*
X205434342Y-193642914D01*
X205434342Y-193785771D01*
X205434342Y-192857200D02*
X205505771Y-192928628D01*
X205434342Y-193000057D01*
X205362914Y-192928628D01*
X205434342Y-192857200D01*
X205434342Y-193000057D01*
X207220057Y-192428628D02*
X207291485Y-192357200D01*
X207434342Y-192285771D01*
X207791485Y-192285771D01*
X207934342Y-192357200D01*
X208005771Y-192428628D01*
X208077200Y-192571485D01*
X208077200Y-192714342D01*
X208005771Y-192928628D01*
X207148628Y-193785771D01*
X208077200Y-193785771D01*
X209005771Y-192285771D02*
X209148628Y-192285771D01*
X209291485Y-192357200D01*
X209362914Y-192428628D01*
X209434342Y-192571485D01*
X209505771Y-192857200D01*
X209505771Y-193214342D01*
X209434342Y-193500057D01*
X209362914Y-193642914D01*
X209291485Y-193714342D01*
X209148628Y-193785771D01*
X209005771Y-193785771D01*
X208862914Y-193714342D01*
X208791485Y-193642914D01*
X208720057Y-193500057D01*
X208648628Y-193214342D01*
X208648628Y-192857200D01*
X208720057Y-192571485D01*
X208791485Y-192428628D01*
X208862914Y-192357200D01*
X209005771Y-192285771D01*
X210077200Y-192428628D02*
X210148628Y-192357200D01*
X210291485Y-192285771D01*
X210648628Y-192285771D01*
X210791485Y-192357200D01*
X210862914Y-192428628D01*
X210934342Y-192571485D01*
X210934342Y-192714342D01*
X210862914Y-192928628D01*
X210005771Y-193785771D01*
X210934342Y-193785771D01*
X212362914Y-193785771D02*
X211505771Y-193785771D01*
X211934342Y-193785771D02*
X211934342Y-192285771D01*
X211791485Y-192500057D01*
X211648628Y-192642914D01*
X211505771Y-192714342D01*
X213005771Y-193214342D02*
X214148628Y-193214342D01*
X215148628Y-192285771D02*
X215291485Y-192285771D01*
X215434342Y-192357200D01*
X215505771Y-192428628D01*
X215577200Y-192571485D01*
X215648628Y-192857200D01*
X215648628Y-193214342D01*
X215577200Y-193500057D01*
X215505771Y-193642914D01*
X215434342Y-193714342D01*
X215291485Y-193785771D01*
X215148628Y-193785771D01*
X215005771Y-193714342D01*
X214934342Y-193642914D01*
X214862914Y-193500057D01*
X214791485Y-193214342D01*
X214791485Y-192857200D01*
X214862914Y-192571485D01*
X214934342Y-192428628D01*
X215005771Y-192357200D01*
X215148628Y-192285771D01*
X217077200Y-193785771D02*
X216220057Y-193785771D01*
X216648628Y-193785771D02*
X216648628Y-192285771D01*
X216505771Y-192500057D01*
X216362914Y-192642914D01*
X216220057Y-192714342D01*
X217720057Y-193214342D02*
X218862914Y-193214342D01*
X220362914Y-193785771D02*
X219505771Y-193785771D01*
X219934342Y-193785771D02*
X219934342Y-192285771D01*
X219791485Y-192500057D01*
X219648628Y-192642914D01*
X219505771Y-192714342D01*
X221648628Y-192785771D02*
X221648628Y-193785771D01*
X221291485Y-192214342D02*
X220934342Y-193285771D01*
X221862914Y-193285771D01*
D10*
D11*
X177002200Y-194507200D02*
X285002200Y-194507200D01*
D10*
D11*
X178434342Y-196585771D02*
X178434342Y-195085771D01*
X179291485Y-196585771D02*
X178648628Y-195728628D01*
X179291485Y-195085771D02*
X178434342Y-195942914D01*
X179934342Y-196585771D02*
X179934342Y-195585771D01*
X179934342Y-195085771D02*
X179862914Y-195157200D01*
X179934342Y-195228628D01*
X180005771Y-195157200D01*
X179934342Y-195085771D01*
X179934342Y-195228628D01*
X181505771Y-196442914D02*
X181434342Y-196514342D01*
X181220057Y-196585771D01*
X181077200Y-196585771D01*
X180862914Y-196514342D01*
X180720057Y-196371485D01*
X180648628Y-196228628D01*
X180577200Y-195942914D01*
X180577200Y-195728628D01*
X180648628Y-195442914D01*
X180720057Y-195300057D01*
X180862914Y-195157200D01*
X181077200Y-195085771D01*
X181220057Y-195085771D01*
X181434342Y-195157200D01*
X181505771Y-195228628D01*
X182791485Y-196585771D02*
X182791485Y-195800057D01*
X182720057Y-195657200D01*
X182577200Y-195585771D01*
X182291485Y-195585771D01*
X182148628Y-195657200D01*
X182791485Y-196514342D02*
X182648628Y-196585771D01*
X182291485Y-196585771D01*
X182148628Y-196514342D01*
X182077200Y-196371485D01*
X182077200Y-196228628D01*
X182148628Y-196085771D01*
X182291485Y-196014342D01*
X182648628Y-196014342D01*
X182791485Y-195942914D01*
X184148628Y-196585771D02*
X184148628Y-195085771D01*
X184148628Y-196514342D02*
X184005771Y-196585771D01*
X183720057Y-196585771D01*
X183577200Y-196514342D01*
X183505771Y-196442914D01*
X183434342Y-196300057D01*
X183434342Y-195871485D01*
X183505771Y-195728628D01*
X183577200Y-195657200D01*
X183720057Y-195585771D01*
X184005771Y-195585771D01*
X184148628Y-195657200D01*
X186005771Y-195800057D02*
X186505771Y-195800057D01*
X186720057Y-196585771D02*
X186005771Y-196585771D01*
X186005771Y-195085771D01*
X186720057Y-195085771D01*
X187362914Y-196442914D02*
X187434342Y-196514342D01*
X187362914Y-196585771D01*
X187291485Y-196514342D01*
X187362914Y-196442914D01*
X187362914Y-196585771D01*
X188077200Y-196585771D02*
X188077200Y-195085771D01*
X188434342Y-195085771D01*
X188648628Y-195157200D01*
X188791485Y-195300057D01*
X188862914Y-195442914D01*
X188934342Y-195728628D01*
X188934342Y-195942914D01*
X188862914Y-196228628D01*
X188791485Y-196371485D01*
X188648628Y-196514342D01*
X188434342Y-196585771D01*
X188077200Y-196585771D01*
X189577200Y-196442914D02*
X189648628Y-196514342D01*
X189577200Y-196585771D01*
X189505771Y-196514342D01*
X189577200Y-196442914D01*
X189577200Y-196585771D01*
X190220057Y-196157200D02*
X190934342Y-196157200D01*
X190077200Y-196585771D02*
X190577200Y-195085771D01*
X191077200Y-196585771D01*
X191577200Y-196442914D02*
X191648628Y-196514342D01*
X191577200Y-196585771D01*
X191505771Y-196514342D01*
X191577200Y-196442914D01*
X191577200Y-196585771D01*
X194577200Y-196585771D02*
X194577200Y-195085771D01*
X194720057Y-196014342D02*
X195148628Y-196585771D01*
X195148628Y-195585771D02*
X194577200Y-196157200D01*
X195791485Y-196585771D02*
X195791485Y-195585771D01*
X195791485Y-195085771D02*
X195720057Y-195157200D01*
X195791485Y-195228628D01*
X195862914Y-195157200D01*
X195791485Y-195085771D01*
X195791485Y-195228628D01*
X197148628Y-196514342D02*
X197005771Y-196585771D01*
X196720057Y-196585771D01*
X196577200Y-196514342D01*
X196505771Y-196442914D01*
X196434342Y-196300057D01*
X196434342Y-195871485D01*
X196505771Y-195728628D01*
X196577200Y-195657200D01*
X196720057Y-195585771D01*
X197005771Y-195585771D01*
X197148628Y-195657200D01*
X198434342Y-196585771D02*
X198434342Y-195800057D01*
X198362914Y-195657200D01*
X198220057Y-195585771D01*
X197934342Y-195585771D01*
X197791485Y-195657200D01*
X198434342Y-196514342D02*
X198291485Y-196585771D01*
X197934342Y-196585771D01*
X197791485Y-196514342D01*
X197720057Y-196371485D01*
X197720057Y-196228628D01*
X197791485Y-196085771D01*
X197934342Y-196014342D01*
X198291485Y-196014342D01*
X198434342Y-195942914D01*
X199791485Y-196585771D02*
X199791485Y-195085771D01*
X199791485Y-196514342D02*
X199648628Y-196585771D01*
X199362914Y-196585771D01*
X199220057Y-196514342D01*
X199148628Y-196442914D01*
X199077200Y-196300057D01*
X199077200Y-195871485D01*
X199148628Y-195728628D01*
X199220057Y-195657200D01*
X199362914Y-195585771D01*
X199648628Y-195585771D01*
X199791485Y-195657200D01*
X202077200Y-197157200D02*
X202005771Y-197085771D01*
X201862914Y-196871485D01*
X201791485Y-196728628D01*
X201720057Y-196514342D01*
X201648628Y-196157200D01*
X201648628Y-195871485D01*
X201720057Y-195514342D01*
X201791485Y-195300057D01*
X201862914Y-195157200D01*
X202005771Y-194942914D01*
X202077200Y-194871485D01*
X203291485Y-195085771D02*
X203005771Y-195085771D01*
X202862914Y-195157200D01*
X202791485Y-195228628D01*
X202648628Y-195442914D01*
X202577200Y-195728628D01*
X202577200Y-196300057D01*
X202648628Y-196442914D01*
X202720057Y-196514342D01*
X202862914Y-196585771D01*
X203148628Y-196585771D01*
X203291485Y-196514342D01*
X203362914Y-196442914D01*
X203434342Y-196300057D01*
X203434342Y-195942914D01*
X203362914Y-195800057D01*
X203291485Y-195728628D01*
X203148628Y-195657200D01*
X202862914Y-195657200D01*
X202720057Y-195728628D01*
X202648628Y-195800057D01*
X202577200Y-195942914D01*
X204077200Y-196442914D02*
X204148628Y-196514342D01*
X204077200Y-196585771D01*
X204005771Y-196514342D01*
X204077200Y-196442914D01*
X204077200Y-196585771D01*
X205077200Y-195085771D02*
X205220057Y-195085771D01*
X205362914Y-195157200D01*
X205434342Y-195228628D01*
X205505771Y-195371485D01*
X205577200Y-195657200D01*
X205577200Y-196014342D01*
X205505771Y-196300057D01*
X205434342Y-196442914D01*
X205362914Y-196514342D01*
X205220057Y-196585771D01*
X205077200Y-196585771D01*
X204934342Y-196514342D01*
X204862914Y-196442914D01*
X204791485Y-196300057D01*
X204720057Y-196014342D01*
X204720057Y-195657200D01*
X204791485Y-195371485D01*
X204862914Y-195228628D01*
X204934342Y-195157200D01*
X205077200Y-195085771D01*
X206220057Y-196442914D02*
X206291485Y-196514342D01*
X206220057Y-196585771D01*
X206148628Y-196514342D01*
X206220057Y-196442914D01*
X206220057Y-196585771D01*
X207720057Y-196585771D02*
X206862914Y-196585771D01*
X207291485Y-196585771D02*
X207291485Y-195085771D01*
X207148628Y-195300057D01*
X207005771Y-195442914D01*
X206862914Y-195514342D01*
X208362914Y-196014342D02*
X209505771Y-196014342D01*
X210505771Y-195085771D02*
X210648628Y-195085771D01*
X210791485Y-195157200D01*
X210862914Y-195228628D01*
X210934342Y-195371485D01*
X211005771Y-195657200D01*
X211005771Y-196014342D01*
X210934342Y-196300057D01*
X210862914Y-196442914D01*
X210791485Y-196514342D01*
X210648628Y-196585771D01*
X210505771Y-196585771D01*
X210362914Y-196514342D01*
X210291485Y-196442914D01*
X210220057Y-196300057D01*
X210148628Y-196014342D01*
X210148628Y-195657200D01*
X210220057Y-195371485D01*
X210291485Y-195228628D01*
X210362914Y-195157200D01*
X210505771Y-195085771D01*
X211505771Y-197157200D02*
X211577200Y-197085771D01*
X211720057Y-196871485D01*
X211791485Y-196728628D01*
X211862914Y-196514342D01*
X211934342Y-196157200D01*
X211934342Y-195871485D01*
X211862914Y-195514342D01*
X211791485Y-195300057D01*
X211720057Y-195157200D01*
X211577200Y-194942914D01*
X211505771Y-194871485D01*
D10*
D11*
X177002200Y-191507200D02*
X285002200Y-191507200D01*
D10*
D12*
X264411485Y-193785771D02*
X263911485Y-193071485D01*
X263554342Y-193785771D02*
X263554342Y-192285771D01*
X264125771Y-192285771D01*
X264268628Y-192357200D01*
X264340057Y-192428628D01*
X264411485Y-192571485D01*
X264411485Y-192785771D01*
X264340057Y-192928628D01*
X264268628Y-193000057D01*
X264125771Y-193071485D01*
X263554342Y-193071485D01*
X265625771Y-193714342D02*
X265482914Y-193785771D01*
X265197200Y-193785771D01*
X265054342Y-193714342D01*
X264982914Y-193571485D01*
X264982914Y-193000057D01*
X265054342Y-192857200D01*
X265197200Y-192785771D01*
X265482914Y-192785771D01*
X265625771Y-192857200D01*
X265697200Y-193000057D01*
X265697200Y-193142914D01*
X264982914Y-193285771D01*
X266197200Y-192785771D02*
X266554342Y-193785771D01*
X266911485Y-192785771D01*
X267482914Y-193642914D02*
X267554342Y-193714342D01*
X267482914Y-193785771D01*
X267411485Y-193714342D01*
X267482914Y-193642914D01*
X267482914Y-193785771D01*
X267482914Y-192857200D02*
X267554342Y-192928628D01*
X267482914Y-193000057D01*
X267411485Y-192928628D01*
X267482914Y-192857200D01*
X267482914Y-193000057D01*
D10*
D11*
X178362914Y-193714342D02*
X178577200Y-193785771D01*
X178934342Y-193785771D01*
X179077200Y-193714342D01*
X179148628Y-193642914D01*
X179220057Y-193500057D01*
X179220057Y-193357200D01*
X179148628Y-193214342D01*
X179077200Y-193142914D01*
X178934342Y-193071485D01*
X178648628Y-193000057D01*
X178505771Y-192928628D01*
X178434342Y-192857200D01*
X178362914Y-192714342D01*
X178362914Y-192571485D01*
X178434342Y-192428628D01*
X178505771Y-192357200D01*
X178648628Y-192285771D01*
X179005771Y-192285771D01*
X179220057Y-192357200D01*
X179862914Y-193785771D02*
X179862914Y-192785771D01*
X179862914Y-192285771D02*
X179791485Y-192357200D01*
X179862914Y-192428628D01*
X179934342Y-192357200D01*
X179862914Y-192285771D01*
X179862914Y-192428628D01*
X180434342Y-192785771D02*
X181220057Y-192785771D01*
X180434342Y-193785771D01*
X181220057Y-193785771D01*
X182362914Y-193714342D02*
X182220057Y-193785771D01*
X181934342Y-193785771D01*
X181791485Y-193714342D01*
X181720057Y-193571485D01*
X181720057Y-193000057D01*
X181791485Y-192857200D01*
X181934342Y-192785771D01*
X182220057Y-192785771D01*
X182362914Y-192857200D01*
X182434342Y-193000057D01*
X182434342Y-193142914D01*
X181720057Y-193285771D01*
X183077200Y-193642914D02*
X183148628Y-193714342D01*
X183077200Y-193785771D01*
X183005771Y-193714342D01*
X183077200Y-193642914D01*
X183077200Y-193785771D01*
X183077200Y-192857200D02*
X183148628Y-192928628D01*
X183077200Y-193000057D01*
X183005771Y-192928628D01*
X183077200Y-192857200D01*
X183077200Y-193000057D01*
X184862914Y-193357200D02*
X185577200Y-193357200D01*
X184720057Y-193785771D02*
X185220057Y-192285771D01*
X185720057Y-193785771D01*
X186862914Y-192785771D02*
X186862914Y-193785771D01*
X186505771Y-192214342D02*
X186148628Y-193285771D01*
X187077200Y-193285771D01*
D10*
D11*
X263434342Y-196585771D02*
X263434342Y-195085771D01*
X264791485Y-196585771D02*
X264791485Y-195085771D01*
X264791485Y-196514342D02*
X264648628Y-196585771D01*
X264362914Y-196585771D01*
X264220057Y-196514342D01*
X264148628Y-196442914D01*
X264077200Y-196300057D01*
X264077200Y-195871485D01*
X264148628Y-195728628D01*
X264220057Y-195657200D01*
X264362914Y-195585771D01*
X264648628Y-195585771D01*
X264791485Y-195657200D01*
X265505771Y-196442914D02*
X265577200Y-196514342D01*
X265505771Y-196585771D01*
X265434342Y-196514342D01*
X265505771Y-196442914D01*
X265505771Y-196585771D01*
X265505771Y-195657200D02*
X265577200Y-195728628D01*
X265505771Y-195800057D01*
X265434342Y-195728628D01*
X265505771Y-195657200D01*
X265505771Y-195800057D01*
X268148628Y-196585771D02*
X267291485Y-196585771D01*
X267720057Y-196585771D02*
X267720057Y-195085771D01*
X267577200Y-195300057D01*
X267434342Y-195442914D01*
X267291485Y-195514342D01*
X269862914Y-195014342D02*
X268577200Y-196942914D01*
X271148628Y-196585771D02*
X270291485Y-196585771D01*
X270720057Y-196585771D02*
X270720057Y-195085771D01*
X270577200Y-195300057D01*
X270434342Y-195442914D01*
X270291485Y-195514342D01*
D10*
D11*
X177002200Y-187507200D02*
X285002200Y-187507200D01*
D10*
D13*
X178714580Y-188211961D02*
X179857438Y-188211961D01*
X179036009Y-190211961D02*
X179286009Y-188211961D01*
X180274104Y-190211961D02*
X180440771Y-188878628D01*
X180524104Y-188211961D02*
X180416961Y-188307200D01*
X180500295Y-188402438D01*
X180607438Y-188307200D01*
X180524104Y-188211961D01*
X180500295Y-188402438D01*
X181107438Y-188878628D02*
X181869342Y-188878628D01*
X181476485Y-188211961D02*
X181262200Y-189926247D01*
X181333628Y-190116723D01*
X181512200Y-190211961D01*
X181702676Y-190211961D01*
X182655057Y-190211961D02*
X182476485Y-190116723D01*
X182405057Y-189926247D01*
X182619342Y-188211961D01*
X184190771Y-190116723D02*
X183988390Y-190211961D01*
X183607438Y-190211961D01*
X183428866Y-190116723D01*
X183357438Y-189926247D01*
X183452676Y-189164342D01*
X183571723Y-188973866D01*
X183774104Y-188878628D01*
X184155057Y-188878628D01*
X184333628Y-188973866D01*
X184405057Y-189164342D01*
X184381247Y-189354819D01*
X183405057Y-189545295D01*
X185155057Y-190021485D02*
X185238390Y-190116723D01*
X185131247Y-190211961D01*
X185047914Y-190116723D01*
X185155057Y-190021485D01*
X185131247Y-190211961D01*
X185286009Y-188973866D02*
X185369342Y-189069104D01*
X185262200Y-189164342D01*
X185178866Y-189069104D01*
X185286009Y-188973866D01*
X185262200Y-189164342D01*
D10*
D11*
X178934342Y-185600057D02*
X178434342Y-185600057D01*
X178434342Y-186385771D02*
X178434342Y-184885771D01*
X179148628Y-184885771D01*
X179720057Y-186385771D02*
X179720057Y-185385771D01*
X179720057Y-184885771D02*
X179648628Y-184957200D01*
X179720057Y-185028628D01*
X179791485Y-184957200D01*
X179720057Y-184885771D01*
X179720057Y-185028628D01*
X180648628Y-186385771D02*
X180505771Y-186314342D01*
X180434342Y-186171485D01*
X180434342Y-184885771D01*
X181791485Y-186314342D02*
X181648628Y-186385771D01*
X181362914Y-186385771D01*
X181220057Y-186314342D01*
X181148628Y-186171485D01*
X181148628Y-185600057D01*
X181220057Y-185457200D01*
X181362914Y-185385771D01*
X181648628Y-185385771D01*
X181791485Y-185457200D01*
X181862914Y-185600057D01*
X181862914Y-185742914D01*
X181148628Y-185885771D01*
X182505771Y-186242914D02*
X182577200Y-186314342D01*
X182505771Y-186385771D01*
X182434342Y-186314342D01*
X182505771Y-186242914D01*
X182505771Y-186385771D01*
X182505771Y-185457200D02*
X182577200Y-185528628D01*
X182505771Y-185600057D01*
X182434342Y-185528628D01*
X182505771Y-185457200D01*
X182505771Y-185600057D01*
X184862914Y-185600057D02*
X185077200Y-185671485D01*
X185148628Y-185742914D01*
X185220057Y-185885771D01*
X185220057Y-186100057D01*
X185148628Y-186242914D01*
X185077200Y-186314342D01*
X184934342Y-186385771D01*
X184362914Y-186385771D01*
X184362914Y-184885771D01*
X184862914Y-184885771D01*
X185005771Y-184957200D01*
X185077200Y-185028628D01*
X185148628Y-185171485D01*
X185148628Y-185314342D01*
X185077200Y-185457200D01*
X185005771Y-185528628D01*
X184862914Y-185600057D01*
X184362914Y-185600057D01*
X185862914Y-186385771D02*
X185862914Y-185385771D01*
X185862914Y-184885771D02*
X185791485Y-184957200D01*
X185862914Y-185028628D01*
X185934342Y-184957200D01*
X185862914Y-184885771D01*
X185862914Y-185028628D01*
X187220057Y-186385771D02*
X187220057Y-185600057D01*
X187148628Y-185457200D01*
X187005771Y-185385771D01*
X186720057Y-185385771D01*
X186577200Y-185457200D01*
X187220057Y-186314342D02*
X187077200Y-186385771D01*
X186720057Y-186385771D01*
X186577200Y-186314342D01*
X186505771Y-186171485D01*
X186505771Y-186028628D01*
X186577200Y-185885771D01*
X186720057Y-185814342D01*
X187077200Y-185814342D01*
X187220057Y-185742914D01*
X187862914Y-186314342D02*
X188005771Y-186385771D01*
X188291485Y-186385771D01*
X188434342Y-186314342D01*
X188505771Y-186171485D01*
X188505771Y-186100057D01*
X188434342Y-185957200D01*
X188291485Y-185885771D01*
X188077200Y-185885771D01*
X187934342Y-185814342D01*
X187862914Y-185671485D01*
X187862914Y-185600057D01*
X187934342Y-185457200D01*
X188077200Y-185385771D01*
X188291485Y-185385771D01*
X188434342Y-185457200D01*
X190005771Y-186385771D02*
X189505771Y-185671485D01*
X189148628Y-186385771D02*
X189148628Y-184885771D01*
X189720057Y-184885771D01*
X189862914Y-184957200D01*
X189934342Y-185028628D01*
X190005771Y-185171485D01*
X190005771Y-185385771D01*
X189934342Y-185528628D01*
X189862914Y-185600057D01*
X189720057Y-185671485D01*
X189148628Y-185671485D01*
X191220057Y-186314342D02*
X191077200Y-186385771D01*
X190791485Y-186385771D01*
X190648628Y-186314342D01*
X190577200Y-186171485D01*
X190577200Y-185600057D01*
X190648628Y-185457200D01*
X190791485Y-185385771D01*
X191077200Y-185385771D01*
X191220057Y-185457200D01*
X191291485Y-185600057D01*
X191291485Y-185742914D01*
X190577200Y-185885771D01*
X192577200Y-186314342D02*
X192434342Y-186385771D01*
X192148628Y-186385771D01*
X192005771Y-186314342D01*
X191934342Y-186242914D01*
X191862914Y-186100057D01*
X191862914Y-185671485D01*
X191934342Y-185528628D01*
X192005771Y-185457200D01*
X192148628Y-185385771D01*
X192434342Y-185385771D01*
X192577200Y-185457200D01*
X193791485Y-186314342D02*
X193648628Y-186385771D01*
X193362914Y-186385771D01*
X193220057Y-186314342D01*
X193148628Y-186171485D01*
X193148628Y-185600057D01*
X193220057Y-185457200D01*
X193362914Y-185385771D01*
X193648628Y-185385771D01*
X193791485Y-185457200D01*
X193862914Y-185600057D01*
X193862914Y-185742914D01*
X193148628Y-185885771D01*
X194505771Y-186385771D02*
X194505771Y-185385771D01*
X194505771Y-184885771D02*
X194434342Y-184957200D01*
X194505771Y-185028628D01*
X194577200Y-184957200D01*
X194505771Y-184885771D01*
X194505771Y-185028628D01*
X195077200Y-185385771D02*
X195434342Y-186385771D01*
X195791485Y-185385771D01*
X196934342Y-186314342D02*
X196791485Y-186385771D01*
X196505771Y-186385771D01*
X196362914Y-186314342D01*
X196291485Y-186171485D01*
X196291485Y-185600057D01*
X196362914Y-185457200D01*
X196505771Y-185385771D01*
X196791485Y-185385771D01*
X196934342Y-185457200D01*
X197005771Y-185600057D01*
X197005771Y-185742914D01*
X196291485Y-185885771D01*
X197648628Y-186385771D02*
X197648628Y-185385771D01*
X197648628Y-185671485D02*
X197720057Y-185528628D01*
X197791485Y-185457200D01*
X197934342Y-185385771D01*
X198077200Y-185385771D01*
X198577200Y-186242914D02*
X198648628Y-186314342D01*
X198577200Y-186385771D01*
X198505771Y-186314342D01*
X198577200Y-186242914D01*
X198577200Y-186385771D01*
X199291485Y-186385771D02*
X199291485Y-184885771D01*
X199434342Y-185814342D02*
X199862914Y-186385771D01*
X199862914Y-185385771D02*
X199291485Y-185957200D01*
X200505771Y-186385771D02*
X200505771Y-185385771D01*
X200505771Y-184885771D02*
X200434342Y-184957200D01*
X200505771Y-185028628D01*
X200577200Y-184957200D01*
X200505771Y-184885771D01*
X200505771Y-185028628D01*
X201862914Y-186314342D02*
X201720057Y-186385771D01*
X201434342Y-186385771D01*
X201291485Y-186314342D01*
X201220057Y-186242914D01*
X201148628Y-186100057D01*
X201148628Y-185671485D01*
X201220057Y-185528628D01*
X201291485Y-185457200D01*
X201434342Y-185385771D01*
X201720057Y-185385771D01*
X201862914Y-185457200D01*
X203148628Y-186385771D02*
X203148628Y-185600057D01*
X203077200Y-185457200D01*
X202934342Y-185385771D01*
X202648628Y-185385771D01*
X202505771Y-185457200D01*
X203148628Y-186314342D02*
X203005771Y-186385771D01*
X202648628Y-186385771D01*
X202505771Y-186314342D01*
X202434342Y-186171485D01*
X202434342Y-186028628D01*
X202505771Y-185885771D01*
X202648628Y-185814342D01*
X203005771Y-185814342D01*
X203148628Y-185742914D01*
X204505771Y-186385771D02*
X204505771Y-184885771D01*
X204505771Y-186314342D02*
X204362914Y-186385771D01*
X204077200Y-186385771D01*
X203934342Y-186314342D01*
X203862914Y-186242914D01*
X203791485Y-186100057D01*
X203791485Y-185671485D01*
X203862914Y-185528628D01*
X203934342Y-185457200D01*
X204077200Y-185385771D01*
X204362914Y-185385771D01*
X204505771Y-185457200D01*
X204862914Y-186528628D02*
X206005771Y-186528628D01*
X206362914Y-185385771D02*
X206362914Y-186885771D01*
X206362914Y-185457200D02*
X206505771Y-185385771D01*
X206791485Y-185385771D01*
X206934342Y-185457200D01*
X207005771Y-185528628D01*
X207077200Y-185671485D01*
X207077200Y-186100057D01*
X207005771Y-186242914D01*
X206934342Y-186314342D01*
X206791485Y-186385771D01*
X206505771Y-186385771D01*
X206362914Y-186314342D01*
X208362914Y-186314342D02*
X208220057Y-186385771D01*
X207934342Y-186385771D01*
X207791485Y-186314342D01*
X207720057Y-186242914D01*
X207648628Y-186100057D01*
X207648628Y-185671485D01*
X207720057Y-185528628D01*
X207791485Y-185457200D01*
X207934342Y-185385771D01*
X208220057Y-185385771D01*
X208362914Y-185457200D01*
X209005771Y-186385771D02*
X209005771Y-184885771D01*
X209005771Y-185457200D02*
X209148628Y-185385771D01*
X209434342Y-185385771D01*
X209577200Y-185457200D01*
X209648628Y-185528628D01*
X209720057Y-185671485D01*
X209720057Y-186100057D01*
X209648628Y-186242914D01*
X209577200Y-186314342D01*
X209434342Y-186385771D01*
X209148628Y-186385771D01*
X209005771Y-186314342D01*
D10*
D11*
X177002200Y-181507200D02*
X285002200Y-181507200D01*
D10*
D11*
X178362914Y-183614342D02*
X178577200Y-183685771D01*
X178934342Y-183685771D01*
X179077200Y-183614342D01*
X179148628Y-183542914D01*
X179220057Y-183400057D01*
X179220057Y-183257200D01*
X179148628Y-183114342D01*
X179077200Y-183042914D01*
X178934342Y-182971485D01*
X178648628Y-182900057D01*
X178505771Y-182828628D01*
X178434342Y-182757200D01*
X178362914Y-182614342D01*
X178362914Y-182471485D01*
X178434342Y-182328628D01*
X178505771Y-182257200D01*
X178648628Y-182185771D01*
X179005771Y-182185771D01*
X179220057Y-182257200D01*
X179862914Y-183685771D02*
X179862914Y-182185771D01*
X180505771Y-183685771D02*
X180505771Y-182900057D01*
X180434342Y-182757200D01*
X180291485Y-182685771D01*
X180077200Y-182685771D01*
X179934342Y-182757200D01*
X179862914Y-182828628D01*
X181791485Y-183614342D02*
X181648628Y-183685771D01*
X181362914Y-183685771D01*
X181220057Y-183614342D01*
X181148628Y-183471485D01*
X181148628Y-182900057D01*
X181220057Y-182757200D01*
X181362914Y-182685771D01*
X181648628Y-182685771D01*
X181791485Y-182757200D01*
X181862914Y-182900057D01*
X181862914Y-183042914D01*
X181148628Y-183185771D01*
X183077200Y-183614342D02*
X182934342Y-183685771D01*
X182648628Y-183685771D01*
X182505771Y-183614342D01*
X182434342Y-183471485D01*
X182434342Y-182900057D01*
X182505771Y-182757200D01*
X182648628Y-182685771D01*
X182934342Y-182685771D01*
X183077200Y-182757200D01*
X183148628Y-182900057D01*
X183148628Y-183042914D01*
X182434342Y-183185771D01*
X183577200Y-182685771D02*
X184148628Y-182685771D01*
X183791485Y-182185771D02*
X183791485Y-183471485D01*
X183862914Y-183614342D01*
X184005771Y-183685771D01*
X184148628Y-183685771D01*
X184648628Y-183542914D02*
X184720057Y-183614342D01*
X184648628Y-183685771D01*
X184577200Y-183614342D01*
X184648628Y-183542914D01*
X184648628Y-183685771D01*
X184648628Y-182757200D02*
X184720057Y-182828628D01*
X184648628Y-182900057D01*
X184577200Y-182828628D01*
X184648628Y-182757200D01*
X184648628Y-182900057D01*
D10*
D12*
D10*
D11*
D10*
D11*
D10*
D11*
D10*
D11*
D10*
D11*
X197002200Y-191507200D02*
X197002200Y-194507200D01*
D10*
D11*
X261002200Y-191507200D02*
X261002200Y-198007200D01*
D14*
X76200000Y-38100000D02*
X176149000Y-38100000D01*
X176149000Y-38100000D02*
X176149000Y-138049000D01*
X176149000Y-138049000D02*
X76200000Y-138049000D01*
X76200000Y-138049000D02*
X76200000Y-38100000D01*
D15*
X95993857Y-126365000D02*
X95848714Y-126292428D01*
X95631000Y-126292428D01*
X95413285Y-126365000D01*
X95268142Y-126510142D01*
X95195571Y-126655285D01*
X95123000Y-126945571D01*
X95123000Y-127163285D01*
X95195571Y-127453571D01*
X95268142Y-127598714D01*
X95413285Y-127743857D01*
X95631000Y-127816428D01*
X95776142Y-127816428D01*
X95993857Y-127743857D01*
X96066428Y-127671285D01*
X96066428Y-127163285D01*
X95776142Y-127163285D01*
X96719571Y-127816428D02*
X96719571Y-126292428D01*
X97590428Y-127816428D01*
X97590428Y-126292428D01*
X98316142Y-127816428D02*
X98316142Y-126292428D01*
X98679000Y-126292428D01*
X98896714Y-126365000D01*
X99041857Y-126510142D01*
X99114428Y-126655285D01*
X99187000Y-126945571D01*
X99187000Y-127163285D01*
X99114428Y-127453571D01*
X99041857Y-127598714D01*
X98896714Y-127743857D01*
X98679000Y-127816428D01*
X98316142Y-127816428D01*
X110000142Y-102543428D02*
X110508142Y-104067428D01*
X111016142Y-102543428D01*
X111524142Y-104067428D02*
X111524142Y-102543428D01*
X111887000Y-102543428D01*
X112104714Y-102616000D01*
X112249857Y-102761142D01*
X112322428Y-102906285D01*
X112395000Y-103196571D01*
X112395000Y-103414285D01*
X112322428Y-103704571D01*
X112249857Y-103849714D01*
X112104714Y-103994857D01*
X111887000Y-104067428D01*
X111524142Y-104067428D01*
X113048142Y-104067428D02*
X113048142Y-102543428D01*
X113411000Y-102543428D01*
X113628714Y-102616000D01*
X113773857Y-102761142D01*
X113846428Y-102906285D01*
X113919000Y-103196571D01*
X113919000Y-103414285D01*
X113846428Y-103704571D01*
X113773857Y-103849714D01*
X113628714Y-103994857D01*
X113411000Y-104067428D01*
X113048142Y-104067428D01*
X115225285Y-103994857D02*
X115080142Y-104067428D01*
X114789857Y-104067428D01*
X114644714Y-103994857D01*
X114572142Y-103922285D01*
X114499571Y-103777142D01*
X114499571Y-103341714D01*
X114572142Y-103196571D01*
X114644714Y-103124000D01*
X114789857Y-103051428D01*
X115080142Y-103051428D01*
X115225285Y-103124000D01*
X115878428Y-104067428D02*
X115878428Y-102543428D01*
X116531571Y-104067428D02*
X116531571Y-103269142D01*
X116459000Y-103124000D01*
X116313857Y-103051428D01*
X116096142Y-103051428D01*
X115951000Y-103124000D01*
X115878428Y-103196571D01*
X117257285Y-104067428D02*
X117257285Y-103051428D01*
X117257285Y-102543428D02*
X117184714Y-102616000D01*
X117257285Y-102688571D01*
X117329857Y-102616000D01*
X117257285Y-102543428D01*
X117257285Y-102688571D01*
X117983000Y-103051428D02*
X117983000Y-104575428D01*
X117983000Y-103124000D02*
X118128142Y-103051428D01*
X118418428Y-103051428D01*
X118563571Y-103124000D01*
X118636142Y-103196571D01*
X118708714Y-103341714D01*
X118708714Y-103777142D01*
X118636142Y-103922285D01*
X118563571Y-103994857D01*
X118418428Y-104067428D01*
X118128142Y-104067428D01*
X117983000Y-103994857D01*
X137867571Y-127235857D02*
X139028714Y-127235857D01*
X140480142Y-126292428D02*
X139754428Y-126292428D01*
X139681857Y-127018142D01*
X139754428Y-126945571D01*
X139899571Y-126873000D01*
X140262428Y-126873000D01*
X140407571Y-126945571D01*
X140480142Y-127018142D01*
X140552714Y-127163285D01*
X140552714Y-127526142D01*
X140480142Y-127671285D01*
X140407571Y-127743857D01*
X140262428Y-127816428D01*
X139899571Y-127816428D01*
X139754428Y-127743857D01*
X139681857Y-127671285D01*
X140988142Y-126292428D02*
X141496142Y-127816428D01*
X142004142Y-126292428D01*
X120849571Y-127235857D02*
X122010714Y-127235857D01*
X121430142Y-127816428D02*
X121430142Y-126655285D01*
X123462142Y-126292428D02*
X122736428Y-126292428D01*
X122663857Y-127018142D01*
X122736428Y-126945571D01*
X122881571Y-126873000D01*
X123244428Y-126873000D01*
X123389571Y-126945571D01*
X123462142Y-127018142D01*
X123534714Y-127163285D01*
X123534714Y-127526142D01*
X123462142Y-127671285D01*
X123389571Y-127743857D01*
X123244428Y-127816428D01*
X122881571Y-127816428D01*
X122736428Y-127743857D01*
X122663857Y-127671285D01*
X123970142Y-126292428D02*
X124478142Y-127816428D01*
X124986142Y-126292428D01*
X130283857Y-126746000D02*
X130138714Y-126673428D01*
X129921000Y-126673428D01*
X129703285Y-126746000D01*
X129558142Y-126891142D01*
X129485571Y-127036285D01*
X129413000Y-127326571D01*
X129413000Y-127544285D01*
X129485571Y-127834571D01*
X129558142Y-127979714D01*
X129703285Y-128124857D01*
X129921000Y-128197428D01*
X130066142Y-128197428D01*
X130283857Y-128124857D01*
X130356428Y-128052285D01*
X130356428Y-127544285D01*
X130066142Y-127544285D01*
X131009571Y-128197428D02*
X131009571Y-126673428D01*
X131880428Y-128197428D01*
X131880428Y-126673428D01*
X132606142Y-128197428D02*
X132606142Y-126673428D01*
X132969000Y-126673428D01*
X133186714Y-126746000D01*
X133331857Y-126891142D01*
X133404428Y-127036285D01*
X133477000Y-127326571D01*
X133477000Y-127544285D01*
X133404428Y-127834571D01*
X133331857Y-127979714D01*
X133186714Y-128124857D01*
X132969000Y-128197428D01*
X132606142Y-128197428D01*
X104466571Y-127235857D02*
X105627714Y-127235857D01*
X107079142Y-126292428D02*
X106353428Y-126292428D01*
X106280857Y-127018142D01*
X106353428Y-126945571D01*
X106498571Y-126873000D01*
X106861428Y-126873000D01*
X107006571Y-126945571D01*
X107079142Y-127018142D01*
X107151714Y-127163285D01*
X107151714Y-127526142D01*
X107079142Y-127671285D01*
X107006571Y-127743857D01*
X106861428Y-127816428D01*
X106498571Y-127816428D01*
X106353428Y-127743857D01*
X106280857Y-127671285D01*
X107587142Y-126292428D02*
X108095142Y-127816428D01*
X108603142Y-126292428D01*
X85035571Y-127235857D02*
X86196714Y-127235857D01*
X85616142Y-127816428D02*
X85616142Y-126655285D01*
X87648142Y-126292428D02*
X86922428Y-126292428D01*
X86849857Y-127018142D01*
X86922428Y-126945571D01*
X87067571Y-126873000D01*
X87430428Y-126873000D01*
X87575571Y-126945571D01*
X87648142Y-127018142D01*
X87720714Y-127163285D01*
X87720714Y-127526142D01*
X87648142Y-127671285D01*
X87575571Y-127743857D01*
X87430428Y-127816428D01*
X87067571Y-127816428D01*
X86922428Y-127743857D01*
X86849857Y-127671285D01*
X88156142Y-126292428D02*
X88664142Y-127816428D01*
X89172142Y-126292428D01*
D11*
G04 #@! TO.C,C5*
X87082333Y-111545642D02*
X87034714Y-111593261D01*
X86891857Y-111640880D01*
X86796619Y-111640880D01*
X86653761Y-111593261D01*
X86558523Y-111498023D01*
X86510904Y-111402785D01*
X86463285Y-111212309D01*
X86463285Y-111069452D01*
X86510904Y-110878976D01*
X86558523Y-110783738D01*
X86653761Y-110688500D01*
X86796619Y-110640880D01*
X86891857Y-110640880D01*
X87034714Y-110688500D01*
X87082333Y-110736119D01*
X87987095Y-110640880D02*
X87510904Y-110640880D01*
X87463285Y-111117071D01*
X87510904Y-111069452D01*
X87606142Y-111021833D01*
X87844238Y-111021833D01*
X87939476Y-111069452D01*
X87987095Y-111117071D01*
X88034714Y-111212309D01*
X88034714Y-111450404D01*
X87987095Y-111545642D01*
X87939476Y-111593261D01*
X87844238Y-111640880D01*
X87606142Y-111640880D01*
X87510904Y-111593261D01*
X87463285Y-111545642D01*
G04 #@! TO.C,P1*
X170711904Y-69362380D02*
X170711904Y-68362380D01*
X171092857Y-68362380D01*
X171188095Y-68410000D01*
X171235714Y-68457619D01*
X171283333Y-68552857D01*
X171283333Y-68695714D01*
X171235714Y-68790952D01*
X171188095Y-68838571D01*
X171092857Y-68886190D01*
X170711904Y-68886190D01*
X172235714Y-69362380D02*
X171664285Y-69362380D01*
X171950000Y-69362380D02*
X171950000Y-68362380D01*
X171854761Y-68505238D01*
X171759523Y-68600476D01*
X171664285Y-68648095D01*
G04 #@! TO.C,C20*
X123563142Y-113006142D02*
X123515523Y-113053761D01*
X123372666Y-113101380D01*
X123277428Y-113101380D01*
X123134571Y-113053761D01*
X123039333Y-112958523D01*
X122991714Y-112863285D01*
X122944095Y-112672809D01*
X122944095Y-112529952D01*
X122991714Y-112339476D01*
X123039333Y-112244238D01*
X123134571Y-112149000D01*
X123277428Y-112101380D01*
X123372666Y-112101380D01*
X123515523Y-112149000D01*
X123563142Y-112196619D01*
X123944095Y-112196619D02*
X123991714Y-112149000D01*
X124086952Y-112101380D01*
X124325047Y-112101380D01*
X124420285Y-112149000D01*
X124467904Y-112196619D01*
X124515523Y-112291857D01*
X124515523Y-112387095D01*
X124467904Y-112529952D01*
X123896476Y-113101380D01*
X124515523Y-113101380D01*
X125134571Y-112101380D02*
X125229809Y-112101380D01*
X125325047Y-112149000D01*
X125372666Y-112196619D01*
X125420285Y-112291857D01*
X125467904Y-112482333D01*
X125467904Y-112720428D01*
X125420285Y-112910904D01*
X125372666Y-113006142D01*
X125325047Y-113053761D01*
X125229809Y-113101380D01*
X125134571Y-113101380D01*
X125039333Y-113053761D01*
X124991714Y-113006142D01*
X124944095Y-112910904D01*
X124896476Y-112720428D01*
X124896476Y-112482333D01*
X124944095Y-112291857D01*
X124991714Y-112196619D01*
X125039333Y-112149000D01*
X125134571Y-112101380D01*
G04 #@! TO.C,C35*
X137660142Y-111482142D02*
X137612523Y-111529761D01*
X137469666Y-111577380D01*
X137374428Y-111577380D01*
X137231571Y-111529761D01*
X137136333Y-111434523D01*
X137088714Y-111339285D01*
X137041095Y-111148809D01*
X137041095Y-111005952D01*
X137088714Y-110815476D01*
X137136333Y-110720238D01*
X137231571Y-110625000D01*
X137374428Y-110577380D01*
X137469666Y-110577380D01*
X137612523Y-110625000D01*
X137660142Y-110672619D01*
X137993476Y-110577380D02*
X138612523Y-110577380D01*
X138279190Y-110958333D01*
X138422047Y-110958333D01*
X138517285Y-111005952D01*
X138564904Y-111053571D01*
X138612523Y-111148809D01*
X138612523Y-111386904D01*
X138564904Y-111482142D01*
X138517285Y-111529761D01*
X138422047Y-111577380D01*
X138136333Y-111577380D01*
X138041095Y-111529761D01*
X137993476Y-111482142D01*
X139517285Y-110577380D02*
X139041095Y-110577380D01*
X138993476Y-111053571D01*
X139041095Y-111005952D01*
X139136333Y-110958333D01*
X139374428Y-110958333D01*
X139469666Y-111005952D01*
X139517285Y-111053571D01*
X139564904Y-111148809D01*
X139564904Y-111386904D01*
X139517285Y-111482142D01*
X139469666Y-111529761D01*
X139374428Y-111577380D01*
X139136333Y-111577380D01*
X139041095Y-111529761D01*
X138993476Y-111482142D01*
G04 #@! TO.C,C25*
X153408142Y-113641142D02*
X153360523Y-113688761D01*
X153217666Y-113736380D01*
X153122428Y-113736380D01*
X152979571Y-113688761D01*
X152884333Y-113593523D01*
X152836714Y-113498285D01*
X152789095Y-113307809D01*
X152789095Y-113164952D01*
X152836714Y-112974476D01*
X152884333Y-112879238D01*
X152979571Y-112784000D01*
X153122428Y-112736380D01*
X153217666Y-112736380D01*
X153360523Y-112784000D01*
X153408142Y-112831619D01*
X153789095Y-112831619D02*
X153836714Y-112784000D01*
X153931952Y-112736380D01*
X154170047Y-112736380D01*
X154265285Y-112784000D01*
X154312904Y-112831619D01*
X154360523Y-112926857D01*
X154360523Y-113022095D01*
X154312904Y-113164952D01*
X153741476Y-113736380D01*
X154360523Y-113736380D01*
X155265285Y-112736380D02*
X154789095Y-112736380D01*
X154741476Y-113212571D01*
X154789095Y-113164952D01*
X154884333Y-113117333D01*
X155122428Y-113117333D01*
X155217666Y-113164952D01*
X155265285Y-113212571D01*
X155312904Y-113307809D01*
X155312904Y-113545904D01*
X155265285Y-113641142D01*
X155217666Y-113688761D01*
X155122428Y-113736380D01*
X154884333Y-113736380D01*
X154789095Y-113688761D01*
X154741476Y-113641142D01*
G04 #@! TO.C,C31*
X168251142Y-80017857D02*
X168298761Y-80065476D01*
X168346380Y-80208333D01*
X168346380Y-80303571D01*
X168298761Y-80446428D01*
X168203523Y-80541666D01*
X168108285Y-80589285D01*
X167917809Y-80636904D01*
X167774952Y-80636904D01*
X167584476Y-80589285D01*
X167489238Y-80541666D01*
X167394000Y-80446428D01*
X167346380Y-80303571D01*
X167346380Y-80208333D01*
X167394000Y-80065476D01*
X167441619Y-80017857D01*
X167346380Y-79684523D02*
X167346380Y-79065476D01*
X167727333Y-79398809D01*
X167727333Y-79255952D01*
X167774952Y-79160714D01*
X167822571Y-79113095D01*
X167917809Y-79065476D01*
X168155904Y-79065476D01*
X168251142Y-79113095D01*
X168298761Y-79160714D01*
X168346380Y-79255952D01*
X168346380Y-79541666D01*
X168298761Y-79636904D01*
X168251142Y-79684523D01*
X168346380Y-78113095D02*
X168346380Y-78684523D01*
X168346380Y-78398809D02*
X167346380Y-78398809D01*
X167489238Y-78494047D01*
X167584476Y-78589285D01*
X167632095Y-78684523D01*
G04 #@! TO.C,R17*
X120388142Y-115006380D02*
X120054809Y-114530190D01*
X119816714Y-115006380D02*
X119816714Y-114006380D01*
X120197666Y-114006380D01*
X120292904Y-114054000D01*
X120340523Y-114101619D01*
X120388142Y-114196857D01*
X120388142Y-114339714D01*
X120340523Y-114434952D01*
X120292904Y-114482571D01*
X120197666Y-114530190D01*
X119816714Y-114530190D01*
X121340523Y-115006380D02*
X120769095Y-115006380D01*
X121054809Y-115006380D02*
X121054809Y-114006380D01*
X120959571Y-114149238D01*
X120864333Y-114244476D01*
X120769095Y-114292095D01*
X121673857Y-114006380D02*
X122340523Y-114006380D01*
X121911952Y-115006380D01*
G04 #@! TO.C,C28*
X155631142Y-77954142D02*
X155583523Y-78001761D01*
X155440666Y-78049380D01*
X155345428Y-78049380D01*
X155202571Y-78001761D01*
X155107333Y-77906523D01*
X155059714Y-77811285D01*
X155012095Y-77620809D01*
X155012095Y-77477952D01*
X155059714Y-77287476D01*
X155107333Y-77192238D01*
X155202571Y-77097000D01*
X155345428Y-77049380D01*
X155440666Y-77049380D01*
X155583523Y-77097000D01*
X155631142Y-77144619D01*
X156012095Y-77144619D02*
X156059714Y-77097000D01*
X156154952Y-77049380D01*
X156393047Y-77049380D01*
X156488285Y-77097000D01*
X156535904Y-77144619D01*
X156583523Y-77239857D01*
X156583523Y-77335095D01*
X156535904Y-77477952D01*
X155964476Y-78049380D01*
X156583523Y-78049380D01*
X157154952Y-77477952D02*
X157059714Y-77430333D01*
X157012095Y-77382714D01*
X156964476Y-77287476D01*
X156964476Y-77239857D01*
X157012095Y-77144619D01*
X157059714Y-77097000D01*
X157154952Y-77049380D01*
X157345428Y-77049380D01*
X157440666Y-77097000D01*
X157488285Y-77144619D01*
X157535904Y-77239857D01*
X157535904Y-77287476D01*
X157488285Y-77382714D01*
X157440666Y-77430333D01*
X157345428Y-77477952D01*
X157154952Y-77477952D01*
X157059714Y-77525571D01*
X157012095Y-77573190D01*
X156964476Y-77668428D01*
X156964476Y-77858904D01*
X157012095Y-77954142D01*
X157059714Y-78001761D01*
X157154952Y-78049380D01*
X157345428Y-78049380D01*
X157440666Y-78001761D01*
X157488285Y-77954142D01*
X157535904Y-77858904D01*
X157535904Y-77668428D01*
X157488285Y-77573190D01*
X157440666Y-77525571D01*
X157345428Y-77477952D01*
G04 #@! TO.C,R9*
X133802380Y-51982666D02*
X133326190Y-52316000D01*
X133802380Y-52554095D02*
X132802380Y-52554095D01*
X132802380Y-52173142D01*
X132850000Y-52077904D01*
X132897619Y-52030285D01*
X132992857Y-51982666D01*
X133135714Y-51982666D01*
X133230952Y-52030285D01*
X133278571Y-52077904D01*
X133326190Y-52173142D01*
X133326190Y-52554095D01*
X133802380Y-51506476D02*
X133802380Y-51316000D01*
X133754761Y-51220761D01*
X133707142Y-51173142D01*
X133564285Y-51077904D01*
X133373809Y-51030285D01*
X132992857Y-51030285D01*
X132897619Y-51077904D01*
X132850000Y-51125523D01*
X132802380Y-51220761D01*
X132802380Y-51411238D01*
X132850000Y-51506476D01*
X132897619Y-51554095D01*
X132992857Y-51601714D01*
X133230952Y-51601714D01*
X133326190Y-51554095D01*
X133373809Y-51506476D01*
X133421428Y-51411238D01*
X133421428Y-51220761D01*
X133373809Y-51125523D01*
X133326190Y-51077904D01*
X133230952Y-51030285D01*
G04 #@! TO.C,R30*
X135882142Y-107132380D02*
X135548809Y-106656190D01*
X135310714Y-107132380D02*
X135310714Y-106132380D01*
X135691666Y-106132380D01*
X135786904Y-106180000D01*
X135834523Y-106227619D01*
X135882142Y-106322857D01*
X135882142Y-106465714D01*
X135834523Y-106560952D01*
X135786904Y-106608571D01*
X135691666Y-106656190D01*
X135310714Y-106656190D01*
X136215476Y-106132380D02*
X136834523Y-106132380D01*
X136501190Y-106513333D01*
X136644047Y-106513333D01*
X136739285Y-106560952D01*
X136786904Y-106608571D01*
X136834523Y-106703809D01*
X136834523Y-106941904D01*
X136786904Y-107037142D01*
X136739285Y-107084761D01*
X136644047Y-107132380D01*
X136358333Y-107132380D01*
X136263095Y-107084761D01*
X136215476Y-107037142D01*
X137453571Y-106132380D02*
X137548809Y-106132380D01*
X137644047Y-106180000D01*
X137691666Y-106227619D01*
X137739285Y-106322857D01*
X137786904Y-106513333D01*
X137786904Y-106751428D01*
X137739285Y-106941904D01*
X137691666Y-107037142D01*
X137644047Y-107084761D01*
X137548809Y-107132380D01*
X137453571Y-107132380D01*
X137358333Y-107084761D01*
X137310714Y-107037142D01*
X137263095Y-106941904D01*
X137215476Y-106751428D01*
X137215476Y-106513333D01*
X137263095Y-106322857D01*
X137310714Y-106227619D01*
X137358333Y-106180000D01*
X137453571Y-106132380D01*
G04 #@! TO.C,R31*
X165092142Y-72682380D02*
X164758809Y-72206190D01*
X164520714Y-72682380D02*
X164520714Y-71682380D01*
X164901666Y-71682380D01*
X164996904Y-71730000D01*
X165044523Y-71777619D01*
X165092142Y-71872857D01*
X165092142Y-72015714D01*
X165044523Y-72110952D01*
X164996904Y-72158571D01*
X164901666Y-72206190D01*
X164520714Y-72206190D01*
X165425476Y-71682380D02*
X166044523Y-71682380D01*
X165711190Y-72063333D01*
X165854047Y-72063333D01*
X165949285Y-72110952D01*
X165996904Y-72158571D01*
X166044523Y-72253809D01*
X166044523Y-72491904D01*
X165996904Y-72587142D01*
X165949285Y-72634761D01*
X165854047Y-72682380D01*
X165568333Y-72682380D01*
X165473095Y-72634761D01*
X165425476Y-72587142D01*
X166996904Y-72682380D02*
X166425476Y-72682380D01*
X166711190Y-72682380D02*
X166711190Y-71682380D01*
X166615952Y-71825238D01*
X166520714Y-71920476D01*
X166425476Y-71968095D01*
G04 #@! TO.C,SW2*
X88201666Y-82270261D02*
X88344523Y-82317880D01*
X88582619Y-82317880D01*
X88677857Y-82270261D01*
X88725476Y-82222642D01*
X88773095Y-82127404D01*
X88773095Y-82032166D01*
X88725476Y-81936928D01*
X88677857Y-81889309D01*
X88582619Y-81841690D01*
X88392142Y-81794071D01*
X88296904Y-81746452D01*
X88249285Y-81698833D01*
X88201666Y-81603595D01*
X88201666Y-81508357D01*
X88249285Y-81413119D01*
X88296904Y-81365500D01*
X88392142Y-81317880D01*
X88630238Y-81317880D01*
X88773095Y-81365500D01*
X89106428Y-81317880D02*
X89344523Y-82317880D01*
X89535000Y-81603595D01*
X89725476Y-82317880D01*
X89963571Y-81317880D01*
X90296904Y-81413119D02*
X90344523Y-81365500D01*
X90439761Y-81317880D01*
X90677857Y-81317880D01*
X90773095Y-81365500D01*
X90820714Y-81413119D01*
X90868333Y-81508357D01*
X90868333Y-81603595D01*
X90820714Y-81746452D01*
X90249285Y-82317880D01*
X90868333Y-82317880D01*
G04 #@! TO.C,J11*
X170640476Y-114082380D02*
X170640476Y-114796666D01*
X170592857Y-114939523D01*
X170497619Y-115034761D01*
X170354761Y-115082380D01*
X170259523Y-115082380D01*
X171640476Y-115082380D02*
X171069047Y-115082380D01*
X171354761Y-115082380D02*
X171354761Y-114082380D01*
X171259523Y-114225238D01*
X171164285Y-114320476D01*
X171069047Y-114368095D01*
X172592857Y-115082380D02*
X172021428Y-115082380D01*
X172307142Y-115082380D02*
X172307142Y-114082380D01*
X172211904Y-114225238D01*
X172116666Y-114320476D01*
X172021428Y-114368095D01*
G04 #@! TO.C,J3*
X91106666Y-127201680D02*
X91106666Y-127915966D01*
X91059047Y-128058823D01*
X90963809Y-128154061D01*
X90820952Y-128201680D01*
X90725714Y-128201680D01*
X91487619Y-127201680D02*
X92106666Y-127201680D01*
X91773333Y-127582633D01*
X91916190Y-127582633D01*
X92011428Y-127630252D01*
X92059047Y-127677871D01*
X92106666Y-127773109D01*
X92106666Y-128011204D01*
X92059047Y-128106442D01*
X92011428Y-128154061D01*
X91916190Y-128201680D01*
X91630476Y-128201680D01*
X91535238Y-128154061D01*
X91487619Y-128106442D01*
G04 #@! TO.C,R12*
X164838142Y-56492380D02*
X164504809Y-56016190D01*
X164266714Y-56492380D02*
X164266714Y-55492380D01*
X164647666Y-55492380D01*
X164742904Y-55540000D01*
X164790523Y-55587619D01*
X164838142Y-55682857D01*
X164838142Y-55825714D01*
X164790523Y-55920952D01*
X164742904Y-55968571D01*
X164647666Y-56016190D01*
X164266714Y-56016190D01*
X165790523Y-56492380D02*
X165219095Y-56492380D01*
X165504809Y-56492380D02*
X165504809Y-55492380D01*
X165409571Y-55635238D01*
X165314333Y-55730476D01*
X165219095Y-55778095D01*
X166171476Y-55587619D02*
X166219095Y-55540000D01*
X166314333Y-55492380D01*
X166552428Y-55492380D01*
X166647666Y-55540000D01*
X166695285Y-55587619D01*
X166742904Y-55682857D01*
X166742904Y-55778095D01*
X166695285Y-55920952D01*
X166123857Y-56492380D01*
X166742904Y-56492380D01*
G04 #@! TO.C,Q4*
X126269761Y-125134619D02*
X126174523Y-125087000D01*
X126079285Y-124991761D01*
X125936428Y-124848904D01*
X125841190Y-124801285D01*
X125745952Y-124801285D01*
X125793571Y-125039380D02*
X125698333Y-124991761D01*
X125603095Y-124896523D01*
X125555476Y-124706047D01*
X125555476Y-124372714D01*
X125603095Y-124182238D01*
X125698333Y-124087000D01*
X125793571Y-124039380D01*
X125984047Y-124039380D01*
X126079285Y-124087000D01*
X126174523Y-124182238D01*
X126222142Y-124372714D01*
X126222142Y-124706047D01*
X126174523Y-124896523D01*
X126079285Y-124991761D01*
X125984047Y-125039380D01*
X125793571Y-125039380D01*
X127079285Y-124372714D02*
X127079285Y-125039380D01*
X126841190Y-123991761D02*
X126603095Y-124706047D01*
X127222142Y-124706047D01*
G04 #@! TO.C,C29*
X155631142Y-75541142D02*
X155583523Y-75588761D01*
X155440666Y-75636380D01*
X155345428Y-75636380D01*
X155202571Y-75588761D01*
X155107333Y-75493523D01*
X155059714Y-75398285D01*
X155012095Y-75207809D01*
X155012095Y-75064952D01*
X155059714Y-74874476D01*
X155107333Y-74779238D01*
X155202571Y-74684000D01*
X155345428Y-74636380D01*
X155440666Y-74636380D01*
X155583523Y-74684000D01*
X155631142Y-74731619D01*
X156012095Y-74731619D02*
X156059714Y-74684000D01*
X156154952Y-74636380D01*
X156393047Y-74636380D01*
X156488285Y-74684000D01*
X156535904Y-74731619D01*
X156583523Y-74826857D01*
X156583523Y-74922095D01*
X156535904Y-75064952D01*
X155964476Y-75636380D01*
X156583523Y-75636380D01*
X157059714Y-75636380D02*
X157250190Y-75636380D01*
X157345428Y-75588761D01*
X157393047Y-75541142D01*
X157488285Y-75398285D01*
X157535904Y-75207809D01*
X157535904Y-74826857D01*
X157488285Y-74731619D01*
X157440666Y-74684000D01*
X157345428Y-74636380D01*
X157154952Y-74636380D01*
X157059714Y-74684000D01*
X157012095Y-74731619D01*
X156964476Y-74826857D01*
X156964476Y-75064952D01*
X157012095Y-75160190D01*
X157059714Y-75207809D01*
X157154952Y-75255428D01*
X157345428Y-75255428D01*
X157440666Y-75207809D01*
X157488285Y-75160190D01*
X157535904Y-75064952D01*
G04 #@! TO.C,R6*
X90511333Y-75657880D02*
X90178000Y-75181690D01*
X89939904Y-75657880D02*
X89939904Y-74657880D01*
X90320857Y-74657880D01*
X90416095Y-74705500D01*
X90463714Y-74753119D01*
X90511333Y-74848357D01*
X90511333Y-74991214D01*
X90463714Y-75086452D01*
X90416095Y-75134071D01*
X90320857Y-75181690D01*
X89939904Y-75181690D01*
X91368476Y-74657880D02*
X91178000Y-74657880D01*
X91082761Y-74705500D01*
X91035142Y-74753119D01*
X90939904Y-74895976D01*
X90892285Y-75086452D01*
X90892285Y-75467404D01*
X90939904Y-75562642D01*
X90987523Y-75610261D01*
X91082761Y-75657880D01*
X91273238Y-75657880D01*
X91368476Y-75610261D01*
X91416095Y-75562642D01*
X91463714Y-75467404D01*
X91463714Y-75229309D01*
X91416095Y-75134071D01*
X91368476Y-75086452D01*
X91273238Y-75038833D01*
X91082761Y-75038833D01*
X90987523Y-75086452D01*
X90939904Y-75134071D01*
X90892285Y-75229309D01*
G04 #@! TO.C,U2*
X159258095Y-50027380D02*
X159258095Y-50836904D01*
X159305714Y-50932142D01*
X159353333Y-50979761D01*
X159448571Y-51027380D01*
X159639047Y-51027380D01*
X159734285Y-50979761D01*
X159781904Y-50932142D01*
X159829523Y-50836904D01*
X159829523Y-50027380D01*
X160258095Y-50122619D02*
X160305714Y-50075000D01*
X160400952Y-50027380D01*
X160639047Y-50027380D01*
X160734285Y-50075000D01*
X160781904Y-50122619D01*
X160829523Y-50217857D01*
X160829523Y-50313095D01*
X160781904Y-50455952D01*
X160210476Y-51027380D01*
X160829523Y-51027380D01*
G04 #@! TO.C,J12*
X140668476Y-89109380D02*
X140668476Y-89823666D01*
X140620857Y-89966523D01*
X140525619Y-90061761D01*
X140382761Y-90109380D01*
X140287523Y-90109380D01*
X141668476Y-90109380D02*
X141097047Y-90109380D01*
X141382761Y-90109380D02*
X141382761Y-89109380D01*
X141287523Y-89252238D01*
X141192285Y-89347476D01*
X141097047Y-89395095D01*
X142049428Y-89204619D02*
X142097047Y-89157000D01*
X142192285Y-89109380D01*
X142430380Y-89109380D01*
X142525619Y-89157000D01*
X142573238Y-89204619D01*
X142620857Y-89299857D01*
X142620857Y-89395095D01*
X142573238Y-89537952D01*
X142001809Y-90109380D01*
X142620857Y-90109380D01*
G04 #@! TO.C,RV3*
X93892761Y-104719380D02*
X93559428Y-104243190D01*
X93321333Y-104719380D02*
X93321333Y-103719380D01*
X93702285Y-103719380D01*
X93797523Y-103767000D01*
X93845142Y-103814619D01*
X93892761Y-103909857D01*
X93892761Y-104052714D01*
X93845142Y-104147952D01*
X93797523Y-104195571D01*
X93702285Y-104243190D01*
X93321333Y-104243190D01*
X94178476Y-103719380D02*
X94511809Y-104719380D01*
X94845142Y-103719380D01*
X95083238Y-103719380D02*
X95702285Y-103719380D01*
X95368952Y-104100333D01*
X95511809Y-104100333D01*
X95607047Y-104147952D01*
X95654666Y-104195571D01*
X95702285Y-104290809D01*
X95702285Y-104528904D01*
X95654666Y-104624142D01*
X95607047Y-104671761D01*
X95511809Y-104719380D01*
X95226095Y-104719380D01*
X95130857Y-104671761D01*
X95083238Y-104624142D01*
G04 #@! TO.C,R4*
X106959833Y-75657880D02*
X106626500Y-75181690D01*
X106388404Y-75657880D02*
X106388404Y-74657880D01*
X106769357Y-74657880D01*
X106864595Y-74705500D01*
X106912214Y-74753119D01*
X106959833Y-74848357D01*
X106959833Y-74991214D01*
X106912214Y-75086452D01*
X106864595Y-75134071D01*
X106769357Y-75181690D01*
X106388404Y-75181690D01*
X107816976Y-74991214D02*
X107816976Y-75657880D01*
X107578880Y-74610261D02*
X107340785Y-75324547D01*
X107959833Y-75324547D01*
G04 #@! TO.C,H4*
X170307095Y-129221380D02*
X170307095Y-128221380D01*
X170307095Y-128697571D02*
X170878523Y-128697571D01*
X170878523Y-129221380D02*
X170878523Y-128221380D01*
X171783285Y-128554714D02*
X171783285Y-129221380D01*
X171545190Y-128173761D02*
X171307095Y-128888047D01*
X171926142Y-128888047D01*
G04 #@! TO.C,C30*
X155631142Y-83923142D02*
X155583523Y-83970761D01*
X155440666Y-84018380D01*
X155345428Y-84018380D01*
X155202571Y-83970761D01*
X155107333Y-83875523D01*
X155059714Y-83780285D01*
X155012095Y-83589809D01*
X155012095Y-83446952D01*
X155059714Y-83256476D01*
X155107333Y-83161238D01*
X155202571Y-83066000D01*
X155345428Y-83018380D01*
X155440666Y-83018380D01*
X155583523Y-83066000D01*
X155631142Y-83113619D01*
X155964476Y-83018380D02*
X156583523Y-83018380D01*
X156250190Y-83399333D01*
X156393047Y-83399333D01*
X156488285Y-83446952D01*
X156535904Y-83494571D01*
X156583523Y-83589809D01*
X156583523Y-83827904D01*
X156535904Y-83923142D01*
X156488285Y-83970761D01*
X156393047Y-84018380D01*
X156107333Y-84018380D01*
X156012095Y-83970761D01*
X155964476Y-83923142D01*
X157202571Y-83018380D02*
X157297809Y-83018380D01*
X157393047Y-83066000D01*
X157440666Y-83113619D01*
X157488285Y-83208857D01*
X157535904Y-83399333D01*
X157535904Y-83637428D01*
X157488285Y-83827904D01*
X157440666Y-83923142D01*
X157393047Y-83970761D01*
X157297809Y-84018380D01*
X157202571Y-84018380D01*
X157107333Y-83970761D01*
X157059714Y-83923142D01*
X157012095Y-83827904D01*
X156964476Y-83637428D01*
X156964476Y-83399333D01*
X157012095Y-83208857D01*
X157059714Y-83113619D01*
X157107333Y-83066000D01*
X157202571Y-83018380D01*
G04 #@! TO.C,R11*
X95877142Y-111640880D02*
X95543809Y-111164690D01*
X95305714Y-111640880D02*
X95305714Y-110640880D01*
X95686666Y-110640880D01*
X95781904Y-110688500D01*
X95829523Y-110736119D01*
X95877142Y-110831357D01*
X95877142Y-110974214D01*
X95829523Y-111069452D01*
X95781904Y-111117071D01*
X95686666Y-111164690D01*
X95305714Y-111164690D01*
X96829523Y-111640880D02*
X96258095Y-111640880D01*
X96543809Y-111640880D02*
X96543809Y-110640880D01*
X96448571Y-110783738D01*
X96353333Y-110878976D01*
X96258095Y-110926595D01*
X97781904Y-111640880D02*
X97210476Y-111640880D01*
X97496190Y-111640880D02*
X97496190Y-110640880D01*
X97400952Y-110783738D01*
X97305714Y-110878976D01*
X97210476Y-110926595D01*
G04 #@! TO.C,R16*
X98925142Y-104465380D02*
X98591809Y-103989190D01*
X98353714Y-104465380D02*
X98353714Y-103465380D01*
X98734666Y-103465380D01*
X98829904Y-103513000D01*
X98877523Y-103560619D01*
X98925142Y-103655857D01*
X98925142Y-103798714D01*
X98877523Y-103893952D01*
X98829904Y-103941571D01*
X98734666Y-103989190D01*
X98353714Y-103989190D01*
X99877523Y-104465380D02*
X99306095Y-104465380D01*
X99591809Y-104465380D02*
X99591809Y-103465380D01*
X99496571Y-103608238D01*
X99401333Y-103703476D01*
X99306095Y-103751095D01*
X100734666Y-103465380D02*
X100544190Y-103465380D01*
X100448952Y-103513000D01*
X100401333Y-103560619D01*
X100306095Y-103703476D01*
X100258476Y-103893952D01*
X100258476Y-104274904D01*
X100306095Y-104370142D01*
X100353714Y-104417761D01*
X100448952Y-104465380D01*
X100639428Y-104465380D01*
X100734666Y-104417761D01*
X100782285Y-104370142D01*
X100829904Y-104274904D01*
X100829904Y-104036809D01*
X100782285Y-103941571D01*
X100734666Y-103893952D01*
X100639428Y-103846333D01*
X100448952Y-103846333D01*
X100353714Y-103893952D01*
X100306095Y-103941571D01*
X100258476Y-104036809D01*
G04 #@! TO.C,RV5*
X120054761Y-104361380D02*
X119721428Y-103885190D01*
X119483333Y-104361380D02*
X119483333Y-103361380D01*
X119864285Y-103361380D01*
X119959523Y-103409000D01*
X120007142Y-103456619D01*
X120054761Y-103551857D01*
X120054761Y-103694714D01*
X120007142Y-103789952D01*
X119959523Y-103837571D01*
X119864285Y-103885190D01*
X119483333Y-103885190D01*
X120340476Y-103361380D02*
X120673809Y-104361380D01*
X121007142Y-103361380D01*
X121816666Y-103361380D02*
X121340476Y-103361380D01*
X121292857Y-103837571D01*
X121340476Y-103789952D01*
X121435714Y-103742333D01*
X121673809Y-103742333D01*
X121769047Y-103789952D01*
X121816666Y-103837571D01*
X121864285Y-103932809D01*
X121864285Y-104170904D01*
X121816666Y-104266142D01*
X121769047Y-104313761D01*
X121673809Y-104361380D01*
X121435714Y-104361380D01*
X121340476Y-104313761D01*
X121292857Y-104266142D01*
G04 #@! TO.C,Q5*
X140239761Y-125134619D02*
X140144523Y-125087000D01*
X140049285Y-124991761D01*
X139906428Y-124848904D01*
X139811190Y-124801285D01*
X139715952Y-124801285D01*
X139763571Y-125039380D02*
X139668333Y-124991761D01*
X139573095Y-124896523D01*
X139525476Y-124706047D01*
X139525476Y-124372714D01*
X139573095Y-124182238D01*
X139668333Y-124087000D01*
X139763571Y-124039380D01*
X139954047Y-124039380D01*
X140049285Y-124087000D01*
X140144523Y-124182238D01*
X140192142Y-124372714D01*
X140192142Y-124706047D01*
X140144523Y-124896523D01*
X140049285Y-124991761D01*
X139954047Y-125039380D01*
X139763571Y-125039380D01*
X141096904Y-124039380D02*
X140620714Y-124039380D01*
X140573095Y-124515571D01*
X140620714Y-124467952D01*
X140715952Y-124420333D01*
X140954047Y-124420333D01*
X141049285Y-124467952D01*
X141096904Y-124515571D01*
X141144523Y-124610809D01*
X141144523Y-124848904D01*
X141096904Y-124944142D01*
X141049285Y-124991761D01*
X140954047Y-125039380D01*
X140715952Y-125039380D01*
X140620714Y-124991761D01*
X140573095Y-124944142D01*
G04 #@! TO.C,C7*
X154519333Y-57667142D02*
X154471714Y-57714761D01*
X154328857Y-57762380D01*
X154233619Y-57762380D01*
X154090761Y-57714761D01*
X153995523Y-57619523D01*
X153947904Y-57524285D01*
X153900285Y-57333809D01*
X153900285Y-57190952D01*
X153947904Y-57000476D01*
X153995523Y-56905238D01*
X154090761Y-56810000D01*
X154233619Y-56762380D01*
X154328857Y-56762380D01*
X154471714Y-56810000D01*
X154519333Y-56857619D01*
X154852666Y-56762380D02*
X155519333Y-56762380D01*
X155090761Y-57762380D01*
G04 #@! TO.C,C37*
X148328142Y-113006142D02*
X148280523Y-113053761D01*
X148137666Y-113101380D01*
X148042428Y-113101380D01*
X147899571Y-113053761D01*
X147804333Y-112958523D01*
X147756714Y-112863285D01*
X147709095Y-112672809D01*
X147709095Y-112529952D01*
X147756714Y-112339476D01*
X147804333Y-112244238D01*
X147899571Y-112149000D01*
X148042428Y-112101380D01*
X148137666Y-112101380D01*
X148280523Y-112149000D01*
X148328142Y-112196619D01*
X148661476Y-112101380D02*
X149280523Y-112101380D01*
X148947190Y-112482333D01*
X149090047Y-112482333D01*
X149185285Y-112529952D01*
X149232904Y-112577571D01*
X149280523Y-112672809D01*
X149280523Y-112910904D01*
X149232904Y-113006142D01*
X149185285Y-113053761D01*
X149090047Y-113101380D01*
X148804333Y-113101380D01*
X148709095Y-113053761D01*
X148661476Y-113006142D01*
X149613857Y-112101380D02*
X150280523Y-112101380D01*
X149851952Y-113101380D01*
G04 #@! TO.C,RV4*
X106963761Y-104719380D02*
X106630428Y-104243190D01*
X106392333Y-104719380D02*
X106392333Y-103719380D01*
X106773285Y-103719380D01*
X106868523Y-103767000D01*
X106916142Y-103814619D01*
X106963761Y-103909857D01*
X106963761Y-104052714D01*
X106916142Y-104147952D01*
X106868523Y-104195571D01*
X106773285Y-104243190D01*
X106392333Y-104243190D01*
X107249476Y-103719380D02*
X107582809Y-104719380D01*
X107916142Y-103719380D01*
X108678047Y-104052714D02*
X108678047Y-104719380D01*
X108439952Y-103671761D02*
X108201857Y-104386047D01*
X108820904Y-104386047D01*
G04 #@! TO.C,C32*
X139946142Y-122404142D02*
X139898523Y-122451761D01*
X139755666Y-122499380D01*
X139660428Y-122499380D01*
X139517571Y-122451761D01*
X139422333Y-122356523D01*
X139374714Y-122261285D01*
X139327095Y-122070809D01*
X139327095Y-121927952D01*
X139374714Y-121737476D01*
X139422333Y-121642238D01*
X139517571Y-121547000D01*
X139660428Y-121499380D01*
X139755666Y-121499380D01*
X139898523Y-121547000D01*
X139946142Y-121594619D01*
X140279476Y-121499380D02*
X140898523Y-121499380D01*
X140565190Y-121880333D01*
X140708047Y-121880333D01*
X140803285Y-121927952D01*
X140850904Y-121975571D01*
X140898523Y-122070809D01*
X140898523Y-122308904D01*
X140850904Y-122404142D01*
X140803285Y-122451761D01*
X140708047Y-122499380D01*
X140422333Y-122499380D01*
X140327095Y-122451761D01*
X140279476Y-122404142D01*
X141279476Y-121594619D02*
X141327095Y-121547000D01*
X141422333Y-121499380D01*
X141660428Y-121499380D01*
X141755666Y-121547000D01*
X141803285Y-121594619D01*
X141850904Y-121689857D01*
X141850904Y-121785095D01*
X141803285Y-121927952D01*
X141231857Y-122499380D01*
X141850904Y-122499380D01*
G04 #@! TO.C,R7*
X82637333Y-77477880D02*
X82304000Y-77001690D01*
X82065904Y-77477880D02*
X82065904Y-76477880D01*
X82446857Y-76477880D01*
X82542095Y-76525500D01*
X82589714Y-76573119D01*
X82637333Y-76668357D01*
X82637333Y-76811214D01*
X82589714Y-76906452D01*
X82542095Y-76954071D01*
X82446857Y-77001690D01*
X82065904Y-77001690D01*
X82970666Y-76477880D02*
X83637333Y-76477880D01*
X83208761Y-77477880D01*
G04 #@! TO.C,J8*
X141144666Y-65824380D02*
X141144666Y-66538666D01*
X141097047Y-66681523D01*
X141001809Y-66776761D01*
X140858952Y-66824380D01*
X140763714Y-66824380D01*
X141763714Y-66252952D02*
X141668476Y-66205333D01*
X141620857Y-66157714D01*
X141573238Y-66062476D01*
X141573238Y-66014857D01*
X141620857Y-65919619D01*
X141668476Y-65872000D01*
X141763714Y-65824380D01*
X141954190Y-65824380D01*
X142049428Y-65872000D01*
X142097047Y-65919619D01*
X142144666Y-66014857D01*
X142144666Y-66062476D01*
X142097047Y-66157714D01*
X142049428Y-66205333D01*
X141954190Y-66252952D01*
X141763714Y-66252952D01*
X141668476Y-66300571D01*
X141620857Y-66348190D01*
X141573238Y-66443428D01*
X141573238Y-66633904D01*
X141620857Y-66729142D01*
X141668476Y-66776761D01*
X141763714Y-66824380D01*
X141954190Y-66824380D01*
X142049428Y-66776761D01*
X142097047Y-66729142D01*
X142144666Y-66633904D01*
X142144666Y-66443428D01*
X142097047Y-66348190D01*
X142049428Y-66300571D01*
X141954190Y-66252952D01*
G04 #@! TO.C,U7*
X165037095Y-80859380D02*
X165037095Y-81668904D01*
X165084714Y-81764142D01*
X165132333Y-81811761D01*
X165227571Y-81859380D01*
X165418047Y-81859380D01*
X165513285Y-81811761D01*
X165560904Y-81764142D01*
X165608523Y-81668904D01*
X165608523Y-80859380D01*
X165989476Y-80859380D02*
X166656142Y-80859380D01*
X166227571Y-81859380D01*
G04 #@! TO.C,J7*
X126031666Y-127201680D02*
X126031666Y-127915966D01*
X125984047Y-128058823D01*
X125888809Y-128154061D01*
X125745952Y-128201680D01*
X125650714Y-128201680D01*
X126412619Y-127201680D02*
X127079285Y-127201680D01*
X126650714Y-128201680D01*
G04 #@! TO.C,C15*
X111879142Y-113006142D02*
X111831523Y-113053761D01*
X111688666Y-113101380D01*
X111593428Y-113101380D01*
X111450571Y-113053761D01*
X111355333Y-112958523D01*
X111307714Y-112863285D01*
X111260095Y-112672809D01*
X111260095Y-112529952D01*
X111307714Y-112339476D01*
X111355333Y-112244238D01*
X111450571Y-112149000D01*
X111593428Y-112101380D01*
X111688666Y-112101380D01*
X111831523Y-112149000D01*
X111879142Y-112196619D01*
X112831523Y-113101380D02*
X112260095Y-113101380D01*
X112545809Y-113101380D02*
X112545809Y-112101380D01*
X112450571Y-112244238D01*
X112355333Y-112339476D01*
X112260095Y-112387095D01*
X113736285Y-112101380D02*
X113260095Y-112101380D01*
X113212476Y-112577571D01*
X113260095Y-112529952D01*
X113355333Y-112482333D01*
X113593428Y-112482333D01*
X113688666Y-112529952D01*
X113736285Y-112577571D01*
X113783904Y-112672809D01*
X113783904Y-112910904D01*
X113736285Y-113006142D01*
X113688666Y-113053761D01*
X113593428Y-113101380D01*
X113355333Y-113101380D01*
X113260095Y-113053761D01*
X113212476Y-113006142D01*
G04 #@! TO.C,U4*
X114858380Y-117347904D02*
X115667904Y-117347904D01*
X115763142Y-117300285D01*
X115810761Y-117252666D01*
X115858380Y-117157428D01*
X115858380Y-116966952D01*
X115810761Y-116871714D01*
X115763142Y-116824095D01*
X115667904Y-116776476D01*
X114858380Y-116776476D01*
X115191714Y-115871714D02*
X115858380Y-115871714D01*
X114810761Y-116109809D02*
X115525047Y-116347904D01*
X115525047Y-115728857D01*
G04 #@! TO.C,C33*
X139946142Y-120880142D02*
X139898523Y-120927761D01*
X139755666Y-120975380D01*
X139660428Y-120975380D01*
X139517571Y-120927761D01*
X139422333Y-120832523D01*
X139374714Y-120737285D01*
X139327095Y-120546809D01*
X139327095Y-120403952D01*
X139374714Y-120213476D01*
X139422333Y-120118238D01*
X139517571Y-120023000D01*
X139660428Y-119975380D01*
X139755666Y-119975380D01*
X139898523Y-120023000D01*
X139946142Y-120070619D01*
X140279476Y-119975380D02*
X140898523Y-119975380D01*
X140565190Y-120356333D01*
X140708047Y-120356333D01*
X140803285Y-120403952D01*
X140850904Y-120451571D01*
X140898523Y-120546809D01*
X140898523Y-120784904D01*
X140850904Y-120880142D01*
X140803285Y-120927761D01*
X140708047Y-120975380D01*
X140422333Y-120975380D01*
X140327095Y-120927761D01*
X140279476Y-120880142D01*
X141231857Y-119975380D02*
X141850904Y-119975380D01*
X141517571Y-120356333D01*
X141660428Y-120356333D01*
X141755666Y-120403952D01*
X141803285Y-120451571D01*
X141850904Y-120546809D01*
X141850904Y-120784904D01*
X141803285Y-120880142D01*
X141755666Y-120927761D01*
X141660428Y-120975380D01*
X141374714Y-120975380D01*
X141279476Y-120927761D01*
X141231857Y-120880142D01*
G04 #@! TO.C,J10*
X135080476Y-127201680D02*
X135080476Y-127915966D01*
X135032857Y-128058823D01*
X134937619Y-128154061D01*
X134794761Y-128201680D01*
X134699523Y-128201680D01*
X136080476Y-128201680D02*
X135509047Y-128201680D01*
X135794761Y-128201680D02*
X135794761Y-127201680D01*
X135699523Y-127344538D01*
X135604285Y-127439776D01*
X135509047Y-127487395D01*
X136699523Y-127201680D02*
X136794761Y-127201680D01*
X136890000Y-127249300D01*
X136937619Y-127296919D01*
X136985238Y-127392157D01*
X137032857Y-127582633D01*
X137032857Y-127820728D01*
X136985238Y-128011204D01*
X136937619Y-128106442D01*
X136890000Y-128154061D01*
X136794761Y-128201680D01*
X136699523Y-128201680D01*
X136604285Y-128154061D01*
X136556666Y-128106442D01*
X136509047Y-128011204D01*
X136461428Y-127820728D01*
X136461428Y-127582633D01*
X136509047Y-127392157D01*
X136556666Y-127296919D01*
X136604285Y-127249300D01*
X136699523Y-127201680D01*
G04 #@! TO.C,R22*
X140110380Y-76080857D02*
X139634190Y-76414190D01*
X140110380Y-76652285D02*
X139110380Y-76652285D01*
X139110380Y-76271333D01*
X139158000Y-76176095D01*
X139205619Y-76128476D01*
X139300857Y-76080857D01*
X139443714Y-76080857D01*
X139538952Y-76128476D01*
X139586571Y-76176095D01*
X139634190Y-76271333D01*
X139634190Y-76652285D01*
X139205619Y-75699904D02*
X139158000Y-75652285D01*
X139110380Y-75557047D01*
X139110380Y-75318952D01*
X139158000Y-75223714D01*
X139205619Y-75176095D01*
X139300857Y-75128476D01*
X139396095Y-75128476D01*
X139538952Y-75176095D01*
X140110380Y-75747523D01*
X140110380Y-75128476D01*
X139205619Y-74747523D02*
X139158000Y-74699904D01*
X139110380Y-74604666D01*
X139110380Y-74366571D01*
X139158000Y-74271333D01*
X139205619Y-74223714D01*
X139300857Y-74176095D01*
X139396095Y-74176095D01*
X139538952Y-74223714D01*
X140110380Y-74795142D01*
X140110380Y-74176095D01*
G04 #@! TO.C,R8*
X84415333Y-71762880D02*
X84082000Y-71286690D01*
X83843904Y-71762880D02*
X83843904Y-70762880D01*
X84224857Y-70762880D01*
X84320095Y-70810500D01*
X84367714Y-70858119D01*
X84415333Y-70953357D01*
X84415333Y-71096214D01*
X84367714Y-71191452D01*
X84320095Y-71239071D01*
X84224857Y-71286690D01*
X83843904Y-71286690D01*
X84986761Y-71191452D02*
X84891523Y-71143833D01*
X84843904Y-71096214D01*
X84796285Y-71000976D01*
X84796285Y-70953357D01*
X84843904Y-70858119D01*
X84891523Y-70810500D01*
X84986761Y-70762880D01*
X85177238Y-70762880D01*
X85272476Y-70810500D01*
X85320095Y-70858119D01*
X85367714Y-70953357D01*
X85367714Y-71000976D01*
X85320095Y-71096214D01*
X85272476Y-71143833D01*
X85177238Y-71191452D01*
X84986761Y-71191452D01*
X84891523Y-71239071D01*
X84843904Y-71286690D01*
X84796285Y-71381928D01*
X84796285Y-71572404D01*
X84843904Y-71667642D01*
X84891523Y-71715261D01*
X84986761Y-71762880D01*
X85177238Y-71762880D01*
X85272476Y-71715261D01*
X85320095Y-71667642D01*
X85367714Y-71572404D01*
X85367714Y-71381928D01*
X85320095Y-71286690D01*
X85272476Y-71239071D01*
X85177238Y-71191452D01*
G04 #@! TO.C,H3*
X80518095Y-129221380D02*
X80518095Y-128221380D01*
X80518095Y-128697571D02*
X81089523Y-128697571D01*
X81089523Y-129221380D02*
X81089523Y-128221380D01*
X81470476Y-128221380D02*
X82089523Y-128221380D01*
X81756190Y-128602333D01*
X81899047Y-128602333D01*
X81994285Y-128649952D01*
X82041904Y-128697571D01*
X82089523Y-128792809D01*
X82089523Y-129030904D01*
X82041904Y-129126142D01*
X81994285Y-129173761D01*
X81899047Y-129221380D01*
X81613333Y-129221380D01*
X81518095Y-129173761D01*
X81470476Y-129126142D01*
G04 #@! TO.C,J2*
X88435380Y-49863333D02*
X89149666Y-49863333D01*
X89292523Y-49910952D01*
X89387761Y-50006190D01*
X89435380Y-50149047D01*
X89435380Y-50244285D01*
X88530619Y-49434761D02*
X88483000Y-49387142D01*
X88435380Y-49291904D01*
X88435380Y-49053809D01*
X88483000Y-48958571D01*
X88530619Y-48910952D01*
X88625857Y-48863333D01*
X88721095Y-48863333D01*
X88863952Y-48910952D01*
X89435380Y-49482380D01*
X89435380Y-48863333D01*
G04 #@! TO.C,R18*
X158933142Y-72682380D02*
X158599809Y-72206190D01*
X158361714Y-72682380D02*
X158361714Y-71682380D01*
X158742666Y-71682380D01*
X158837904Y-71730000D01*
X158885523Y-71777619D01*
X158933142Y-71872857D01*
X158933142Y-72015714D01*
X158885523Y-72110952D01*
X158837904Y-72158571D01*
X158742666Y-72206190D01*
X158361714Y-72206190D01*
X159885523Y-72682380D02*
X159314095Y-72682380D01*
X159599809Y-72682380D02*
X159599809Y-71682380D01*
X159504571Y-71825238D01*
X159409333Y-71920476D01*
X159314095Y-71968095D01*
X160456952Y-72110952D02*
X160361714Y-72063333D01*
X160314095Y-72015714D01*
X160266476Y-71920476D01*
X160266476Y-71872857D01*
X160314095Y-71777619D01*
X160361714Y-71730000D01*
X160456952Y-71682380D01*
X160647428Y-71682380D01*
X160742666Y-71730000D01*
X160790285Y-71777619D01*
X160837904Y-71872857D01*
X160837904Y-71920476D01*
X160790285Y-72015714D01*
X160742666Y-72063333D01*
X160647428Y-72110952D01*
X160456952Y-72110952D01*
X160361714Y-72158571D01*
X160314095Y-72206190D01*
X160266476Y-72301428D01*
X160266476Y-72491904D01*
X160314095Y-72587142D01*
X160361714Y-72634761D01*
X160456952Y-72682380D01*
X160647428Y-72682380D01*
X160742666Y-72634761D01*
X160790285Y-72587142D01*
X160837904Y-72491904D01*
X160837904Y-72301428D01*
X160790285Y-72206190D01*
X160742666Y-72158571D01*
X160647428Y-72110952D01*
G04 #@! TO.C,J4*
X88435380Y-60023333D02*
X89149666Y-60023333D01*
X89292523Y-60070952D01*
X89387761Y-60166190D01*
X89435380Y-60309047D01*
X89435380Y-60404285D01*
X88768714Y-59118571D02*
X89435380Y-59118571D01*
X88387761Y-59356666D02*
X89102047Y-59594761D01*
X89102047Y-58975714D01*
G04 #@! TO.C,U9*
X140266380Y-117347904D02*
X141075904Y-117347904D01*
X141171142Y-117300285D01*
X141218761Y-117252666D01*
X141266380Y-117157428D01*
X141266380Y-116966952D01*
X141218761Y-116871714D01*
X141171142Y-116824095D01*
X141075904Y-116776476D01*
X140266380Y-116776476D01*
X141266380Y-116252666D02*
X141266380Y-116062190D01*
X141218761Y-115966952D01*
X141171142Y-115919333D01*
X141028285Y-115824095D01*
X140837809Y-115776476D01*
X140456857Y-115776476D01*
X140361619Y-115824095D01*
X140314000Y-115871714D01*
X140266380Y-115966952D01*
X140266380Y-116157428D01*
X140314000Y-116252666D01*
X140361619Y-116300285D01*
X140456857Y-116347904D01*
X140694952Y-116347904D01*
X140790190Y-116300285D01*
X140837809Y-116252666D01*
X140885428Y-116157428D01*
X140885428Y-115966952D01*
X140837809Y-115871714D01*
X140790190Y-115824095D01*
X140694952Y-115776476D01*
G04 #@! TO.C,Q2*
X99218761Y-125198119D02*
X99123523Y-125150500D01*
X99028285Y-125055261D01*
X98885428Y-124912404D01*
X98790190Y-124864785D01*
X98694952Y-124864785D01*
X98742571Y-125102880D02*
X98647333Y-125055261D01*
X98552095Y-124960023D01*
X98504476Y-124769547D01*
X98504476Y-124436214D01*
X98552095Y-124245738D01*
X98647333Y-124150500D01*
X98742571Y-124102880D01*
X98933047Y-124102880D01*
X99028285Y-124150500D01*
X99123523Y-124245738D01*
X99171142Y-124436214D01*
X99171142Y-124769547D01*
X99123523Y-124960023D01*
X99028285Y-125055261D01*
X98933047Y-125102880D01*
X98742571Y-125102880D01*
X99552095Y-124198119D02*
X99599714Y-124150500D01*
X99694952Y-124102880D01*
X99933047Y-124102880D01*
X100028285Y-124150500D01*
X100075904Y-124198119D01*
X100123523Y-124293357D01*
X100123523Y-124388595D01*
X100075904Y-124531452D01*
X99504476Y-125102880D01*
X100123523Y-125102880D01*
G04 #@! TO.C,H2*
X170307095Y-39432380D02*
X170307095Y-38432380D01*
X170307095Y-38908571D02*
X170878523Y-38908571D01*
X170878523Y-39432380D02*
X170878523Y-38432380D01*
X171307095Y-38527619D02*
X171354714Y-38480000D01*
X171449952Y-38432380D01*
X171688047Y-38432380D01*
X171783285Y-38480000D01*
X171830904Y-38527619D01*
X171878523Y-38622857D01*
X171878523Y-38718095D01*
X171830904Y-38860952D01*
X171259476Y-39432380D01*
X171878523Y-39432380D01*
G04 #@! TO.C,C18*
X132199142Y-122404142D02*
X132151523Y-122451761D01*
X132008666Y-122499380D01*
X131913428Y-122499380D01*
X131770571Y-122451761D01*
X131675333Y-122356523D01*
X131627714Y-122261285D01*
X131580095Y-122070809D01*
X131580095Y-121927952D01*
X131627714Y-121737476D01*
X131675333Y-121642238D01*
X131770571Y-121547000D01*
X131913428Y-121499380D01*
X132008666Y-121499380D01*
X132151523Y-121547000D01*
X132199142Y-121594619D01*
X133151523Y-122499380D02*
X132580095Y-122499380D01*
X132865809Y-122499380D02*
X132865809Y-121499380D01*
X132770571Y-121642238D01*
X132675333Y-121737476D01*
X132580095Y-121785095D01*
X133722952Y-121927952D02*
X133627714Y-121880333D01*
X133580095Y-121832714D01*
X133532476Y-121737476D01*
X133532476Y-121689857D01*
X133580095Y-121594619D01*
X133627714Y-121547000D01*
X133722952Y-121499380D01*
X133913428Y-121499380D01*
X134008666Y-121547000D01*
X134056285Y-121594619D01*
X134103904Y-121689857D01*
X134103904Y-121737476D01*
X134056285Y-121832714D01*
X134008666Y-121880333D01*
X133913428Y-121927952D01*
X133722952Y-121927952D01*
X133627714Y-121975571D01*
X133580095Y-122023190D01*
X133532476Y-122118428D01*
X133532476Y-122308904D01*
X133580095Y-122404142D01*
X133627714Y-122451761D01*
X133722952Y-122499380D01*
X133913428Y-122499380D01*
X134008666Y-122451761D01*
X134056285Y-122404142D01*
X134103904Y-122308904D01*
X134103904Y-122118428D01*
X134056285Y-122023190D01*
X134008666Y-121975571D01*
X133913428Y-121927952D01*
G04 #@! TO.C,R2*
X117627833Y-71555880D02*
X117294500Y-71079690D01*
X117056404Y-71555880D02*
X117056404Y-70555880D01*
X117437357Y-70555880D01*
X117532595Y-70603500D01*
X117580214Y-70651119D01*
X117627833Y-70746357D01*
X117627833Y-70889214D01*
X117580214Y-70984452D01*
X117532595Y-71032071D01*
X117437357Y-71079690D01*
X117056404Y-71079690D01*
X118008785Y-70651119D02*
X118056404Y-70603500D01*
X118151642Y-70555880D01*
X118389738Y-70555880D01*
X118484976Y-70603500D01*
X118532595Y-70651119D01*
X118580214Y-70746357D01*
X118580214Y-70841595D01*
X118532595Y-70984452D01*
X117961166Y-71555880D01*
X118580214Y-71555880D01*
G04 #@! TO.C,R23*
X144755380Y-77858857D02*
X144279190Y-78192190D01*
X144755380Y-78430285D02*
X143755380Y-78430285D01*
X143755380Y-78049333D01*
X143803000Y-77954095D01*
X143850619Y-77906476D01*
X143945857Y-77858857D01*
X144088714Y-77858857D01*
X144183952Y-77906476D01*
X144231571Y-77954095D01*
X144279190Y-78049333D01*
X144279190Y-78430285D01*
X143850619Y-77477904D02*
X143803000Y-77430285D01*
X143755380Y-77335047D01*
X143755380Y-77096952D01*
X143803000Y-77001714D01*
X143850619Y-76954095D01*
X143945857Y-76906476D01*
X144041095Y-76906476D01*
X144183952Y-76954095D01*
X144755380Y-77525523D01*
X144755380Y-76906476D01*
X143755380Y-76573142D02*
X143755380Y-75954095D01*
X144136333Y-76287428D01*
X144136333Y-76144571D01*
X144183952Y-76049333D01*
X144231571Y-76001714D01*
X144326809Y-75954095D01*
X144564904Y-75954095D01*
X144660142Y-76001714D01*
X144707761Y-76049333D01*
X144755380Y-76144571D01*
X144755380Y-76430285D01*
X144707761Y-76525523D01*
X144660142Y-76573142D01*
G04 #@! TO.C,C2*
X89368333Y-122467642D02*
X89320714Y-122515261D01*
X89177857Y-122562880D01*
X89082619Y-122562880D01*
X88939761Y-122515261D01*
X88844523Y-122420023D01*
X88796904Y-122324785D01*
X88749285Y-122134309D01*
X88749285Y-121991452D01*
X88796904Y-121800976D01*
X88844523Y-121705738D01*
X88939761Y-121610500D01*
X89082619Y-121562880D01*
X89177857Y-121562880D01*
X89320714Y-121610500D01*
X89368333Y-121658119D01*
X89749285Y-121658119D02*
X89796904Y-121610500D01*
X89892142Y-121562880D01*
X90130238Y-121562880D01*
X90225476Y-121610500D01*
X90273095Y-121658119D01*
X90320714Y-121753357D01*
X90320714Y-121848595D01*
X90273095Y-121991452D01*
X89701666Y-122562880D01*
X90320714Y-122562880D01*
G04 #@! TO.C,C8*
X104862333Y-122467642D02*
X104814714Y-122515261D01*
X104671857Y-122562880D01*
X104576619Y-122562880D01*
X104433761Y-122515261D01*
X104338523Y-122420023D01*
X104290904Y-122324785D01*
X104243285Y-122134309D01*
X104243285Y-121991452D01*
X104290904Y-121800976D01*
X104338523Y-121705738D01*
X104433761Y-121610500D01*
X104576619Y-121562880D01*
X104671857Y-121562880D01*
X104814714Y-121610500D01*
X104862333Y-121658119D01*
X105433761Y-121991452D02*
X105338523Y-121943833D01*
X105290904Y-121896214D01*
X105243285Y-121800976D01*
X105243285Y-121753357D01*
X105290904Y-121658119D01*
X105338523Y-121610500D01*
X105433761Y-121562880D01*
X105624238Y-121562880D01*
X105719476Y-121610500D01*
X105767095Y-121658119D01*
X105814714Y-121753357D01*
X105814714Y-121800976D01*
X105767095Y-121896214D01*
X105719476Y-121943833D01*
X105624238Y-121991452D01*
X105433761Y-121991452D01*
X105338523Y-122039071D01*
X105290904Y-122086690D01*
X105243285Y-122181928D01*
X105243285Y-122372404D01*
X105290904Y-122467642D01*
X105338523Y-122515261D01*
X105433761Y-122562880D01*
X105624238Y-122562880D01*
X105719476Y-122515261D01*
X105767095Y-122467642D01*
X105814714Y-122372404D01*
X105814714Y-122181928D01*
X105767095Y-122086690D01*
X105719476Y-122039071D01*
X105624238Y-121991452D01*
G04 #@! TO.C,R20*
X133787142Y-111577380D02*
X133453809Y-111101190D01*
X133215714Y-111577380D02*
X133215714Y-110577380D01*
X133596666Y-110577380D01*
X133691904Y-110625000D01*
X133739523Y-110672619D01*
X133787142Y-110767857D01*
X133787142Y-110910714D01*
X133739523Y-111005952D01*
X133691904Y-111053571D01*
X133596666Y-111101190D01*
X133215714Y-111101190D01*
X134168095Y-110672619D02*
X134215714Y-110625000D01*
X134310952Y-110577380D01*
X134549047Y-110577380D01*
X134644285Y-110625000D01*
X134691904Y-110672619D01*
X134739523Y-110767857D01*
X134739523Y-110863095D01*
X134691904Y-111005952D01*
X134120476Y-111577380D01*
X134739523Y-111577380D01*
X135358571Y-110577380D02*
X135453809Y-110577380D01*
X135549047Y-110625000D01*
X135596666Y-110672619D01*
X135644285Y-110767857D01*
X135691904Y-110958333D01*
X135691904Y-111196428D01*
X135644285Y-111386904D01*
X135596666Y-111482142D01*
X135549047Y-111529761D01*
X135453809Y-111577380D01*
X135358571Y-111577380D01*
X135263333Y-111529761D01*
X135215714Y-111482142D01*
X135168095Y-111386904D01*
X135120476Y-111196428D01*
X135120476Y-110958333D01*
X135168095Y-110767857D01*
X135215714Y-110672619D01*
X135263333Y-110625000D01*
X135358571Y-110577380D01*
G04 #@! TO.C,C21*
X123563142Y-111482142D02*
X123515523Y-111529761D01*
X123372666Y-111577380D01*
X123277428Y-111577380D01*
X123134571Y-111529761D01*
X123039333Y-111434523D01*
X122991714Y-111339285D01*
X122944095Y-111148809D01*
X122944095Y-111005952D01*
X122991714Y-110815476D01*
X123039333Y-110720238D01*
X123134571Y-110625000D01*
X123277428Y-110577380D01*
X123372666Y-110577380D01*
X123515523Y-110625000D01*
X123563142Y-110672619D01*
X123944095Y-110672619D02*
X123991714Y-110625000D01*
X124086952Y-110577380D01*
X124325047Y-110577380D01*
X124420285Y-110625000D01*
X124467904Y-110672619D01*
X124515523Y-110767857D01*
X124515523Y-110863095D01*
X124467904Y-111005952D01*
X123896476Y-111577380D01*
X124515523Y-111577380D01*
X125467904Y-111577380D02*
X124896476Y-111577380D01*
X125182190Y-111577380D02*
X125182190Y-110577380D01*
X125086952Y-110720238D01*
X124991714Y-110815476D01*
X124896476Y-110863095D01*
G04 #@! TO.C,U6*
X147384095Y-69077380D02*
X147384095Y-69886904D01*
X147431714Y-69982142D01*
X147479333Y-70029761D01*
X147574571Y-70077380D01*
X147765047Y-70077380D01*
X147860285Y-70029761D01*
X147907904Y-69982142D01*
X147955523Y-69886904D01*
X147955523Y-69077380D01*
X148860285Y-69077380D02*
X148669809Y-69077380D01*
X148574571Y-69125000D01*
X148526952Y-69172619D01*
X148431714Y-69315476D01*
X148384095Y-69505952D01*
X148384095Y-69886904D01*
X148431714Y-69982142D01*
X148479333Y-70029761D01*
X148574571Y-70077380D01*
X148765047Y-70077380D01*
X148860285Y-70029761D01*
X148907904Y-69982142D01*
X148955523Y-69886904D01*
X148955523Y-69648809D01*
X148907904Y-69553571D01*
X148860285Y-69505952D01*
X148765047Y-69458333D01*
X148574571Y-69458333D01*
X148479333Y-69505952D01*
X148431714Y-69553571D01*
X148384095Y-69648809D01*
G04 #@! TO.C,C6*
X95845333Y-113069642D02*
X95797714Y-113117261D01*
X95654857Y-113164880D01*
X95559619Y-113164880D01*
X95416761Y-113117261D01*
X95321523Y-113022023D01*
X95273904Y-112926785D01*
X95226285Y-112736309D01*
X95226285Y-112593452D01*
X95273904Y-112402976D01*
X95321523Y-112307738D01*
X95416761Y-112212500D01*
X95559619Y-112164880D01*
X95654857Y-112164880D01*
X95797714Y-112212500D01*
X95845333Y-112260119D01*
X96702476Y-112164880D02*
X96512000Y-112164880D01*
X96416761Y-112212500D01*
X96369142Y-112260119D01*
X96273904Y-112402976D01*
X96226285Y-112593452D01*
X96226285Y-112974404D01*
X96273904Y-113069642D01*
X96321523Y-113117261D01*
X96416761Y-113164880D01*
X96607238Y-113164880D01*
X96702476Y-113117261D01*
X96750095Y-113069642D01*
X96797714Y-112974404D01*
X96797714Y-112736309D01*
X96750095Y-112641071D01*
X96702476Y-112593452D01*
X96607238Y-112545833D01*
X96416761Y-112545833D01*
X96321523Y-112593452D01*
X96273904Y-112641071D01*
X96226285Y-112736309D01*
G04 #@! TO.C,RV1*
X139104761Y-46322380D02*
X138771428Y-45846190D01*
X138533333Y-46322380D02*
X138533333Y-45322380D01*
X138914285Y-45322380D01*
X139009523Y-45370000D01*
X139057142Y-45417619D01*
X139104761Y-45512857D01*
X139104761Y-45655714D01*
X139057142Y-45750952D01*
X139009523Y-45798571D01*
X138914285Y-45846190D01*
X138533333Y-45846190D01*
X139390476Y-45322380D02*
X139723809Y-46322380D01*
X140057142Y-45322380D01*
X140914285Y-46322380D02*
X140342857Y-46322380D01*
X140628571Y-46322380D02*
X140628571Y-45322380D01*
X140533333Y-45465238D01*
X140438095Y-45560476D01*
X140342857Y-45608095D01*
G04 #@! TO.C,C17*
X120388142Y-116308142D02*
X120340523Y-116355761D01*
X120197666Y-116403380D01*
X120102428Y-116403380D01*
X119959571Y-116355761D01*
X119864333Y-116260523D01*
X119816714Y-116165285D01*
X119769095Y-115974809D01*
X119769095Y-115831952D01*
X119816714Y-115641476D01*
X119864333Y-115546238D01*
X119959571Y-115451000D01*
X120102428Y-115403380D01*
X120197666Y-115403380D01*
X120340523Y-115451000D01*
X120388142Y-115498619D01*
X121340523Y-116403380D02*
X120769095Y-116403380D01*
X121054809Y-116403380D02*
X121054809Y-115403380D01*
X120959571Y-115546238D01*
X120864333Y-115641476D01*
X120769095Y-115689095D01*
X121673857Y-115403380D02*
X122340523Y-115403380D01*
X121911952Y-116403380D01*
G04 #@! TO.C,RV7*
X155614761Y-104361380D02*
X155281428Y-103885190D01*
X155043333Y-104361380D02*
X155043333Y-103361380D01*
X155424285Y-103361380D01*
X155519523Y-103409000D01*
X155567142Y-103456619D01*
X155614761Y-103551857D01*
X155614761Y-103694714D01*
X155567142Y-103789952D01*
X155519523Y-103837571D01*
X155424285Y-103885190D01*
X155043333Y-103885190D01*
X155900476Y-103361380D02*
X156233809Y-104361380D01*
X156567142Y-103361380D01*
X156805238Y-103361380D02*
X157471904Y-103361380D01*
X157043333Y-104361380D01*
G04 #@! TO.C,U5*
X126669380Y-117347904D02*
X127478904Y-117347904D01*
X127574142Y-117300285D01*
X127621761Y-117252666D01*
X127669380Y-117157428D01*
X127669380Y-116966952D01*
X127621761Y-116871714D01*
X127574142Y-116824095D01*
X127478904Y-116776476D01*
X126669380Y-116776476D01*
X126669380Y-115824095D02*
X126669380Y-116300285D01*
X127145571Y-116347904D01*
X127097952Y-116300285D01*
X127050333Y-116205047D01*
X127050333Y-115966952D01*
X127097952Y-115871714D01*
X127145571Y-115824095D01*
X127240809Y-115776476D01*
X127478904Y-115776476D01*
X127574142Y-115824095D01*
X127621761Y-115871714D01*
X127669380Y-115966952D01*
X127669380Y-116205047D01*
X127621761Y-116300285D01*
X127574142Y-116347904D01*
G04 #@! TO.C,R29*
X148328142Y-111577380D02*
X147994809Y-111101190D01*
X147756714Y-111577380D02*
X147756714Y-110577380D01*
X148137666Y-110577380D01*
X148232904Y-110625000D01*
X148280523Y-110672619D01*
X148328142Y-110767857D01*
X148328142Y-110910714D01*
X148280523Y-111005952D01*
X148232904Y-111053571D01*
X148137666Y-111101190D01*
X147756714Y-111101190D01*
X148709095Y-110672619D02*
X148756714Y-110625000D01*
X148851952Y-110577380D01*
X149090047Y-110577380D01*
X149185285Y-110625000D01*
X149232904Y-110672619D01*
X149280523Y-110767857D01*
X149280523Y-110863095D01*
X149232904Y-111005952D01*
X148661476Y-111577380D01*
X149280523Y-111577380D01*
X149756714Y-111577380D02*
X149947190Y-111577380D01*
X150042428Y-111529761D01*
X150090047Y-111482142D01*
X150185285Y-111339285D01*
X150232904Y-111148809D01*
X150232904Y-110767857D01*
X150185285Y-110672619D01*
X150137666Y-110625000D01*
X150042428Y-110577380D01*
X149851952Y-110577380D01*
X149756714Y-110625000D01*
X149709095Y-110672619D01*
X149661476Y-110767857D01*
X149661476Y-111005952D01*
X149709095Y-111101190D01*
X149756714Y-111148809D01*
X149851952Y-111196428D01*
X150042428Y-111196428D01*
X150137666Y-111148809D01*
X150185285Y-111101190D01*
X150232904Y-111005952D01*
G04 #@! TO.C,K1*
X102766904Y-83717880D02*
X102766904Y-82717880D01*
X103338333Y-83717880D02*
X102909761Y-83146452D01*
X103338333Y-82717880D02*
X102766904Y-83289309D01*
X104290714Y-83717880D02*
X103719285Y-83717880D01*
X104005000Y-83717880D02*
X104005000Y-82717880D01*
X103909761Y-82860738D01*
X103814523Y-82955976D01*
X103719285Y-83003595D01*
G04 #@! TO.C,R15*
X107053142Y-111640880D02*
X106719809Y-111164690D01*
X106481714Y-111640880D02*
X106481714Y-110640880D01*
X106862666Y-110640880D01*
X106957904Y-110688500D01*
X107005523Y-110736119D01*
X107053142Y-110831357D01*
X107053142Y-110974214D01*
X107005523Y-111069452D01*
X106957904Y-111117071D01*
X106862666Y-111164690D01*
X106481714Y-111164690D01*
X108005523Y-111640880D02*
X107434095Y-111640880D01*
X107719809Y-111640880D02*
X107719809Y-110640880D01*
X107624571Y-110783738D01*
X107529333Y-110878976D01*
X107434095Y-110926595D01*
X108910285Y-110640880D02*
X108434095Y-110640880D01*
X108386476Y-111117071D01*
X108434095Y-111069452D01*
X108529333Y-111021833D01*
X108767428Y-111021833D01*
X108862666Y-111069452D01*
X108910285Y-111117071D01*
X108957904Y-111212309D01*
X108957904Y-111450404D01*
X108910285Y-111545642D01*
X108862666Y-111593261D01*
X108767428Y-111640880D01*
X108529333Y-111640880D01*
X108434095Y-111593261D01*
X108386476Y-111545642D01*
G04 #@! TO.C,R5*
X95083333Y-75657880D02*
X94750000Y-75181690D01*
X94511904Y-75657880D02*
X94511904Y-74657880D01*
X94892857Y-74657880D01*
X94988095Y-74705500D01*
X95035714Y-74753119D01*
X95083333Y-74848357D01*
X95083333Y-74991214D01*
X95035714Y-75086452D01*
X94988095Y-75134071D01*
X94892857Y-75181690D01*
X94511904Y-75181690D01*
X95988095Y-74657880D02*
X95511904Y-74657880D01*
X95464285Y-75134071D01*
X95511904Y-75086452D01*
X95607142Y-75038833D01*
X95845238Y-75038833D01*
X95940476Y-75086452D01*
X95988095Y-75134071D01*
X96035714Y-75229309D01*
X96035714Y-75467404D01*
X95988095Y-75562642D01*
X95940476Y-75610261D01*
X95845238Y-75657880D01*
X95607142Y-75657880D01*
X95511904Y-75610261D01*
X95464285Y-75562642D01*
G04 #@! TO.C,R13*
X161028142Y-59634380D02*
X160694809Y-59158190D01*
X160456714Y-59634380D02*
X160456714Y-58634380D01*
X160837666Y-58634380D01*
X160932904Y-58682000D01*
X160980523Y-58729619D01*
X161028142Y-58824857D01*
X161028142Y-58967714D01*
X160980523Y-59062952D01*
X160932904Y-59110571D01*
X160837666Y-59158190D01*
X160456714Y-59158190D01*
X161980523Y-59634380D02*
X161409095Y-59634380D01*
X161694809Y-59634380D02*
X161694809Y-58634380D01*
X161599571Y-58777238D01*
X161504333Y-58872476D01*
X161409095Y-58920095D01*
X162313857Y-58634380D02*
X162932904Y-58634380D01*
X162599571Y-59015333D01*
X162742428Y-59015333D01*
X162837666Y-59062952D01*
X162885285Y-59110571D01*
X162932904Y-59205809D01*
X162932904Y-59443904D01*
X162885285Y-59539142D01*
X162837666Y-59586761D01*
X162742428Y-59634380D01*
X162456714Y-59634380D01*
X162361476Y-59586761D01*
X162313857Y-59539142D01*
G04 #@! TO.C,C22*
X155631142Y-74017142D02*
X155583523Y-74064761D01*
X155440666Y-74112380D01*
X155345428Y-74112380D01*
X155202571Y-74064761D01*
X155107333Y-73969523D01*
X155059714Y-73874285D01*
X155012095Y-73683809D01*
X155012095Y-73540952D01*
X155059714Y-73350476D01*
X155107333Y-73255238D01*
X155202571Y-73160000D01*
X155345428Y-73112380D01*
X155440666Y-73112380D01*
X155583523Y-73160000D01*
X155631142Y-73207619D01*
X156012095Y-73207619D02*
X156059714Y-73160000D01*
X156154952Y-73112380D01*
X156393047Y-73112380D01*
X156488285Y-73160000D01*
X156535904Y-73207619D01*
X156583523Y-73302857D01*
X156583523Y-73398095D01*
X156535904Y-73540952D01*
X155964476Y-74112380D01*
X156583523Y-74112380D01*
X156964476Y-73207619D02*
X157012095Y-73160000D01*
X157107333Y-73112380D01*
X157345428Y-73112380D01*
X157440666Y-73160000D01*
X157488285Y-73207619D01*
X157535904Y-73302857D01*
X157535904Y-73398095D01*
X157488285Y-73540952D01*
X156916857Y-74112380D01*
X157535904Y-74112380D01*
G04 #@! TO.C,RV9*
X146216761Y-104361380D02*
X145883428Y-103885190D01*
X145645333Y-104361380D02*
X145645333Y-103361380D01*
X146026285Y-103361380D01*
X146121523Y-103409000D01*
X146169142Y-103456619D01*
X146216761Y-103551857D01*
X146216761Y-103694714D01*
X146169142Y-103789952D01*
X146121523Y-103837571D01*
X146026285Y-103885190D01*
X145645333Y-103885190D01*
X146502476Y-103361380D02*
X146835809Y-104361380D01*
X147169142Y-103361380D01*
X147550095Y-104361380D02*
X147740571Y-104361380D01*
X147835809Y-104313761D01*
X147883428Y-104266142D01*
X147978666Y-104123285D01*
X148026285Y-103932809D01*
X148026285Y-103551857D01*
X147978666Y-103456619D01*
X147931047Y-103409000D01*
X147835809Y-103361380D01*
X147645333Y-103361380D01*
X147550095Y-103409000D01*
X147502476Y-103456619D01*
X147454857Y-103551857D01*
X147454857Y-103789952D01*
X147502476Y-103885190D01*
X147550095Y-103932809D01*
X147645333Y-103980428D01*
X147835809Y-103980428D01*
X147931047Y-103932809D01*
X147978666Y-103885190D01*
X148026285Y-103789952D01*
G04 #@! TO.C,C23*
X133850142Y-113006142D02*
X133802523Y-113053761D01*
X133659666Y-113101380D01*
X133564428Y-113101380D01*
X133421571Y-113053761D01*
X133326333Y-112958523D01*
X133278714Y-112863285D01*
X133231095Y-112672809D01*
X133231095Y-112529952D01*
X133278714Y-112339476D01*
X133326333Y-112244238D01*
X133421571Y-112149000D01*
X133564428Y-112101380D01*
X133659666Y-112101380D01*
X133802523Y-112149000D01*
X133850142Y-112196619D01*
X134231095Y-112196619D02*
X134278714Y-112149000D01*
X134373952Y-112101380D01*
X134612047Y-112101380D01*
X134707285Y-112149000D01*
X134754904Y-112196619D01*
X134802523Y-112291857D01*
X134802523Y-112387095D01*
X134754904Y-112529952D01*
X134183476Y-113101380D01*
X134802523Y-113101380D01*
X135135857Y-112101380D02*
X135754904Y-112101380D01*
X135421571Y-112482333D01*
X135564428Y-112482333D01*
X135659666Y-112529952D01*
X135707285Y-112577571D01*
X135754904Y-112672809D01*
X135754904Y-112910904D01*
X135707285Y-113006142D01*
X135659666Y-113053761D01*
X135564428Y-113101380D01*
X135278714Y-113101380D01*
X135183476Y-113053761D01*
X135135857Y-113006142D01*
G04 #@! TO.C,J5*
X171116666Y-49312380D02*
X171116666Y-50026666D01*
X171069047Y-50169523D01*
X170973809Y-50264761D01*
X170830952Y-50312380D01*
X170735714Y-50312380D01*
X172069047Y-49312380D02*
X171592857Y-49312380D01*
X171545238Y-49788571D01*
X171592857Y-49740952D01*
X171688095Y-49693333D01*
X171926190Y-49693333D01*
X172021428Y-49740952D01*
X172069047Y-49788571D01*
X172116666Y-49883809D01*
X172116666Y-50121904D01*
X172069047Y-50217142D01*
X172021428Y-50264761D01*
X171926190Y-50312380D01*
X171688095Y-50312380D01*
X171592857Y-50264761D01*
X171545238Y-50217142D01*
G04 #@! TO.C,C11*
X98544142Y-114339642D02*
X98496523Y-114387261D01*
X98353666Y-114434880D01*
X98258428Y-114434880D01*
X98115571Y-114387261D01*
X98020333Y-114292023D01*
X97972714Y-114196785D01*
X97925095Y-114006309D01*
X97925095Y-113863452D01*
X97972714Y-113672976D01*
X98020333Y-113577738D01*
X98115571Y-113482500D01*
X98258428Y-113434880D01*
X98353666Y-113434880D01*
X98496523Y-113482500D01*
X98544142Y-113530119D01*
X99496523Y-114434880D02*
X98925095Y-114434880D01*
X99210809Y-114434880D02*
X99210809Y-113434880D01*
X99115571Y-113577738D01*
X99020333Y-113672976D01*
X98925095Y-113720595D01*
X100448904Y-114434880D02*
X99877476Y-114434880D01*
X100163190Y-114434880D02*
X100163190Y-113434880D01*
X100067952Y-113577738D01*
X99972714Y-113672976D01*
X99877476Y-113720595D01*
G04 #@! TO.C,R25*
X164902142Y-118402380D02*
X164568809Y-117926190D01*
X164330714Y-118402380D02*
X164330714Y-117402380D01*
X164711666Y-117402380D01*
X164806904Y-117450000D01*
X164854523Y-117497619D01*
X164902142Y-117592857D01*
X164902142Y-117735714D01*
X164854523Y-117830952D01*
X164806904Y-117878571D01*
X164711666Y-117926190D01*
X164330714Y-117926190D01*
X165283095Y-117497619D02*
X165330714Y-117450000D01*
X165425952Y-117402380D01*
X165664047Y-117402380D01*
X165759285Y-117450000D01*
X165806904Y-117497619D01*
X165854523Y-117592857D01*
X165854523Y-117688095D01*
X165806904Y-117830952D01*
X165235476Y-118402380D01*
X165854523Y-118402380D01*
X166759285Y-117402380D02*
X166283095Y-117402380D01*
X166235476Y-117878571D01*
X166283095Y-117830952D01*
X166378333Y-117783333D01*
X166616428Y-117783333D01*
X166711666Y-117830952D01*
X166759285Y-117878571D01*
X166806904Y-117973809D01*
X166806904Y-118211904D01*
X166759285Y-118307142D01*
X166711666Y-118354761D01*
X166616428Y-118402380D01*
X166378333Y-118402380D01*
X166283095Y-118354761D01*
X166235476Y-118307142D01*
G04 #@! TO.C,C4*
X87082333Y-113069642D02*
X87034714Y-113117261D01*
X86891857Y-113164880D01*
X86796619Y-113164880D01*
X86653761Y-113117261D01*
X86558523Y-113022023D01*
X86510904Y-112926785D01*
X86463285Y-112736309D01*
X86463285Y-112593452D01*
X86510904Y-112402976D01*
X86558523Y-112307738D01*
X86653761Y-112212500D01*
X86796619Y-112164880D01*
X86891857Y-112164880D01*
X87034714Y-112212500D01*
X87082333Y-112260119D01*
X87939476Y-112498214D02*
X87939476Y-113164880D01*
X87701380Y-112117261D02*
X87463285Y-112831547D01*
X88082333Y-112831547D01*
G04 #@! TO.C,C24*
X153535142Y-115165142D02*
X153487523Y-115212761D01*
X153344666Y-115260380D01*
X153249428Y-115260380D01*
X153106571Y-115212761D01*
X153011333Y-115117523D01*
X152963714Y-115022285D01*
X152916095Y-114831809D01*
X152916095Y-114688952D01*
X152963714Y-114498476D01*
X153011333Y-114403238D01*
X153106571Y-114308000D01*
X153249428Y-114260380D01*
X153344666Y-114260380D01*
X153487523Y-114308000D01*
X153535142Y-114355619D01*
X153916095Y-114355619D02*
X153963714Y-114308000D01*
X154058952Y-114260380D01*
X154297047Y-114260380D01*
X154392285Y-114308000D01*
X154439904Y-114355619D01*
X154487523Y-114450857D01*
X154487523Y-114546095D01*
X154439904Y-114688952D01*
X153868476Y-115260380D01*
X154487523Y-115260380D01*
X155344666Y-114593714D02*
X155344666Y-115260380D01*
X155106571Y-114212761D02*
X154868476Y-114927047D01*
X155487523Y-114927047D01*
G04 #@! TO.C,U3*
X99372380Y-117982904D02*
X100181904Y-117982904D01*
X100277142Y-117935285D01*
X100324761Y-117887666D01*
X100372380Y-117792428D01*
X100372380Y-117601952D01*
X100324761Y-117506714D01*
X100277142Y-117459095D01*
X100181904Y-117411476D01*
X99372380Y-117411476D01*
X99372380Y-117030523D02*
X99372380Y-116411476D01*
X99753333Y-116744809D01*
X99753333Y-116601952D01*
X99800952Y-116506714D01*
X99848571Y-116459095D01*
X99943809Y-116411476D01*
X100181904Y-116411476D01*
X100277142Y-116459095D01*
X100324761Y-116506714D01*
X100372380Y-116601952D01*
X100372380Y-116887666D01*
X100324761Y-116982904D01*
X100277142Y-117030523D01*
G04 #@! TO.C,C16*
X111879142Y-111482142D02*
X111831523Y-111529761D01*
X111688666Y-111577380D01*
X111593428Y-111577380D01*
X111450571Y-111529761D01*
X111355333Y-111434523D01*
X111307714Y-111339285D01*
X111260095Y-111148809D01*
X111260095Y-111005952D01*
X111307714Y-110815476D01*
X111355333Y-110720238D01*
X111450571Y-110625000D01*
X111593428Y-110577380D01*
X111688666Y-110577380D01*
X111831523Y-110625000D01*
X111879142Y-110672619D01*
X112831523Y-111577380D02*
X112260095Y-111577380D01*
X112545809Y-111577380D02*
X112545809Y-110577380D01*
X112450571Y-110720238D01*
X112355333Y-110815476D01*
X112260095Y-110863095D01*
X113688666Y-110577380D02*
X113498190Y-110577380D01*
X113402952Y-110625000D01*
X113355333Y-110672619D01*
X113260095Y-110815476D01*
X113212476Y-111005952D01*
X113212476Y-111386904D01*
X113260095Y-111482142D01*
X113307714Y-111529761D01*
X113402952Y-111577380D01*
X113593428Y-111577380D01*
X113688666Y-111529761D01*
X113736285Y-111482142D01*
X113783904Y-111386904D01*
X113783904Y-111148809D01*
X113736285Y-111053571D01*
X113688666Y-111005952D01*
X113593428Y-110958333D01*
X113402952Y-110958333D01*
X113307714Y-111005952D01*
X113260095Y-111053571D01*
X113212476Y-111148809D01*
G04 #@! TO.C,RV6*
X129452761Y-104361380D02*
X129119428Y-103885190D01*
X128881333Y-104361380D02*
X128881333Y-103361380D01*
X129262285Y-103361380D01*
X129357523Y-103409000D01*
X129405142Y-103456619D01*
X129452761Y-103551857D01*
X129452761Y-103694714D01*
X129405142Y-103789952D01*
X129357523Y-103837571D01*
X129262285Y-103885190D01*
X128881333Y-103885190D01*
X129738476Y-103361380D02*
X130071809Y-104361380D01*
X130405142Y-103361380D01*
X131167047Y-103361380D02*
X130976571Y-103361380D01*
X130881333Y-103409000D01*
X130833714Y-103456619D01*
X130738476Y-103599476D01*
X130690857Y-103789952D01*
X130690857Y-104170904D01*
X130738476Y-104266142D01*
X130786095Y-104313761D01*
X130881333Y-104361380D01*
X131071809Y-104361380D01*
X131167047Y-104313761D01*
X131214666Y-104266142D01*
X131262285Y-104170904D01*
X131262285Y-103932809D01*
X131214666Y-103837571D01*
X131167047Y-103789952D01*
X131071809Y-103742333D01*
X130881333Y-103742333D01*
X130786095Y-103789952D01*
X130738476Y-103837571D01*
X130690857Y-103932809D01*
G04 #@! TO.C,R3*
X111531833Y-75657880D02*
X111198500Y-75181690D01*
X110960404Y-75657880D02*
X110960404Y-74657880D01*
X111341357Y-74657880D01*
X111436595Y-74705500D01*
X111484214Y-74753119D01*
X111531833Y-74848357D01*
X111531833Y-74991214D01*
X111484214Y-75086452D01*
X111436595Y-75134071D01*
X111341357Y-75181690D01*
X110960404Y-75181690D01*
X111865166Y-74657880D02*
X112484214Y-74657880D01*
X112150880Y-75038833D01*
X112293738Y-75038833D01*
X112388976Y-75086452D01*
X112436595Y-75134071D01*
X112484214Y-75229309D01*
X112484214Y-75467404D01*
X112436595Y-75562642D01*
X112388976Y-75610261D01*
X112293738Y-75657880D01*
X112008023Y-75657880D01*
X111912785Y-75610261D01*
X111865166Y-75562642D01*
G04 #@! TO.C,R10*
X133802380Y-60840857D02*
X133326190Y-61174190D01*
X133802380Y-61412285D02*
X132802380Y-61412285D01*
X132802380Y-61031333D01*
X132850000Y-60936095D01*
X132897619Y-60888476D01*
X132992857Y-60840857D01*
X133135714Y-60840857D01*
X133230952Y-60888476D01*
X133278571Y-60936095D01*
X133326190Y-61031333D01*
X133326190Y-61412285D01*
X133802380Y-59888476D02*
X133802380Y-60459904D01*
X133802380Y-60174190D02*
X132802380Y-60174190D01*
X132945238Y-60269428D01*
X133040476Y-60364666D01*
X133088095Y-60459904D01*
X132802380Y-59269428D02*
X132802380Y-59174190D01*
X132850000Y-59078952D01*
X132897619Y-59031333D01*
X132992857Y-58983714D01*
X133183333Y-58936095D01*
X133421428Y-58936095D01*
X133611904Y-58983714D01*
X133707142Y-59031333D01*
X133754761Y-59078952D01*
X133802380Y-59174190D01*
X133802380Y-59269428D01*
X133754761Y-59364666D01*
X133707142Y-59412285D01*
X133611904Y-59459904D01*
X133421428Y-59507523D01*
X133183333Y-59507523D01*
X132992857Y-59459904D01*
X132897619Y-59412285D01*
X132850000Y-59364666D01*
X132802380Y-59269428D01*
G04 #@! TO.C,C3*
X89368333Y-120943642D02*
X89320714Y-120991261D01*
X89177857Y-121038880D01*
X89082619Y-121038880D01*
X88939761Y-120991261D01*
X88844523Y-120896023D01*
X88796904Y-120800785D01*
X88749285Y-120610309D01*
X88749285Y-120467452D01*
X88796904Y-120276976D01*
X88844523Y-120181738D01*
X88939761Y-120086500D01*
X89082619Y-120038880D01*
X89177857Y-120038880D01*
X89320714Y-120086500D01*
X89368333Y-120134119D01*
X89701666Y-120038880D02*
X90320714Y-120038880D01*
X89987380Y-120419833D01*
X90130238Y-120419833D01*
X90225476Y-120467452D01*
X90273095Y-120515071D01*
X90320714Y-120610309D01*
X90320714Y-120848404D01*
X90273095Y-120943642D01*
X90225476Y-120991261D01*
X90130238Y-121038880D01*
X89844523Y-121038880D01*
X89749285Y-120991261D01*
X89701666Y-120943642D01*
G04 #@! TO.C,R14*
X157980142Y-59634380D02*
X157646809Y-59158190D01*
X157408714Y-59634380D02*
X157408714Y-58634380D01*
X157789666Y-58634380D01*
X157884904Y-58682000D01*
X157932523Y-58729619D01*
X157980142Y-58824857D01*
X157980142Y-58967714D01*
X157932523Y-59062952D01*
X157884904Y-59110571D01*
X157789666Y-59158190D01*
X157408714Y-59158190D01*
X158932523Y-59634380D02*
X158361095Y-59634380D01*
X158646809Y-59634380D02*
X158646809Y-58634380D01*
X158551571Y-58777238D01*
X158456333Y-58872476D01*
X158361095Y-58920095D01*
X159789666Y-58967714D02*
X159789666Y-59634380D01*
X159551571Y-58586761D02*
X159313476Y-59301047D01*
X159932523Y-59301047D01*
G04 #@! TO.C,C10*
X98544142Y-115673142D02*
X98496523Y-115720761D01*
X98353666Y-115768380D01*
X98258428Y-115768380D01*
X98115571Y-115720761D01*
X98020333Y-115625523D01*
X97972714Y-115530285D01*
X97925095Y-115339809D01*
X97925095Y-115196952D01*
X97972714Y-115006476D01*
X98020333Y-114911238D01*
X98115571Y-114816000D01*
X98258428Y-114768380D01*
X98353666Y-114768380D01*
X98496523Y-114816000D01*
X98544142Y-114863619D01*
X99496523Y-115768380D02*
X98925095Y-115768380D01*
X99210809Y-115768380D02*
X99210809Y-114768380D01*
X99115571Y-114911238D01*
X99020333Y-115006476D01*
X98925095Y-115054095D01*
X100115571Y-114768380D02*
X100210809Y-114768380D01*
X100306047Y-114816000D01*
X100353666Y-114863619D01*
X100401285Y-114958857D01*
X100448904Y-115149333D01*
X100448904Y-115387428D01*
X100401285Y-115577904D01*
X100353666Y-115673142D01*
X100306047Y-115720761D01*
X100210809Y-115768380D01*
X100115571Y-115768380D01*
X100020333Y-115720761D01*
X99972714Y-115673142D01*
X99925095Y-115577904D01*
X99877476Y-115387428D01*
X99877476Y-115149333D01*
X99925095Y-114958857D01*
X99972714Y-114863619D01*
X100020333Y-114816000D01*
X100115571Y-114768380D01*
G04 #@! TO.C,R28*
X158933142Y-84018380D02*
X158599809Y-83542190D01*
X158361714Y-84018380D02*
X158361714Y-83018380D01*
X158742666Y-83018380D01*
X158837904Y-83066000D01*
X158885523Y-83113619D01*
X158933142Y-83208857D01*
X158933142Y-83351714D01*
X158885523Y-83446952D01*
X158837904Y-83494571D01*
X158742666Y-83542190D01*
X158361714Y-83542190D01*
X159314095Y-83113619D02*
X159361714Y-83066000D01*
X159456952Y-83018380D01*
X159695047Y-83018380D01*
X159790285Y-83066000D01*
X159837904Y-83113619D01*
X159885523Y-83208857D01*
X159885523Y-83304095D01*
X159837904Y-83446952D01*
X159266476Y-84018380D01*
X159885523Y-84018380D01*
X160456952Y-83446952D02*
X160361714Y-83399333D01*
X160314095Y-83351714D01*
X160266476Y-83256476D01*
X160266476Y-83208857D01*
X160314095Y-83113619D01*
X160361714Y-83066000D01*
X160456952Y-83018380D01*
X160647428Y-83018380D01*
X160742666Y-83066000D01*
X160790285Y-83113619D01*
X160837904Y-83208857D01*
X160837904Y-83256476D01*
X160790285Y-83351714D01*
X160742666Y-83399333D01*
X160647428Y-83446952D01*
X160456952Y-83446952D01*
X160361714Y-83494571D01*
X160314095Y-83542190D01*
X160266476Y-83637428D01*
X160266476Y-83827904D01*
X160314095Y-83923142D01*
X160361714Y-83970761D01*
X160456952Y-84018380D01*
X160647428Y-84018380D01*
X160742666Y-83970761D01*
X160790285Y-83923142D01*
X160837904Y-83827904D01*
X160837904Y-83637428D01*
X160790285Y-83542190D01*
X160742666Y-83494571D01*
X160647428Y-83446952D01*
G04 #@! TO.C,U8*
X161798095Y-111302380D02*
X161798095Y-112111904D01*
X161845714Y-112207142D01*
X161893333Y-112254761D01*
X161988571Y-112302380D01*
X162179047Y-112302380D01*
X162274285Y-112254761D01*
X162321904Y-112207142D01*
X162369523Y-112111904D01*
X162369523Y-111302380D01*
X162988571Y-111730952D02*
X162893333Y-111683333D01*
X162845714Y-111635714D01*
X162798095Y-111540476D01*
X162798095Y-111492857D01*
X162845714Y-111397619D01*
X162893333Y-111350000D01*
X162988571Y-111302380D01*
X163179047Y-111302380D01*
X163274285Y-111350000D01*
X163321904Y-111397619D01*
X163369523Y-111492857D01*
X163369523Y-111540476D01*
X163321904Y-111635714D01*
X163274285Y-111683333D01*
X163179047Y-111730952D01*
X162988571Y-111730952D01*
X162893333Y-111778571D01*
X162845714Y-111826190D01*
X162798095Y-111921428D01*
X162798095Y-112111904D01*
X162845714Y-112207142D01*
X162893333Y-112254761D01*
X162988571Y-112302380D01*
X163179047Y-112302380D01*
X163274285Y-112254761D01*
X163321904Y-112207142D01*
X163369523Y-112111904D01*
X163369523Y-111921428D01*
X163321904Y-111826190D01*
X163274285Y-111778571D01*
X163179047Y-111730952D01*
G04 #@! TO.C,Q3*
X114585761Y-125134619D02*
X114490523Y-125087000D01*
X114395285Y-124991761D01*
X114252428Y-124848904D01*
X114157190Y-124801285D01*
X114061952Y-124801285D01*
X114109571Y-125039380D02*
X114014333Y-124991761D01*
X113919095Y-124896523D01*
X113871476Y-124706047D01*
X113871476Y-124372714D01*
X113919095Y-124182238D01*
X114014333Y-124087000D01*
X114109571Y-124039380D01*
X114300047Y-124039380D01*
X114395285Y-124087000D01*
X114490523Y-124182238D01*
X114538142Y-124372714D01*
X114538142Y-124706047D01*
X114490523Y-124896523D01*
X114395285Y-124991761D01*
X114300047Y-125039380D01*
X114109571Y-125039380D01*
X114871476Y-124039380D02*
X115490523Y-124039380D01*
X115157190Y-124420333D01*
X115300047Y-124420333D01*
X115395285Y-124467952D01*
X115442904Y-124515571D01*
X115490523Y-124610809D01*
X115490523Y-124848904D01*
X115442904Y-124944142D01*
X115395285Y-124991761D01*
X115300047Y-125039380D01*
X115014333Y-125039380D01*
X114919095Y-124991761D01*
X114871476Y-124944142D01*
G04 #@! TO.C,U10*
X146907904Y-84415380D02*
X146907904Y-85224904D01*
X146955523Y-85320142D01*
X147003142Y-85367761D01*
X147098380Y-85415380D01*
X147288857Y-85415380D01*
X147384095Y-85367761D01*
X147431714Y-85320142D01*
X147479333Y-85224904D01*
X147479333Y-84415380D01*
X148479333Y-85415380D02*
X147907904Y-85415380D01*
X148193619Y-85415380D02*
X148193619Y-84415380D01*
X148098380Y-84558238D01*
X148003142Y-84653476D01*
X147907904Y-84701095D01*
X149098380Y-84415380D02*
X149193619Y-84415380D01*
X149288857Y-84463000D01*
X149336476Y-84510619D01*
X149384095Y-84605857D01*
X149431714Y-84796333D01*
X149431714Y-85034428D01*
X149384095Y-85224904D01*
X149336476Y-85320142D01*
X149288857Y-85367761D01*
X149193619Y-85415380D01*
X149098380Y-85415380D01*
X149003142Y-85367761D01*
X148955523Y-85320142D01*
X148907904Y-85224904D01*
X148860285Y-85034428D01*
X148860285Y-84796333D01*
X148907904Y-84605857D01*
X148955523Y-84510619D01*
X149003142Y-84463000D01*
X149098380Y-84415380D01*
G04 #@! TO.C,C26*
X155631142Y-72493142D02*
X155583523Y-72540761D01*
X155440666Y-72588380D01*
X155345428Y-72588380D01*
X155202571Y-72540761D01*
X155107333Y-72445523D01*
X155059714Y-72350285D01*
X155012095Y-72159809D01*
X155012095Y-72016952D01*
X155059714Y-71826476D01*
X155107333Y-71731238D01*
X155202571Y-71636000D01*
X155345428Y-71588380D01*
X155440666Y-71588380D01*
X155583523Y-71636000D01*
X155631142Y-71683619D01*
X156012095Y-71683619D02*
X156059714Y-71636000D01*
X156154952Y-71588380D01*
X156393047Y-71588380D01*
X156488285Y-71636000D01*
X156535904Y-71683619D01*
X156583523Y-71778857D01*
X156583523Y-71874095D01*
X156535904Y-72016952D01*
X155964476Y-72588380D01*
X156583523Y-72588380D01*
X157440666Y-71588380D02*
X157250190Y-71588380D01*
X157154952Y-71636000D01*
X157107333Y-71683619D01*
X157012095Y-71826476D01*
X156964476Y-72016952D01*
X156964476Y-72397904D01*
X157012095Y-72493142D01*
X157059714Y-72540761D01*
X157154952Y-72588380D01*
X157345428Y-72588380D01*
X157440666Y-72540761D01*
X157488285Y-72493142D01*
X157535904Y-72397904D01*
X157535904Y-72159809D01*
X157488285Y-72064571D01*
X157440666Y-72016952D01*
X157345428Y-71969333D01*
X157154952Y-71969333D01*
X157059714Y-72016952D01*
X157012095Y-72064571D01*
X156964476Y-72159809D01*
G04 #@! TO.C,J1*
X128159999Y-39584380D02*
X128159999Y-40298666D01*
X128112380Y-40441523D01*
X128017142Y-40536761D01*
X127874285Y-40584380D01*
X127779047Y-40584380D01*
X129159999Y-40584380D02*
X128588571Y-40584380D01*
X128874285Y-40584380D02*
X128874285Y-39584380D01*
X128779047Y-39727238D01*
X128683809Y-39822476D01*
X128588571Y-39870095D01*
G04 #@! TO.C,R27*
X161981142Y-84018380D02*
X161647809Y-83542190D01*
X161409714Y-84018380D02*
X161409714Y-83018380D01*
X161790666Y-83018380D01*
X161885904Y-83066000D01*
X161933523Y-83113619D01*
X161981142Y-83208857D01*
X161981142Y-83351714D01*
X161933523Y-83446952D01*
X161885904Y-83494571D01*
X161790666Y-83542190D01*
X161409714Y-83542190D01*
X162362095Y-83113619D02*
X162409714Y-83066000D01*
X162504952Y-83018380D01*
X162743047Y-83018380D01*
X162838285Y-83066000D01*
X162885904Y-83113619D01*
X162933523Y-83208857D01*
X162933523Y-83304095D01*
X162885904Y-83446952D01*
X162314476Y-84018380D01*
X162933523Y-84018380D01*
X163266857Y-83018380D02*
X163933523Y-83018380D01*
X163504952Y-84018380D01*
G04 #@! TO.C,RV8*
X168695761Y-104361380D02*
X168362428Y-103885190D01*
X168124333Y-104361380D02*
X168124333Y-103361380D01*
X168505285Y-103361380D01*
X168600523Y-103409000D01*
X168648142Y-103456619D01*
X168695761Y-103551857D01*
X168695761Y-103694714D01*
X168648142Y-103789952D01*
X168600523Y-103837571D01*
X168505285Y-103885190D01*
X168124333Y-103885190D01*
X168981476Y-103361380D02*
X169314809Y-104361380D01*
X169648142Y-103361380D01*
X170124333Y-103789952D02*
X170029095Y-103742333D01*
X169981476Y-103694714D01*
X169933857Y-103599476D01*
X169933857Y-103551857D01*
X169981476Y-103456619D01*
X170029095Y-103409000D01*
X170124333Y-103361380D01*
X170314809Y-103361380D01*
X170410047Y-103409000D01*
X170457666Y-103456619D01*
X170505285Y-103551857D01*
X170505285Y-103599476D01*
X170457666Y-103694714D01*
X170410047Y-103742333D01*
X170314809Y-103789952D01*
X170124333Y-103789952D01*
X170029095Y-103837571D01*
X169981476Y-103885190D01*
X169933857Y-103980428D01*
X169933857Y-104170904D01*
X169981476Y-104266142D01*
X170029095Y-104313761D01*
X170124333Y-104361380D01*
X170314809Y-104361380D01*
X170410047Y-104313761D01*
X170457666Y-104266142D01*
X170505285Y-104170904D01*
X170505285Y-103980428D01*
X170457666Y-103885190D01*
X170410047Y-103837571D01*
X170314809Y-103789952D01*
G04 #@! TO.C,C9*
X104862333Y-120943642D02*
X104814714Y-120991261D01*
X104671857Y-121038880D01*
X104576619Y-121038880D01*
X104433761Y-120991261D01*
X104338523Y-120896023D01*
X104290904Y-120800785D01*
X104243285Y-120610309D01*
X104243285Y-120467452D01*
X104290904Y-120276976D01*
X104338523Y-120181738D01*
X104433761Y-120086500D01*
X104576619Y-120038880D01*
X104671857Y-120038880D01*
X104814714Y-120086500D01*
X104862333Y-120134119D01*
X105338523Y-121038880D02*
X105529000Y-121038880D01*
X105624238Y-120991261D01*
X105671857Y-120943642D01*
X105767095Y-120800785D01*
X105814714Y-120610309D01*
X105814714Y-120229357D01*
X105767095Y-120134119D01*
X105719476Y-120086500D01*
X105624238Y-120038880D01*
X105433761Y-120038880D01*
X105338523Y-120086500D01*
X105290904Y-120134119D01*
X105243285Y-120229357D01*
X105243285Y-120467452D01*
X105290904Y-120562690D01*
X105338523Y-120610309D01*
X105433761Y-120657928D01*
X105624238Y-120657928D01*
X105719476Y-120610309D01*
X105767095Y-120562690D01*
X105814714Y-120467452D01*
G04 #@! TO.C,SW1*
X88201666Y-92430261D02*
X88344523Y-92477880D01*
X88582619Y-92477880D01*
X88677857Y-92430261D01*
X88725476Y-92382642D01*
X88773095Y-92287404D01*
X88773095Y-92192166D01*
X88725476Y-92096928D01*
X88677857Y-92049309D01*
X88582619Y-92001690D01*
X88392142Y-91954071D01*
X88296904Y-91906452D01*
X88249285Y-91858833D01*
X88201666Y-91763595D01*
X88201666Y-91668357D01*
X88249285Y-91573119D01*
X88296904Y-91525500D01*
X88392142Y-91477880D01*
X88630238Y-91477880D01*
X88773095Y-91525500D01*
X89106428Y-91477880D02*
X89344523Y-92477880D01*
X89535000Y-91763595D01*
X89725476Y-92477880D01*
X89963571Y-91477880D01*
X90868333Y-92477880D02*
X90296904Y-92477880D01*
X90582619Y-92477880D02*
X90582619Y-91477880D01*
X90487380Y-91620738D01*
X90392142Y-91715976D01*
X90296904Y-91763595D01*
G04 #@! TO.C,C1*
X165314333Y-52013142D02*
X165266714Y-52060761D01*
X165123857Y-52108380D01*
X165028619Y-52108380D01*
X164885761Y-52060761D01*
X164790523Y-51965523D01*
X164742904Y-51870285D01*
X164695285Y-51679809D01*
X164695285Y-51536952D01*
X164742904Y-51346476D01*
X164790523Y-51251238D01*
X164885761Y-51156000D01*
X165028619Y-51108380D01*
X165123857Y-51108380D01*
X165266714Y-51156000D01*
X165314333Y-51203619D01*
X166266714Y-52108380D02*
X165695285Y-52108380D01*
X165981000Y-52108380D02*
X165981000Y-51108380D01*
X165885761Y-51251238D01*
X165790523Y-51346476D01*
X165695285Y-51394095D01*
G04 #@! TO.C,C12*
X107053142Y-113069642D02*
X107005523Y-113117261D01*
X106862666Y-113164880D01*
X106767428Y-113164880D01*
X106624571Y-113117261D01*
X106529333Y-113022023D01*
X106481714Y-112926785D01*
X106434095Y-112736309D01*
X106434095Y-112593452D01*
X106481714Y-112402976D01*
X106529333Y-112307738D01*
X106624571Y-112212500D01*
X106767428Y-112164880D01*
X106862666Y-112164880D01*
X107005523Y-112212500D01*
X107053142Y-112260119D01*
X108005523Y-113164880D02*
X107434095Y-113164880D01*
X107719809Y-113164880D02*
X107719809Y-112164880D01*
X107624571Y-112307738D01*
X107529333Y-112402976D01*
X107434095Y-112450595D01*
X108386476Y-112260119D02*
X108434095Y-112212500D01*
X108529333Y-112164880D01*
X108767428Y-112164880D01*
X108862666Y-112212500D01*
X108910285Y-112260119D01*
X108957904Y-112355357D01*
X108957904Y-112450595D01*
X108910285Y-112593452D01*
X108338857Y-113164880D01*
X108957904Y-113164880D01*
G04 #@! TO.C,C36*
X155631142Y-82399142D02*
X155583523Y-82446761D01*
X155440666Y-82494380D01*
X155345428Y-82494380D01*
X155202571Y-82446761D01*
X155107333Y-82351523D01*
X155059714Y-82256285D01*
X155012095Y-82065809D01*
X155012095Y-81922952D01*
X155059714Y-81732476D01*
X155107333Y-81637238D01*
X155202571Y-81542000D01*
X155345428Y-81494380D01*
X155440666Y-81494380D01*
X155583523Y-81542000D01*
X155631142Y-81589619D01*
X155964476Y-81494380D02*
X156583523Y-81494380D01*
X156250190Y-81875333D01*
X156393047Y-81875333D01*
X156488285Y-81922952D01*
X156535904Y-81970571D01*
X156583523Y-82065809D01*
X156583523Y-82303904D01*
X156535904Y-82399142D01*
X156488285Y-82446761D01*
X156393047Y-82494380D01*
X156107333Y-82494380D01*
X156012095Y-82446761D01*
X155964476Y-82399142D01*
X157440666Y-81494380D02*
X157250190Y-81494380D01*
X157154952Y-81542000D01*
X157107333Y-81589619D01*
X157012095Y-81732476D01*
X156964476Y-81922952D01*
X156964476Y-82303904D01*
X157012095Y-82399142D01*
X157059714Y-82446761D01*
X157154952Y-82494380D01*
X157345428Y-82494380D01*
X157440666Y-82446761D01*
X157488285Y-82399142D01*
X157535904Y-82303904D01*
X157535904Y-82065809D01*
X157488285Y-81970571D01*
X157440666Y-81922952D01*
X157345428Y-81875333D01*
X157154952Y-81875333D01*
X157059714Y-81922952D01*
X157012095Y-81970571D01*
X156964476Y-82065809D01*
G04 #@! TO.C,J6*
X102536666Y-127201680D02*
X102536666Y-127915966D01*
X102489047Y-128058823D01*
X102393809Y-128154061D01*
X102250952Y-128201680D01*
X102155714Y-128201680D01*
X103441428Y-127201680D02*
X103250952Y-127201680D01*
X103155714Y-127249300D01*
X103108095Y-127296919D01*
X103012857Y-127439776D01*
X102965238Y-127630252D01*
X102965238Y-128011204D01*
X103012857Y-128106442D01*
X103060476Y-128154061D01*
X103155714Y-128201680D01*
X103346190Y-128201680D01*
X103441428Y-128154061D01*
X103489047Y-128106442D01*
X103536666Y-128011204D01*
X103536666Y-127773109D01*
X103489047Y-127677871D01*
X103441428Y-127630252D01*
X103346190Y-127582633D01*
X103155714Y-127582633D01*
X103060476Y-127630252D01*
X103012857Y-127677871D01*
X102965238Y-127773109D01*
G04 #@! TO.C,RV2*
X139094761Y-63825380D02*
X138761428Y-63349190D01*
X138523333Y-63825380D02*
X138523333Y-62825380D01*
X138904285Y-62825380D01*
X138999523Y-62873000D01*
X139047142Y-62920619D01*
X139094761Y-63015857D01*
X139094761Y-63158714D01*
X139047142Y-63253952D01*
X138999523Y-63301571D01*
X138904285Y-63349190D01*
X138523333Y-63349190D01*
X139380476Y-62825380D02*
X139713809Y-63825380D01*
X140047142Y-62825380D01*
X140332857Y-62920619D02*
X140380476Y-62873000D01*
X140475714Y-62825380D01*
X140713809Y-62825380D01*
X140809047Y-62873000D01*
X140856666Y-62920619D01*
X140904285Y-63015857D01*
X140904285Y-63111095D01*
X140856666Y-63253952D01*
X140285238Y-63825380D01*
X140904285Y-63825380D01*
G04 #@! TO.C,R19*
X161981142Y-72682380D02*
X161647809Y-72206190D01*
X161409714Y-72682380D02*
X161409714Y-71682380D01*
X161790666Y-71682380D01*
X161885904Y-71730000D01*
X161933523Y-71777619D01*
X161981142Y-71872857D01*
X161981142Y-72015714D01*
X161933523Y-72110952D01*
X161885904Y-72158571D01*
X161790666Y-72206190D01*
X161409714Y-72206190D01*
X162933523Y-72682380D02*
X162362095Y-72682380D01*
X162647809Y-72682380D02*
X162647809Y-71682380D01*
X162552571Y-71825238D01*
X162457333Y-71920476D01*
X162362095Y-71968095D01*
X163409714Y-72682380D02*
X163600190Y-72682380D01*
X163695428Y-72634761D01*
X163743047Y-72587142D01*
X163838285Y-72444285D01*
X163885904Y-72253809D01*
X163885904Y-71872857D01*
X163838285Y-71777619D01*
X163790666Y-71730000D01*
X163695428Y-71682380D01*
X163504952Y-71682380D01*
X163409714Y-71730000D01*
X163362095Y-71777619D01*
X163314476Y-71872857D01*
X163314476Y-72110952D01*
X163362095Y-72206190D01*
X163409714Y-72253809D01*
X163504952Y-72301428D01*
X163695428Y-72301428D01*
X163790666Y-72253809D01*
X163838285Y-72206190D01*
X163885904Y-72110952D01*
G04 #@! TO.C,U1*
X88823380Y-117411404D02*
X89632904Y-117411404D01*
X89728142Y-117363785D01*
X89775761Y-117316166D01*
X89823380Y-117220928D01*
X89823380Y-117030452D01*
X89775761Y-116935214D01*
X89728142Y-116887595D01*
X89632904Y-116839976D01*
X88823380Y-116839976D01*
X89823380Y-115839976D02*
X89823380Y-116411404D01*
X89823380Y-116125690D02*
X88823380Y-116125690D01*
X88966238Y-116220928D01*
X89061476Y-116316166D01*
X89109095Y-116411404D01*
G04 #@! TO.C,Q1*
X88423761Y-125198119D02*
X88328523Y-125150500D01*
X88233285Y-125055261D01*
X88090428Y-124912404D01*
X87995190Y-124864785D01*
X87899952Y-124864785D01*
X87947571Y-125102880D02*
X87852333Y-125055261D01*
X87757095Y-124960023D01*
X87709476Y-124769547D01*
X87709476Y-124436214D01*
X87757095Y-124245738D01*
X87852333Y-124150500D01*
X87947571Y-124102880D01*
X88138047Y-124102880D01*
X88233285Y-124150500D01*
X88328523Y-124245738D01*
X88376142Y-124436214D01*
X88376142Y-124769547D01*
X88328523Y-124960023D01*
X88233285Y-125055261D01*
X88138047Y-125102880D01*
X87947571Y-125102880D01*
X89328523Y-125102880D02*
X88757095Y-125102880D01*
X89042809Y-125102880D02*
X89042809Y-124102880D01*
X88947571Y-124245738D01*
X88852333Y-124340976D01*
X88757095Y-124388595D01*
G04 #@! TO.C,C19*
X132199142Y-120880142D02*
X132151523Y-120927761D01*
X132008666Y-120975380D01*
X131913428Y-120975380D01*
X131770571Y-120927761D01*
X131675333Y-120832523D01*
X131627714Y-120737285D01*
X131580095Y-120546809D01*
X131580095Y-120403952D01*
X131627714Y-120213476D01*
X131675333Y-120118238D01*
X131770571Y-120023000D01*
X131913428Y-119975380D01*
X132008666Y-119975380D01*
X132151523Y-120023000D01*
X132199142Y-120070619D01*
X133151523Y-120975380D02*
X132580095Y-120975380D01*
X132865809Y-120975380D02*
X132865809Y-119975380D01*
X132770571Y-120118238D01*
X132675333Y-120213476D01*
X132580095Y-120261095D01*
X133627714Y-120975380D02*
X133818190Y-120975380D01*
X133913428Y-120927761D01*
X133961047Y-120880142D01*
X134056285Y-120737285D01*
X134103904Y-120546809D01*
X134103904Y-120165857D01*
X134056285Y-120070619D01*
X134008666Y-120023000D01*
X133913428Y-119975380D01*
X133722952Y-119975380D01*
X133627714Y-120023000D01*
X133580095Y-120070619D01*
X133532476Y-120165857D01*
X133532476Y-120403952D01*
X133580095Y-120499190D01*
X133627714Y-120546809D01*
X133722952Y-120594428D01*
X133913428Y-120594428D01*
X134008666Y-120546809D01*
X134056285Y-120499190D01*
X134103904Y-120403952D01*
G04 #@! TO.C,R26*
X150424150Y-78417680D02*
X150090817Y-77941490D01*
X149852722Y-78417680D02*
X149852722Y-77417680D01*
X150233674Y-77417680D01*
X150328912Y-77465300D01*
X150376531Y-77512919D01*
X150424150Y-77608157D01*
X150424150Y-77751014D01*
X150376531Y-77846252D01*
X150328912Y-77893871D01*
X150233674Y-77941490D01*
X149852722Y-77941490D01*
X150805103Y-77512919D02*
X150852722Y-77465300D01*
X150947960Y-77417680D01*
X151186055Y-77417680D01*
X151281293Y-77465300D01*
X151328912Y-77512919D01*
X151376531Y-77608157D01*
X151376531Y-77703395D01*
X151328912Y-77846252D01*
X150757484Y-78417680D01*
X151376531Y-78417680D01*
X152233674Y-77417680D02*
X152043198Y-77417680D01*
X151947960Y-77465300D01*
X151900341Y-77512919D01*
X151805103Y-77655776D01*
X151757484Y-77846252D01*
X151757484Y-78227204D01*
X151805103Y-78322442D01*
X151852722Y-78370061D01*
X151947960Y-78417680D01*
X152138436Y-78417680D01*
X152233674Y-78370061D01*
X152281293Y-78322442D01*
X152328912Y-78227204D01*
X152328912Y-77989109D01*
X152281293Y-77893871D01*
X152233674Y-77846252D01*
X152138436Y-77798633D01*
X151947960Y-77798633D01*
X151852722Y-77846252D01*
X151805103Y-77893871D01*
X151757484Y-77989109D01*
G04 #@! TO.C,R1*
X119405833Y-77461880D02*
X119072500Y-76985690D01*
X118834404Y-77461880D02*
X118834404Y-76461880D01*
X119215357Y-76461880D01*
X119310595Y-76509500D01*
X119358214Y-76557119D01*
X119405833Y-76652357D01*
X119405833Y-76795214D01*
X119358214Y-76890452D01*
X119310595Y-76938071D01*
X119215357Y-76985690D01*
X118834404Y-76985690D01*
X120358214Y-77461880D02*
X119786785Y-77461880D01*
X120072500Y-77461880D02*
X120072500Y-76461880D01*
X119977261Y-76604738D01*
X119882023Y-76699976D01*
X119786785Y-76747595D01*
G04 #@! TO.C,J9*
X149517380Y-118443333D02*
X150231666Y-118443333D01*
X150374523Y-118490952D01*
X150469761Y-118586190D01*
X150517380Y-118729047D01*
X150517380Y-118824285D01*
X150517380Y-117919523D02*
X150517380Y-117729047D01*
X150469761Y-117633809D01*
X150422142Y-117586190D01*
X150279285Y-117490952D01*
X150088809Y-117443333D01*
X149707857Y-117443333D01*
X149612619Y-117490952D01*
X149565000Y-117538571D01*
X149517380Y-117633809D01*
X149517380Y-117824285D01*
X149565000Y-117919523D01*
X149612619Y-117967142D01*
X149707857Y-118014761D01*
X149945952Y-118014761D01*
X150041190Y-117967142D01*
X150088809Y-117919523D01*
X150136428Y-117824285D01*
X150136428Y-117633809D01*
X150088809Y-117538571D01*
X150041190Y-117490952D01*
X149945952Y-117443333D01*
G04 #@! TO.C,H1*
X80518095Y-39432380D02*
X80518095Y-38432380D01*
X80518095Y-38908571D02*
X81089523Y-38908571D01*
X81089523Y-39432380D02*
X81089523Y-38432380D01*
X82089523Y-39432380D02*
X81518095Y-39432380D01*
X81803809Y-39432380D02*
X81803809Y-38432380D01*
X81708571Y-38575238D01*
X81613333Y-38670476D01*
X81518095Y-38718095D01*
G04 #@! TO.C,C14*
X114419142Y-120880142D02*
X114371523Y-120927761D01*
X114228666Y-120975380D01*
X114133428Y-120975380D01*
X113990571Y-120927761D01*
X113895333Y-120832523D01*
X113847714Y-120737285D01*
X113800095Y-120546809D01*
X113800095Y-120403952D01*
X113847714Y-120213476D01*
X113895333Y-120118238D01*
X113990571Y-120023000D01*
X114133428Y-119975380D01*
X114228666Y-119975380D01*
X114371523Y-120023000D01*
X114419142Y-120070619D01*
X115371523Y-120975380D02*
X114800095Y-120975380D01*
X115085809Y-120975380D02*
X115085809Y-119975380D01*
X114990571Y-120118238D01*
X114895333Y-120213476D01*
X114800095Y-120261095D01*
X116228666Y-120308714D02*
X116228666Y-120975380D01*
X115990571Y-119927761D02*
X115752476Y-120642047D01*
X116371523Y-120642047D01*
G04 #@! TO.C,R21*
X150424150Y-76919080D02*
X150090817Y-76442890D01*
X149852722Y-76919080D02*
X149852722Y-75919080D01*
X150233674Y-75919080D01*
X150328912Y-75966700D01*
X150376531Y-76014319D01*
X150424150Y-76109557D01*
X150424150Y-76252414D01*
X150376531Y-76347652D01*
X150328912Y-76395271D01*
X150233674Y-76442890D01*
X149852722Y-76442890D01*
X150805103Y-76014319D02*
X150852722Y-75966700D01*
X150947960Y-75919080D01*
X151186055Y-75919080D01*
X151281293Y-75966700D01*
X151328912Y-76014319D01*
X151376531Y-76109557D01*
X151376531Y-76204795D01*
X151328912Y-76347652D01*
X150757484Y-76919080D01*
X151376531Y-76919080D01*
X152328912Y-76919080D02*
X151757484Y-76919080D01*
X152043198Y-76919080D02*
X152043198Y-75919080D01*
X151947960Y-76061938D01*
X151852722Y-76157176D01*
X151757484Y-76204795D01*
G04 #@! TO.C,C34*
X137660142Y-113006142D02*
X137612523Y-113053761D01*
X137469666Y-113101380D01*
X137374428Y-113101380D01*
X137231571Y-113053761D01*
X137136333Y-112958523D01*
X137088714Y-112863285D01*
X137041095Y-112672809D01*
X137041095Y-112529952D01*
X137088714Y-112339476D01*
X137136333Y-112244238D01*
X137231571Y-112149000D01*
X137374428Y-112101380D01*
X137469666Y-112101380D01*
X137612523Y-112149000D01*
X137660142Y-112196619D01*
X137993476Y-112101380D02*
X138612523Y-112101380D01*
X138279190Y-112482333D01*
X138422047Y-112482333D01*
X138517285Y-112529952D01*
X138564904Y-112577571D01*
X138612523Y-112672809D01*
X138612523Y-112910904D01*
X138564904Y-113006142D01*
X138517285Y-113053761D01*
X138422047Y-113101380D01*
X138136333Y-113101380D01*
X138041095Y-113053761D01*
X137993476Y-113006142D01*
X139469666Y-112434714D02*
X139469666Y-113101380D01*
X139231571Y-112053761D02*
X138993476Y-112768047D01*
X139612523Y-112768047D01*
G04 #@! TO.C,C27*
X155631142Y-80875142D02*
X155583523Y-80922761D01*
X155440666Y-80970380D01*
X155345428Y-80970380D01*
X155202571Y-80922761D01*
X155107333Y-80827523D01*
X155059714Y-80732285D01*
X155012095Y-80541809D01*
X155012095Y-80398952D01*
X155059714Y-80208476D01*
X155107333Y-80113238D01*
X155202571Y-80018000D01*
X155345428Y-79970380D01*
X155440666Y-79970380D01*
X155583523Y-80018000D01*
X155631142Y-80065619D01*
X156012095Y-80065619D02*
X156059714Y-80018000D01*
X156154952Y-79970380D01*
X156393047Y-79970380D01*
X156488285Y-80018000D01*
X156535904Y-80065619D01*
X156583523Y-80160857D01*
X156583523Y-80256095D01*
X156535904Y-80398952D01*
X155964476Y-80970380D01*
X156583523Y-80970380D01*
X156916857Y-79970380D02*
X157583523Y-79970380D01*
X157154952Y-80970380D01*
G04 #@! TO.C,R24*
X140110380Y-81033857D02*
X139634190Y-81367190D01*
X140110380Y-81605285D02*
X139110380Y-81605285D01*
X139110380Y-81224333D01*
X139158000Y-81129095D01*
X139205619Y-81081476D01*
X139300857Y-81033857D01*
X139443714Y-81033857D01*
X139538952Y-81081476D01*
X139586571Y-81129095D01*
X139634190Y-81224333D01*
X139634190Y-81605285D01*
X139205619Y-80652904D02*
X139158000Y-80605285D01*
X139110380Y-80510047D01*
X139110380Y-80271952D01*
X139158000Y-80176714D01*
X139205619Y-80129095D01*
X139300857Y-80081476D01*
X139396095Y-80081476D01*
X139538952Y-80129095D01*
X140110380Y-80700523D01*
X140110380Y-80081476D01*
X139443714Y-79224333D02*
X140110380Y-79224333D01*
X139062761Y-79462428D02*
X139777047Y-79700523D01*
X139777047Y-79081476D01*
G04 #@! TO.C,C13*
X114419142Y-122404142D02*
X114371523Y-122451761D01*
X114228666Y-122499380D01*
X114133428Y-122499380D01*
X113990571Y-122451761D01*
X113895333Y-122356523D01*
X113847714Y-122261285D01*
X113800095Y-122070809D01*
X113800095Y-121927952D01*
X113847714Y-121737476D01*
X113895333Y-121642238D01*
X113990571Y-121547000D01*
X114133428Y-121499380D01*
X114228666Y-121499380D01*
X114371523Y-121547000D01*
X114419142Y-121594619D01*
X115371523Y-122499380D02*
X114800095Y-122499380D01*
X115085809Y-122499380D02*
X115085809Y-121499380D01*
X114990571Y-121642238D01*
X114895333Y-121737476D01*
X114800095Y-121785095D01*
X115704857Y-121499380D02*
X116323904Y-121499380D01*
X115990571Y-121880333D01*
X116133428Y-121880333D01*
X116228666Y-121927952D01*
X116276285Y-121975571D01*
X116323904Y-122070809D01*
X116323904Y-122308904D01*
X116276285Y-122404142D01*
X116228666Y-122451761D01*
X116133428Y-122499380D01*
X115847714Y-122499380D01*
X115752476Y-122451761D01*
X115704857Y-122404142D01*
D16*
G04 #@! TO.C,C5*
X89929580Y-111698500D02*
X89648420Y-111698500D01*
X89929580Y-110678500D02*
X89648420Y-110678500D01*
G04 #@! TO.C,P1*
X175130000Y-71860000D02*
X175130000Y-75460000D01*
X169650000Y-77340000D02*
X173250000Y-77340000D01*
X169650000Y-69980000D02*
X173250000Y-69980000D01*
X167770000Y-71860000D02*
X167770000Y-75460000D01*
G04 #@! TO.C,C20*
X127267580Y-113159000D02*
X126986420Y-113159000D01*
X127267580Y-112139000D02*
X126986420Y-112139000D01*
G04 #@! TO.C,C35*
X141364580Y-110615000D02*
X141083420Y-110615000D01*
X141364580Y-111635000D02*
X141083420Y-111635000D01*
G04 #@! TO.C,C25*
X157239580Y-113794000D02*
X156958420Y-113794000D01*
X157239580Y-112774000D02*
X156958420Y-112774000D01*
G04 #@! TO.C,C31*
X165860000Y-77850420D02*
X165860000Y-78131580D01*
X166880000Y-77850420D02*
X166880000Y-78131580D01*
G04 #@! TO.C,R17*
X119744258Y-111647500D02*
X119269742Y-111647500D01*
X119744258Y-110602500D02*
X119269742Y-110602500D01*
G04 #@! TO.C,C28*
X156414580Y-79504000D02*
X156133420Y-79504000D01*
X156414580Y-78484000D02*
X156133420Y-78484000D01*
G04 #@! TO.C,R9*
X132827500Y-53991742D02*
X132827500Y-54466258D01*
X133872500Y-53991742D02*
X133872500Y-54466258D01*
G04 #@! TO.C,R30*
X136002500Y-108728742D02*
X136002500Y-109203258D01*
X137047500Y-108728742D02*
X137047500Y-109203258D01*
G04 #@! TO.C,R31*
X165497742Y-74182500D02*
X165972258Y-74182500D01*
X165497742Y-73137500D02*
X165972258Y-73137500D01*
G04 #@! TO.C,SW2*
X86305000Y-82685500D02*
X92765000Y-82685500D01*
X86305000Y-89145500D02*
X86305000Y-89115500D01*
X86305000Y-89145500D02*
X92765000Y-89145500D01*
X92765000Y-82685500D02*
X92765000Y-82715500D01*
X92765000Y-84615500D02*
X92765000Y-87215500D01*
X86305000Y-84615500D02*
X86305000Y-87215500D01*
X86305000Y-82715500D02*
X86305000Y-82685500D01*
X92765000Y-89145500D02*
X92765000Y-89115500D01*
G04 #@! TO.C,J11*
X169650000Y-123060000D02*
X173250000Y-123060000D01*
X169650000Y-115700000D02*
X173250000Y-115700000D01*
X167770000Y-117580000D02*
X167770000Y-121180000D01*
X175130000Y-117580000D02*
X175130000Y-121180000D01*
D11*
G04 #@! TO.C,J3*
X95567500Y-128574800D02*
X95567500Y-137845800D01*
X87312500Y-137845800D02*
X87312500Y-128574800D01*
X95567500Y-137845800D02*
X87312500Y-137845800D01*
X87312500Y-128574800D02*
X95567500Y-128574800D01*
X91440000Y-128574800D02*
X91440000Y-137845800D01*
D16*
G04 #@! TO.C,R12*
X165718258Y-54087500D02*
X165243742Y-54087500D01*
X165718258Y-55132500D02*
X165243742Y-55132500D01*
G04 #@! TO.C,Q4*
X129413000Y-126147000D02*
X131088000Y-126147000D01*
X129413000Y-126147000D02*
X128763000Y-126147000D01*
X129413000Y-123027000D02*
X128763000Y-123027000D01*
X129413000Y-123027000D02*
X130063000Y-123027000D01*
G04 #@! TO.C,C29*
X153212420Y-75694000D02*
X153493580Y-75694000D01*
X153212420Y-74674000D02*
X153493580Y-74674000D01*
G04 #@! TO.C,R6*
X89950936Y-77935500D02*
X91405064Y-77935500D01*
X89950936Y-76115500D02*
X91405064Y-76115500D01*
G04 #@! TO.C,U2*
X160020000Y-51415000D02*
X161970000Y-51415000D01*
X160020000Y-56535000D02*
X158070000Y-56535000D01*
X160020000Y-56535000D02*
X161970000Y-56535000D01*
X160020000Y-51415000D02*
X156570000Y-51415000D01*
G04 #@! TO.C,J12*
X140148000Y-84577000D02*
X140148000Y-83247000D01*
X140148000Y-88447000D02*
X142808000Y-88447000D01*
X140148000Y-85847000D02*
X140148000Y-88447000D01*
X140148000Y-85847000D02*
X142808000Y-85847000D01*
X140148000Y-83247000D02*
X141478000Y-83247000D01*
X142808000Y-85847000D02*
X142808000Y-88447000D01*
G04 #@! TO.C,RV3*
X85920000Y-105039000D02*
X95690000Y-105039000D01*
X85920000Y-105039000D02*
X85920000Y-110109000D01*
X95690000Y-105039000D02*
X95690000Y-110109000D01*
X85920000Y-110109000D02*
X95690000Y-110109000D01*
G04 #@! TO.C,R4*
X106399436Y-77935500D02*
X107853564Y-77935500D01*
X106399436Y-76115500D02*
X107853564Y-76115500D01*
G04 #@! TO.C,C30*
X153212420Y-83056000D02*
X153493580Y-83056000D01*
X153212420Y-84076000D02*
X153493580Y-84076000D01*
G04 #@! TO.C,R11*
X93709258Y-111711000D02*
X93234742Y-111711000D01*
X93709258Y-110666000D02*
X93234742Y-110666000D01*
G04 #@! TO.C,R16*
X102251742Y-104535500D02*
X102726258Y-104535500D01*
X102251742Y-103490500D02*
X102726258Y-103490500D01*
G04 #@! TO.C,RV5*
X112082000Y-105039000D02*
X112082000Y-110109000D01*
X112082000Y-110109000D02*
X121852000Y-110109000D01*
X112082000Y-105039000D02*
X121852000Y-105039000D01*
X121852000Y-105039000D02*
X121852000Y-110109000D01*
G04 #@! TO.C,Q5*
X143256000Y-126147000D02*
X142606000Y-126147000D01*
X143256000Y-123027000D02*
X142606000Y-123027000D01*
X143256000Y-126147000D02*
X144931000Y-126147000D01*
X143256000Y-123027000D02*
X143906000Y-123027000D01*
G04 #@! TO.C,C7*
X154826580Y-56390000D02*
X154545420Y-56390000D01*
X154826580Y-55370000D02*
X154545420Y-55370000D01*
G04 #@! TO.C,C37*
X145782420Y-113159000D02*
X146063580Y-113159000D01*
X145782420Y-112139000D02*
X146063580Y-112139000D01*
G04 #@! TO.C,RV4*
X99001000Y-110109000D02*
X108771000Y-110109000D01*
X108771000Y-105039000D02*
X108771000Y-110109000D01*
X99001000Y-105039000D02*
X108771000Y-105039000D01*
X99001000Y-105039000D02*
X99001000Y-110109000D01*
G04 #@! TO.C,C32*
X143369420Y-122557000D02*
X143650580Y-122557000D01*
X143369420Y-121537000D02*
X143650580Y-121537000D01*
G04 #@! TO.C,R7*
X85378936Y-77935500D02*
X86833064Y-77935500D01*
X85378936Y-76115500D02*
X86833064Y-76115500D01*
G04 #@! TO.C,J8*
X140148000Y-69972000D02*
X142808000Y-69972000D01*
X140148000Y-72572000D02*
X142808000Y-72572000D01*
X142808000Y-69972000D02*
X142808000Y-72572000D01*
X140148000Y-68702000D02*
X140148000Y-67372000D01*
X140148000Y-67372000D02*
X141478000Y-67372000D01*
X140148000Y-69972000D02*
X140148000Y-72572000D01*
G04 #@! TO.C,U7*
X161862000Y-80411000D02*
X163812000Y-80411000D01*
X161862000Y-75291000D02*
X158412000Y-75291000D01*
X161862000Y-75291000D02*
X163812000Y-75291000D01*
X161862000Y-80411000D02*
X159912000Y-80411000D01*
D11*
G04 #@! TO.C,J7*
X129857500Y-137845800D02*
X121602500Y-137845800D01*
X125730000Y-128574800D02*
X125730000Y-137845800D01*
X121602500Y-128574800D02*
X129857500Y-128574800D01*
X121602500Y-137845800D02*
X121602500Y-128574800D01*
X129857500Y-128574800D02*
X129857500Y-137845800D01*
D16*
G04 #@! TO.C,C15*
X115583580Y-112139000D02*
X115302420Y-112139000D01*
X115583580Y-113159000D02*
X115302420Y-113159000D01*
G04 #@! TO.C,U4*
X119466000Y-116586000D02*
X119466000Y-118086000D01*
X116246000Y-116586000D02*
X116246000Y-115086000D01*
X116246000Y-116586000D02*
X116246000Y-119461000D01*
X119466000Y-116586000D02*
X119466000Y-115086000D01*
G04 #@! TO.C,C33*
X143369420Y-120013000D02*
X143650580Y-120013000D01*
X143369420Y-121033000D02*
X143650580Y-121033000D01*
D11*
G04 #@! TO.C,J10*
X137160000Y-128574800D02*
X137160000Y-137845800D01*
X133032500Y-137845800D02*
X133032500Y-128574800D01*
X141287500Y-128574800D02*
X141287500Y-137845800D01*
X141287500Y-137845800D02*
X133032500Y-137845800D01*
X133032500Y-128574800D02*
X141287500Y-128574800D01*
D16*
G04 #@! TO.C,R22*
X140568000Y-76165064D02*
X140568000Y-74710936D01*
X142388000Y-76165064D02*
X142388000Y-74710936D01*
G04 #@! TO.C,R8*
X82404936Y-75687500D02*
X86759064Y-75687500D01*
X82404936Y-72267500D02*
X86759064Y-72267500D01*
G04 #@! TO.C,J2*
X91313000Y-52130000D02*
X89983000Y-52130000D01*
X89983000Y-46930000D02*
X130743000Y-46930000D01*
X130743000Y-52130000D02*
X130743000Y-46930000D01*
X92583000Y-49530000D02*
X89983000Y-49530000D01*
X89983000Y-52130000D02*
X89983000Y-50800000D01*
X89983000Y-49530000D02*
X89983000Y-46930000D01*
X92583000Y-52130000D02*
X130743000Y-52130000D01*
X92583000Y-52130000D02*
X92583000Y-49530000D01*
G04 #@! TO.C,R18*
X159338742Y-74182500D02*
X159813258Y-74182500D01*
X159338742Y-73137500D02*
X159813258Y-73137500D01*
G04 #@! TO.C,J4*
X89983000Y-57090000D02*
X130743000Y-57090000D01*
X92583000Y-59690000D02*
X89983000Y-59690000D01*
X92583000Y-62290000D02*
X130743000Y-62290000D01*
X92583000Y-62290000D02*
X92583000Y-59690000D01*
X89983000Y-62290000D02*
X89983000Y-60960000D01*
X130743000Y-62290000D02*
X130743000Y-57090000D01*
X89983000Y-59690000D02*
X89983000Y-57090000D01*
X91313000Y-62290000D02*
X89983000Y-62290000D01*
G04 #@! TO.C,U9*
X141654000Y-116586000D02*
X141654000Y-115086000D01*
X141654000Y-116586000D02*
X141654000Y-119461000D01*
X145874000Y-116586000D02*
X145874000Y-115086000D01*
X145874000Y-116586000D02*
X145874000Y-118086000D01*
G04 #@! TO.C,Q2*
X102235000Y-123090500D02*
X101585000Y-123090500D01*
X102235000Y-126210500D02*
X101585000Y-126210500D01*
X102235000Y-126210500D02*
X103910000Y-126210500D01*
X102235000Y-123090500D02*
X102885000Y-123090500D01*
G04 #@! TO.C,C18*
X129780420Y-121537000D02*
X130061580Y-121537000D01*
X129780420Y-122557000D02*
X130061580Y-122557000D01*
G04 #@! TO.C,R2*
X115617436Y-72204000D02*
X119971564Y-72204000D01*
X115617436Y-75624000D02*
X119971564Y-75624000D01*
G04 #@! TO.C,R23*
X146255500Y-77453258D02*
X146255500Y-76978742D01*
X145210500Y-77453258D02*
X145210500Y-76978742D01*
G04 #@! TO.C,C2*
X91934420Y-121600500D02*
X92215580Y-121600500D01*
X91934420Y-122620500D02*
X92215580Y-122620500D01*
G04 #@! TO.C,C8*
X102348420Y-122620500D02*
X102629580Y-122620500D01*
X102348420Y-121600500D02*
X102629580Y-121600500D01*
G04 #@! TO.C,R20*
X131809258Y-111647500D02*
X131334742Y-111647500D01*
X131809258Y-110602500D02*
X131334742Y-110602500D01*
G04 #@! TO.C,C21*
X127267580Y-111635000D02*
X126986420Y-111635000D01*
X127267580Y-110615000D02*
X126986420Y-110615000D01*
G04 #@! TO.C,U6*
X148146000Y-70465000D02*
X144696000Y-70465000D01*
X148146000Y-75585000D02*
X150096000Y-75585000D01*
X148146000Y-70465000D02*
X150096000Y-70465000D01*
X148146000Y-75585000D02*
X146196000Y-75585000D01*
G04 #@! TO.C,C6*
X93331420Y-113222500D02*
X93612580Y-113222500D01*
X93331420Y-112202500D02*
X93612580Y-112202500D01*
G04 #@! TO.C,RV1*
X144585000Y-47000000D02*
X144585000Y-52070000D01*
X134815000Y-52070000D02*
X144585000Y-52070000D01*
X134815000Y-47000000D02*
X144585000Y-47000000D01*
X134815000Y-47000000D02*
X134815000Y-52070000D01*
G04 #@! TO.C,C17*
X119366420Y-113159000D02*
X119647580Y-113159000D01*
X119366420Y-112139000D02*
X119647580Y-112139000D01*
G04 #@! TO.C,RV7*
X151325000Y-105039000D02*
X151325000Y-110109000D01*
X151325000Y-105039000D02*
X161095000Y-105039000D01*
X161095000Y-105039000D02*
X161095000Y-110109000D01*
X151325000Y-110109000D02*
X161095000Y-110109000D01*
G04 #@! TO.C,U5*
X131277000Y-116586000D02*
X131277000Y-115086000D01*
X128057000Y-116586000D02*
X128057000Y-115086000D01*
X128057000Y-116586000D02*
X128057000Y-119461000D01*
X131277000Y-116586000D02*
X131277000Y-118086000D01*
G04 #@! TO.C,R29*
X145685742Y-111647500D02*
X146160258Y-111647500D01*
X145685742Y-110602500D02*
X146160258Y-110602500D01*
G04 #@! TO.C,K1*
X103795000Y-98015500D02*
X103095000Y-98015500D01*
X103095000Y-85315500D02*
X103095000Y-86515500D01*
X107395000Y-99445500D02*
X107395000Y-99905500D01*
X107395000Y-84625500D02*
X99615000Y-84625500D01*
X103095000Y-86515500D02*
X103795000Y-86515500D01*
X103795000Y-85315500D02*
X103095000Y-85315500D01*
X99615000Y-85085500D02*
X98495000Y-85085500D01*
X103095000Y-98815500D02*
X103795000Y-98415500D01*
X99615000Y-86745500D02*
X98495000Y-86745500D01*
X99615000Y-99445500D02*
X99615000Y-99905500D01*
X107395000Y-99905500D02*
X99615000Y-99905500D01*
X103095000Y-98015500D02*
X103095000Y-99215500D01*
X103795000Y-99215500D02*
X103795000Y-98015500D01*
X103795000Y-86515500D02*
X103795000Y-85315500D01*
X99615000Y-84625500D02*
X99615000Y-85085500D01*
X99615000Y-86745500D02*
X99615000Y-90165500D01*
X103095000Y-99215500D02*
X103795000Y-99215500D01*
X103095000Y-86115500D02*
X103795000Y-85715500D01*
X107395000Y-86745500D02*
X107395000Y-90165500D01*
X107395000Y-84625500D02*
X107395000Y-85085500D01*
G04 #@! TO.C,R15*
X104537742Y-111711000D02*
X105012258Y-111711000D01*
X104537742Y-110666000D02*
X105012258Y-110666000D01*
G04 #@! TO.C,R5*
X94522936Y-77935500D02*
X95977064Y-77935500D01*
X94522936Y-76115500D02*
X95977064Y-76115500D01*
G04 #@! TO.C,R13*
X161433742Y-58180500D02*
X161908258Y-58180500D01*
X161433742Y-57135500D02*
X161908258Y-57135500D01*
G04 #@! TO.C,C22*
X153212420Y-73150000D02*
X153493580Y-73150000D01*
X153212420Y-74170000D02*
X153493580Y-74170000D01*
G04 #@! TO.C,RV9*
X148014000Y-105039000D02*
X148014000Y-110109000D01*
X138244000Y-105039000D02*
X148014000Y-105039000D01*
X138244000Y-105039000D02*
X138244000Y-110109000D01*
X138244000Y-110109000D02*
X148014000Y-110109000D01*
G04 #@! TO.C,C23*
X131431420Y-113159000D02*
X131712580Y-113159000D01*
X131431420Y-112139000D02*
X131712580Y-112139000D01*
G04 #@! TO.C,J5*
X175130000Y-52810000D02*
X175130000Y-56410000D01*
X167770000Y-52810000D02*
X167770000Y-56410000D01*
X169650000Y-58290000D02*
X173250000Y-58290000D01*
X169650000Y-50930000D02*
X173250000Y-50930000D01*
G04 #@! TO.C,C11*
X100724580Y-111698500D02*
X100443420Y-111698500D01*
X100724580Y-110678500D02*
X100443420Y-110678500D01*
G04 #@! TO.C,R25*
X165307742Y-119902500D02*
X165782258Y-119902500D01*
X165307742Y-118857500D02*
X165782258Y-118857500D01*
G04 #@! TO.C,C4*
X89929580Y-113222500D02*
X89648420Y-113222500D01*
X89929580Y-112202500D02*
X89648420Y-112202500D01*
G04 #@! TO.C,C24*
X157239580Y-114298000D02*
X156958420Y-114298000D01*
X157239580Y-115318000D02*
X156958420Y-115318000D01*
G04 #@! TO.C,U3*
X104980000Y-116649500D02*
X104980000Y-115149500D01*
X100760000Y-116649500D02*
X100760000Y-119524500D01*
X100760000Y-116649500D02*
X100760000Y-115149500D01*
X104980000Y-116649500D02*
X104980000Y-118149500D01*
G04 #@! TO.C,C16*
X115583580Y-110615000D02*
X115302420Y-110615000D01*
X115583580Y-111635000D02*
X115302420Y-111635000D01*
G04 #@! TO.C,RV6*
X125163000Y-105039000D02*
X125163000Y-110109000D01*
X125163000Y-110109000D02*
X134933000Y-110109000D01*
X125163000Y-105039000D02*
X134933000Y-105039000D01*
X134933000Y-105039000D02*
X134933000Y-110109000D01*
G04 #@! TO.C,R3*
X110971436Y-77935500D02*
X112425564Y-77935500D01*
X110971436Y-76115500D02*
X112425564Y-76115500D01*
G04 #@! TO.C,R10*
X132827500Y-57514258D02*
X132827500Y-57039742D01*
X133872500Y-57514258D02*
X133872500Y-57039742D01*
G04 #@! TO.C,C3*
X91934420Y-121096500D02*
X92215580Y-121096500D01*
X91934420Y-120076500D02*
X92215580Y-120076500D01*
G04 #@! TO.C,R14*
X158385742Y-57135500D02*
X158860258Y-57135500D01*
X158385742Y-58180500D02*
X158860258Y-58180500D01*
G04 #@! TO.C,C10*
X100724580Y-113222500D02*
X100443420Y-113222500D01*
X100724580Y-112202500D02*
X100443420Y-112202500D01*
G04 #@! TO.C,R28*
X159338742Y-81519500D02*
X159813258Y-81519500D01*
X159338742Y-82564500D02*
X159813258Y-82564500D01*
G04 #@! TO.C,U8*
X162560000Y-115910000D02*
X161060000Y-115910000D01*
X162560000Y-115910000D02*
X164060000Y-115910000D01*
X162560000Y-112690000D02*
X159635000Y-112690000D01*
X162560000Y-112690000D02*
X164060000Y-112690000D01*
G04 #@! TO.C,Q3*
X117602000Y-126147000D02*
X119277000Y-126147000D01*
X117602000Y-126147000D02*
X116952000Y-126147000D01*
X117602000Y-123027000D02*
X116952000Y-123027000D01*
X117602000Y-123027000D02*
X118252000Y-123027000D01*
G04 #@! TO.C,U10*
X148146000Y-78847000D02*
X150096000Y-78847000D01*
X148146000Y-83967000D02*
X146196000Y-83967000D01*
X148146000Y-78847000D02*
X144696000Y-78847000D01*
X148146000Y-83967000D02*
X150096000Y-83967000D01*
G04 #@! TO.C,C26*
X153212420Y-71626000D02*
X153493580Y-71626000D01*
X153212420Y-72646000D02*
X153493580Y-72646000D01*
G04 #@! TO.C,J1*
X90146667Y-42132000D02*
X125753333Y-42132000D01*
X89906667Y-42372000D02*
X94100000Y-42372000D01*
X89906667Y-40132000D02*
X89906667Y-42372000D01*
X90146667Y-38392000D02*
X90146667Y-42132000D01*
X125753333Y-42132000D02*
X125753333Y-38392000D01*
G04 #@! TO.C,R27*
X162386742Y-81519500D02*
X162861258Y-81519500D01*
X162386742Y-82564500D02*
X162861258Y-82564500D01*
G04 #@! TO.C,RV8*
X164406000Y-105039000D02*
X164406000Y-110109000D01*
X174176000Y-105039000D02*
X174176000Y-110109000D01*
X164406000Y-105039000D02*
X174176000Y-105039000D01*
X164406000Y-110109000D02*
X174176000Y-110109000D01*
G04 #@! TO.C,C9*
X102348420Y-121096500D02*
X102629580Y-121096500D01*
X102348420Y-120076500D02*
X102629580Y-120076500D01*
G04 #@! TO.C,SW1*
X86305000Y-92845500D02*
X92765000Y-92845500D01*
X92765000Y-99305500D02*
X92765000Y-99275500D01*
X92765000Y-92845500D02*
X92765000Y-92875500D01*
X86305000Y-94775500D02*
X86305000Y-97375500D01*
X86305000Y-99305500D02*
X92765000Y-99305500D01*
X92765000Y-94775500D02*
X92765000Y-97375500D01*
X86305000Y-99305500D02*
X86305000Y-99275500D01*
X86305000Y-92875500D02*
X86305000Y-92845500D01*
G04 #@! TO.C,C1*
X165340420Y-52576000D02*
X165621580Y-52576000D01*
X165340420Y-53596000D02*
X165621580Y-53596000D01*
G04 #@! TO.C,C12*
X104634420Y-112202500D02*
X104915580Y-112202500D01*
X104634420Y-113222500D02*
X104915580Y-113222500D01*
G04 #@! TO.C,C36*
X153212420Y-81532000D02*
X153493580Y-81532000D01*
X153212420Y-82552000D02*
X153493580Y-82552000D01*
D11*
G04 #@! TO.C,J6*
X98742500Y-128574800D02*
X106997500Y-128574800D01*
X106997500Y-137845800D02*
X98742500Y-137845800D01*
X106997500Y-128574800D02*
X106997500Y-137845800D01*
X98742500Y-137845800D02*
X98742500Y-128574800D01*
X102870000Y-128574800D02*
X102870000Y-137845800D01*
D16*
G04 #@! TO.C,RV2*
X144585000Y-57160000D02*
X144585000Y-62230000D01*
X134815000Y-62230000D02*
X144585000Y-62230000D01*
X134815000Y-57160000D02*
X144585000Y-57160000D01*
X134815000Y-57160000D02*
X134815000Y-62230000D01*
G04 #@! TO.C,R19*
X162386742Y-73137500D02*
X162861258Y-73137500D01*
X162386742Y-74182500D02*
X162861258Y-74182500D01*
G04 #@! TO.C,U1*
X93431000Y-116649500D02*
X93431000Y-115149500D01*
X93431000Y-116649500D02*
X93431000Y-118149500D01*
X90211000Y-116649500D02*
X90211000Y-119524500D01*
X90211000Y-116649500D02*
X90211000Y-115149500D01*
G04 #@! TO.C,Q1*
X91567000Y-126210500D02*
X93242000Y-126210500D01*
X91567000Y-123090500D02*
X92217000Y-123090500D01*
X91567000Y-126210500D02*
X90917000Y-126210500D01*
X91567000Y-123090500D02*
X90917000Y-123090500D01*
G04 #@! TO.C,C19*
X129780420Y-121033000D02*
X130061580Y-121033000D01*
X129780420Y-120013000D02*
X130061580Y-120013000D01*
G04 #@! TO.C,R26*
X148383266Y-78487800D02*
X147908750Y-78487800D01*
X148383266Y-77442800D02*
X147908750Y-77442800D01*
G04 #@! TO.C,R1*
X115558436Y-77935500D02*
X117012564Y-77935500D01*
X115558436Y-76115500D02*
X117012564Y-76115500D01*
G04 #@! TO.C,J9*
X153665000Y-119440000D02*
X153665000Y-116780000D01*
X151065000Y-119440000D02*
X151065000Y-118110000D01*
X156265000Y-119440000D02*
X156265000Y-116780000D01*
X153665000Y-116780000D02*
X156265000Y-116780000D01*
X152395000Y-119440000D02*
X151065000Y-119440000D01*
X153665000Y-119440000D02*
X156265000Y-119440000D01*
G04 #@! TO.C,C14*
X117969420Y-120013000D02*
X118250580Y-120013000D01*
X117969420Y-121033000D02*
X118250580Y-121033000D01*
G04 #@! TO.C,R21*
X147908750Y-75944200D02*
X148383266Y-75944200D01*
X147908750Y-76989200D02*
X148383266Y-76989200D01*
G04 #@! TO.C,C34*
X141364580Y-112139000D02*
X141083420Y-112139000D01*
X141364580Y-113159000D02*
X141083420Y-113159000D01*
G04 #@! TO.C,C27*
X153212420Y-80008000D02*
X153493580Y-80008000D01*
X153212420Y-81028000D02*
X153493580Y-81028000D01*
G04 #@! TO.C,R24*
X142388000Y-81118064D02*
X142388000Y-79663936D01*
X140568000Y-81118064D02*
X140568000Y-79663936D01*
G04 #@! TO.C,C13*
X117969420Y-122557000D02*
X118250580Y-122557000D01*
X117969420Y-121537000D02*
X118250580Y-121537000D01*
G04 #@! TD*
M02*
