G04 #@! TF.GenerationSoftware,KiCad,Pcbnew,(6.0.1-0)*
G04 #@! TF.CreationDate,2022-01-25T00:00:43-08:00*
G04 #@! TF.ProjectId,BiasReceiver,42696173-5265-4636-9569-7665722e6b69,rev?*
G04 #@! TF.SameCoordinates,Original*
G04 #@! TF.FileFunction,Copper,L1,Top*
G04 #@! TF.FilePolarity,Positive*
%FSLAX46Y46*%
G04 Gerber Fmt 4.6, Leading zero omitted, Abs format (unit mm)*
G04 Created by KiCad (PCBNEW (6.0.1-0)) date 2022-01-25 00:00:43*
%MOMM*%
%LPD*%
G01*
G04 APERTURE LIST*
G04 Aperture macros list*
%AMRoundRect*
0 Rectangle with rounded corners*
0 $1 Rounding radius*
0 $2 $3 $4 $5 $6 $7 $8 $9 X,Y pos of 4 corners*
0 Add a 4 corners polygon primitive as box body*
4,1,4,$2,$3,$4,$5,$6,$7,$8,$9,$2,$3,0*
0 Add four circle primitives for the rounded corners*
1,1,$1+$1,$2,$3*
1,1,$1+$1,$4,$5*
1,1,$1+$1,$6,$7*
1,1,$1+$1,$8,$9*
0 Add four rect primitives between the rounded corners*
20,1,$1+$1,$2,$3,$4,$5,0*
20,1,$1+$1,$4,$5,$6,$7,0*
20,1,$1+$1,$6,$7,$8,$9,0*
20,1,$1+$1,$8,$9,$2,$3,0*%
G04 Aperture macros list end*
%ADD10C,0.100000*%
%ADD11C,0.150000*%
%ADD12C,0.300000*%
%ADD13C,0.400000*%
G04 #@! TA.AperFunction,Profile*
%ADD14C,0.050000*%
G04 #@! TD*
G04 #@! TA.AperFunction,SMDPad,CuDef*
%ADD15RoundRect,0.225000X0.225000X0.250000X-0.225000X0.250000X-0.225000X-0.250000X0.225000X-0.250000X0*%
G04 #@! TD*
G04 #@! TA.AperFunction,ComponentPad*
%ADD16C,2.050000*%
G04 #@! TD*
G04 #@! TA.AperFunction,ComponentPad*
%ADD17C,2.250000*%
G04 #@! TD*
G04 #@! TA.AperFunction,SMDPad,CuDef*
%ADD18RoundRect,0.225000X-0.250000X0.225000X-0.250000X-0.225000X0.250000X-0.225000X0.250000X0.225000X0*%
G04 #@! TD*
G04 #@! TA.AperFunction,SMDPad,CuDef*
%ADD19RoundRect,0.200000X0.200000X0.275000X-0.200000X0.275000X-0.200000X-0.275000X0.200000X-0.275000X0*%
G04 #@! TD*
G04 #@! TA.AperFunction,SMDPad,CuDef*
%ADD20RoundRect,0.200000X-0.275000X0.200000X-0.275000X-0.200000X0.275000X-0.200000X0.275000X0.200000X0*%
G04 #@! TD*
G04 #@! TA.AperFunction,SMDPad,CuDef*
%ADD21RoundRect,0.200000X-0.200000X-0.275000X0.200000X-0.275000X0.200000X0.275000X-0.200000X0.275000X0*%
G04 #@! TD*
G04 #@! TA.AperFunction,SMDPad,CuDef*
%ADD22R,1.550000X1.300000*%
G04 #@! TD*
G04 #@! TA.AperFunction,ComponentPad*
%ADD23C,2.540000*%
G04 #@! TD*
G04 #@! TA.AperFunction,SMDPad,CuDef*
%ADD24RoundRect,0.150000X0.587500X0.150000X-0.587500X0.150000X-0.587500X-0.150000X0.587500X-0.150000X0*%
G04 #@! TD*
G04 #@! TA.AperFunction,SMDPad,CuDef*
%ADD25RoundRect,0.225000X-0.225000X-0.250000X0.225000X-0.250000X0.225000X0.250000X-0.225000X0.250000X0*%
G04 #@! TD*
G04 #@! TA.AperFunction,SMDPad,CuDef*
%ADD26RoundRect,0.250000X-0.312500X-0.625000X0.312500X-0.625000X0.312500X0.625000X-0.312500X0.625000X0*%
G04 #@! TD*
G04 #@! TA.AperFunction,SMDPad,CuDef*
%ADD27RoundRect,0.150000X-0.825000X-0.150000X0.825000X-0.150000X0.825000X0.150000X-0.825000X0.150000X0*%
G04 #@! TD*
G04 #@! TA.AperFunction,ComponentPad*
%ADD28R,1.700000X1.700000*%
G04 #@! TD*
G04 #@! TA.AperFunction,ComponentPad*
%ADD29O,1.700000X1.700000*%
G04 #@! TD*
G04 #@! TA.AperFunction,ComponentPad*
%ADD30C,1.440000*%
G04 #@! TD*
G04 #@! TA.AperFunction,SMDPad,CuDef*
%ADD31RoundRect,0.075000X0.075000X-0.650000X0.075000X0.650000X-0.075000X0.650000X-0.075000X-0.650000X0*%
G04 #@! TD*
G04 #@! TA.AperFunction,SMDPad,CuDef*
%ADD32R,1.880000X1.680000*%
G04 #@! TD*
G04 #@! TA.AperFunction,SMDPad,CuDef*
%ADD33RoundRect,0.250000X0.625000X-0.312500X0.625000X0.312500X-0.625000X0.312500X-0.625000X-0.312500X0*%
G04 #@! TD*
G04 #@! TA.AperFunction,SMDPad,CuDef*
%ADD34RoundRect,0.250000X-0.362500X-1.425000X0.362500X-1.425000X0.362500X1.425000X-0.362500X1.425000X0*%
G04 #@! TD*
G04 #@! TA.AperFunction,SMDPad,CuDef*
%ADD35RoundRect,0.100000X0.100000X-0.625000X0.100000X0.625000X-0.100000X0.625000X-0.100000X-0.625000X0*%
G04 #@! TD*
G04 #@! TA.AperFunction,SMDPad,CuDef*
%ADD36R,2.850000X1.650000*%
G04 #@! TD*
G04 #@! TA.AperFunction,SMDPad,CuDef*
%ADD37RoundRect,0.200000X0.275000X-0.200000X0.275000X0.200000X-0.275000X0.200000X-0.275000X-0.200000X0*%
G04 #@! TD*
G04 #@! TA.AperFunction,SMDPad,CuDef*
%ADD38RoundRect,0.249750X-1.250250X0.305250X-1.250250X-0.305250X1.250250X-0.305250X1.250250X0.305250X0*%
G04 #@! TD*
G04 #@! TA.AperFunction,SMDPad,CuDef*
%ADD39RoundRect,0.100000X-0.712500X-0.100000X0.712500X-0.100000X0.712500X0.100000X-0.712500X0.100000X0*%
G04 #@! TD*
G04 #@! TA.AperFunction,SMDPad,CuDef*
%ADD40R,1.846667X3.480000*%
G04 #@! TD*
G04 #@! TA.AperFunction,ViaPad*
%ADD41C,0.609600*%
G04 #@! TD*
G04 #@! TA.AperFunction,ViaPad*
%ADD42C,0.762000*%
G04 #@! TD*
G04 #@! TA.AperFunction,Conductor*
%ADD43C,0.152400*%
G04 #@! TD*
G04 #@! TA.AperFunction,Conductor*
%ADD44C,0.914400*%
G04 #@! TD*
G04 #@! TA.AperFunction,Conductor*
%ADD45C,0.406400*%
G04 #@! TD*
G04 #@! TA.AperFunction,Conductor*
%ADD46C,0.200000*%
G04 #@! TD*
G04 #@! TA.AperFunction,Conductor*
%ADD47C,1.219200*%
G04 #@! TD*
G04 #@! TA.AperFunction,Conductor*
%ADD48C,0.203200*%
G04 #@! TD*
G04 APERTURE END LIST*
D10*
D11*
X177002200Y-166007200D02*
X177002200Y-198007200D01*
X285002200Y-198007200D01*
X285002200Y-166007200D01*
X177002200Y-166007200D01*
D10*
D11*
X10000000Y-10000000D02*
X10000000Y-200007200D01*
X287002200Y-200007200D01*
X287002200Y-10000000D01*
X10000000Y-10000000D01*
D10*
D11*
X12000000Y-12000000D02*
X12000000Y-198007200D01*
X285002200Y-198007200D01*
X285002200Y-12000000D01*
X12000000Y-12000000D01*
D10*
D11*
X60000000Y-12000000D02*
X60000000Y-10000000D01*
D10*
D11*
X110000000Y-12000000D02*
X110000000Y-10000000D01*
D10*
D11*
X160000000Y-12000000D02*
X160000000Y-10000000D01*
D10*
D11*
X210000000Y-12000000D02*
X210000000Y-10000000D01*
D10*
D11*
X260000000Y-12000000D02*
X260000000Y-10000000D01*
D10*
D11*
X36065476Y-11588095D02*
X35322619Y-11588095D01*
X35694047Y-11588095D02*
X35694047Y-10288095D01*
X35570238Y-10473809D01*
X35446428Y-10597619D01*
X35322619Y-10659523D01*
D10*
D11*
X85322619Y-10411904D02*
X85384523Y-10350000D01*
X85508333Y-10288095D01*
X85817857Y-10288095D01*
X85941666Y-10350000D01*
X86003571Y-10411904D01*
X86065476Y-10535714D01*
X86065476Y-10659523D01*
X86003571Y-10845238D01*
X85260714Y-11588095D01*
X86065476Y-11588095D01*
D10*
D11*
X135260714Y-10288095D02*
X136065476Y-10288095D01*
X135632142Y-10783333D01*
X135817857Y-10783333D01*
X135941666Y-10845238D01*
X136003571Y-10907142D01*
X136065476Y-11030952D01*
X136065476Y-11340476D01*
X136003571Y-11464285D01*
X135941666Y-11526190D01*
X135817857Y-11588095D01*
X135446428Y-11588095D01*
X135322619Y-11526190D01*
X135260714Y-11464285D01*
D10*
D11*
X185941666Y-10721428D02*
X185941666Y-11588095D01*
X185632142Y-10226190D02*
X185322619Y-11154761D01*
X186127380Y-11154761D01*
D10*
D11*
X236003571Y-10288095D02*
X235384523Y-10288095D01*
X235322619Y-10907142D01*
X235384523Y-10845238D01*
X235508333Y-10783333D01*
X235817857Y-10783333D01*
X235941666Y-10845238D01*
X236003571Y-10907142D01*
X236065476Y-11030952D01*
X236065476Y-11340476D01*
X236003571Y-11464285D01*
X235941666Y-11526190D01*
X235817857Y-11588095D01*
X235508333Y-11588095D01*
X235384523Y-11526190D01*
X235322619Y-11464285D01*
D10*
D11*
X285941666Y-10288095D02*
X285694047Y-10288095D01*
X285570238Y-10350000D01*
X285508333Y-10411904D01*
X285384523Y-10597619D01*
X285322619Y-10845238D01*
X285322619Y-11340476D01*
X285384523Y-11464285D01*
X285446428Y-11526190D01*
X285570238Y-11588095D01*
X285817857Y-11588095D01*
X285941666Y-11526190D01*
X286003571Y-11464285D01*
X286065476Y-11340476D01*
X286065476Y-11030952D01*
X286003571Y-10907142D01*
X285941666Y-10845238D01*
X285817857Y-10783333D01*
X285570238Y-10783333D01*
X285446428Y-10845238D01*
X285384523Y-10907142D01*
X285322619Y-11030952D01*
D10*
D11*
X60000000Y-198007200D02*
X60000000Y-200007200D01*
D10*
D11*
X110000000Y-198007200D02*
X110000000Y-200007200D01*
D10*
D11*
X160000000Y-198007200D02*
X160000000Y-200007200D01*
D10*
D11*
X210000000Y-198007200D02*
X210000000Y-200007200D01*
D10*
D11*
X260000000Y-198007200D02*
X260000000Y-200007200D01*
D10*
D11*
X36065476Y-199595295D02*
X35322619Y-199595295D01*
X35694047Y-199595295D02*
X35694047Y-198295295D01*
X35570238Y-198481009D01*
X35446428Y-198604819D01*
X35322619Y-198666723D01*
D10*
D11*
X85322619Y-198419104D02*
X85384523Y-198357200D01*
X85508333Y-198295295D01*
X85817857Y-198295295D01*
X85941666Y-198357200D01*
X86003571Y-198419104D01*
X86065476Y-198542914D01*
X86065476Y-198666723D01*
X86003571Y-198852438D01*
X85260714Y-199595295D01*
X86065476Y-199595295D01*
D10*
D11*
X135260714Y-198295295D02*
X136065476Y-198295295D01*
X135632142Y-198790533D01*
X135817857Y-198790533D01*
X135941666Y-198852438D01*
X136003571Y-198914342D01*
X136065476Y-199038152D01*
X136065476Y-199347676D01*
X136003571Y-199471485D01*
X135941666Y-199533390D01*
X135817857Y-199595295D01*
X135446428Y-199595295D01*
X135322619Y-199533390D01*
X135260714Y-199471485D01*
D10*
D11*
X185941666Y-198728628D02*
X185941666Y-199595295D01*
X185632142Y-198233390D02*
X185322619Y-199161961D01*
X186127380Y-199161961D01*
D10*
D11*
X236003571Y-198295295D02*
X235384523Y-198295295D01*
X235322619Y-198914342D01*
X235384523Y-198852438D01*
X235508333Y-198790533D01*
X235817857Y-198790533D01*
X235941666Y-198852438D01*
X236003571Y-198914342D01*
X236065476Y-199038152D01*
X236065476Y-199347676D01*
X236003571Y-199471485D01*
X235941666Y-199533390D01*
X235817857Y-199595295D01*
X235508333Y-199595295D01*
X235384523Y-199533390D01*
X235322619Y-199471485D01*
D10*
D11*
X285941666Y-198295295D02*
X285694047Y-198295295D01*
X285570238Y-198357200D01*
X285508333Y-198419104D01*
X285384523Y-198604819D01*
X285322619Y-198852438D01*
X285322619Y-199347676D01*
X285384523Y-199471485D01*
X285446428Y-199533390D01*
X285570238Y-199595295D01*
X285817857Y-199595295D01*
X285941666Y-199533390D01*
X286003571Y-199471485D01*
X286065476Y-199347676D01*
X286065476Y-199038152D01*
X286003571Y-198914342D01*
X285941666Y-198852438D01*
X285817857Y-198790533D01*
X285570238Y-198790533D01*
X285446428Y-198852438D01*
X285384523Y-198914342D01*
X285322619Y-199038152D01*
D10*
D11*
X10000000Y-60000000D02*
X12000000Y-60000000D01*
D10*
D11*
X10000000Y-110000000D02*
X12000000Y-110000000D01*
D10*
D11*
X10000000Y-160000000D02*
X12000000Y-160000000D01*
D10*
D11*
X10690476Y-35216666D02*
X11309523Y-35216666D01*
X10566666Y-35588095D02*
X11000000Y-34288095D01*
X11433333Y-35588095D01*
D10*
D11*
X11092857Y-84907142D02*
X11278571Y-84969047D01*
X11340476Y-85030952D01*
X11402380Y-85154761D01*
X11402380Y-85340476D01*
X11340476Y-85464285D01*
X11278571Y-85526190D01*
X11154761Y-85588095D01*
X10659523Y-85588095D01*
X10659523Y-84288095D01*
X11092857Y-84288095D01*
X11216666Y-84350000D01*
X11278571Y-84411904D01*
X11340476Y-84535714D01*
X11340476Y-84659523D01*
X11278571Y-84783333D01*
X11216666Y-84845238D01*
X11092857Y-84907142D01*
X10659523Y-84907142D01*
D10*
D11*
X11402380Y-135464285D02*
X11340476Y-135526190D01*
X11154761Y-135588095D01*
X11030952Y-135588095D01*
X10845238Y-135526190D01*
X10721428Y-135402380D01*
X10659523Y-135278571D01*
X10597619Y-135030952D01*
X10597619Y-134845238D01*
X10659523Y-134597619D01*
X10721428Y-134473809D01*
X10845238Y-134350000D01*
X11030952Y-134288095D01*
X11154761Y-134288095D01*
X11340476Y-134350000D01*
X11402380Y-134411904D01*
D10*
D11*
X10659523Y-185588095D02*
X10659523Y-184288095D01*
X10969047Y-184288095D01*
X11154761Y-184350000D01*
X11278571Y-184473809D01*
X11340476Y-184597619D01*
X11402380Y-184845238D01*
X11402380Y-185030952D01*
X11340476Y-185278571D01*
X11278571Y-185402380D01*
X11154761Y-185526190D01*
X10969047Y-185588095D01*
X10659523Y-185588095D01*
D10*
D11*
X287002200Y-60000000D02*
X285002200Y-60000000D01*
D10*
D11*
X287002200Y-110000000D02*
X285002200Y-110000000D01*
D10*
D11*
X287002200Y-160000000D02*
X285002200Y-160000000D01*
D10*
D11*
X285692676Y-35216666D02*
X286311723Y-35216666D01*
X285568866Y-35588095D02*
X286002200Y-34288095D01*
X286435533Y-35588095D01*
D10*
D11*
X286095057Y-84907142D02*
X286280771Y-84969047D01*
X286342676Y-85030952D01*
X286404580Y-85154761D01*
X286404580Y-85340476D01*
X286342676Y-85464285D01*
X286280771Y-85526190D01*
X286156961Y-85588095D01*
X285661723Y-85588095D01*
X285661723Y-84288095D01*
X286095057Y-84288095D01*
X286218866Y-84350000D01*
X286280771Y-84411904D01*
X286342676Y-84535714D01*
X286342676Y-84659523D01*
X286280771Y-84783333D01*
X286218866Y-84845238D01*
X286095057Y-84907142D01*
X285661723Y-84907142D01*
D10*
D11*
X286404580Y-135464285D02*
X286342676Y-135526190D01*
X286156961Y-135588095D01*
X286033152Y-135588095D01*
X285847438Y-135526190D01*
X285723628Y-135402380D01*
X285661723Y-135278571D01*
X285599819Y-135030952D01*
X285599819Y-134845238D01*
X285661723Y-134597619D01*
X285723628Y-134473809D01*
X285847438Y-134350000D01*
X286033152Y-134288095D01*
X286156961Y-134288095D01*
X286342676Y-134350000D01*
X286404580Y-134411904D01*
D10*
D11*
X285661723Y-185588095D02*
X285661723Y-184288095D01*
X285971247Y-184288095D01*
X286156961Y-184350000D01*
X286280771Y-184473809D01*
X286342676Y-184597619D01*
X286404580Y-184845238D01*
X286404580Y-185030952D01*
X286342676Y-185278571D01*
X286280771Y-185402380D01*
X286156961Y-185526190D01*
X285971247Y-185588095D01*
X285661723Y-185588095D01*
D10*
D11*
X200434342Y-193785771D02*
X200434342Y-192285771D01*
X200791485Y-192285771D01*
X201005771Y-192357200D01*
X201148628Y-192500057D01*
X201220057Y-192642914D01*
X201291485Y-192928628D01*
X201291485Y-193142914D01*
X201220057Y-193428628D01*
X201148628Y-193571485D01*
X201005771Y-193714342D01*
X200791485Y-193785771D01*
X200434342Y-193785771D01*
X202577200Y-193785771D02*
X202577200Y-193000057D01*
X202505771Y-192857200D01*
X202362914Y-192785771D01*
X202077200Y-192785771D01*
X201934342Y-192857200D01*
X202577200Y-193714342D02*
X202434342Y-193785771D01*
X202077200Y-193785771D01*
X201934342Y-193714342D01*
X201862914Y-193571485D01*
X201862914Y-193428628D01*
X201934342Y-193285771D01*
X202077200Y-193214342D01*
X202434342Y-193214342D01*
X202577200Y-193142914D01*
X203077200Y-192785771D02*
X203648628Y-192785771D01*
X203291485Y-192285771D02*
X203291485Y-193571485D01*
X203362914Y-193714342D01*
X203505771Y-193785771D01*
X203648628Y-193785771D01*
X204720057Y-193714342D02*
X204577200Y-193785771D01*
X204291485Y-193785771D01*
X204148628Y-193714342D01*
X204077200Y-193571485D01*
X204077200Y-193000057D01*
X204148628Y-192857200D01*
X204291485Y-192785771D01*
X204577200Y-192785771D01*
X204720057Y-192857200D01*
X204791485Y-193000057D01*
X204791485Y-193142914D01*
X204077200Y-193285771D01*
X205434342Y-193642914D02*
X205505771Y-193714342D01*
X205434342Y-193785771D01*
X205362914Y-193714342D01*
X205434342Y-193642914D01*
X205434342Y-193785771D01*
X205434342Y-192857200D02*
X205505771Y-192928628D01*
X205434342Y-193000057D01*
X205362914Y-192928628D01*
X205434342Y-192857200D01*
X205434342Y-193000057D01*
X207220057Y-192428628D02*
X207291485Y-192357200D01*
X207434342Y-192285771D01*
X207791485Y-192285771D01*
X207934342Y-192357200D01*
X208005771Y-192428628D01*
X208077200Y-192571485D01*
X208077200Y-192714342D01*
X208005771Y-192928628D01*
X207148628Y-193785771D01*
X208077200Y-193785771D01*
X209005771Y-192285771D02*
X209148628Y-192285771D01*
X209291485Y-192357200D01*
X209362914Y-192428628D01*
X209434342Y-192571485D01*
X209505771Y-192857200D01*
X209505771Y-193214342D01*
X209434342Y-193500057D01*
X209362914Y-193642914D01*
X209291485Y-193714342D01*
X209148628Y-193785771D01*
X209005771Y-193785771D01*
X208862914Y-193714342D01*
X208791485Y-193642914D01*
X208720057Y-193500057D01*
X208648628Y-193214342D01*
X208648628Y-192857200D01*
X208720057Y-192571485D01*
X208791485Y-192428628D01*
X208862914Y-192357200D01*
X209005771Y-192285771D01*
X210077200Y-192428628D02*
X210148628Y-192357200D01*
X210291485Y-192285771D01*
X210648628Y-192285771D01*
X210791485Y-192357200D01*
X210862914Y-192428628D01*
X210934342Y-192571485D01*
X210934342Y-192714342D01*
X210862914Y-192928628D01*
X210005771Y-193785771D01*
X210934342Y-193785771D01*
X212362914Y-193785771D02*
X211505771Y-193785771D01*
X211934342Y-193785771D02*
X211934342Y-192285771D01*
X211791485Y-192500057D01*
X211648628Y-192642914D01*
X211505771Y-192714342D01*
X213005771Y-193214342D02*
X214148628Y-193214342D01*
X215148628Y-192285771D02*
X215291485Y-192285771D01*
X215434342Y-192357200D01*
X215505771Y-192428628D01*
X215577200Y-192571485D01*
X215648628Y-192857200D01*
X215648628Y-193214342D01*
X215577200Y-193500057D01*
X215505771Y-193642914D01*
X215434342Y-193714342D01*
X215291485Y-193785771D01*
X215148628Y-193785771D01*
X215005771Y-193714342D01*
X214934342Y-193642914D01*
X214862914Y-193500057D01*
X214791485Y-193214342D01*
X214791485Y-192857200D01*
X214862914Y-192571485D01*
X214934342Y-192428628D01*
X215005771Y-192357200D01*
X215148628Y-192285771D01*
X217077200Y-193785771D02*
X216220057Y-193785771D01*
X216648628Y-193785771D02*
X216648628Y-192285771D01*
X216505771Y-192500057D01*
X216362914Y-192642914D01*
X216220057Y-192714342D01*
X217720057Y-193214342D02*
X218862914Y-193214342D01*
X220362914Y-193785771D02*
X219505771Y-193785771D01*
X219934342Y-193785771D02*
X219934342Y-192285771D01*
X219791485Y-192500057D01*
X219648628Y-192642914D01*
X219505771Y-192714342D01*
X221648628Y-192785771D02*
X221648628Y-193785771D01*
X221291485Y-192214342D02*
X220934342Y-193285771D01*
X221862914Y-193285771D01*
D10*
D11*
X177002200Y-194507200D02*
X285002200Y-194507200D01*
D10*
D11*
X178434342Y-196585771D02*
X178434342Y-195085771D01*
X179291485Y-196585771D02*
X178648628Y-195728628D01*
X179291485Y-195085771D02*
X178434342Y-195942914D01*
X179934342Y-196585771D02*
X179934342Y-195585771D01*
X179934342Y-195085771D02*
X179862914Y-195157200D01*
X179934342Y-195228628D01*
X180005771Y-195157200D01*
X179934342Y-195085771D01*
X179934342Y-195228628D01*
X181505771Y-196442914D02*
X181434342Y-196514342D01*
X181220057Y-196585771D01*
X181077200Y-196585771D01*
X180862914Y-196514342D01*
X180720057Y-196371485D01*
X180648628Y-196228628D01*
X180577200Y-195942914D01*
X180577200Y-195728628D01*
X180648628Y-195442914D01*
X180720057Y-195300057D01*
X180862914Y-195157200D01*
X181077200Y-195085771D01*
X181220057Y-195085771D01*
X181434342Y-195157200D01*
X181505771Y-195228628D01*
X182791485Y-196585771D02*
X182791485Y-195800057D01*
X182720057Y-195657200D01*
X182577200Y-195585771D01*
X182291485Y-195585771D01*
X182148628Y-195657200D01*
X182791485Y-196514342D02*
X182648628Y-196585771D01*
X182291485Y-196585771D01*
X182148628Y-196514342D01*
X182077200Y-196371485D01*
X182077200Y-196228628D01*
X182148628Y-196085771D01*
X182291485Y-196014342D01*
X182648628Y-196014342D01*
X182791485Y-195942914D01*
X184148628Y-196585771D02*
X184148628Y-195085771D01*
X184148628Y-196514342D02*
X184005771Y-196585771D01*
X183720057Y-196585771D01*
X183577200Y-196514342D01*
X183505771Y-196442914D01*
X183434342Y-196300057D01*
X183434342Y-195871485D01*
X183505771Y-195728628D01*
X183577200Y-195657200D01*
X183720057Y-195585771D01*
X184005771Y-195585771D01*
X184148628Y-195657200D01*
X186005771Y-195800057D02*
X186505771Y-195800057D01*
X186720057Y-196585771D02*
X186005771Y-196585771D01*
X186005771Y-195085771D01*
X186720057Y-195085771D01*
X187362914Y-196442914D02*
X187434342Y-196514342D01*
X187362914Y-196585771D01*
X187291485Y-196514342D01*
X187362914Y-196442914D01*
X187362914Y-196585771D01*
X188077200Y-196585771D02*
X188077200Y-195085771D01*
X188434342Y-195085771D01*
X188648628Y-195157200D01*
X188791485Y-195300057D01*
X188862914Y-195442914D01*
X188934342Y-195728628D01*
X188934342Y-195942914D01*
X188862914Y-196228628D01*
X188791485Y-196371485D01*
X188648628Y-196514342D01*
X188434342Y-196585771D01*
X188077200Y-196585771D01*
X189577200Y-196442914D02*
X189648628Y-196514342D01*
X189577200Y-196585771D01*
X189505771Y-196514342D01*
X189577200Y-196442914D01*
X189577200Y-196585771D01*
X190220057Y-196157200D02*
X190934342Y-196157200D01*
X190077200Y-196585771D02*
X190577200Y-195085771D01*
X191077200Y-196585771D01*
X191577200Y-196442914D02*
X191648628Y-196514342D01*
X191577200Y-196585771D01*
X191505771Y-196514342D01*
X191577200Y-196442914D01*
X191577200Y-196585771D01*
X194577200Y-196585771D02*
X194577200Y-195085771D01*
X194720057Y-196014342D02*
X195148628Y-196585771D01*
X195148628Y-195585771D02*
X194577200Y-196157200D01*
X195791485Y-196585771D02*
X195791485Y-195585771D01*
X195791485Y-195085771D02*
X195720057Y-195157200D01*
X195791485Y-195228628D01*
X195862914Y-195157200D01*
X195791485Y-195085771D01*
X195791485Y-195228628D01*
X197148628Y-196514342D02*
X197005771Y-196585771D01*
X196720057Y-196585771D01*
X196577200Y-196514342D01*
X196505771Y-196442914D01*
X196434342Y-196300057D01*
X196434342Y-195871485D01*
X196505771Y-195728628D01*
X196577200Y-195657200D01*
X196720057Y-195585771D01*
X197005771Y-195585771D01*
X197148628Y-195657200D01*
X198434342Y-196585771D02*
X198434342Y-195800057D01*
X198362914Y-195657200D01*
X198220057Y-195585771D01*
X197934342Y-195585771D01*
X197791485Y-195657200D01*
X198434342Y-196514342D02*
X198291485Y-196585771D01*
X197934342Y-196585771D01*
X197791485Y-196514342D01*
X197720057Y-196371485D01*
X197720057Y-196228628D01*
X197791485Y-196085771D01*
X197934342Y-196014342D01*
X198291485Y-196014342D01*
X198434342Y-195942914D01*
X199791485Y-196585771D02*
X199791485Y-195085771D01*
X199791485Y-196514342D02*
X199648628Y-196585771D01*
X199362914Y-196585771D01*
X199220057Y-196514342D01*
X199148628Y-196442914D01*
X199077200Y-196300057D01*
X199077200Y-195871485D01*
X199148628Y-195728628D01*
X199220057Y-195657200D01*
X199362914Y-195585771D01*
X199648628Y-195585771D01*
X199791485Y-195657200D01*
X202077200Y-197157200D02*
X202005771Y-197085771D01*
X201862914Y-196871485D01*
X201791485Y-196728628D01*
X201720057Y-196514342D01*
X201648628Y-196157200D01*
X201648628Y-195871485D01*
X201720057Y-195514342D01*
X201791485Y-195300057D01*
X201862914Y-195157200D01*
X202005771Y-194942914D01*
X202077200Y-194871485D01*
X203291485Y-195085771D02*
X203005771Y-195085771D01*
X202862914Y-195157200D01*
X202791485Y-195228628D01*
X202648628Y-195442914D01*
X202577200Y-195728628D01*
X202577200Y-196300057D01*
X202648628Y-196442914D01*
X202720057Y-196514342D01*
X202862914Y-196585771D01*
X203148628Y-196585771D01*
X203291485Y-196514342D01*
X203362914Y-196442914D01*
X203434342Y-196300057D01*
X203434342Y-195942914D01*
X203362914Y-195800057D01*
X203291485Y-195728628D01*
X203148628Y-195657200D01*
X202862914Y-195657200D01*
X202720057Y-195728628D01*
X202648628Y-195800057D01*
X202577200Y-195942914D01*
X204077200Y-196442914D02*
X204148628Y-196514342D01*
X204077200Y-196585771D01*
X204005771Y-196514342D01*
X204077200Y-196442914D01*
X204077200Y-196585771D01*
X205077200Y-195085771D02*
X205220057Y-195085771D01*
X205362914Y-195157200D01*
X205434342Y-195228628D01*
X205505771Y-195371485D01*
X205577200Y-195657200D01*
X205577200Y-196014342D01*
X205505771Y-196300057D01*
X205434342Y-196442914D01*
X205362914Y-196514342D01*
X205220057Y-196585771D01*
X205077200Y-196585771D01*
X204934342Y-196514342D01*
X204862914Y-196442914D01*
X204791485Y-196300057D01*
X204720057Y-196014342D01*
X204720057Y-195657200D01*
X204791485Y-195371485D01*
X204862914Y-195228628D01*
X204934342Y-195157200D01*
X205077200Y-195085771D01*
X206220057Y-196442914D02*
X206291485Y-196514342D01*
X206220057Y-196585771D01*
X206148628Y-196514342D01*
X206220057Y-196442914D01*
X206220057Y-196585771D01*
X207720057Y-196585771D02*
X206862914Y-196585771D01*
X207291485Y-196585771D02*
X207291485Y-195085771D01*
X207148628Y-195300057D01*
X207005771Y-195442914D01*
X206862914Y-195514342D01*
X208362914Y-196014342D02*
X209505771Y-196014342D01*
X210505771Y-195085771D02*
X210648628Y-195085771D01*
X210791485Y-195157200D01*
X210862914Y-195228628D01*
X210934342Y-195371485D01*
X211005771Y-195657200D01*
X211005771Y-196014342D01*
X210934342Y-196300057D01*
X210862914Y-196442914D01*
X210791485Y-196514342D01*
X210648628Y-196585771D01*
X210505771Y-196585771D01*
X210362914Y-196514342D01*
X210291485Y-196442914D01*
X210220057Y-196300057D01*
X210148628Y-196014342D01*
X210148628Y-195657200D01*
X210220057Y-195371485D01*
X210291485Y-195228628D01*
X210362914Y-195157200D01*
X210505771Y-195085771D01*
X211505771Y-197157200D02*
X211577200Y-197085771D01*
X211720057Y-196871485D01*
X211791485Y-196728628D01*
X211862914Y-196514342D01*
X211934342Y-196157200D01*
X211934342Y-195871485D01*
X211862914Y-195514342D01*
X211791485Y-195300057D01*
X211720057Y-195157200D01*
X211577200Y-194942914D01*
X211505771Y-194871485D01*
D10*
D11*
X177002200Y-191507200D02*
X285002200Y-191507200D01*
D10*
D12*
X264411485Y-193785771D02*
X263911485Y-193071485D01*
X263554342Y-193785771D02*
X263554342Y-192285771D01*
X264125771Y-192285771D01*
X264268628Y-192357200D01*
X264340057Y-192428628D01*
X264411485Y-192571485D01*
X264411485Y-192785771D01*
X264340057Y-192928628D01*
X264268628Y-193000057D01*
X264125771Y-193071485D01*
X263554342Y-193071485D01*
X265625771Y-193714342D02*
X265482914Y-193785771D01*
X265197200Y-193785771D01*
X265054342Y-193714342D01*
X264982914Y-193571485D01*
X264982914Y-193000057D01*
X265054342Y-192857200D01*
X265197200Y-192785771D01*
X265482914Y-192785771D01*
X265625771Y-192857200D01*
X265697200Y-193000057D01*
X265697200Y-193142914D01*
X264982914Y-193285771D01*
X266197200Y-192785771D02*
X266554342Y-193785771D01*
X266911485Y-192785771D01*
X267482914Y-193642914D02*
X267554342Y-193714342D01*
X267482914Y-193785771D01*
X267411485Y-193714342D01*
X267482914Y-193642914D01*
X267482914Y-193785771D01*
X267482914Y-192857200D02*
X267554342Y-192928628D01*
X267482914Y-193000057D01*
X267411485Y-192928628D01*
X267482914Y-192857200D01*
X267482914Y-193000057D01*
D10*
D11*
X178362914Y-193714342D02*
X178577200Y-193785771D01*
X178934342Y-193785771D01*
X179077200Y-193714342D01*
X179148628Y-193642914D01*
X179220057Y-193500057D01*
X179220057Y-193357200D01*
X179148628Y-193214342D01*
X179077200Y-193142914D01*
X178934342Y-193071485D01*
X178648628Y-193000057D01*
X178505771Y-192928628D01*
X178434342Y-192857200D01*
X178362914Y-192714342D01*
X178362914Y-192571485D01*
X178434342Y-192428628D01*
X178505771Y-192357200D01*
X178648628Y-192285771D01*
X179005771Y-192285771D01*
X179220057Y-192357200D01*
X179862914Y-193785771D02*
X179862914Y-192785771D01*
X179862914Y-192285771D02*
X179791485Y-192357200D01*
X179862914Y-192428628D01*
X179934342Y-192357200D01*
X179862914Y-192285771D01*
X179862914Y-192428628D01*
X180434342Y-192785771D02*
X181220057Y-192785771D01*
X180434342Y-193785771D01*
X181220057Y-193785771D01*
X182362914Y-193714342D02*
X182220057Y-193785771D01*
X181934342Y-193785771D01*
X181791485Y-193714342D01*
X181720057Y-193571485D01*
X181720057Y-193000057D01*
X181791485Y-192857200D01*
X181934342Y-192785771D01*
X182220057Y-192785771D01*
X182362914Y-192857200D01*
X182434342Y-193000057D01*
X182434342Y-193142914D01*
X181720057Y-193285771D01*
X183077200Y-193642914D02*
X183148628Y-193714342D01*
X183077200Y-193785771D01*
X183005771Y-193714342D01*
X183077200Y-193642914D01*
X183077200Y-193785771D01*
X183077200Y-192857200D02*
X183148628Y-192928628D01*
X183077200Y-193000057D01*
X183005771Y-192928628D01*
X183077200Y-192857200D01*
X183077200Y-193000057D01*
X184862914Y-193357200D02*
X185577200Y-193357200D01*
X184720057Y-193785771D02*
X185220057Y-192285771D01*
X185720057Y-193785771D01*
X186862914Y-192785771D02*
X186862914Y-193785771D01*
X186505771Y-192214342D02*
X186148628Y-193285771D01*
X187077200Y-193285771D01*
D10*
D11*
X263434342Y-196585771D02*
X263434342Y-195085771D01*
X264791485Y-196585771D02*
X264791485Y-195085771D01*
X264791485Y-196514342D02*
X264648628Y-196585771D01*
X264362914Y-196585771D01*
X264220057Y-196514342D01*
X264148628Y-196442914D01*
X264077200Y-196300057D01*
X264077200Y-195871485D01*
X264148628Y-195728628D01*
X264220057Y-195657200D01*
X264362914Y-195585771D01*
X264648628Y-195585771D01*
X264791485Y-195657200D01*
X265505771Y-196442914D02*
X265577200Y-196514342D01*
X265505771Y-196585771D01*
X265434342Y-196514342D01*
X265505771Y-196442914D01*
X265505771Y-196585771D01*
X265505771Y-195657200D02*
X265577200Y-195728628D01*
X265505771Y-195800057D01*
X265434342Y-195728628D01*
X265505771Y-195657200D01*
X265505771Y-195800057D01*
X268148628Y-196585771D02*
X267291485Y-196585771D01*
X267720057Y-196585771D02*
X267720057Y-195085771D01*
X267577200Y-195300057D01*
X267434342Y-195442914D01*
X267291485Y-195514342D01*
X269862914Y-195014342D02*
X268577200Y-196942914D01*
X271148628Y-196585771D02*
X270291485Y-196585771D01*
X270720057Y-196585771D02*
X270720057Y-195085771D01*
X270577200Y-195300057D01*
X270434342Y-195442914D01*
X270291485Y-195514342D01*
D10*
D11*
X177002200Y-187507200D02*
X285002200Y-187507200D01*
D10*
D13*
X178714580Y-188211961D02*
X179857438Y-188211961D01*
X179036009Y-190211961D02*
X179286009Y-188211961D01*
X180274104Y-190211961D02*
X180440771Y-188878628D01*
X180524104Y-188211961D02*
X180416961Y-188307200D01*
X180500295Y-188402438D01*
X180607438Y-188307200D01*
X180524104Y-188211961D01*
X180500295Y-188402438D01*
X181107438Y-188878628D02*
X181869342Y-188878628D01*
X181476485Y-188211961D02*
X181262200Y-189926247D01*
X181333628Y-190116723D01*
X181512200Y-190211961D01*
X181702676Y-190211961D01*
X182655057Y-190211961D02*
X182476485Y-190116723D01*
X182405057Y-189926247D01*
X182619342Y-188211961D01*
X184190771Y-190116723D02*
X183988390Y-190211961D01*
X183607438Y-190211961D01*
X183428866Y-190116723D01*
X183357438Y-189926247D01*
X183452676Y-189164342D01*
X183571723Y-188973866D01*
X183774104Y-188878628D01*
X184155057Y-188878628D01*
X184333628Y-188973866D01*
X184405057Y-189164342D01*
X184381247Y-189354819D01*
X183405057Y-189545295D01*
X185155057Y-190021485D02*
X185238390Y-190116723D01*
X185131247Y-190211961D01*
X185047914Y-190116723D01*
X185155057Y-190021485D01*
X185131247Y-190211961D01*
X185286009Y-188973866D02*
X185369342Y-189069104D01*
X185262200Y-189164342D01*
X185178866Y-189069104D01*
X185286009Y-188973866D01*
X185262200Y-189164342D01*
D10*
D11*
X178934342Y-185600057D02*
X178434342Y-185600057D01*
X178434342Y-186385771D02*
X178434342Y-184885771D01*
X179148628Y-184885771D01*
X179720057Y-186385771D02*
X179720057Y-185385771D01*
X179720057Y-184885771D02*
X179648628Y-184957200D01*
X179720057Y-185028628D01*
X179791485Y-184957200D01*
X179720057Y-184885771D01*
X179720057Y-185028628D01*
X180648628Y-186385771D02*
X180505771Y-186314342D01*
X180434342Y-186171485D01*
X180434342Y-184885771D01*
X181791485Y-186314342D02*
X181648628Y-186385771D01*
X181362914Y-186385771D01*
X181220057Y-186314342D01*
X181148628Y-186171485D01*
X181148628Y-185600057D01*
X181220057Y-185457200D01*
X181362914Y-185385771D01*
X181648628Y-185385771D01*
X181791485Y-185457200D01*
X181862914Y-185600057D01*
X181862914Y-185742914D01*
X181148628Y-185885771D01*
X182505771Y-186242914D02*
X182577200Y-186314342D01*
X182505771Y-186385771D01*
X182434342Y-186314342D01*
X182505771Y-186242914D01*
X182505771Y-186385771D01*
X182505771Y-185457200D02*
X182577200Y-185528628D01*
X182505771Y-185600057D01*
X182434342Y-185528628D01*
X182505771Y-185457200D01*
X182505771Y-185600057D01*
X184862914Y-185600057D02*
X185077200Y-185671485D01*
X185148628Y-185742914D01*
X185220057Y-185885771D01*
X185220057Y-186100057D01*
X185148628Y-186242914D01*
X185077200Y-186314342D01*
X184934342Y-186385771D01*
X184362914Y-186385771D01*
X184362914Y-184885771D01*
X184862914Y-184885771D01*
X185005771Y-184957200D01*
X185077200Y-185028628D01*
X185148628Y-185171485D01*
X185148628Y-185314342D01*
X185077200Y-185457200D01*
X185005771Y-185528628D01*
X184862914Y-185600057D01*
X184362914Y-185600057D01*
X185862914Y-186385771D02*
X185862914Y-185385771D01*
X185862914Y-184885771D02*
X185791485Y-184957200D01*
X185862914Y-185028628D01*
X185934342Y-184957200D01*
X185862914Y-184885771D01*
X185862914Y-185028628D01*
X187220057Y-186385771D02*
X187220057Y-185600057D01*
X187148628Y-185457200D01*
X187005771Y-185385771D01*
X186720057Y-185385771D01*
X186577200Y-185457200D01*
X187220057Y-186314342D02*
X187077200Y-186385771D01*
X186720057Y-186385771D01*
X186577200Y-186314342D01*
X186505771Y-186171485D01*
X186505771Y-186028628D01*
X186577200Y-185885771D01*
X186720057Y-185814342D01*
X187077200Y-185814342D01*
X187220057Y-185742914D01*
X187862914Y-186314342D02*
X188005771Y-186385771D01*
X188291485Y-186385771D01*
X188434342Y-186314342D01*
X188505771Y-186171485D01*
X188505771Y-186100057D01*
X188434342Y-185957200D01*
X188291485Y-185885771D01*
X188077200Y-185885771D01*
X187934342Y-185814342D01*
X187862914Y-185671485D01*
X187862914Y-185600057D01*
X187934342Y-185457200D01*
X188077200Y-185385771D01*
X188291485Y-185385771D01*
X188434342Y-185457200D01*
X190005771Y-186385771D02*
X189505771Y-185671485D01*
X189148628Y-186385771D02*
X189148628Y-184885771D01*
X189720057Y-184885771D01*
X189862914Y-184957200D01*
X189934342Y-185028628D01*
X190005771Y-185171485D01*
X190005771Y-185385771D01*
X189934342Y-185528628D01*
X189862914Y-185600057D01*
X189720057Y-185671485D01*
X189148628Y-185671485D01*
X191220057Y-186314342D02*
X191077200Y-186385771D01*
X190791485Y-186385771D01*
X190648628Y-186314342D01*
X190577200Y-186171485D01*
X190577200Y-185600057D01*
X190648628Y-185457200D01*
X190791485Y-185385771D01*
X191077200Y-185385771D01*
X191220057Y-185457200D01*
X191291485Y-185600057D01*
X191291485Y-185742914D01*
X190577200Y-185885771D01*
X192577200Y-186314342D02*
X192434342Y-186385771D01*
X192148628Y-186385771D01*
X192005771Y-186314342D01*
X191934342Y-186242914D01*
X191862914Y-186100057D01*
X191862914Y-185671485D01*
X191934342Y-185528628D01*
X192005771Y-185457200D01*
X192148628Y-185385771D01*
X192434342Y-185385771D01*
X192577200Y-185457200D01*
X193791485Y-186314342D02*
X193648628Y-186385771D01*
X193362914Y-186385771D01*
X193220057Y-186314342D01*
X193148628Y-186171485D01*
X193148628Y-185600057D01*
X193220057Y-185457200D01*
X193362914Y-185385771D01*
X193648628Y-185385771D01*
X193791485Y-185457200D01*
X193862914Y-185600057D01*
X193862914Y-185742914D01*
X193148628Y-185885771D01*
X194505771Y-186385771D02*
X194505771Y-185385771D01*
X194505771Y-184885771D02*
X194434342Y-184957200D01*
X194505771Y-185028628D01*
X194577200Y-184957200D01*
X194505771Y-184885771D01*
X194505771Y-185028628D01*
X195077200Y-185385771D02*
X195434342Y-186385771D01*
X195791485Y-185385771D01*
X196934342Y-186314342D02*
X196791485Y-186385771D01*
X196505771Y-186385771D01*
X196362914Y-186314342D01*
X196291485Y-186171485D01*
X196291485Y-185600057D01*
X196362914Y-185457200D01*
X196505771Y-185385771D01*
X196791485Y-185385771D01*
X196934342Y-185457200D01*
X197005771Y-185600057D01*
X197005771Y-185742914D01*
X196291485Y-185885771D01*
X197648628Y-186385771D02*
X197648628Y-185385771D01*
X197648628Y-185671485D02*
X197720057Y-185528628D01*
X197791485Y-185457200D01*
X197934342Y-185385771D01*
X198077200Y-185385771D01*
X198577200Y-186242914D02*
X198648628Y-186314342D01*
X198577200Y-186385771D01*
X198505771Y-186314342D01*
X198577200Y-186242914D01*
X198577200Y-186385771D01*
X199291485Y-186385771D02*
X199291485Y-184885771D01*
X199434342Y-185814342D02*
X199862914Y-186385771D01*
X199862914Y-185385771D02*
X199291485Y-185957200D01*
X200505771Y-186385771D02*
X200505771Y-185385771D01*
X200505771Y-184885771D02*
X200434342Y-184957200D01*
X200505771Y-185028628D01*
X200577200Y-184957200D01*
X200505771Y-184885771D01*
X200505771Y-185028628D01*
X201862914Y-186314342D02*
X201720057Y-186385771D01*
X201434342Y-186385771D01*
X201291485Y-186314342D01*
X201220057Y-186242914D01*
X201148628Y-186100057D01*
X201148628Y-185671485D01*
X201220057Y-185528628D01*
X201291485Y-185457200D01*
X201434342Y-185385771D01*
X201720057Y-185385771D01*
X201862914Y-185457200D01*
X203148628Y-186385771D02*
X203148628Y-185600057D01*
X203077200Y-185457200D01*
X202934342Y-185385771D01*
X202648628Y-185385771D01*
X202505771Y-185457200D01*
X203148628Y-186314342D02*
X203005771Y-186385771D01*
X202648628Y-186385771D01*
X202505771Y-186314342D01*
X202434342Y-186171485D01*
X202434342Y-186028628D01*
X202505771Y-185885771D01*
X202648628Y-185814342D01*
X203005771Y-185814342D01*
X203148628Y-185742914D01*
X204505771Y-186385771D02*
X204505771Y-184885771D01*
X204505771Y-186314342D02*
X204362914Y-186385771D01*
X204077200Y-186385771D01*
X203934342Y-186314342D01*
X203862914Y-186242914D01*
X203791485Y-186100057D01*
X203791485Y-185671485D01*
X203862914Y-185528628D01*
X203934342Y-185457200D01*
X204077200Y-185385771D01*
X204362914Y-185385771D01*
X204505771Y-185457200D01*
X204862914Y-186528628D02*
X206005771Y-186528628D01*
X206362914Y-185385771D02*
X206362914Y-186885771D01*
X206362914Y-185457200D02*
X206505771Y-185385771D01*
X206791485Y-185385771D01*
X206934342Y-185457200D01*
X207005771Y-185528628D01*
X207077200Y-185671485D01*
X207077200Y-186100057D01*
X207005771Y-186242914D01*
X206934342Y-186314342D01*
X206791485Y-186385771D01*
X206505771Y-186385771D01*
X206362914Y-186314342D01*
X208362914Y-186314342D02*
X208220057Y-186385771D01*
X207934342Y-186385771D01*
X207791485Y-186314342D01*
X207720057Y-186242914D01*
X207648628Y-186100057D01*
X207648628Y-185671485D01*
X207720057Y-185528628D01*
X207791485Y-185457200D01*
X207934342Y-185385771D01*
X208220057Y-185385771D01*
X208362914Y-185457200D01*
X209005771Y-186385771D02*
X209005771Y-184885771D01*
X209005771Y-185457200D02*
X209148628Y-185385771D01*
X209434342Y-185385771D01*
X209577200Y-185457200D01*
X209648628Y-185528628D01*
X209720057Y-185671485D01*
X209720057Y-186100057D01*
X209648628Y-186242914D01*
X209577200Y-186314342D01*
X209434342Y-186385771D01*
X209148628Y-186385771D01*
X209005771Y-186314342D01*
D10*
D11*
X177002200Y-181507200D02*
X285002200Y-181507200D01*
D10*
D11*
X178362914Y-183614342D02*
X178577200Y-183685771D01*
X178934342Y-183685771D01*
X179077200Y-183614342D01*
X179148628Y-183542914D01*
X179220057Y-183400057D01*
X179220057Y-183257200D01*
X179148628Y-183114342D01*
X179077200Y-183042914D01*
X178934342Y-182971485D01*
X178648628Y-182900057D01*
X178505771Y-182828628D01*
X178434342Y-182757200D01*
X178362914Y-182614342D01*
X178362914Y-182471485D01*
X178434342Y-182328628D01*
X178505771Y-182257200D01*
X178648628Y-182185771D01*
X179005771Y-182185771D01*
X179220057Y-182257200D01*
X179862914Y-183685771D02*
X179862914Y-182185771D01*
X180505771Y-183685771D02*
X180505771Y-182900057D01*
X180434342Y-182757200D01*
X180291485Y-182685771D01*
X180077200Y-182685771D01*
X179934342Y-182757200D01*
X179862914Y-182828628D01*
X181791485Y-183614342D02*
X181648628Y-183685771D01*
X181362914Y-183685771D01*
X181220057Y-183614342D01*
X181148628Y-183471485D01*
X181148628Y-182900057D01*
X181220057Y-182757200D01*
X181362914Y-182685771D01*
X181648628Y-182685771D01*
X181791485Y-182757200D01*
X181862914Y-182900057D01*
X181862914Y-183042914D01*
X181148628Y-183185771D01*
X183077200Y-183614342D02*
X182934342Y-183685771D01*
X182648628Y-183685771D01*
X182505771Y-183614342D01*
X182434342Y-183471485D01*
X182434342Y-182900057D01*
X182505771Y-182757200D01*
X182648628Y-182685771D01*
X182934342Y-182685771D01*
X183077200Y-182757200D01*
X183148628Y-182900057D01*
X183148628Y-183042914D01*
X182434342Y-183185771D01*
X183577200Y-182685771D02*
X184148628Y-182685771D01*
X183791485Y-182185771D02*
X183791485Y-183471485D01*
X183862914Y-183614342D01*
X184005771Y-183685771D01*
X184148628Y-183685771D01*
X184648628Y-183542914D02*
X184720057Y-183614342D01*
X184648628Y-183685771D01*
X184577200Y-183614342D01*
X184648628Y-183542914D01*
X184648628Y-183685771D01*
X184648628Y-182757200D02*
X184720057Y-182828628D01*
X184648628Y-182900057D01*
X184577200Y-182828628D01*
X184648628Y-182757200D01*
X184648628Y-182900057D01*
D10*
D12*
D10*
D11*
D10*
D11*
D10*
D11*
D10*
D11*
D10*
D11*
X197002200Y-191507200D02*
X197002200Y-194507200D01*
D10*
D11*
X261002200Y-191507200D02*
X261002200Y-198007200D01*
D14*
X76200000Y-38100000D02*
X176149000Y-38100000D01*
X176149000Y-38100000D02*
X176149000Y-138049000D01*
X176149000Y-138049000D02*
X76200000Y-138049000D01*
X76200000Y-138049000D02*
X76200000Y-38100000D01*
D15*
G04 #@! TO.P,C5,1*
G04 #@! TO.N,/Vbias+*
X90564000Y-111188500D03*
G04 #@! TO.P,C5,2*
G04 #@! TO.N,GNDA*
X89014000Y-111188500D03*
G04 #@! TD*
D16*
G04 #@! TO.P,P1,1,In*
G04 #@! TO.N,Net-(P1-Pad1)*
X171450000Y-73660000D03*
D17*
G04 #@! TO.P,P1,2,Ext*
G04 #@! TO.N,GNDA*
X173990000Y-71120000D03*
X168910000Y-76200000D03*
X168910000Y-71120000D03*
X173990000Y-76200000D03*
G04 #@! TD*
D15*
G04 #@! TO.P,C20,1*
G04 #@! TO.N,VDDA*
X127902000Y-112649000D03*
G04 #@! TO.P,C20,2*
G04 #@! TO.N,GNDA*
X126352000Y-112649000D03*
G04 #@! TD*
G04 #@! TO.P,C35,1*
G04 #@! TO.N,VSSA*
X141999000Y-111125000D03*
G04 #@! TO.P,C35,2*
G04 #@! TO.N,GNDA*
X140449000Y-111125000D03*
G04 #@! TD*
G04 #@! TO.P,C25,1*
G04 #@! TO.N,Net-(C24-Pad1)*
X157874000Y-113284000D03*
G04 #@! TO.P,C25,2*
G04 #@! TO.N,GNDA*
X156324000Y-113284000D03*
G04 #@! TD*
D18*
G04 #@! TO.P,C31,1*
G04 #@! TO.N,VSSA*
X166370000Y-77216000D03*
G04 #@! TO.P,C31,2*
G04 #@! TO.N,GNDA*
X166370000Y-78766000D03*
G04 #@! TD*
D19*
G04 #@! TO.P,R17,1*
G04 #@! TO.N,GNDA*
X120332000Y-111125000D03*
G04 #@! TO.P,R17,2*
G04 #@! TO.N,Net-(R17-Pad2)*
X118682000Y-111125000D03*
G04 #@! TD*
D15*
G04 #@! TO.P,C28,1*
G04 #@! TO.N,VDDA*
X157049000Y-78994000D03*
G04 #@! TO.P,C28,2*
G04 #@! TO.N,GNDA*
X155499000Y-78994000D03*
G04 #@! TD*
D20*
G04 #@! TO.P,R9,1*
G04 #@! TO.N,Net-(R9-Pad1)*
X133350000Y-53404000D03*
G04 #@! TO.P,R9,2*
G04 #@! TO.N,/VDDchip*
X133350000Y-55054000D03*
G04 #@! TD*
G04 #@! TO.P,R30,1*
G04 #@! TO.N,VSSA*
X136525000Y-108141000D03*
G04 #@! TO.P,R30,2*
G04 #@! TO.N,GNDA*
X136525000Y-109791000D03*
G04 #@! TD*
D21*
G04 #@! TO.P,R31,1*
G04 #@! TO.N,Net-(R19-Pad2)*
X164910000Y-73660000D03*
G04 #@! TO.P,R31,2*
G04 #@! TO.N,Net-(P1-Pad1)*
X166560000Y-73660000D03*
G04 #@! TD*
D22*
G04 #@! TO.P,SW2,1,1*
G04 #@! TO.N,/V+5*
X85560000Y-83665500D03*
X93510000Y-83665500D03*
G04 #@! TO.P,SW2,2,2*
G04 #@! TO.N,Net-(K1-Pad1)*
X93510000Y-88165500D03*
X85560000Y-88165500D03*
G04 #@! TD*
D16*
G04 #@! TO.P,J11,1,In*
G04 #@! TO.N,Net-(J11-Pad1)*
X171450000Y-119380000D03*
D17*
G04 #@! TO.P,J11,2,Ext*
G04 #@! TO.N,GNDA*
X173990000Y-116840000D03*
X173990000Y-121920000D03*
X168910000Y-116840000D03*
X168910000Y-121920000D03*
G04 #@! TD*
D23*
G04 #@! TO.P,J3,1,Pin_1*
G04 #@! TO.N,/V+5*
X89535000Y-129971800D03*
G04 #@! TO.P,J3,2,Pin_2*
G04 #@! TO.N,GNDA*
X93345000Y-129971800D03*
G04 #@! TD*
D19*
G04 #@! TO.P,R12,1*
G04 #@! TO.N,Net-(J5-Pad1)*
X166306000Y-54610000D03*
G04 #@! TO.P,R12,2*
G04 #@! TO.N,Net-(R12-Pad2)*
X164656000Y-54610000D03*
G04 #@! TD*
D24*
G04 #@! TO.P,Q4,1,G*
G04 #@! TO.N,GNDA*
X130350500Y-125537000D03*
G04 #@! TO.P,Q4,2,S*
G04 #@! TO.N,Net-(C18-Pad1)*
X130350500Y-123637000D03*
G04 #@! TO.P,Q4,3,D*
G04 #@! TO.N,Net-(J7-Pad1)*
X128475500Y-124587000D03*
G04 #@! TD*
D25*
G04 #@! TO.P,C29,1*
G04 #@! TO.N,VSSA*
X152578000Y-75184000D03*
G04 #@! TO.P,C29,2*
G04 #@! TO.N,GNDA*
X154128000Y-75184000D03*
G04 #@! TD*
D26*
G04 #@! TO.P,R6,1*
G04 #@! TO.N,Net-(R6-Pad1)*
X89215500Y-77025500D03*
G04 #@! TO.P,R6,2*
G04 #@! TO.N,Net-(R5-Pad1)*
X92140500Y-77025500D03*
G04 #@! TD*
D27*
G04 #@! TO.P,U2,1*
G04 #@! TO.N,N/C*
X157545000Y-52070000D03*
G04 #@! TO.P,U2,2,-*
G04 #@! TO.N,Net-(R13-Pad1)*
X157545000Y-53340000D03*
G04 #@! TO.P,U2,3,+*
G04 #@! TO.N,/ChipOut*
X157545000Y-54610000D03*
G04 #@! TO.P,U2,4,V-*
G04 #@! TO.N,VSSA*
X157545000Y-55880000D03*
G04 #@! TO.P,U2,5*
G04 #@! TO.N,N/C*
X162495000Y-55880000D03*
G04 #@! TO.P,U2,6*
G04 #@! TO.N,Net-(R12-Pad2)*
X162495000Y-54610000D03*
G04 #@! TO.P,U2,7,V+*
G04 #@! TO.N,VDDA*
X162495000Y-53340000D03*
G04 #@! TO.P,U2,8,~{PD}*
G04 #@! TO.N,unconnected-(U2-Pad8)*
X162495000Y-52070000D03*
G04 #@! TD*
D28*
G04 #@! TO.P,J12,1,Pin_1*
G04 #@! TO.N,Net-(J12-Pad1)*
X141478000Y-84577000D03*
D29*
G04 #@! TO.P,J12,2,Pin_2*
G04 #@! TO.N,/Bias-*
X141478000Y-87117000D03*
G04 #@! TD*
D30*
G04 #@! TO.P,RV3,1,1*
G04 #@! TO.N,Net-(R11-Pad2)*
X93345000Y-107569000D03*
G04 #@! TO.P,RV3,2,2*
G04 #@! TO.N,Net-(C6-Pad1)*
X90805000Y-107569000D03*
G04 #@! TO.P,RV3,3,3*
G04 #@! TO.N,unconnected-(RV3-Pad3)*
X88265000Y-107569000D03*
G04 #@! TD*
D26*
G04 #@! TO.P,R4,1*
G04 #@! TO.N,/Bias+*
X105664000Y-77025500D03*
G04 #@! TO.P,R4,2*
G04 #@! TO.N,Net-(R3-Pad1)*
X108589000Y-77025500D03*
G04 #@! TD*
D25*
G04 #@! TO.P,C30,1*
G04 #@! TO.N,VSSA*
X152578000Y-83566000D03*
G04 #@! TO.P,C30,2*
G04 #@! TO.N,GNDA*
X154128000Y-83566000D03*
G04 #@! TD*
D19*
G04 #@! TO.P,R11,1*
G04 #@! TO.N,GNDA*
X94297000Y-111188500D03*
G04 #@! TO.P,R11,2*
G04 #@! TO.N,Net-(R11-Pad2)*
X92647000Y-111188500D03*
G04 #@! TD*
D21*
G04 #@! TO.P,R16,1*
G04 #@! TO.N,/Vbias-*
X101664000Y-104013000D03*
G04 #@! TO.P,R16,2*
G04 #@! TO.N,GNDA*
X103314000Y-104013000D03*
G04 #@! TD*
D30*
G04 #@! TO.P,RV5,1,1*
G04 #@! TO.N,Net-(R17-Pad2)*
X119507000Y-107569000D03*
G04 #@! TO.P,RV5,2,2*
G04 #@! TO.N,Net-(C17-Pad1)*
X116967000Y-107569000D03*
G04 #@! TO.P,RV5,3,3*
G04 #@! TO.N,unconnected-(RV5-Pad3)*
X114427000Y-107569000D03*
G04 #@! TD*
D24*
G04 #@! TO.P,Q5,1,G*
G04 #@! TO.N,GNDA*
X144193500Y-125537000D03*
G04 #@! TO.P,Q5,2,S*
G04 #@! TO.N,Net-(C32-Pad1)*
X144193500Y-123637000D03*
G04 #@! TO.P,Q5,3,D*
G04 #@! TO.N,Net-(J10-Pad2)*
X142318500Y-124587000D03*
G04 #@! TD*
D15*
G04 #@! TO.P,C7,1*
G04 #@! TO.N,VSSA*
X155461000Y-55880000D03*
G04 #@! TO.P,C7,2*
G04 #@! TO.N,GNDA*
X153911000Y-55880000D03*
G04 #@! TD*
D25*
G04 #@! TO.P,C37,1*
G04 #@! TO.N,Net-(C37-Pad1)*
X145148000Y-112649000D03*
G04 #@! TO.P,C37,2*
G04 #@! TO.N,GNDA*
X146698000Y-112649000D03*
G04 #@! TD*
D30*
G04 #@! TO.P,RV4,1,1*
G04 #@! TO.N,Net-(C12-Pad1)*
X106426000Y-107569000D03*
G04 #@! TO.P,RV4,2,2*
G04 #@! TO.N,Net-(R15-Pad1)*
X103886000Y-107569000D03*
G04 #@! TO.P,RV4,3,3*
G04 #@! TO.N,unconnected-(RV4-Pad3)*
X101346000Y-107569000D03*
G04 #@! TD*
D25*
G04 #@! TO.P,C32,1*
G04 #@! TO.N,Net-(C32-Pad1)*
X142735000Y-122047000D03*
G04 #@! TO.P,C32,2*
G04 #@! TO.N,GNDA*
X144285000Y-122047000D03*
G04 #@! TD*
D26*
G04 #@! TO.P,R7,1*
G04 #@! TO.N,Net-(K1-Pad4)*
X84643500Y-77025500D03*
G04 #@! TO.P,R7,2*
G04 #@! TO.N,Net-(R6-Pad1)*
X87568500Y-77025500D03*
G04 #@! TD*
D28*
G04 #@! TO.P,J8,1,Pin_1*
G04 #@! TO.N,/Bias+*
X141478000Y-68702000D03*
D29*
G04 #@! TO.P,J8,2,Pin_2*
G04 #@! TO.N,Net-(J8-Pad2)*
X141478000Y-71242000D03*
G04 #@! TD*
D27*
G04 #@! TO.P,U7,1*
G04 #@! TO.N,N/C*
X159387000Y-75946000D03*
G04 #@! TO.P,U7,2,-*
G04 #@! TO.N,Net-(R18-Pad2)*
X159387000Y-77216000D03*
G04 #@! TO.P,U7,3,+*
G04 #@! TO.N,Net-(R27-Pad1)*
X159387000Y-78486000D03*
G04 #@! TO.P,U7,4,V-*
G04 #@! TO.N,VDDA*
X159387000Y-79756000D03*
G04 #@! TO.P,U7,5*
G04 #@! TO.N,N/C*
X164337000Y-79756000D03*
G04 #@! TO.P,U7,6*
G04 #@! TO.N,Net-(R19-Pad2)*
X164337000Y-78486000D03*
G04 #@! TO.P,U7,7,V+*
G04 #@! TO.N,VSSA*
X164337000Y-77216000D03*
G04 #@! TO.P,U7,8,~{PD}*
G04 #@! TO.N,unconnected-(U7-Pad8)*
X164337000Y-75946000D03*
G04 #@! TD*
D23*
G04 #@! TO.P,J7,1,Pin_1*
G04 #@! TO.N,Net-(J7-Pad1)*
X123825000Y-129971800D03*
G04 #@! TO.P,J7,2,Pin_2*
G04 #@! TO.N,GNDA*
X127635000Y-129971800D03*
G04 #@! TD*
D15*
G04 #@! TO.P,C15,1*
G04 #@! TO.N,/VDDchip*
X116218000Y-112649000D03*
G04 #@! TO.P,C15,2*
G04 #@! TO.N,GNDA*
X114668000Y-112649000D03*
G04 #@! TD*
D31*
G04 #@! TO.P,U4,1,IN*
G04 #@! TO.N,Net-(C13-Pad1)*
X116856000Y-118736000D03*
G04 #@! TO.P,U4,2,IN*
X117356000Y-118736000D03*
G04 #@! TO.P,U4,3,EN/UV*
X117856000Y-118736000D03*
G04 #@! TO.P,U4,4,PG*
G04 #@! TO.N,unconnected-(U4-Pad4)*
X118356000Y-118736000D03*
G04 #@! TO.P,U4,5,ILIM*
G04 #@! TO.N,GNDA*
X118856000Y-118736000D03*
G04 #@! TO.P,U4,6,PGFB*
G04 #@! TO.N,Net-(C13-Pad1)*
X118856000Y-114436000D03*
G04 #@! TO.P,U4,7,SET*
G04 #@! TO.N,Net-(C17-Pad1)*
X118356000Y-114436000D03*
G04 #@! TO.P,U4,8,GND*
G04 #@! TO.N,GNDA*
X117856000Y-114436000D03*
G04 #@! TO.P,U4,9,OUTS*
G04 #@! TO.N,/VDDchip*
X117356000Y-114436000D03*
G04 #@! TO.P,U4,10,OUT*
X116856000Y-114436000D03*
D32*
G04 #@! TO.P,U4,11,GND*
G04 #@! TO.N,GNDA*
X117856000Y-116586000D03*
G04 #@! TD*
D25*
G04 #@! TO.P,C33,1*
G04 #@! TO.N,Net-(C32-Pad1)*
X142735000Y-120523000D03*
G04 #@! TO.P,C33,2*
G04 #@! TO.N,GNDA*
X144285000Y-120523000D03*
G04 #@! TD*
D23*
G04 #@! TO.P,J10,1,Pin_1*
G04 #@! TO.N,GNDA*
X135255000Y-129971800D03*
G04 #@! TO.P,J10,2,Pin_2*
G04 #@! TO.N,Net-(J10-Pad2)*
X139065000Y-129971800D03*
G04 #@! TD*
D33*
G04 #@! TO.P,R22,1*
G04 #@! TO.N,GNDA*
X141478000Y-76900500D03*
G04 #@! TO.P,R22,2*
G04 #@! TO.N,Net-(J8-Pad2)*
X141478000Y-73975500D03*
G04 #@! TD*
D34*
G04 #@! TO.P,R8,1*
G04 #@! TO.N,Net-(K1-Pad4)*
X81619500Y-73977500D03*
G04 #@! TO.P,R8,2*
G04 #@! TO.N,Net-(R6-Pad1)*
X87544500Y-73977500D03*
G04 #@! TD*
D28*
G04 #@! TO.P,J2,1*
G04 #@! TO.N,/D14*
X91313000Y-50800000D03*
D29*
G04 #@! TO.P,J2,2*
G04 #@! TO.N,/D1*
X91313000Y-48260000D03*
G04 #@! TO.P,J2,3*
G04 #@! TO.N,/D15*
X93853000Y-50800000D03*
G04 #@! TO.P,J2,4*
G04 #@! TO.N,/D2*
X93853000Y-48260000D03*
G04 #@! TO.P,J2,5*
G04 #@! TO.N,/D16*
X96393000Y-50800000D03*
G04 #@! TO.P,J2,6*
G04 #@! TO.N,/D3*
X96393000Y-48260000D03*
G04 #@! TO.P,J2,7*
G04 #@! TO.N,/D17*
X98933000Y-50800000D03*
G04 #@! TO.P,J2,8*
G04 #@! TO.N,/D4*
X98933000Y-48260000D03*
G04 #@! TO.P,J2,9*
G04 #@! TO.N,/D18*
X101473000Y-50800000D03*
G04 #@! TO.P,J2,10*
G04 #@! TO.N,/D5*
X101473000Y-48260000D03*
G04 #@! TO.P,J2,11*
G04 #@! TO.N,/D19*
X104013000Y-50800000D03*
G04 #@! TO.P,J2,12*
G04 #@! TO.N,/D6*
X104013000Y-48260000D03*
G04 #@! TO.P,J2,13*
G04 #@! TO.N,/D20*
X106553000Y-50800000D03*
G04 #@! TO.P,J2,14*
G04 #@! TO.N,/D7*
X106553000Y-48260000D03*
G04 #@! TO.P,J2,15*
G04 #@! TO.N,/D21*
X109093000Y-50800000D03*
G04 #@! TO.P,J2,16*
G04 #@! TO.N,/D8*
X109093000Y-48260000D03*
G04 #@! TO.P,J2,17*
G04 #@! TO.N,/D22*
X111633000Y-50800000D03*
G04 #@! TO.P,J2,18*
G04 #@! TO.N,/D9*
X111633000Y-48260000D03*
G04 #@! TO.P,J2,19*
G04 #@! TO.N,/D23*
X114173000Y-50800000D03*
G04 #@! TO.P,J2,20*
G04 #@! TO.N,/D10*
X114173000Y-48260000D03*
G04 #@! TO.P,J2,21*
G04 #@! TO.N,/D24*
X116713000Y-50800000D03*
G04 #@! TO.P,J2,22*
G04 #@! TO.N,/D11*
X116713000Y-48260000D03*
G04 #@! TO.P,J2,23*
G04 #@! TO.N,/D25*
X119253000Y-50800000D03*
G04 #@! TO.P,J2,24*
G04 #@! TO.N,/D12*
X119253000Y-48260000D03*
G04 #@! TO.P,J2,25*
G04 #@! TO.N,/D26*
X121793000Y-50800000D03*
G04 #@! TO.P,J2,26*
G04 #@! TO.N,/D13*
X121793000Y-48260000D03*
G04 #@! TO.P,J2,27*
G04 #@! TO.N,unconnected-(J2-Pad27)*
X124333000Y-50800000D03*
G04 #@! TO.P,J2,28*
G04 #@! TO.N,unconnected-(J2-Pad28)*
X124333000Y-48260000D03*
G04 #@! TO.P,J2,29*
G04 #@! TO.N,unconnected-(J2-Pad29)*
X126873000Y-50800000D03*
G04 #@! TO.P,J2,30*
G04 #@! TO.N,unconnected-(J2-Pad30)*
X126873000Y-48260000D03*
G04 #@! TO.P,J2,31*
G04 #@! TO.N,unconnected-(J2-Pad31)*
X129413000Y-50800000D03*
G04 #@! TO.P,J2,32*
G04 #@! TO.N,unconnected-(J2-Pad32)*
X129413000Y-48260000D03*
G04 #@! TD*
D21*
G04 #@! TO.P,R18,1*
G04 #@! TO.N,Net-(C22-Pad2)*
X158751000Y-73660000D03*
G04 #@! TO.P,R18,2*
G04 #@! TO.N,Net-(R18-Pad2)*
X160401000Y-73660000D03*
G04 #@! TD*
D28*
G04 #@! TO.P,J4,1*
G04 #@! TO.N,/Bias-*
X91313000Y-60960000D03*
D29*
G04 #@! TO.P,J4,2*
G04 #@! TO.N,unconnected-(J4-Pad2)*
X91313000Y-58420000D03*
G04 #@! TO.P,J4,3*
G04 #@! TO.N,/Bias-*
X93853000Y-60960000D03*
G04 #@! TO.P,J4,4*
G04 #@! TO.N,unconnected-(J4-Pad4)*
X93853000Y-58420000D03*
G04 #@! TO.P,J4,5*
G04 #@! TO.N,unconnected-(J4-Pad5)*
X96393000Y-60960000D03*
G04 #@! TO.P,J4,6*
G04 #@! TO.N,unconnected-(J4-Pad6)*
X96393000Y-58420000D03*
G04 #@! TO.P,J4,7*
G04 #@! TO.N,unconnected-(J4-Pad7)*
X98933000Y-60960000D03*
G04 #@! TO.P,J4,8*
G04 #@! TO.N,unconnected-(J4-Pad8)*
X98933000Y-58420000D03*
G04 #@! TO.P,J4,9*
G04 #@! TO.N,unconnected-(J4-Pad9)*
X101473000Y-60960000D03*
G04 #@! TO.P,J4,10*
G04 #@! TO.N,unconnected-(J4-Pad10)*
X101473000Y-58420000D03*
G04 #@! TO.P,J4,11*
G04 #@! TO.N,unconnected-(J4-Pad11)*
X104013000Y-60960000D03*
G04 #@! TO.P,J4,12*
G04 #@! TO.N,GNDA*
X104013000Y-58420000D03*
G04 #@! TO.P,J4,13*
G04 #@! TO.N,/VDDchip*
X106553000Y-60960000D03*
G04 #@! TO.P,J4,14*
G04 #@! TO.N,/ChipBias1*
X106553000Y-58420000D03*
G04 #@! TO.P,J4,15*
G04 #@! TO.N,/VDDchip*
X109093000Y-60960000D03*
G04 #@! TO.P,J4,16*
G04 #@! TO.N,GNDA*
X109093000Y-58420000D03*
G04 #@! TO.P,J4,17*
G04 #@! TO.N,/VDDchip*
X111633000Y-60960000D03*
G04 #@! TO.P,J4,18*
G04 #@! TO.N,/ChipBias2*
X111633000Y-58420000D03*
G04 #@! TO.P,J4,19*
G04 #@! TO.N,/VDDchip*
X114173000Y-60960000D03*
G04 #@! TO.P,J4,20*
X114173000Y-58420000D03*
G04 #@! TO.P,J4,21*
G04 #@! TO.N,/ChipOut*
X116713000Y-60960000D03*
G04 #@! TO.P,J4,22*
X116713000Y-58420000D03*
G04 #@! TO.P,J4,23*
G04 #@! TO.N,unconnected-(J4-Pad23)*
X119253000Y-60960000D03*
G04 #@! TO.P,J4,24*
G04 #@! TO.N,GNDA*
X119253000Y-58420000D03*
G04 #@! TO.P,J4,25*
G04 #@! TO.N,unconnected-(J4-Pad25)*
X121793000Y-60960000D03*
G04 #@! TO.P,J4,26*
G04 #@! TO.N,/Vreflect*
X121793000Y-58420000D03*
G04 #@! TO.P,J4,27*
G04 #@! TO.N,unconnected-(J4-Pad27)*
X124333000Y-60960000D03*
G04 #@! TO.P,J4,28*
G04 #@! TO.N,unconnected-(J4-Pad28)*
X124333000Y-58420000D03*
G04 #@! TO.P,J4,29*
G04 #@! TO.N,/Bias+*
X126873000Y-60960000D03*
G04 #@! TO.P,J4,30*
G04 #@! TO.N,unconnected-(J4-Pad30)*
X126873000Y-58420000D03*
G04 #@! TO.P,J4,31*
G04 #@! TO.N,/Bias+*
X129413000Y-60960000D03*
G04 #@! TO.P,J4,32*
G04 #@! TO.N,unconnected-(J4-Pad32)*
X129413000Y-58420000D03*
G04 #@! TD*
D35*
G04 #@! TO.P,U9,1,IN*
G04 #@! TO.N,Net-(C32-Pad1)*
X142139000Y-118736000D03*
G04 #@! TO.P,U9,2,IN*
X142789000Y-118736000D03*
G04 #@! TO.P,U9,3,EN/UV*
X143439000Y-118736000D03*
G04 #@! TO.P,U9,4,PG*
G04 #@! TO.N,unconnected-(U9-Pad4)*
X144089000Y-118736000D03*
G04 #@! TO.P,U9,5,PGFB*
G04 #@! TO.N,Net-(C32-Pad1)*
X144739000Y-118736000D03*
G04 #@! TO.P,U9,6,ILIM*
G04 #@! TO.N,GNDA*
X145389000Y-118736000D03*
G04 #@! TO.P,U9,7,VIOC*
G04 #@! TO.N,unconnected-(U9-Pad7)*
X145389000Y-114436000D03*
G04 #@! TO.P,U9,8,SET*
G04 #@! TO.N,Net-(C37-Pad1)*
X144739000Y-114436000D03*
G04 #@! TO.P,U9,9,GND*
G04 #@! TO.N,GNDA*
X144089000Y-114436000D03*
G04 #@! TO.P,U9,10,OUTS*
G04 #@! TO.N,VSSA*
X143439000Y-114436000D03*
G04 #@! TO.P,U9,11,OUT*
X142789000Y-114436000D03*
G04 #@! TO.P,U9,12,OUT*
X142139000Y-114436000D03*
D36*
G04 #@! TO.P,U9,13,IN*
G04 #@! TO.N,Net-(C32-Pad1)*
X143764000Y-116586000D03*
G04 #@! TD*
D24*
G04 #@! TO.P,Q2,1,G*
G04 #@! TO.N,GNDA*
X103172500Y-125600500D03*
G04 #@! TO.P,Q2,2,S*
G04 #@! TO.N,Net-(C8-Pad1)*
X103172500Y-123700500D03*
G04 #@! TO.P,Q2,3,D*
G04 #@! TO.N,/V-5*
X101297500Y-124650500D03*
G04 #@! TD*
D25*
G04 #@! TO.P,C18,1*
G04 #@! TO.N,Net-(C18-Pad1)*
X129146000Y-122047000D03*
G04 #@! TO.P,C18,2*
G04 #@! TO.N,GNDA*
X130696000Y-122047000D03*
G04 #@! TD*
D34*
G04 #@! TO.P,R2,1*
G04 #@! TO.N,Net-(R1-Pad1)*
X114832000Y-73914000D03*
G04 #@! TO.P,R2,2*
G04 #@! TO.N,Net-(K1-Pad9)*
X120757000Y-73914000D03*
G04 #@! TD*
D37*
G04 #@! TO.P,R23,1*
G04 #@! TO.N,Net-(R23-Pad1)*
X145733000Y-78041000D03*
G04 #@! TO.P,R23,2*
G04 #@! TO.N,Net-(R21-Pad1)*
X145733000Y-76391000D03*
G04 #@! TD*
D25*
G04 #@! TO.P,C2,1*
G04 #@! TO.N,Net-(C2-Pad1)*
X91300000Y-122110500D03*
G04 #@! TO.P,C2,2*
G04 #@! TO.N,GNDA*
X92850000Y-122110500D03*
G04 #@! TD*
G04 #@! TO.P,C8,1*
G04 #@! TO.N,Net-(C8-Pad1)*
X101714000Y-122110500D03*
G04 #@! TO.P,C8,2*
G04 #@! TO.N,GNDA*
X103264000Y-122110500D03*
G04 #@! TD*
D19*
G04 #@! TO.P,R20,1*
G04 #@! TO.N,GNDA*
X132397000Y-111125000D03*
G04 #@! TO.P,R20,2*
G04 #@! TO.N,Net-(R20-Pad2)*
X130747000Y-111125000D03*
G04 #@! TD*
D15*
G04 #@! TO.P,C21,1*
G04 #@! TO.N,VDDA*
X127902000Y-111125000D03*
G04 #@! TO.P,C21,2*
G04 #@! TO.N,GNDA*
X126352000Y-111125000D03*
G04 #@! TD*
D27*
G04 #@! TO.P,U6,1*
G04 #@! TO.N,N/C*
X145671000Y-71120000D03*
G04 #@! TO.P,U6,2,-*
G04 #@! TO.N,Net-(R21-Pad1)*
X145671000Y-72390000D03*
G04 #@! TO.P,U6,3,+*
G04 #@! TO.N,Net-(J8-Pad2)*
X145671000Y-73660000D03*
G04 #@! TO.P,U6,4*
G04 #@! TO.N,N/C*
X145671000Y-74930000D03*
G04 #@! TO.P,U6,5,V-*
G04 #@! TO.N,VSSA*
X150621000Y-74930000D03*
G04 #@! TO.P,U6,6,OUT*
G04 #@! TO.N,Net-(C22-Pad1)*
X150621000Y-73660000D03*
G04 #@! TO.P,U6,7,V+*
G04 #@! TO.N,VDDA*
X150621000Y-72390000D03*
G04 #@! TO.P,U6,8,~{SHDN}*
G04 #@! TO.N,unconnected-(U6-Pad8)*
X150621000Y-71120000D03*
G04 #@! TD*
D25*
G04 #@! TO.P,C6,1*
G04 #@! TO.N,Net-(C6-Pad1)*
X92697000Y-112712500D03*
G04 #@! TO.P,C6,2*
G04 #@! TO.N,GNDA*
X94247000Y-112712500D03*
G04 #@! TD*
D30*
G04 #@! TO.P,RV1,1,1*
G04 #@! TO.N,Net-(R9-Pad1)*
X142240000Y-49530000D03*
G04 #@! TO.P,RV1,2,2*
G04 #@! TO.N,/ChipBias1*
X139700000Y-49530000D03*
G04 #@! TO.P,RV1,3,3*
G04 #@! TO.N,unconnected-(RV1-Pad3)*
X137160000Y-49530000D03*
G04 #@! TD*
D25*
G04 #@! TO.P,C17,1*
G04 #@! TO.N,Net-(C17-Pad1)*
X118732000Y-112649000D03*
G04 #@! TO.P,C17,2*
G04 #@! TO.N,GNDA*
X120282000Y-112649000D03*
G04 #@! TD*
D30*
G04 #@! TO.P,RV7,1,1*
G04 #@! TO.N,GNDA*
X158750000Y-107569000D03*
G04 #@! TO.P,RV7,2,2*
G04 #@! TO.N,/VbiasN*
X156210000Y-107569000D03*
G04 #@! TO.P,RV7,3,3*
G04 #@! TO.N,Net-(C24-Pad1)*
X153670000Y-107569000D03*
G04 #@! TD*
D31*
G04 #@! TO.P,U5,1,IN*
G04 #@! TO.N,Net-(C18-Pad1)*
X128667000Y-118736000D03*
G04 #@! TO.P,U5,2,IN*
X129167000Y-118736000D03*
G04 #@! TO.P,U5,3,EN/UV*
X129667000Y-118736000D03*
G04 #@! TO.P,U5,4,PG*
G04 #@! TO.N,unconnected-(U5-Pad4)*
X130167000Y-118736000D03*
G04 #@! TO.P,U5,5,ILIM*
G04 #@! TO.N,GNDA*
X130667000Y-118736000D03*
G04 #@! TO.P,U5,6,PGFB*
G04 #@! TO.N,Net-(C18-Pad1)*
X130667000Y-114436000D03*
G04 #@! TO.P,U5,7,SET*
G04 #@! TO.N,Net-(C23-Pad1)*
X130167000Y-114436000D03*
G04 #@! TO.P,U5,8,GND*
G04 #@! TO.N,GNDA*
X129667000Y-114436000D03*
G04 #@! TO.P,U5,9,OUTS*
G04 #@! TO.N,VDDA*
X129167000Y-114436000D03*
G04 #@! TO.P,U5,10,OUT*
X128667000Y-114436000D03*
D32*
G04 #@! TO.P,U5,11,GND*
G04 #@! TO.N,GNDA*
X129667000Y-116586000D03*
G04 #@! TD*
D21*
G04 #@! TO.P,R29,1*
G04 #@! TO.N,Net-(R29-Pad1)*
X145098000Y-111125000D03*
G04 #@! TO.P,R29,2*
G04 #@! TO.N,GNDA*
X146748000Y-111125000D03*
G04 #@! TD*
D38*
G04 #@! TO.P,K1,1*
G04 #@! TO.N,Net-(K1-Pad1)*
X99860000Y-85915500D03*
G04 #@! TO.P,K1,3*
G04 #@! TO.N,/Vbias-*
X99860000Y-90995500D03*
G04 #@! TO.P,K1,4*
G04 #@! TO.N,Net-(K1-Pad4)*
X99860000Y-93535500D03*
G04 #@! TO.P,K1,5*
G04 #@! TO.N,/Vbias+*
X99860000Y-96075500D03*
G04 #@! TO.P,K1,6*
G04 #@! TO.N,Net-(K1-Pad6)*
X99860000Y-98615500D03*
G04 #@! TO.P,K1,7*
G04 #@! TO.N,GNDA*
X107150000Y-98615500D03*
G04 #@! TO.P,K1,8*
G04 #@! TO.N,/Vbias-*
X107150000Y-96075500D03*
G04 #@! TO.P,K1,9*
G04 #@! TO.N,Net-(K1-Pad9)*
X107150000Y-93535500D03*
G04 #@! TO.P,K1,10*
G04 #@! TO.N,/Vbias+*
X107150000Y-90995500D03*
G04 #@! TO.P,K1,12*
G04 #@! TO.N,GNDA*
X107150000Y-85915500D03*
G04 #@! TD*
D21*
G04 #@! TO.P,R15,1*
G04 #@! TO.N,Net-(R15-Pad1)*
X103950000Y-111188500D03*
G04 #@! TO.P,R15,2*
G04 #@! TO.N,GNDA*
X105600000Y-111188500D03*
G04 #@! TD*
D26*
G04 #@! TO.P,R5,1*
G04 #@! TO.N,Net-(R5-Pad1)*
X93787500Y-77025500D03*
G04 #@! TO.P,R5,2*
G04 #@! TO.N,/Bias-*
X96712500Y-77025500D03*
G04 #@! TD*
D21*
G04 #@! TO.P,R13,1*
G04 #@! TO.N,Net-(R13-Pad1)*
X160846000Y-57658000D03*
G04 #@! TO.P,R13,2*
G04 #@! TO.N,Net-(R12-Pad2)*
X162496000Y-57658000D03*
G04 #@! TD*
D25*
G04 #@! TO.P,C22,1*
G04 #@! TO.N,Net-(C22-Pad1)*
X152578000Y-73660000D03*
G04 #@! TO.P,C22,2*
G04 #@! TO.N,Net-(C22-Pad2)*
X154128000Y-73660000D03*
G04 #@! TD*
D30*
G04 #@! TO.P,RV9,1,1*
G04 #@! TO.N,Net-(C37-Pad1)*
X145669000Y-107569000D03*
G04 #@! TO.P,RV9,2,2*
G04 #@! TO.N,Net-(R29-Pad1)*
X143129000Y-107569000D03*
G04 #@! TO.P,RV9,3,3*
G04 #@! TO.N,unconnected-(RV9-Pad3)*
X140589000Y-107569000D03*
G04 #@! TD*
D25*
G04 #@! TO.P,C23,1*
G04 #@! TO.N,Net-(C23-Pad1)*
X130797000Y-112649000D03*
G04 #@! TO.P,C23,2*
G04 #@! TO.N,GNDA*
X132347000Y-112649000D03*
G04 #@! TD*
D16*
G04 #@! TO.P,J5,1,In*
G04 #@! TO.N,Net-(J5-Pad1)*
X171450000Y-54610000D03*
D17*
G04 #@! TO.P,J5,2,Ext*
G04 #@! TO.N,GNDA*
X168910000Y-52070000D03*
X168910000Y-57150000D03*
X173990000Y-57150000D03*
X173990000Y-52070000D03*
G04 #@! TD*
D15*
G04 #@! TO.P,C11,1*
G04 #@! TO.N,/Vbias-*
X101359000Y-111188500D03*
G04 #@! TO.P,C11,2*
G04 #@! TO.N,GNDA*
X99809000Y-111188500D03*
G04 #@! TD*
D21*
G04 #@! TO.P,R25,1*
G04 #@! TO.N,Net-(R25-Pad1)*
X164720000Y-119380000D03*
G04 #@! TO.P,R25,2*
G04 #@! TO.N,Net-(J11-Pad1)*
X166370000Y-119380000D03*
G04 #@! TD*
D15*
G04 #@! TO.P,C4,1*
G04 #@! TO.N,/Vbias+*
X90564000Y-112712500D03*
G04 #@! TO.P,C4,2*
G04 #@! TO.N,GNDA*
X89014000Y-112712500D03*
G04 #@! TD*
G04 #@! TO.P,C24,1*
G04 #@! TO.N,Net-(C24-Pad1)*
X157874000Y-114808000D03*
G04 #@! TO.P,C24,2*
G04 #@! TO.N,GNDA*
X156324000Y-114808000D03*
G04 #@! TD*
D35*
G04 #@! TO.P,U3,1,IN*
G04 #@! TO.N,Net-(C8-Pad1)*
X101245000Y-118799500D03*
G04 #@! TO.P,U3,2,IN*
X101895000Y-118799500D03*
G04 #@! TO.P,U3,3,EN/UV*
X102545000Y-118799500D03*
G04 #@! TO.P,U3,4,PG*
G04 #@! TO.N,unconnected-(U3-Pad4)*
X103195000Y-118799500D03*
G04 #@! TO.P,U3,5,PGFB*
G04 #@! TO.N,Net-(C8-Pad1)*
X103845000Y-118799500D03*
G04 #@! TO.P,U3,6,ILIM*
G04 #@! TO.N,GNDA*
X104495000Y-118799500D03*
G04 #@! TO.P,U3,7,VIOC*
G04 #@! TO.N,unconnected-(U3-Pad7)*
X104495000Y-114499500D03*
G04 #@! TO.P,U3,8,SET*
G04 #@! TO.N,Net-(C12-Pad1)*
X103845000Y-114499500D03*
G04 #@! TO.P,U3,9,GND*
G04 #@! TO.N,GNDA*
X103195000Y-114499500D03*
G04 #@! TO.P,U3,10,OUTS*
G04 #@! TO.N,/Vbias-*
X102545000Y-114499500D03*
G04 #@! TO.P,U3,11,OUT*
X101895000Y-114499500D03*
G04 #@! TO.P,U3,12,OUT*
X101245000Y-114499500D03*
D36*
G04 #@! TO.P,U3,13,IN*
G04 #@! TO.N,Net-(C8-Pad1)*
X102870000Y-116649500D03*
G04 #@! TD*
D15*
G04 #@! TO.P,C16,1*
G04 #@! TO.N,/VDDchip*
X116218000Y-111125000D03*
G04 #@! TO.P,C16,2*
G04 #@! TO.N,GNDA*
X114668000Y-111125000D03*
G04 #@! TD*
D30*
G04 #@! TO.P,RV6,1,1*
G04 #@! TO.N,Net-(R20-Pad2)*
X132588000Y-107569000D03*
G04 #@! TO.P,RV6,2,2*
G04 #@! TO.N,Net-(C23-Pad1)*
X130048000Y-107569000D03*
G04 #@! TO.P,RV6,3,3*
G04 #@! TO.N,unconnected-(RV6-Pad3)*
X127508000Y-107569000D03*
G04 #@! TD*
D26*
G04 #@! TO.P,R3,1*
G04 #@! TO.N,Net-(R3-Pad1)*
X110236000Y-77025500D03*
G04 #@! TO.P,R3,2*
G04 #@! TO.N,Net-(R1-Pad1)*
X113161000Y-77025500D03*
G04 #@! TD*
D37*
G04 #@! TO.P,R10,1*
G04 #@! TO.N,Net-(R10-Pad1)*
X133350000Y-58102000D03*
G04 #@! TO.P,R10,2*
G04 #@! TO.N,/VDDchip*
X133350000Y-56452000D03*
G04 #@! TD*
D25*
G04 #@! TO.P,C3,1*
G04 #@! TO.N,Net-(C2-Pad1)*
X91300000Y-120586500D03*
G04 #@! TO.P,C3,2*
G04 #@! TO.N,GNDA*
X92850000Y-120586500D03*
G04 #@! TD*
D21*
G04 #@! TO.P,R14,1*
G04 #@! TO.N,GNDA*
X157798000Y-57658000D03*
G04 #@! TO.P,R14,2*
G04 #@! TO.N,Net-(R13-Pad1)*
X159448000Y-57658000D03*
G04 #@! TD*
D15*
G04 #@! TO.P,C10,1*
G04 #@! TO.N,/Vbias-*
X101359000Y-112712500D03*
G04 #@! TO.P,C10,2*
G04 #@! TO.N,GNDA*
X99809000Y-112712500D03*
G04 #@! TD*
D21*
G04 #@! TO.P,R28,1*
G04 #@! TO.N,Net-(C36-Pad2)*
X158751000Y-82042000D03*
G04 #@! TO.P,R28,2*
G04 #@! TO.N,Net-(R27-Pad1)*
X160401000Y-82042000D03*
G04 #@! TD*
D39*
G04 #@! TO.P,U8,1,VCC*
G04 #@! TO.N,Net-(C24-Pad1)*
X160447500Y-113325000D03*
G04 #@! TO.P,U8,2,+*
G04 #@! TO.N,/Vreflect*
X160447500Y-113975000D03*
G04 #@! TO.P,U8,3,-*
G04 #@! TO.N,/VbiasN*
X160447500Y-114625000D03*
G04 #@! TO.P,U8,4,~{SHDN}*
G04 #@! TO.N,unconnected-(U8-Pad4)*
X160447500Y-115275000D03*
G04 #@! TO.P,U8,5,~{LE}*
G04 #@! TO.N,Net-(RV8-Pad1)*
X164672500Y-115275000D03*
G04 #@! TO.P,U8,6,VEE*
G04 #@! TO.N,GNDA*
X164672500Y-114625000D03*
G04 #@! TO.P,U8,7*
G04 #@! TO.N,Net-(R25-Pad1)*
X164672500Y-113975000D03*
G04 #@! TO.P,U8,8,VDD*
G04 #@! TO.N,Net-(C24-Pad1)*
X164672500Y-113325000D03*
G04 #@! TD*
D24*
G04 #@! TO.P,Q3,1,G*
G04 #@! TO.N,GNDA*
X118539500Y-125537000D03*
G04 #@! TO.P,Q3,2,S*
G04 #@! TO.N,Net-(C13-Pad1)*
X118539500Y-123637000D03*
G04 #@! TO.P,Q3,3,D*
G04 #@! TO.N,Net-(J7-Pad1)*
X116664500Y-124587000D03*
G04 #@! TD*
D27*
G04 #@! TO.P,U10,1*
G04 #@! TO.N,N/C*
X145671000Y-79502000D03*
G04 #@! TO.P,U10,2,-*
G04 #@! TO.N,Net-(R23-Pad1)*
X145671000Y-80772000D03*
G04 #@! TO.P,U10,3,+*
G04 #@! TO.N,Net-(J12-Pad1)*
X145671000Y-82042000D03*
G04 #@! TO.P,U10,4*
G04 #@! TO.N,N/C*
X145671000Y-83312000D03*
G04 #@! TO.P,U10,5,V-*
G04 #@! TO.N,VSSA*
X150621000Y-83312000D03*
G04 #@! TO.P,U10,6,OUT*
G04 #@! TO.N,Net-(C36-Pad1)*
X150621000Y-82042000D03*
G04 #@! TO.P,U10,7,V+*
G04 #@! TO.N,VDDA*
X150621000Y-80772000D03*
G04 #@! TO.P,U10,8,~{SHDN}*
G04 #@! TO.N,unconnected-(U10-Pad8)*
X150621000Y-79502000D03*
G04 #@! TD*
D25*
G04 #@! TO.P,C26,1*
G04 #@! TO.N,VDDA*
X152578000Y-72136000D03*
G04 #@! TO.P,C26,2*
G04 #@! TO.N,GNDA*
X154128000Y-72136000D03*
G04 #@! TD*
D40*
G04 #@! TO.P,J1,1,1*
G04 #@! TO.N,/D1*
X91330000Y-40132000D03*
G04 #@! TO.P,J1,2,2*
G04 #@! TO.N,/D2*
X94100000Y-40132000D03*
G04 #@! TO.P,J1,3,3*
G04 #@! TO.N,/D3*
X96870000Y-40132000D03*
G04 #@! TO.P,J1,4,4*
G04 #@! TO.N,/D4*
X99640000Y-40132000D03*
G04 #@! TO.P,J1,5,5*
G04 #@! TO.N,/D5*
X102410000Y-40132000D03*
G04 #@! TO.P,J1,6,6*
G04 #@! TO.N,/D6*
X105180000Y-40132000D03*
G04 #@! TO.P,J1,7,7*
G04 #@! TO.N,/D7*
X107950000Y-40132000D03*
G04 #@! TO.P,J1,8,8*
G04 #@! TO.N,/D8*
X110720000Y-40132000D03*
G04 #@! TO.P,J1,9,9*
G04 #@! TO.N,/D9*
X113490000Y-40132000D03*
G04 #@! TO.P,J1,10,10*
G04 #@! TO.N,/D10*
X116260000Y-40132000D03*
G04 #@! TO.P,J1,11,11*
G04 #@! TO.N,/D11*
X119030000Y-40132000D03*
G04 #@! TO.P,J1,12,12*
G04 #@! TO.N,/D12*
X121800000Y-40132000D03*
G04 #@! TO.P,J1,13,13*
G04 #@! TO.N,/D13*
X124570000Y-40132000D03*
G04 #@! TD*
D21*
G04 #@! TO.P,R27,1*
G04 #@! TO.N,Net-(R27-Pad1)*
X161799000Y-82042000D03*
G04 #@! TO.P,R27,2*
G04 #@! TO.N,GNDA*
X163449000Y-82042000D03*
G04 #@! TD*
D30*
G04 #@! TO.P,RV8,1,1*
G04 #@! TO.N,Net-(RV8-Pad1)*
X171831000Y-107569000D03*
G04 #@! TO.P,RV8,2,2*
X169291000Y-107569000D03*
G04 #@! TO.P,RV8,3,3*
G04 #@! TO.N,GNDA*
X166751000Y-107569000D03*
G04 #@! TD*
D25*
G04 #@! TO.P,C9,1*
G04 #@! TO.N,Net-(C8-Pad1)*
X101714000Y-120586500D03*
G04 #@! TO.P,C9,2*
G04 #@! TO.N,GNDA*
X103264000Y-120586500D03*
G04 #@! TD*
D22*
G04 #@! TO.P,SW1,1,1*
G04 #@! TO.N,/V+5*
X85560000Y-93825500D03*
X93510000Y-93825500D03*
G04 #@! TO.P,SW1,2,2*
G04 #@! TO.N,Net-(K1-Pad6)*
X93510000Y-98325500D03*
X85560000Y-98325500D03*
G04 #@! TD*
D25*
G04 #@! TO.P,C1,1*
G04 #@! TO.N,VDDA*
X164706000Y-53086000D03*
G04 #@! TO.P,C1,2*
G04 #@! TO.N,GNDA*
X166256000Y-53086000D03*
G04 #@! TD*
G04 #@! TO.P,C12,1*
G04 #@! TO.N,Net-(C12-Pad1)*
X104000000Y-112712500D03*
G04 #@! TO.P,C12,2*
G04 #@! TO.N,GNDA*
X105550000Y-112712500D03*
G04 #@! TD*
G04 #@! TO.P,C36,1*
G04 #@! TO.N,Net-(C36-Pad1)*
X152578000Y-82042000D03*
G04 #@! TO.P,C36,2*
G04 #@! TO.N,Net-(C36-Pad2)*
X154128000Y-82042000D03*
G04 #@! TD*
D23*
G04 #@! TO.P,J6,1,Pin_1*
G04 #@! TO.N,GNDA*
X100965000Y-129971800D03*
G04 #@! TO.P,J6,2,Pin_2*
G04 #@! TO.N,/V-5*
X104775000Y-129971800D03*
G04 #@! TD*
D30*
G04 #@! TO.P,RV2,1,1*
G04 #@! TO.N,Net-(R10-Pad1)*
X142240000Y-59690000D03*
G04 #@! TO.P,RV2,2,2*
G04 #@! TO.N,/ChipBias2*
X139700000Y-59690000D03*
G04 #@! TO.P,RV2,3,3*
G04 #@! TO.N,unconnected-(RV2-Pad3)*
X137160000Y-59690000D03*
G04 #@! TD*
D21*
G04 #@! TO.P,R19,1*
G04 #@! TO.N,Net-(R18-Pad2)*
X161799000Y-73660000D03*
G04 #@! TO.P,R19,2*
G04 #@! TO.N,Net-(R19-Pad2)*
X163449000Y-73660000D03*
G04 #@! TD*
D31*
G04 #@! TO.P,U1,1,IN*
G04 #@! TO.N,Net-(C2-Pad1)*
X90821000Y-118799500D03*
G04 #@! TO.P,U1,2,IN*
X91321000Y-118799500D03*
G04 #@! TO.P,U1,3,EN/UV*
X91821000Y-118799500D03*
G04 #@! TO.P,U1,4,PG*
G04 #@! TO.N,unconnected-(U1-Pad4)*
X92321000Y-118799500D03*
G04 #@! TO.P,U1,5,ILIM*
G04 #@! TO.N,GNDA*
X92821000Y-118799500D03*
G04 #@! TO.P,U1,6,PGFB*
G04 #@! TO.N,Net-(C2-Pad1)*
X92821000Y-114499500D03*
G04 #@! TO.P,U1,7,SET*
G04 #@! TO.N,Net-(C6-Pad1)*
X92321000Y-114499500D03*
G04 #@! TO.P,U1,8,GND*
G04 #@! TO.N,GNDA*
X91821000Y-114499500D03*
G04 #@! TO.P,U1,9,OUTS*
G04 #@! TO.N,/Vbias+*
X91321000Y-114499500D03*
G04 #@! TO.P,U1,10,OUT*
X90821000Y-114499500D03*
D32*
G04 #@! TO.P,U1,11,GND*
G04 #@! TO.N,GNDA*
X91821000Y-116649500D03*
G04 #@! TD*
D24*
G04 #@! TO.P,Q1,1,G*
G04 #@! TO.N,GNDA*
X92504500Y-125600500D03*
G04 #@! TO.P,Q1,2,S*
G04 #@! TO.N,Net-(C2-Pad1)*
X92504500Y-123700500D03*
G04 #@! TO.P,Q1,3,D*
G04 #@! TO.N,/V+5*
X90629500Y-124650500D03*
G04 #@! TD*
D25*
G04 #@! TO.P,C19,1*
G04 #@! TO.N,Net-(C18-Pad1)*
X129146000Y-120523000D03*
G04 #@! TO.P,C19,2*
G04 #@! TO.N,GNDA*
X130696000Y-120523000D03*
G04 #@! TD*
D19*
G04 #@! TO.P,R26,1*
G04 #@! TO.N,Net-(C36-Pad1)*
X148971008Y-77965300D03*
G04 #@! TO.P,R26,2*
G04 #@! TO.N,Net-(R23-Pad1)*
X147321008Y-77965300D03*
G04 #@! TD*
D26*
G04 #@! TO.P,R1,1*
G04 #@! TO.N,Net-(R1-Pad1)*
X114823000Y-77025500D03*
G04 #@! TO.P,R1,2*
G04 #@! TO.N,Net-(K1-Pad9)*
X117748000Y-77025500D03*
G04 #@! TD*
D28*
G04 #@! TO.P,J9,1,Pin_1*
G04 #@! TO.N,VDDA*
X152395000Y-118110000D03*
D29*
G04 #@! TO.P,J9,2,Pin_2*
G04 #@! TO.N,Net-(C24-Pad1)*
X154935000Y-118110000D03*
G04 #@! TD*
D25*
G04 #@! TO.P,C14,1*
G04 #@! TO.N,Net-(C13-Pad1)*
X117335000Y-120523000D03*
G04 #@! TO.P,C14,2*
G04 #@! TO.N,GNDA*
X118885000Y-120523000D03*
G04 #@! TD*
D21*
G04 #@! TO.P,R21,1*
G04 #@! TO.N,Net-(R21-Pad1)*
X147321008Y-76466700D03*
G04 #@! TO.P,R21,2*
G04 #@! TO.N,Net-(C22-Pad1)*
X148971008Y-76466700D03*
G04 #@! TD*
D15*
G04 #@! TO.P,C34,1*
G04 #@! TO.N,VSSA*
X141999000Y-112649000D03*
G04 #@! TO.P,C34,2*
G04 #@! TO.N,GNDA*
X140449000Y-112649000D03*
G04 #@! TD*
D25*
G04 #@! TO.P,C27,1*
G04 #@! TO.N,VDDA*
X152578000Y-80518000D03*
G04 #@! TO.P,C27,2*
G04 #@! TO.N,GNDA*
X154128000Y-80518000D03*
G04 #@! TD*
D33*
G04 #@! TO.P,R24,1*
G04 #@! TO.N,Net-(J12-Pad1)*
X141478000Y-81853500D03*
G04 #@! TO.P,R24,2*
G04 #@! TO.N,GNDA*
X141478000Y-78928500D03*
G04 #@! TD*
D25*
G04 #@! TO.P,C13,1*
G04 #@! TO.N,Net-(C13-Pad1)*
X117335000Y-122047000D03*
G04 #@! TO.P,C13,2*
G04 #@! TO.N,GNDA*
X118885000Y-122047000D03*
G04 #@! TD*
D41*
G04 #@! TO.N,GNDA*
X129032000Y-117094000D03*
X130302000Y-117094000D03*
X130302000Y-116078000D03*
X129032000Y-116078000D03*
X117221000Y-117094000D03*
X118491000Y-117094000D03*
X118491000Y-116078000D03*
X117221000Y-116078000D03*
X92329000Y-117094000D03*
X91313000Y-117094000D03*
X92329000Y-116205000D03*
X91313000Y-116205000D03*
G04 #@! TO.N,/Vreflect*
X163322000Y-111633000D03*
X159131000Y-114300000D03*
X131699000Y-68707000D03*
G04 #@! TO.N,GNDA*
X121285000Y-112268000D03*
X154128000Y-79933000D03*
X105029000Y-119507000D03*
X93980000Y-122428000D03*
X104584500Y-125285500D03*
X120142000Y-121158000D03*
X155067000Y-57658000D03*
X105029000Y-122047000D03*
X95377000Y-111125000D03*
X132080000Y-121158000D03*
X98552000Y-112903000D03*
X97028000Y-111125000D03*
X109537500Y-98615500D03*
X111379000Y-98552000D03*
X105029000Y-124587000D03*
X93599000Y-116713000D03*
X132080000Y-122174000D03*
X132080000Y-123698000D03*
X125476000Y-111379000D03*
X147701000Y-111379000D03*
X165925500Y-81597500D03*
X113792000Y-111252000D03*
X164592000Y-82042000D03*
X144145000Y-112776000D03*
X93980000Y-125603000D03*
X154128000Y-77139000D03*
X155702000Y-83566000D03*
X154128000Y-76250000D03*
X97028000Y-120396000D03*
X147637500Y-112458500D03*
X106299000Y-112395000D03*
X121285000Y-111379000D03*
X145923000Y-122047000D03*
X156464000Y-83566000D03*
X103049588Y-113037715D03*
X95377000Y-112014000D03*
X91818095Y-113285435D03*
X98552000Y-112014000D03*
X154813000Y-83566000D03*
X156337000Y-57658000D03*
X125412500Y-112458500D03*
X145923000Y-119507000D03*
X145923000Y-124460000D03*
X97028000Y-114300000D03*
X110426500Y-98615500D03*
X97028000Y-129794000D03*
X145923000Y-118618000D03*
X145923000Y-123317000D03*
X93599000Y-117348000D03*
X166370000Y-80010000D03*
X133350000Y-111379000D03*
X93980000Y-121412000D03*
X145923000Y-120523000D03*
X113919000Y-112395000D03*
X98552000Y-111125000D03*
X110426500Y-85915500D03*
X94615000Y-117348000D03*
X154940000Y-72136000D03*
X154128000Y-79044000D03*
X93980000Y-120396000D03*
X120142000Y-124841000D03*
X93599000Y-116078000D03*
X117729000Y-112776000D03*
X156464000Y-72136000D03*
X111315500Y-85915500D03*
X139446000Y-112395000D03*
X94615000Y-116078000D03*
X155702000Y-72136000D03*
X97028000Y-117348000D03*
X88265000Y-111506000D03*
X129667000Y-112649000D03*
X120142000Y-122301000D03*
X141478000Y-77978000D03*
X97028000Y-126619000D03*
X95377000Y-112903000D03*
X167322500Y-77787500D03*
X105029000Y-118618000D03*
X145542000Y-125349000D03*
X109537500Y-85915500D03*
X120142000Y-123571000D03*
X153911000Y-56782000D03*
X105029000Y-120650000D03*
X154128000Y-78155000D03*
X105029000Y-123317000D03*
X106299000Y-111379000D03*
X133286500Y-112458500D03*
X97028000Y-123317000D03*
X132080000Y-124841000D03*
X97028000Y-133223000D03*
X139509500Y-111315500D03*
X88265000Y-112395000D03*
X97028000Y-136525000D03*
G04 #@! TO.N,VDDA*
X133477000Y-114300000D03*
X157734000Y-79629000D03*
X128860280Y-113493280D03*
X128270000Y-112903000D03*
X132080000Y-114300000D03*
X163830000Y-53086000D03*
X135001000Y-114300000D03*
X151892000Y-80518000D03*
X139573000Y-114300000D03*
X127902000Y-111874000D03*
X138176000Y-114300000D03*
X151765000Y-72136000D03*
X136652000Y-114300000D03*
G04 #@! TO.N,VSSA*
X141999000Y-110477000D03*
X151828500Y-83502500D03*
X141999000Y-113144000D03*
X141999000Y-111887000D03*
X138430000Y-109601000D03*
X141478000Y-109728000D03*
X140462000Y-109601000D03*
X139446000Y-109601000D03*
X165608000Y-77216000D03*
X156210000Y-55880000D03*
X151892000Y-74930000D03*
G04 #@! TO.N,Net-(K1-Pad4)*
X81619500Y-78781500D03*
X95377000Y-93472000D03*
X81619500Y-78019500D03*
X97917000Y-93472000D03*
X81619500Y-76495500D03*
X96139000Y-93472000D03*
X97028000Y-93472000D03*
X81619500Y-77216000D03*
D42*
G04 #@! TO.N,/Bias-*
X117475000Y-87122000D03*
D41*
G04 #@! TO.N,/Vbias-*
X95758000Y-90932000D03*
X110363000Y-96139000D03*
X97663000Y-90932000D03*
X96647000Y-90932000D03*
X111379000Y-96139000D03*
X109474000Y-96139000D03*
G04 #@! TO.N,/VDDchip*
X111633000Y-105156000D03*
X133350000Y-55626000D03*
X111633000Y-106426000D03*
X111633000Y-103759000D03*
X111633000Y-107569000D03*
G04 #@! TO.N,/ChipOut*
X151130000Y-54610000D03*
G04 #@! TO.N,Net-(RV8-Pad1)*
X166243000Y-115570000D03*
G04 #@! TD*
D43*
G04 #@! TO.N,GNDA*
X130302000Y-117094000D02*
X130556000Y-117348000D01*
X118491000Y-117094000D02*
X118745000Y-117348000D01*
G04 #@! TO.N,Net-(C2-Pad1)*
X90424000Y-117602000D02*
X90821000Y-117999000D01*
D44*
X91300000Y-120586500D02*
X91300000Y-118820500D01*
D43*
X92619211Y-115533789D02*
X90605289Y-115533789D01*
X90605289Y-115533789D02*
X90424000Y-115715078D01*
D44*
X92504500Y-123700500D02*
X92077500Y-123700500D01*
D43*
X90424000Y-115715078D02*
X90424000Y-117602000D01*
D44*
X92077500Y-123700500D02*
X91300000Y-122923000D01*
D43*
X92821000Y-115332000D02*
X92619211Y-115533789D01*
D44*
X91300000Y-122110500D02*
X91300000Y-120586500D01*
X91300000Y-122923000D02*
X91300000Y-122110500D01*
D43*
X90821000Y-117999000D02*
X90821000Y-118799500D01*
D44*
X91300000Y-118820500D02*
X91321000Y-118799500D01*
D43*
X92821000Y-114499500D02*
X92821000Y-115332000D01*
D45*
G04 #@! TO.N,/Vreflect*
X163322000Y-111633000D02*
X163322000Y-104013000D01*
X141605000Y-100965000D02*
X131699000Y-91059000D01*
X159456000Y-113975000D02*
X159131000Y-114300000D01*
X163322000Y-104013000D02*
X160274000Y-100965000D01*
X160447500Y-113975000D02*
X159456000Y-113975000D01*
X160274000Y-100965000D02*
X141605000Y-100965000D01*
X131699000Y-91059000D02*
X131699000Y-68707000D01*
G04 #@! TO.N,/VbiasN*
X160909000Y-106426000D02*
X157353000Y-106426000D01*
X161798000Y-107315000D02*
X160909000Y-106426000D01*
X161798000Y-114147953D02*
X161798000Y-107315000D01*
X161320953Y-114625000D02*
X161798000Y-114147953D01*
X157353000Y-106426000D02*
X156210000Y-107569000D01*
X160447500Y-114625000D02*
X161320953Y-114625000D01*
D43*
G04 #@! TO.N,Net-(C6-Pad1)*
X92398596Y-113525887D02*
X92398596Y-113044983D01*
X92321000Y-113603483D02*
X92398596Y-113525887D01*
X91948000Y-108712000D02*
X90805000Y-107569000D01*
X91948000Y-111963500D02*
X91948000Y-108712000D01*
X92697000Y-112712500D02*
X91948000Y-111963500D01*
X92398596Y-113044983D02*
X92381557Y-113027943D01*
X92321000Y-114499500D02*
X92321000Y-113603483D01*
X92381557Y-113027943D02*
X92697000Y-112712500D01*
D46*
G04 #@! TO.N,Net-(C12-Pad1)*
X106436000Y-107632500D02*
X105352989Y-106549489D01*
X103463704Y-106549489D02*
X102866489Y-107146704D01*
X102866489Y-107146704D02*
X102866489Y-107991296D01*
X103845000Y-112867500D02*
X104000000Y-112712500D01*
X102870000Y-107994807D02*
X102870000Y-111582500D01*
X105352989Y-106549489D02*
X103463704Y-106549489D01*
X102866489Y-107991296D02*
X102870000Y-107994807D01*
X102870000Y-111582500D02*
X104000000Y-112712500D01*
X103845000Y-114499500D02*
X103845000Y-112867500D01*
D45*
G04 #@! TO.N,GNDA*
X166370000Y-80010000D02*
X166370000Y-78766000D01*
D47*
X110426500Y-85915500D02*
X111315500Y-85915500D01*
D44*
X105029000Y-119507000D02*
X105029000Y-118618000D01*
X103264000Y-122110500D02*
X104838500Y-122110500D01*
X132080000Y-125095000D02*
X131638000Y-125537000D01*
X145923000Y-120523000D02*
X145923000Y-119507000D01*
X147637500Y-112458500D02*
X147447000Y-112649000D01*
D48*
X91821000Y-113288340D02*
X91818095Y-113285435D01*
D44*
X131572000Y-120523000D02*
X132080000Y-121031000D01*
X154128000Y-76250000D02*
X154128000Y-77139000D01*
D45*
X166370000Y-81153000D02*
X166370000Y-80010000D01*
D44*
X88265000Y-112522000D02*
X88265000Y-112395000D01*
X104838500Y-120586500D02*
X105029000Y-120777000D01*
D45*
X166370000Y-78740000D02*
X167322500Y-77787500D01*
D44*
X106299000Y-111252000D02*
X106299000Y-111379000D01*
X121285000Y-112395000D02*
X121031000Y-112649000D01*
X155702000Y-83566000D02*
X156464000Y-83566000D01*
X154128000Y-79933000D02*
X154128000Y-80518000D01*
X133096000Y-112649000D02*
X132347000Y-112649000D01*
X106299000Y-111379000D02*
X106299000Y-112395000D01*
D43*
X105283000Y-104013000D02*
X109537500Y-99758500D01*
D45*
X141478000Y-77978000D02*
X141478000Y-78928500D01*
D44*
X120142000Y-125095000D02*
X119634000Y-125603000D01*
X125349000Y-111506000D02*
X125349000Y-112395000D01*
X154128000Y-77139000D02*
X154128000Y-78155000D01*
X105029000Y-124587000D02*
X105029000Y-123317000D01*
X132080000Y-122047000D02*
X132080000Y-122174000D01*
D43*
X103314000Y-104013000D02*
X105283000Y-104013000D01*
D44*
X118885000Y-122047000D02*
X119761000Y-122047000D01*
X145923000Y-122047000D02*
X145923000Y-120777000D01*
D45*
X167322500Y-77787500D02*
X168910000Y-76200000D01*
D43*
X103195000Y-114499500D02*
X103195000Y-113183127D01*
D44*
X147447000Y-112649000D02*
X146698000Y-112649000D01*
X113919000Y-111125000D02*
X113792000Y-111252000D01*
X119761000Y-122047000D02*
X120142000Y-122428000D01*
X106235500Y-111188500D02*
X106299000Y-111252000D01*
D43*
X130667000Y-117459000D02*
X130302000Y-117094000D01*
D44*
X156324000Y-111265000D02*
X158750000Y-108839000D01*
X153911000Y-56782000D02*
X153911000Y-55880000D01*
D43*
X109537500Y-99758500D02*
X109537500Y-98615500D01*
D44*
X121031000Y-112649000D02*
X120282000Y-112649000D01*
D43*
X118856000Y-117459000D02*
X118491000Y-117094000D01*
D44*
X133350000Y-111379000D02*
X133350000Y-112395000D01*
X155499000Y-78994000D02*
X154305000Y-78994000D01*
X105029000Y-122047000D02*
X105029000Y-121920000D01*
D43*
X144089000Y-114436000D02*
X144089000Y-112832000D01*
D44*
X156337000Y-57658000D02*
X155067000Y-57658000D01*
X144285000Y-122047000D02*
X145923000Y-122047000D01*
D43*
X117856000Y-114436000D02*
X117856000Y-112903000D01*
D44*
X157798000Y-57658000D02*
X156337000Y-57658000D01*
X103172500Y-125600500D02*
X104269500Y-125600500D01*
X145923000Y-118618000D02*
X145923000Y-118364000D01*
D43*
X130667000Y-118736000D02*
X130667000Y-117459000D01*
D44*
X121285000Y-112268000D02*
X121285000Y-112395000D01*
X154305000Y-78994000D02*
X154128000Y-79171000D01*
X130696000Y-122047000D02*
X132080000Y-122047000D01*
X118605500Y-125603000D02*
X118539500Y-125537000D01*
D47*
X107150000Y-98615500D02*
X109537500Y-98615500D01*
D44*
X132080000Y-122174000D02*
X132080000Y-123698000D01*
X147447000Y-111125000D02*
X147701000Y-111379000D01*
D47*
X109537500Y-98615500D02*
X110426500Y-98615500D01*
X107150000Y-85915500D02*
X109537500Y-85915500D01*
D44*
X139700000Y-111125000D02*
X139509500Y-111315500D01*
X145542000Y-125349000D02*
X145796000Y-125095000D01*
X132080000Y-123698000D02*
X132080000Y-124841000D01*
X113792000Y-111252000D02*
X113792000Y-112268000D01*
X104902000Y-124968000D02*
X105029000Y-124841000D01*
X132080000Y-124841000D02*
X132080000Y-125095000D01*
D47*
X109537500Y-85915500D02*
X110426500Y-85915500D01*
D44*
X126352000Y-111125000D02*
X125730000Y-111125000D01*
X103264000Y-120586500D02*
X104838500Y-120586500D01*
X140449000Y-111125000D02*
X139700000Y-111125000D01*
X155702000Y-72136000D02*
X156464000Y-72136000D01*
X120332000Y-111125000D02*
X121031000Y-111125000D01*
X106299000Y-112395000D02*
X106299000Y-112649000D01*
D45*
X136525000Y-109791000D02*
X136588000Y-109791000D01*
D44*
X132080000Y-121031000D02*
X132080000Y-121158000D01*
X145669000Y-120523000D02*
X145923000Y-120777000D01*
X125603000Y-112649000D02*
X126352000Y-112649000D01*
X114668000Y-111125000D02*
X113919000Y-111125000D01*
X125412500Y-112458500D02*
X125603000Y-112649000D01*
D45*
X164592000Y-82042000D02*
X165481000Y-82042000D01*
D44*
X104838500Y-122110500D02*
X105029000Y-121920000D01*
X120142000Y-122428000D02*
X120142000Y-123571000D01*
X156324000Y-114808000D02*
X156324000Y-113284000D01*
X154813000Y-83566000D02*
X155702000Y-83566000D01*
X130696000Y-120523000D02*
X131572000Y-120523000D01*
X147701000Y-111379000D02*
X147701000Y-112395000D01*
X114173000Y-112649000D02*
X114668000Y-112649000D01*
D45*
X166370000Y-78766000D02*
X166370000Y-78740000D01*
D44*
X154128000Y-78155000D02*
X154128000Y-79044000D01*
X154686000Y-57658000D02*
X153911000Y-56883000D01*
X125730000Y-111125000D02*
X125476000Y-111379000D01*
D48*
X91821000Y-114499500D02*
X91821000Y-113288340D01*
D44*
X121031000Y-111125000D02*
X121285000Y-111379000D01*
X145923000Y-119507000D02*
X145923000Y-118618000D01*
X154940000Y-72136000D02*
X155702000Y-72136000D01*
D43*
X103195000Y-113183127D02*
X103049588Y-113037715D01*
D44*
X154128000Y-75184000D02*
X154128000Y-76250000D01*
X145923000Y-124460000D02*
X145923000Y-123317000D01*
X105029000Y-120777000D02*
X105029000Y-120650000D01*
D45*
X138176000Y-111379000D02*
X139446000Y-111379000D01*
D44*
X154128000Y-72136000D02*
X154940000Y-72136000D01*
D47*
X110426500Y-98615500D02*
X111315500Y-98615500D01*
D44*
X133096000Y-111125000D02*
X133350000Y-111379000D01*
X119507000Y-120523000D02*
X120142000Y-121158000D01*
X88265000Y-112395000D02*
X88265000Y-111506000D01*
D43*
X129667000Y-114436000D02*
X129667000Y-112649000D01*
D45*
X136588000Y-109791000D02*
X138176000Y-111379000D01*
D44*
X105029000Y-120650000D02*
X105029000Y-119507000D01*
X120142000Y-123571000D02*
X120142000Y-124841000D01*
X106299000Y-112649000D02*
X106235500Y-112712500D01*
X105600000Y-111188500D02*
X106235500Y-111188500D01*
X88265000Y-111506000D02*
X88582500Y-111188500D01*
X147701000Y-112395000D02*
X147637500Y-112458500D01*
D45*
X167894000Y-53086000D02*
X168910000Y-52070000D01*
D44*
X139700000Y-112649000D02*
X140449000Y-112649000D01*
D43*
X144089000Y-112832000D02*
X144145000Y-112776000D01*
D44*
X132080000Y-121158000D02*
X132080000Y-122047000D01*
X154128000Y-79044000D02*
X154128000Y-79171000D01*
X156324000Y-113284000D02*
X156324000Y-111265000D01*
D45*
X141478000Y-76900500D02*
X141478000Y-77978000D01*
D44*
X131638000Y-125537000D02*
X130350500Y-125537000D01*
X144193500Y-125537000D02*
X145354000Y-125537000D01*
X125476000Y-111379000D02*
X125349000Y-111506000D01*
X133350000Y-112395000D02*
X133286500Y-112458500D01*
X105029000Y-121920000D02*
X105029000Y-120777000D01*
X154128000Y-83566000D02*
X154813000Y-83566000D01*
X104584500Y-125285500D02*
X104902000Y-124968000D01*
D47*
X111315500Y-85915500D02*
X111379000Y-85979000D01*
D44*
X132397000Y-111125000D02*
X133096000Y-111125000D01*
X105029000Y-118618000D02*
X105029000Y-118491000D01*
D43*
X118856000Y-118736000D02*
X118856000Y-117459000D01*
D44*
X145923000Y-124968000D02*
X145923000Y-124460000D01*
X139446000Y-112395000D02*
X139700000Y-112649000D01*
X139509500Y-111315500D02*
X139446000Y-111379000D01*
X88455500Y-112712500D02*
X88265000Y-112522000D01*
X153911000Y-56883000D02*
X153911000Y-56782000D01*
X120142000Y-122301000D02*
X120142000Y-122428000D01*
X119634000Y-125603000D02*
X118605500Y-125603000D01*
X125349000Y-112395000D02*
X125412500Y-112458500D01*
X139446000Y-111379000D02*
X139446000Y-112395000D01*
X121285000Y-111379000D02*
X121285000Y-112268000D01*
X120142000Y-124841000D02*
X120142000Y-125095000D01*
D45*
X166256000Y-53086000D02*
X167894000Y-53086000D01*
D44*
X113919000Y-112395000D02*
X114173000Y-112649000D01*
X118885000Y-120523000D02*
X119507000Y-120523000D01*
D45*
X165925500Y-81597500D02*
X166370000Y-81153000D01*
D44*
X106235500Y-112712500D02*
X105550000Y-112712500D01*
X88582500Y-111188500D02*
X89014000Y-111188500D01*
X145354000Y-125537000D02*
X145542000Y-125349000D01*
D45*
X166695000Y-114625000D02*
X168910000Y-116840000D01*
D43*
X117856000Y-112903000D02*
X117729000Y-112776000D01*
D44*
X105029000Y-124841000D02*
X105029000Y-124587000D01*
D47*
X111315500Y-98615500D02*
X111379000Y-98552000D01*
D45*
X164672500Y-114625000D02*
X166695000Y-114625000D01*
D44*
X113792000Y-112268000D02*
X113919000Y-112395000D01*
X144285000Y-120523000D02*
X145669000Y-120523000D01*
X155067000Y-57658000D02*
X154686000Y-57658000D01*
X89014000Y-112712500D02*
X88455500Y-112712500D01*
X145796000Y-125095000D02*
X145923000Y-124968000D01*
X120142000Y-121158000D02*
X120142000Y-122301000D01*
X105029000Y-123317000D02*
X105029000Y-122047000D01*
X104269500Y-125600500D02*
X104584500Y-125285500D01*
D45*
X165481000Y-82042000D02*
X165925500Y-81597500D01*
D44*
X145923000Y-123317000D02*
X145923000Y-122047000D01*
D45*
X163449000Y-82042000D02*
X164592000Y-82042000D01*
D44*
X145923000Y-120777000D02*
X145923000Y-120523000D01*
X146748000Y-111125000D02*
X147447000Y-111125000D01*
X133286500Y-112458500D02*
X133096000Y-112649000D01*
X154128000Y-79171000D02*
X154128000Y-79933000D01*
X158750000Y-108839000D02*
X158750000Y-107569000D01*
D45*
G04 #@! TO.N,VDDA*
X151892000Y-80518000D02*
X152578000Y-80518000D01*
X162495000Y-53340000D02*
X163576000Y-53340000D01*
D43*
X129413000Y-106426000D02*
X132969000Y-106426000D01*
X131522720Y-110285280D02*
X131522720Y-113333280D01*
D45*
X151384000Y-72390000D02*
X151638000Y-72136000D01*
D44*
X127902000Y-111874000D02*
X127902000Y-112649000D01*
D45*
X163576000Y-53340000D02*
X163830000Y-53086000D01*
X150621000Y-72390000D02*
X151384000Y-72390000D01*
D44*
X128860280Y-113493280D02*
X128860280Y-114681000D01*
D45*
X157861000Y-79756000D02*
X159387000Y-79756000D01*
X151638000Y-72136000D02*
X151765000Y-72136000D01*
D44*
X127902000Y-111125000D02*
X127902000Y-111874000D01*
D45*
X157099000Y-78994000D02*
X157734000Y-79629000D01*
X157734000Y-79629000D02*
X157861000Y-79756000D01*
D43*
X133731000Y-107188000D02*
X133731000Y-108077000D01*
X131522720Y-113333280D02*
X131318000Y-113538000D01*
D45*
X157049000Y-78994000D02*
X157099000Y-78994000D01*
X151765000Y-72136000D02*
X152578000Y-72136000D01*
X151638000Y-80772000D02*
X151892000Y-80518000D01*
D43*
X133731000Y-108077000D02*
X131522720Y-110285280D01*
X132969000Y-106426000D02*
X133731000Y-107188000D01*
X128905000Y-106934000D02*
X129413000Y-106426000D01*
D44*
X128016000Y-112649000D02*
X128860280Y-113493280D01*
D43*
X129167000Y-114436000D02*
X129167000Y-113292000D01*
D45*
X163830000Y-53086000D02*
X164706000Y-53086000D01*
D44*
X127902000Y-112649000D02*
X128016000Y-112649000D01*
D45*
X150621000Y-80772000D02*
X151638000Y-80772000D01*
D43*
X129167000Y-113292000D02*
X128905000Y-113030000D01*
X128905000Y-113030000D02*
X128905000Y-106934000D01*
G04 #@! TO.N,VSSA*
X146812000Y-107950000D02*
X146685000Y-108077000D01*
D45*
X151828500Y-83502500D02*
X152019000Y-83693000D01*
X136525000Y-108141000D02*
X136970000Y-108141000D01*
X152324000Y-74930000D02*
X152578000Y-75184000D01*
D43*
X146050000Y-106045000D02*
X146812000Y-106807000D01*
D45*
X152451000Y-83693000D02*
X152578000Y-83566000D01*
X164337000Y-77216000D02*
X165608000Y-77216000D01*
X150621000Y-83312000D02*
X151638000Y-83312000D01*
D44*
X141999000Y-111125000D02*
X141999000Y-111620000D01*
D45*
X136970000Y-108141000D02*
X138430000Y-109601000D01*
X150621000Y-74930000D02*
X151892000Y-74930000D01*
D43*
X141859000Y-106299000D02*
X142113000Y-106045000D01*
D45*
X151892000Y-74930000D02*
X152324000Y-74930000D01*
D44*
X143120000Y-114436000D02*
X143129000Y-114427000D01*
D43*
X145923000Y-113157000D02*
X145923000Y-113284000D01*
D44*
X141999000Y-113646000D02*
X142789000Y-114436000D01*
D43*
X145923000Y-113284000D02*
X145796000Y-113411000D01*
D45*
X152019000Y-83693000D02*
X152451000Y-83693000D01*
D43*
X145923000Y-108839000D02*
X145923000Y-113157000D01*
X143439000Y-114436000D02*
X143439000Y-109911000D01*
X141732000Y-108204000D02*
X141732000Y-106426000D01*
D44*
X140462000Y-109601000D02*
X139446000Y-109601000D01*
D43*
X143439000Y-109911000D02*
X141732000Y-108204000D01*
X142113000Y-106045000D02*
X145796000Y-106045000D01*
D44*
X141351000Y-109601000D02*
X140462000Y-109601000D01*
D45*
X156210000Y-55880000D02*
X155461000Y-55880000D01*
D44*
X141999000Y-112649000D02*
X141999000Y-113144000D01*
D43*
X145796000Y-106045000D02*
X146050000Y-106045000D01*
D44*
X141999000Y-110477000D02*
X141999000Y-110249000D01*
D45*
X151638000Y-83312000D02*
X151828500Y-83502500D01*
D43*
X146812000Y-106807000D02*
X146812000Y-107950000D01*
D44*
X141999000Y-110249000D02*
X141478000Y-109728000D01*
X141999000Y-112382000D02*
X141999000Y-112649000D01*
X141999000Y-113144000D02*
X141999000Y-113646000D01*
X141478000Y-109728000D02*
X141351000Y-109601000D01*
X141999000Y-111125000D02*
X141999000Y-110477000D01*
D45*
X165608000Y-77216000D02*
X166370000Y-77216000D01*
D44*
X141999000Y-111620000D02*
X141999000Y-112382000D01*
X142789000Y-114436000D02*
X143120000Y-114436000D01*
D45*
X157545000Y-55880000D02*
X156210000Y-55880000D01*
D44*
X139446000Y-109601000D02*
X138430000Y-109601000D01*
D43*
X141732000Y-106426000D02*
X141859000Y-106299000D01*
X146685000Y-108077000D02*
X145923000Y-108839000D01*
D44*
G04 #@! TO.N,/D1*
X91330000Y-48243000D02*
X91313000Y-48260000D01*
X91330000Y-40132000D02*
X91330000Y-48243000D01*
G04 #@! TO.N,/D2*
X94100000Y-48013000D02*
X93853000Y-48260000D01*
X94100000Y-40132000D02*
X94100000Y-48013000D01*
G04 #@! TO.N,/D3*
X96870000Y-47783000D02*
X96393000Y-48260000D01*
X96870000Y-40132000D02*
X96870000Y-47783000D01*
G04 #@! TO.N,/D4*
X99640000Y-40132000D02*
X99640000Y-47553000D01*
X99640000Y-47553000D02*
X98933000Y-48260000D01*
G04 #@! TO.N,/D5*
X102410000Y-47323000D02*
X101473000Y-48260000D01*
X102410000Y-40132000D02*
X102410000Y-47323000D01*
G04 #@! TO.N,/D6*
X105180000Y-40132000D02*
X105180000Y-47093000D01*
X105180000Y-47093000D02*
X104013000Y-48260000D01*
G04 #@! TO.N,/D7*
X107950000Y-46863000D02*
X106553000Y-48260000D01*
X107950000Y-40132000D02*
X107950000Y-46863000D01*
G04 #@! TO.N,/D8*
X110720000Y-46633000D02*
X109093000Y-48260000D01*
X110720000Y-40132000D02*
X110720000Y-46633000D01*
G04 #@! TO.N,/D9*
X113490000Y-40132000D02*
X113490000Y-46403000D01*
X113490000Y-46403000D02*
X111633000Y-48260000D01*
G04 #@! TO.N,/D10*
X116260000Y-46173000D02*
X114173000Y-48260000D01*
X116260000Y-40132000D02*
X116260000Y-46173000D01*
G04 #@! TO.N,/D11*
X119030000Y-40132000D02*
X119030000Y-45943000D01*
X119030000Y-45943000D02*
X116713000Y-48260000D01*
G04 #@! TO.N,/D12*
X121800000Y-40132000D02*
X121800000Y-45713000D01*
X121800000Y-45713000D02*
X119253000Y-48260000D01*
G04 #@! TO.N,/D13*
X124570000Y-40132000D02*
X124570000Y-45483000D01*
X124570000Y-45483000D02*
X121793000Y-48260000D01*
G04 #@! TO.N,Net-(J7-Pad1)*
X123825000Y-129971800D02*
X123825000Y-126365000D01*
X118795800Y-129971800D02*
X123825000Y-129971800D01*
X116664500Y-124587000D02*
X116664500Y-127840500D01*
X123825000Y-126365000D02*
X125603000Y-124587000D01*
X125603000Y-124587000D02*
X128475500Y-124587000D01*
X116664500Y-127840500D02*
X118795800Y-129971800D01*
D45*
G04 #@! TO.N,Net-(P1-Pad1)*
X166560000Y-73660000D02*
X171450000Y-73660000D01*
D47*
G04 #@! TO.N,Net-(R5-Pad1)*
X92140500Y-77025500D02*
X93787500Y-77025500D01*
G04 #@! TO.N,/V+5*
X93510000Y-93825500D02*
X85560000Y-93825500D01*
X93510000Y-83665500D02*
X84228500Y-83665500D01*
X85560000Y-93825500D02*
X82958500Y-93825500D01*
D44*
X90629500Y-124650500D02*
X89535000Y-125745000D01*
D47*
X82958500Y-93825500D02*
X82677000Y-94107000D01*
X84228500Y-83665500D02*
X82677000Y-85217000D01*
X82677000Y-94107000D02*
X82677000Y-123113800D01*
D44*
X89535000Y-125745000D02*
X89535000Y-129971800D01*
D47*
X82677000Y-85217000D02*
X82677000Y-94107000D01*
X82677000Y-123113800D02*
X89535000Y-129971800D01*
D44*
G04 #@! TO.N,/V-5*
X101092000Y-126288800D02*
X101092000Y-124841000D01*
X104775000Y-129971800D02*
X101092000Y-126288800D01*
D47*
G04 #@! TO.N,Net-(K1-Pad1)*
X93510000Y-88165500D02*
X94841500Y-88165500D01*
X97091500Y-85915500D02*
X99860000Y-85915500D01*
X94841500Y-88165500D02*
X97091500Y-85915500D01*
X85560000Y-88165500D02*
X93510000Y-88165500D01*
G04 #@! TO.N,Net-(K1-Pad4)*
X84643500Y-77025500D02*
X81978500Y-77025500D01*
X81619500Y-76666500D02*
X81619500Y-77384500D01*
X81619500Y-78781500D02*
X81619500Y-78825500D01*
X81619500Y-78019500D02*
X81619500Y-78781500D01*
X95567500Y-93535500D02*
X95504000Y-93472000D01*
X81619500Y-78825500D02*
X81661000Y-78867000D01*
X81978500Y-77025500D02*
X81619500Y-76666500D01*
X81619500Y-77384500D02*
X81619500Y-78019500D01*
X81619500Y-73977500D02*
X81619500Y-76495500D01*
X81619500Y-76495500D02*
X81619500Y-76666500D01*
X99860000Y-93535500D02*
X95567500Y-93535500D01*
G04 #@! TO.N,Net-(K1-Pad6)*
X85560000Y-98325500D02*
X93510000Y-98325500D01*
X93510000Y-98325500D02*
X96547500Y-98325500D01*
X99796500Y-98679000D02*
X99860000Y-98615500D01*
X96901000Y-98679000D02*
X99796500Y-98679000D01*
X96547500Y-98325500D02*
X96901000Y-98679000D01*
G04 #@! TO.N,Net-(K1-Pad9)*
X120586500Y-77025500D02*
X120757000Y-77196000D01*
X120757000Y-91841000D02*
X120757000Y-77196000D01*
X117748000Y-77025500D02*
X120586500Y-77025500D01*
X120757000Y-77196000D02*
X120757000Y-73914000D01*
X107150000Y-93535500D02*
X119062500Y-93535500D01*
X119062500Y-93535500D02*
X120757000Y-91841000D01*
G04 #@! TO.N,Net-(R1-Pad1)*
X114832000Y-73914000D02*
X114832000Y-77016500D01*
X114823000Y-77025500D02*
X113161000Y-77025500D01*
X114832000Y-77016500D02*
X114823000Y-77025500D01*
G04 #@! TO.N,Net-(R3-Pad1)*
X110236000Y-77025500D02*
X108589000Y-77025500D01*
G04 #@! TO.N,/Bias+*
X126873000Y-60960000D02*
X129413000Y-60960000D01*
X109347000Y-67056000D02*
X123825000Y-67056000D01*
D44*
X141478000Y-65786000D02*
X138176000Y-62484000D01*
D47*
X105664000Y-70739000D02*
X109347000Y-67056000D01*
D44*
X130937000Y-62484000D02*
X129413000Y-60960000D01*
D47*
X123825000Y-67056000D02*
X126873000Y-64008000D01*
D44*
X138176000Y-62484000D02*
X130937000Y-62484000D01*
X141478000Y-68702000D02*
X141478000Y-65786000D01*
D47*
X126873000Y-64008000D02*
X126873000Y-60960000D01*
X105664000Y-77025500D02*
X105664000Y-70739000D01*
G04 #@! TO.N,/Bias-*
X96901000Y-80518000D02*
X98171000Y-81788000D01*
X96712500Y-80329500D02*
X96901000Y-80518000D01*
X112141000Y-81788000D02*
X117475000Y-87122000D01*
X96712500Y-77025500D02*
X96712500Y-80329500D01*
X110871000Y-81788000D02*
X112141000Y-81788000D01*
X98171000Y-81788000D02*
X110871000Y-81788000D01*
X93853000Y-68072000D02*
X93853000Y-60960000D01*
X93853000Y-60960000D02*
X91313000Y-60960000D01*
X96712500Y-70931500D02*
X93853000Y-68072000D01*
X96712500Y-77025500D02*
X96712500Y-70931500D01*
G04 #@! TO.N,Net-(R6-Pad1)*
X87544500Y-77001500D02*
X87568500Y-77025500D01*
X87544500Y-73977500D02*
X87544500Y-77001500D01*
X87568500Y-77025500D02*
X89215500Y-77025500D01*
D46*
G04 #@! TO.N,Net-(R15-Pad1)*
X103896000Y-111134500D02*
X103896000Y-107632500D01*
X103950000Y-111188500D02*
X103896000Y-111134500D01*
D44*
G04 #@! TO.N,/Vbias+*
X101219000Y-101219000D02*
X102235000Y-100203000D01*
D43*
X94107000Y-106172000D02*
X94615000Y-106680000D01*
D44*
X104965500Y-90995500D02*
X107150000Y-90995500D01*
D43*
X93472000Y-113411000D02*
X93218000Y-113665000D01*
D44*
X90564000Y-111188500D02*
X90564000Y-112712500D01*
X102235000Y-97790000D02*
X100520500Y-96075500D01*
X90564000Y-113297000D02*
X90932000Y-113665000D01*
D43*
X90297000Y-106172000D02*
X94107000Y-106172000D01*
X94615000Y-106680000D02*
X94615000Y-108204000D01*
X89662000Y-108077000D02*
X89662000Y-106807000D01*
D44*
X90932000Y-113665000D02*
X90932000Y-114554000D01*
X100520500Y-96075500D02*
X99860000Y-96075500D01*
D43*
X94615000Y-108204000D02*
X93472000Y-109347000D01*
X91237594Y-109652594D02*
X89662000Y-108077000D01*
D44*
X86360000Y-109474000D02*
X85598000Y-108712000D01*
X101155500Y-96075500D02*
X103886000Y-93345000D01*
D43*
X91321000Y-114499500D02*
X91237594Y-114416094D01*
X89662000Y-106807000D02*
X90297000Y-106172000D01*
D44*
X103886000Y-92075000D02*
X104965500Y-90995500D01*
X99860000Y-96075500D02*
X101155500Y-96075500D01*
X85598000Y-108712000D02*
X85598000Y-104902000D01*
X85598000Y-104902000D02*
X89281000Y-101219000D01*
D43*
X93472000Y-109347000D02*
X93472000Y-113411000D01*
D44*
X103886000Y-93345000D02*
X103886000Y-92075000D01*
X90564000Y-110630000D02*
X89408000Y-109474000D01*
D43*
X91321000Y-114499500D02*
X91313000Y-114491500D01*
X91237594Y-114416094D02*
X91237594Y-109652594D01*
D44*
X102235000Y-100203000D02*
X102235000Y-97790000D01*
X89408000Y-109474000D02*
X86360000Y-109474000D01*
X90564000Y-112712500D02*
X90564000Y-113297000D01*
X89281000Y-101219000D02*
X101219000Y-101219000D01*
X90564000Y-111188500D02*
X90564000Y-110630000D01*
G04 #@! TO.N,Net-(C8-Pad1)*
X101895000Y-118799500D02*
X101895000Y-117516000D01*
X101714000Y-122110500D02*
X101714000Y-120586500D01*
X101714000Y-122796000D02*
X101714000Y-122110500D01*
X102618500Y-123700500D02*
X101714000Y-122796000D01*
D43*
X103845000Y-118799500D02*
X103845000Y-117624500D01*
D44*
X103172500Y-123700500D02*
X102618500Y-123700500D01*
D43*
X103845000Y-117624500D02*
X102870000Y-116649500D01*
D44*
X101895000Y-117516000D02*
X101854000Y-117475000D01*
X102108000Y-119126000D02*
X101727000Y-119126000D01*
X101714000Y-119520000D02*
X102108000Y-119126000D01*
X101714000Y-120586500D02*
X101714000Y-119520000D01*
D46*
G04 #@! TO.N,/Vbias-*
X107232989Y-106026489D02*
X107823000Y-106616500D01*
D44*
X101359000Y-111188500D02*
X101359000Y-110503000D01*
X105600500Y-96075500D02*
X107150000Y-96075500D01*
D46*
X106426000Y-109664500D02*
X105156000Y-109664500D01*
D44*
X99695000Y-105537000D02*
X104648000Y-100584000D01*
D46*
X107823000Y-108267500D02*
X106426000Y-109664500D01*
X102445287Y-114399787D02*
X102445287Y-106666720D01*
X105156000Y-109664500D02*
X104775000Y-110045500D01*
X102545000Y-114499500D02*
X102445287Y-114399787D01*
D44*
X101359000Y-113678000D02*
X102235000Y-114554000D01*
X101359000Y-110503000D02*
X99695000Y-108839000D01*
D46*
X103085518Y-106026489D02*
X107232989Y-106026489D01*
X104775000Y-113220500D02*
X104520520Y-113474980D01*
X102445287Y-106666720D02*
X103085518Y-106026489D01*
X104775000Y-110045500D02*
X104775000Y-113220500D01*
X107823000Y-106616500D02*
X107823000Y-108267500D01*
D44*
X101359000Y-111188500D02*
X101359000Y-112712500D01*
D47*
X95821500Y-90995500D02*
X95758000Y-90932000D01*
D44*
X99695000Y-108839000D02*
X99695000Y-105537000D01*
X104648000Y-97028000D02*
X105600500Y-96075500D01*
D47*
X107213500Y-96139000D02*
X107150000Y-96075500D01*
X109474000Y-96139000D02*
X107213500Y-96139000D01*
D44*
X101359000Y-112712500D02*
X101359000Y-113678000D01*
D47*
X99860000Y-90995500D02*
X95821500Y-90995500D01*
X110363000Y-96139000D02*
X109474000Y-96139000D01*
D44*
X104648000Y-100584000D02*
X104648000Y-97028000D01*
D47*
X111379000Y-96139000D02*
X110363000Y-96139000D01*
D44*
G04 #@! TO.N,Net-(C13-Pad1)*
X117335000Y-118757000D02*
X117356000Y-118736000D01*
X117335000Y-120523000D02*
X117335000Y-118757000D01*
D43*
X116840000Y-117856000D02*
X116856000Y-117872000D01*
X116667578Y-115443000D02*
X116586000Y-115524578D01*
X118856000Y-115205000D02*
X118618000Y-115443000D01*
X118618000Y-115443000D02*
X116667578Y-115443000D01*
X116856000Y-117872000D02*
X116856000Y-118736000D01*
D44*
X117335000Y-123177000D02*
X117795000Y-123637000D01*
D43*
X116794578Y-117856000D02*
X116840000Y-117856000D01*
X116586000Y-117647422D02*
X116794578Y-117856000D01*
X116586000Y-115524578D02*
X116586000Y-117647422D01*
D44*
X117795000Y-123637000D02*
X118539500Y-123637000D01*
X117335000Y-122047000D02*
X117335000Y-123177000D01*
X117335000Y-120523000D02*
X117335000Y-122047000D01*
D43*
X118856000Y-114436000D02*
X118856000Y-115205000D01*
D44*
G04 #@! TO.N,/VDDchip*
X116218000Y-110376000D02*
X115062000Y-109220000D01*
X116218000Y-111125000D02*
X116218000Y-112649000D01*
D43*
X120904000Y-106934000D02*
X120904000Y-107061000D01*
X119507000Y-109474000D02*
X119507000Y-113030000D01*
D44*
X116218000Y-113424000D02*
X117049280Y-114255280D01*
D43*
X119507000Y-113030000D02*
X119507000Y-113157000D01*
D44*
X113030000Y-109220000D02*
X111633000Y-107823000D01*
D47*
X133350000Y-55054000D02*
X133350000Y-56325000D01*
D43*
X120904000Y-107061000D02*
X120904000Y-108077000D01*
X120269000Y-106299000D02*
X120904000Y-106934000D01*
X115697000Y-108077000D02*
X115697000Y-106807000D01*
X117094000Y-109474000D02*
X115697000Y-108077000D01*
D44*
X115062000Y-109220000D02*
X113030000Y-109220000D01*
D43*
X115697000Y-106807000D02*
X116205000Y-106299000D01*
X116205000Y-106299000D02*
X120269000Y-106299000D01*
X120904000Y-108077000D02*
X120015000Y-108966000D01*
X119507000Y-113157000D02*
X119253000Y-113411000D01*
X117356000Y-114436000D02*
X117356000Y-113292000D01*
D44*
X116218000Y-111125000D02*
X116218000Y-110376000D01*
X116218000Y-112649000D02*
X116218000Y-113424000D01*
D43*
X120015000Y-108966000D02*
X119507000Y-109474000D01*
X117094000Y-113030000D02*
X117094000Y-109474000D01*
D44*
X111633000Y-107823000D02*
X111633000Y-103759000D01*
D43*
X117356000Y-113292000D02*
X117094000Y-113030000D01*
G04 #@! TO.N,Net-(C17-Pad1)*
X117983000Y-108585000D02*
X116967000Y-107569000D01*
X117983000Y-111900000D02*
X117983000Y-108585000D01*
X118356000Y-114436000D02*
X118356000Y-113604953D01*
X118732000Y-113228953D02*
X118732000Y-112649000D01*
X118356000Y-113604953D02*
X118732000Y-113228953D01*
X118732000Y-112649000D02*
X117983000Y-111900000D01*
G04 #@! TO.N,Net-(C18-Pad1)*
X130667000Y-115205000D02*
X130429000Y-115443000D01*
X128397000Y-115524578D02*
X128397000Y-117647422D01*
D44*
X129146000Y-122047000D02*
X129146000Y-120523000D01*
D43*
X128651000Y-117856000D02*
X128667000Y-117872000D01*
D44*
X129606000Y-123637000D02*
X129146000Y-123177000D01*
D43*
X128667000Y-117872000D02*
X128667000Y-118736000D01*
X128478578Y-115443000D02*
X128397000Y-115524578D01*
X128605578Y-117856000D02*
X128651000Y-117856000D01*
D44*
X129146000Y-118757000D02*
X129167000Y-118736000D01*
D43*
X130667000Y-114436000D02*
X130667000Y-115205000D01*
D44*
X129146000Y-123177000D02*
X129146000Y-122047000D01*
D43*
X130429000Y-115443000D02*
X128478578Y-115443000D01*
X128397000Y-117647422D02*
X128605578Y-117856000D01*
D44*
X130350500Y-123637000D02*
X129606000Y-123637000D01*
X129146000Y-120523000D02*
X129146000Y-118757000D01*
D45*
G04 #@! TO.N,Net-(C22-Pad1)*
X148971000Y-74168000D02*
X149479000Y-73660000D01*
X150621000Y-73660000D02*
X152578000Y-73660000D01*
X149479000Y-73660000D02*
X150621000Y-73660000D01*
X148971000Y-76454000D02*
X148971000Y-74168000D01*
G04 #@! TO.N,Net-(C22-Pad2)*
X154128000Y-73660000D02*
X158751000Y-73660000D01*
D43*
G04 #@! TO.N,Net-(C23-Pad1)*
X130167000Y-114436000D02*
X130167000Y-113279000D01*
X129921000Y-107696000D02*
X130048000Y-107569000D01*
X130167000Y-113279000D02*
X130797000Y-112649000D01*
X129921000Y-111773000D02*
X129921000Y-107696000D01*
X130797000Y-112649000D02*
X129921000Y-111773000D01*
D44*
G04 #@! TO.N,Net-(C24-Pad1)*
X157874000Y-116954000D02*
X156718000Y-118110000D01*
D45*
X162433000Y-114173000D02*
X162433000Y-116078000D01*
X160447500Y-113325000D02*
X157915000Y-113325000D01*
D44*
X157874000Y-114808000D02*
X157874000Y-116954000D01*
D45*
X161557000Y-116954000D02*
X157874000Y-116954000D01*
X163281000Y-113325000D02*
X162433000Y-114173000D01*
D44*
X154935000Y-108834000D02*
X153670000Y-107569000D01*
X157874000Y-113284000D02*
X157874000Y-114808000D01*
D45*
X162433000Y-116078000D02*
X161557000Y-116954000D01*
X157915000Y-113325000D02*
X157874000Y-113284000D01*
D44*
X156718000Y-118110000D02*
X154935000Y-118110000D01*
X154935000Y-118110000D02*
X154935000Y-108834000D01*
D45*
X164672500Y-113325000D02*
X163281000Y-113325000D01*
D44*
G04 #@! TO.N,Net-(C32-Pad1)*
X142735000Y-122218940D02*
X142748000Y-122231940D01*
X142748000Y-122231940D02*
X142748000Y-122809000D01*
X143120000Y-118736000D02*
X143129000Y-118745000D01*
X143120000Y-118736000D02*
X142789000Y-118736000D01*
X142748000Y-122809000D02*
X143576000Y-123637000D01*
D43*
X144739000Y-118736000D02*
X144739000Y-117262000D01*
D44*
X142735000Y-122047000D02*
X142735000Y-122218940D01*
X142789000Y-117516000D02*
X142748000Y-117475000D01*
X142735000Y-120523000D02*
X142735000Y-118790000D01*
X142735000Y-118790000D02*
X142789000Y-118736000D01*
D43*
X144739000Y-117262000D02*
X144780000Y-117221000D01*
D44*
X143576000Y-123637000D02*
X144193500Y-123637000D01*
X142789000Y-118736000D02*
X142789000Y-117516000D01*
X142735000Y-122047000D02*
X142735000Y-120523000D01*
D45*
G04 #@! TO.N,Net-(C36-Pad1)*
X148971000Y-77978000D02*
X148971000Y-81407000D01*
X150621000Y-82042000D02*
X152578000Y-82042000D01*
X148971000Y-81407000D02*
X149606000Y-82042000D01*
X149606000Y-82042000D02*
X150621000Y-82042000D01*
G04 #@! TO.N,Net-(C36-Pad2)*
X154128000Y-82042000D02*
X158751000Y-82042000D01*
D43*
G04 #@! TO.N,Net-(C37-Pad1)*
X144739000Y-114436000D02*
X144739000Y-113058000D01*
X144739000Y-113058000D02*
X145148000Y-112649000D01*
X142113000Y-106807000D02*
X142494000Y-106426000D01*
X144526000Y-106426000D02*
X145669000Y-107569000D01*
X142494000Y-106426000D02*
X144526000Y-106426000D01*
X142113000Y-107961149D02*
X142113000Y-106807000D01*
X145148000Y-112649000D02*
X144272000Y-111773000D01*
X144272000Y-110120149D02*
X142113000Y-107961149D01*
X144272000Y-111773000D02*
X144272000Y-110120149D01*
D45*
G04 #@! TO.N,/ChipBias1*
X132969000Y-51562000D02*
X137668000Y-51562000D01*
X130302000Y-54229000D02*
X132969000Y-51562000D01*
X137668000Y-51562000D02*
X139700000Y-49530000D01*
X110744000Y-54229000D02*
X130302000Y-54229000D01*
X106553000Y-58420000D02*
X110744000Y-54229000D01*
G04 #@! TO.N,/ChipBias2*
X135001000Y-61214000D02*
X130175000Y-56388000D01*
X139700000Y-59690000D02*
X138176000Y-61214000D01*
X130175000Y-56388000D02*
X113665000Y-56388000D01*
X113665000Y-56388000D02*
X111633000Y-58420000D01*
X138176000Y-61214000D02*
X135001000Y-61214000D01*
G04 #@! TO.N,Net-(R19-Pad2)*
X162814000Y-75712336D02*
X163342336Y-75184000D01*
X163449000Y-73660000D02*
X164084000Y-73660000D01*
X164084000Y-73660000D02*
X164910000Y-73660000D01*
X164211000Y-74803000D02*
X164211000Y-73787000D01*
X164211000Y-73787000D02*
X164084000Y-73660000D01*
X162814000Y-77978000D02*
X162814000Y-75712336D01*
X163342336Y-75184000D02*
X163830000Y-75184000D01*
X163830000Y-75184000D02*
X164211000Y-74803000D01*
X163322000Y-78486000D02*
X162814000Y-77978000D01*
X164337000Y-78486000D02*
X163322000Y-78486000D01*
G04 #@! TO.N,/ChipOut*
X157545000Y-54610000D02*
X151130000Y-54610000D01*
G04 #@! TO.N,Net-(J5-Pad1)*
X166306000Y-54610000D02*
X171450000Y-54610000D01*
G04 #@! TO.N,Net-(J8-Pad2)*
X141478000Y-73975500D02*
X143448500Y-73975500D01*
X143764000Y-73660000D02*
X145671000Y-73660000D01*
X141478000Y-71242000D02*
X141478000Y-73975500D01*
X143448500Y-73975500D02*
X143764000Y-73660000D01*
D44*
G04 #@! TO.N,Net-(J10-Pad2)*
X142318500Y-124587000D02*
X140970000Y-124587000D01*
X139065000Y-126492000D02*
X139065000Y-129971800D01*
X140970000Y-124587000D02*
X139065000Y-126492000D01*
D45*
G04 #@! TO.N,Net-(J11-Pad1)*
X166370000Y-119380000D02*
X171450000Y-119380000D01*
G04 #@! TO.N,Net-(J12-Pad1)*
X143764000Y-82042000D02*
X145671000Y-82042000D01*
X143575500Y-81853500D02*
X143764000Y-82042000D01*
X141478000Y-81853500D02*
X143575500Y-81853500D01*
X141478000Y-84577000D02*
X141478000Y-81853500D01*
G04 #@! TO.N,Net-(R9-Pad1)*
X140525000Y-53404000D02*
X133350000Y-53404000D01*
X142240000Y-49530000D02*
X142240000Y-51689000D01*
X142240000Y-51689000D02*
X140525000Y-53404000D01*
G04 #@! TO.N,Net-(R10-Pad1)*
X140589000Y-58039000D02*
X133414000Y-58039000D01*
X142240000Y-59690000D02*
X140589000Y-58039000D01*
X133414000Y-58039000D02*
X133350000Y-57975000D01*
D43*
G04 #@! TO.N,Net-(R11-Pad2)*
X92583000Y-111124500D02*
X92647000Y-111188500D01*
X93345000Y-107569000D02*
X92583000Y-108331000D01*
X92583000Y-108331000D02*
X92583000Y-111124500D01*
D45*
G04 #@! TO.N,Net-(R12-Pad2)*
X164656000Y-56705000D02*
X164656000Y-54610000D01*
X163703000Y-57658000D02*
X164656000Y-56705000D01*
X162496000Y-57658000D02*
X163703000Y-57658000D01*
X162495000Y-54610000D02*
X164656000Y-54610000D01*
G04 #@! TO.N,Net-(R13-Pad1)*
X159448000Y-57658000D02*
X160846000Y-57658000D01*
X159448000Y-54165000D02*
X159448000Y-57658000D01*
X158623000Y-53340000D02*
X159448000Y-54165000D01*
X157545000Y-53340000D02*
X158623000Y-53340000D01*
D43*
G04 #@! TO.N,Net-(R17-Pad2)*
X118682000Y-111125000D02*
X118872000Y-110935000D01*
X118872000Y-108204000D02*
X119507000Y-107569000D01*
X118872000Y-110935000D02*
X118872000Y-108204000D01*
D45*
G04 #@! TO.N,Net-(R18-Pad2)*
X160274000Y-77216000D02*
X161036000Y-76454000D01*
X161036000Y-73660000D02*
X161799000Y-73660000D01*
X159387000Y-77216000D02*
X160274000Y-77216000D01*
X161036000Y-76454000D02*
X161036000Y-73660000D01*
X160401000Y-73660000D02*
X161036000Y-73660000D01*
D43*
G04 #@! TO.N,Net-(R20-Pad2)*
X130747000Y-111125000D02*
X130747000Y-110299000D01*
X130747000Y-110299000D02*
X132588000Y-108458000D01*
X132588000Y-108458000D02*
X132588000Y-107569000D01*
D45*
G04 #@! TO.N,Net-(R21-Pad1)*
X147321000Y-73153000D02*
X147321000Y-76454000D01*
X146558000Y-72390000D02*
X147321000Y-73153000D01*
X147321000Y-76454000D02*
X145796000Y-76454000D01*
X145796000Y-76454000D02*
X145733000Y-76391000D01*
X145671000Y-72390000D02*
X146558000Y-72390000D01*
G04 #@! TO.N,Net-(R23-Pad1)*
X147321000Y-80009000D02*
X147321000Y-77978000D01*
X145796000Y-77978000D02*
X145733000Y-78041000D01*
X145671000Y-80772000D02*
X146558000Y-80772000D01*
X146558000Y-80772000D02*
X147321000Y-80009000D01*
X147321000Y-77978000D02*
X145796000Y-77978000D01*
G04 #@! TO.N,Net-(R25-Pad1)*
X163195000Y-118745000D02*
X163830000Y-119380000D01*
X164672500Y-113975000D02*
X163799047Y-113975000D01*
X163799047Y-113975000D02*
X163195000Y-114579047D01*
X163195000Y-114579047D02*
X163195000Y-118745000D01*
X163830000Y-119380000D02*
X164720000Y-119380000D01*
G04 #@! TO.N,Net-(R27-Pad1)*
X159387000Y-78486000D02*
X160020000Y-78486000D01*
X160401000Y-82042000D02*
X161163000Y-82042000D01*
X161163000Y-79629000D02*
X161163000Y-82042000D01*
X161163000Y-82042000D02*
X161799000Y-82042000D01*
X160020000Y-78486000D02*
X161163000Y-79629000D01*
D43*
G04 #@! TO.N,Net-(R29-Pad1)*
X145098000Y-111125000D02*
X145098000Y-109538000D01*
X145098000Y-109538000D02*
X143129000Y-107569000D01*
D45*
G04 #@! TO.N,Net-(RV8-Pad1)*
X165948000Y-115275000D02*
X166243000Y-115570000D01*
X164672500Y-115275000D02*
X165948000Y-115275000D01*
G04 #@! TD*
G04 #@! TA.AperFunction,Conductor*
G04 #@! TO.N,GNDA*
G36*
X100288531Y-110636213D02*
G01*
X100325076Y-110686513D01*
X100330000Y-110717600D01*
X100330000Y-124332789D01*
X100325075Y-124363879D01*
X100324096Y-124366891D01*
X100320502Y-124373945D01*
X100305500Y-124468666D01*
X100305500Y-124832334D01*
X100320502Y-124927055D01*
X100324096Y-124934109D01*
X100325075Y-124937121D01*
X100330000Y-124968211D01*
X100330000Y-127762000D01*
X100838000Y-128270000D01*
X101421229Y-128270000D01*
X101480360Y-128289213D01*
X101503091Y-128312127D01*
X102724262Y-130021767D01*
X102743000Y-130080240D01*
X102743000Y-137694400D01*
X102723787Y-137753531D01*
X102673487Y-137790076D01*
X102642400Y-137795000D01*
X91667600Y-137795000D01*
X91608469Y-137775787D01*
X91571924Y-137725487D01*
X91567000Y-137694400D01*
X91567000Y-125517670D01*
X91586213Y-125458539D01*
X91596465Y-125446535D01*
X91791535Y-125251465D01*
X91846933Y-125223239D01*
X91862670Y-125222000D01*
X93091000Y-125222000D01*
X93599000Y-124714000D01*
X93599000Y-123063000D01*
X92515742Y-122581552D01*
X92469511Y-122539980D01*
X92456000Y-122489623D01*
X92456000Y-120056670D01*
X92475213Y-119997539D01*
X92485465Y-119985535D01*
X92710000Y-119761000D01*
X92710000Y-119577777D01*
X92714018Y-119549628D01*
X92715928Y-119543074D01*
X92719182Y-119536096D01*
X92725500Y-119488108D01*
X92725500Y-118110892D01*
X92719182Y-118062904D01*
X92715928Y-118055926D01*
X92714018Y-118049372D01*
X92710000Y-118021223D01*
X92710000Y-117602000D01*
X92612465Y-117504465D01*
X92584239Y-117449067D01*
X92583000Y-117433330D01*
X92583000Y-115963050D01*
X92602213Y-115903919D01*
X92657564Y-115865879D01*
X92686610Y-115858096D01*
X92695169Y-115856198D01*
X92725398Y-115850868D01*
X92725400Y-115850867D01*
X92734062Y-115849340D01*
X92741680Y-115844942D01*
X92747254Y-115842913D01*
X92752629Y-115840406D01*
X92761127Y-115838129D01*
X92767957Y-115833346D01*
X92810113Y-115824000D01*
X93218000Y-115824000D01*
X93218000Y-115250328D01*
X93220017Y-115236206D01*
X93219182Y-115236096D01*
X93225071Y-115191370D01*
X93225071Y-115191363D01*
X93225500Y-115188108D01*
X93225500Y-114334170D01*
X93244713Y-114275039D01*
X93254965Y-114263035D01*
X93853000Y-113665000D01*
X93853000Y-110717600D01*
X93872213Y-110658469D01*
X93922513Y-110621924D01*
X93953600Y-110617000D01*
X100229400Y-110617000D01*
X100288531Y-110636213D01*
G37*
G04 #@! TD.AperFunction*
G04 #@! TD*
M02*
